<svg width="25" height="25" viewBox="0 0 25 25" fill="none" xmlns="http://www.w3.org/2000/svg">
<path d="M7.16715 0.148374C8.41026 -0.139988 9.60293 -0.034057 10.6701 0.697202C11.1224 1.00725 11.5535 1.27276 12.0998 1.42376C12.9986 1.67222 13.384 2.43149 13.5656 3.29193C13.7862 4.33696 13.6424 5.37211 13.4435 6.40228C13.4149 6.55081 13.3954 6.697 13.3947 6.84857C13.3912 7.60826 13.4318 8.36974 13.2277 9.11712C13.0002 9.95003 12.5901 10.6741 11.9865 11.287C11.8777 11.3975 11.8307 11.5042 11.8332 11.6591C11.8421 12.2116 11.8432 12.7649 11.8322 13.3173C11.8291 13.4785 11.8877 13.5314 12.0353 13.5644C12.897 13.7568 13.7574 13.9551 14.6164 14.1591C15.2443 14.3083 15.777 14.6247 16.1886 15.1249C16.2842 15.2409 16.3429 15.2182 16.4494 15.1464C17.4203 14.4923 18.4926 14.1928 19.6642 14.2148C22.1369 14.2613 24.3879 16.2622 24.7795 18.706C25.235 21.5502 23.4085 24.1987 20.714 24.8329C19.2753 25.1716 17.9101 24.9493 16.6457 24.1747C16.5084 24.0907 16.4432 24.0873 16.3283 24.2148C15.9078 24.6812 15.3763 24.9359 14.7453 24.9716C14.6451 24.9773 14.5448 24.9811 14.4445 24.9814C11.8242 24.9882 9.2035 24.9988 6.58317 24.999C5.13508 24.999 3.68559 25.0068 2.23844 24.9648C0.98357 24.9281 0.0243739 23.9032 0.0099253 22.6435C-0.000572928 21.7226 0.00719906 20.8008 0.00699561 19.8798C0.00680096 19.0595 0.0303596 18.2383 0.0021128 17.4189C-0.0493088 15.9274 0.837859 14.4452 2.66813 14.1142C3.52835 13.9586 4.37784 13.7438 5.23356 13.5624C5.3786 13.5317 5.43877 13.48 5.43473 13.3183C5.42204 12.8164 5.42597 12.3136 5.43278 11.8115C5.43442 11.6905 5.39342 11.6133 5.30485 11.5341C4.18806 10.5365 3.6307 9.28016 3.6359 7.789C3.63815 7.15038 3.55803 6.52257 3.50114 5.89056C3.40328 4.80301 3.50592 3.73521 3.9318 2.71966C4.53776 1.27471 5.68013 0.493393 7.16715 0.148374ZM13.5207 14.7177C13.346 14.6699 13.249 14.7062 13.1427 14.8681C12.6388 15.6359 12.1172 16.3921 11.5988 17.1503C11.3907 17.4546 11.1606 17.5013 10.8527 17.3124C10.7461 17.247 10.6328 17.1902 10.5343 17.1142C10.434 17.0367 10.3856 17.0601 10.3254 17.162C10.1174 17.514 9.89959 17.8603 9.68766 18.2099C9.53239 18.4661 9.49701 18.7472 9.56754 19.0312C9.97892 20.6876 10.3995 22.3418 10.8117 23.998C10.8504 24.1537 10.9201 24.2037 11.0841 24.2001C11.6526 24.1879 12.2215 24.1952 12.7902 24.1952C13.334 24.1952 13.8782 24.1938 14.422 24.1962C14.8825 24.1983 15.2915 24.0672 15.6408 23.7568C15.7826 23.6306 15.8128 23.5517 15.6564 23.3876C14.3173 21.9827 13.8167 20.3256 14.2199 18.416C14.423 17.4542 14.8778 16.619 15.5597 15.913C15.691 15.777 15.6871 15.6983 15.5578 15.5742C15.2574 15.286 14.9234 15.0619 14.5148 14.9619C14.1834 14.8807 13.8496 14.8078 13.5207 14.7177ZM3.67985 14.6952C3.40881 14.7738 3.12666 14.8145 2.84879 14.8691C1.48201 15.1374 0.758041 16.0183 0.757972 17.414C0.757932 18.2339 0.757935 19.054 0.757972 19.874C0.757972 20.7609 0.756399 21.6482 0.758949 22.5351C0.761885 23.5138 1.40308 24.1809 2.38004 24.1923C3.52624 24.2057 4.67316 24.193 5.8195 24.1982C5.96075 24.1987 6.01513 24.1596 6.05094 24.0146C6.46417 22.3416 6.88709 20.6711 7.30778 18.9999C7.37879 18.7178 7.33512 18.4535 7.18668 18.206C7.01507 17.92 6.82623 17.6426 6.67203 17.3476C6.56116 17.1356 6.46965 17.1076 6.26871 17.2529C5.90444 17.5163 5.77065 17.4755 5.50797 17.0898C4.99107 16.3308 4.47254 15.5728 3.95914 14.8115C3.88631 14.7034 3.829 14.652 3.67985 14.6952ZM19.467 15.0507C16.942 15.0526 14.8775 17.1021 14.8732 19.6103C14.8689 22.147 16.9126 24.1885 19.4621 24.1943C21.9794 24.1999 24.0585 22.1277 24.0656 19.6064C24.0724 17.1106 21.9913 15.0488 19.467 15.0507ZM8.58024 15.9072C8.49619 15.8539 8.43794 15.8585 8.3566 15.912C8.0085 16.1416 7.65642 16.3657 7.30289 16.5869C7.19775 16.6526 7.20781 16.7089 7.27067 16.8046C7.43083 17.0485 7.56454 17.3103 7.73063 17.5497C8.15598 18.1629 8.21965 18.8146 8.03043 19.5283C7.64009 21.0005 7.28041 22.4809 6.90055 23.956C6.8535 24.1387 6.89168 24.1855 7.07828 24.1806C7.52971 24.1686 7.98201 24.1767 8.43375 24.1767C8.89374 24.1767 9.35389 24.1692 9.81364 24.1796C9.99418 24.1837 10.0156 24.1411 9.97086 23.9667C9.58177 22.4513 9.20977 20.9316 8.82145 19.416C8.65904 18.7821 8.7301 18.1959 9.09 17.6445C9.28136 17.3513 9.45592 17.0471 9.64274 16.7509C9.69974 16.6606 9.71926 16.6012 9.60465 16.5341C9.25917 16.332 8.91837 16.1215 8.58024 15.9072ZM19.4679 15.8867C19.7175 15.8879 19.8654 16.0521 19.8517 16.3642C19.8432 16.5598 19.902 16.6469 20.09 16.7226C20.7547 16.99 21.1089 17.5056 21.1867 18.2128C21.2172 18.4905 21.0804 18.674 20.84 18.7011C20.5939 18.7287 20.4045 18.5554 20.3927 18.2851C20.3695 17.7524 19.9088 17.346 19.4172 17.3808C18.9037 17.4171 18.5063 17.8721 18.5402 18.3857C18.5715 18.8591 18.9748 19.2236 19.4865 19.2411C20.4338 19.2735 21.1966 20.0437 21.1935 20.9658C21.1912 21.6546 20.7477 22.3059 20.0871 22.5546C19.9122 22.6206 19.8312 22.6959 19.8537 22.8896C19.8776 23.0954 19.7751 23.2423 19.5812 23.3193C19.336 23.4166 19.074 23.2571 19.0841 22.9697C19.0936 22.7012 18.9768 22.6137 18.755 22.5136C18.1415 22.2368 17.8152 21.7325 17.7472 21.0663C17.717 20.7702 17.8623 20.5856 18.1134 20.5683C18.3668 20.551 18.5168 20.7068 18.5402 21.0107C18.5787 21.5106 19.0069 21.9116 19.4865 21.8964C19.9738 21.8809 20.3945 21.4554 20.4006 20.9716C20.4066 20.4764 19.9935 20.0589 19.4767 20.038C18.5725 20.0015 17.9007 19.4076 17.755 18.5156C17.6339 17.7735 18.1182 16.9972 18.9084 16.6933C19.0354 16.6444 19.0859 16.588 19.0705 16.4609C19.0665 16.4279 19.0684 16.3937 19.0695 16.3603C19.0801 16.0529 19.2212 15.8857 19.4679 15.8867ZM12.2961 14.4433C11.7182 14.2225 11.1917 14.2471 10.6662 14.6406C10.258 14.9461 9.78018 15.1587 9.30778 15.4277C9.88317 15.777 10.4309 16.1033 10.9699 16.4423C11.0923 16.5193 11.1251 16.4539 11.1779 16.3749C11.4467 15.9732 11.7172 15.5723 11.9865 15.1708C12.1379 14.9451 12.2875 14.718 12.4435 14.4833C12.376 14.4655 12.3346 14.458 12.2961 14.4433ZM4.70035 14.4863C5.13811 15.1378 5.55846 15.7597 5.97282 16.3847C6.03687 16.4812 6.08555 16.5014 6.18766 16.4335C6.68667 16.1015 7.1906 15.7765 7.72379 15.4286C7.07244 15.0426 6.45736 14.6765 5.84098 14.3134C5.79999 14.2893 5.74472 14.2612 5.70328 14.2695C5.37554 14.3354 5.04925 14.4096 4.70035 14.4863ZM11.048 12.0468C9.45332 12.9333 7.85634 12.9772 6.22575 12.1865C6.22575 12.6318 6.22869 13.0416 6.22379 13.4511C6.22259 13.5544 6.25392 13.6135 6.34782 13.6679C7.02592 14.0606 7.70067 14.4598 8.37418 14.8603C8.46179 14.9123 8.53077 14.9186 8.62418 14.8652C9.38399 14.4306 10.1457 13.9994 10.9113 13.5751C11.0265 13.5113 11.0517 13.4356 11.05 13.3163C11.0439 12.9065 11.048 12.4964 11.048 12.0468ZM21.3937 0.0214209C22.2471 -0.00198646 22.7364 0.647469 22.6652 1.29583C22.6506 1.42817 22.6632 1.56424 22.6632 1.69818C22.6634 1.96782 22.7947 2.11886 23.0578 2.1513C23.3063 2.18248 23.5552 2.21263 23.8029 2.24994C24.4766 2.3515 24.9016 2.8925 24.8117 3.56439C24.6075 5.08721 24.3878 6.6086 24.1789 8.1308C24.0029 9.41308 23.8291 10.6959 23.6623 11.9794C23.564 12.7343 22.9549 13.1858 22.2121 13.0761C20.7255 12.8566 19.2354 12.6571 17.7472 12.4482C17.334 12.3902 16.9186 12.3404 16.5089 12.2626C15.9015 12.1472 15.5334 11.6781 15.5627 11.0683C15.5686 10.9435 15.5521 10.912 15.4201 10.8857C14.8785 10.7778 14.5205 10.3366 14.5197 9.7763C14.5157 6.90521 14.5148 4.03411 14.5197 1.16302C14.5208 0.502298 14.9852 0.0416776 15.6681 0.0321631C16.6474 0.0185216 17.6272 0.0282568 18.6066 0.0282568V0.0272803C19.5357 0.0272844 20.4653 0.0468834 21.3937 0.0214209ZM22.8644 2.91302C22.6971 2.8839 22.6574 2.9375 22.6584 3.10248C22.6656 4.22403 22.6623 5.34611 22.6623 6.46771C22.6623 7.54744 22.6627 8.62724 22.6613 9.70697C22.6611 9.82322 22.6659 9.93934 22.633 10.0556C22.4799 10.5963 22.0638 10.905 21.4543 10.9062C19.8304 10.9093 18.206 10.9123 16.5822 10.9033C16.3522 10.9021 16.333 11.0157 16.3625 11.1806C16.3952 11.3632 16.5255 11.4298 16.7023 11.454C17.736 11.5958 18.7689 11.744 19.8019 11.8906C20.645 12.0102 21.4878 12.1329 22.3312 12.2499C22.6829 12.2987 22.8642 12.1765 22.9084 11.8603C22.9983 11.2153 23.0799 10.569 23.1681 9.92376C23.3264 8.76574 23.4867 7.60794 23.6466 6.45013C23.786 5.4412 23.9296 4.43255 24.0627 3.42279C24.0887 3.22513 23.9962 3.08085 23.7814 3.04876C23.4758 3.00313 23.1687 2.96607 22.8644 2.91302ZM10.8263 4.82708C10.7366 4.72018 10.6836 4.6864 10.549 4.78119C9.28287 5.67278 7.87755 5.84565 6.39176 5.54583C6.23585 5.51445 6.12778 5.52891 6.00797 5.63275C5.64775 5.94501 5.29363 6.2679 4.90836 6.54681C4.542 6.81203 4.2851 7.09621 4.42203 7.49603C4.39174 9.17303 4.98852 10.455 6.34098 11.3222C8.41055 12.649 11.175 11.818 12.2209 9.59076C12.612 8.75791 12.6211 7.87877 12.6056 6.99115C12.604 6.89919 12.5357 6.84187 12.4826 6.77923C11.9304 6.12866 11.3747 5.48082 10.8263 4.82708ZM15.7863 0.81439C15.4084 0.814707 15.3087 0.915049 15.3078 1.28802C15.3061 2.01587 15.3068 2.74377 15.3068 3.47162C15.3068 5.53005 15.3068 7.58897 15.3078 9.6474C15.308 10.0177 15.4306 10.1501 15.7843 10.1142C15.995 10.0928 16.1999 10.119 16.4074 10.1191C18.0642 10.1198 19.7213 10.1209 21.3781 10.1201C21.7909 10.1198 21.8701 10.037 21.8703 9.61419C21.8708 8.23354 21.8712 6.85227 21.8713 5.47162C21.8713 4.08269 21.871 2.69355 21.8703 1.30462C21.8701 0.909624 21.7778 0.814667 21.3849 0.81439C19.5189 0.813331 17.6523 0.813144 15.7863 0.81439ZM20.5812 8.72357C20.8747 8.73007 21.0313 8.86845 21.0334 9.11126C21.0352 9.35507 20.8775 9.50351 20.5871 9.5058C19.9182 9.51089 19.2491 9.50677 18.5802 9.50677V9.50482C17.9114 9.50482 17.2421 9.51023 16.5734 9.50189C16.3264 9.49865 16.1803 9.33264 16.1857 9.10541C16.1909 8.88804 16.3315 8.74623 16.5675 8.7265C16.6423 8.72028 16.718 8.72163 16.7931 8.72162C17.7963 8.72136 18.7997 8.72158 19.8029 8.72162C20.0621 8.72163 20.3221 8.71794 20.5812 8.72357ZM18.6603 7.39056C18.9247 7.39283 19.0843 7.55261 19.0861 7.78607C19.0879 8.0294 18.9226 8.18018 18.6418 8.18255C18.2903 8.18544 17.9386 8.18352 17.5871 8.18353C17.2523 8.18354 16.917 8.18576 16.5822 8.18255C16.3108 8.17986 16.1545 8.04174 16.1437 7.80462C16.133 7.56529 16.3029 7.39273 16.5763 7.39056C17.2709 7.38514 17.9657 7.3846 18.6603 7.39056ZM18.6173 1.43744C18.8136 1.43994 18.9678 1.53032 18.9865 1.73626C18.9981 1.866 19.068 1.89994 19.1613 1.94232C19.629 2.15474 19.8709 2.53303 19.9377 3.03021C19.9764 3.31906 19.8387 3.51633 19.592 3.54876C19.3492 3.58056 19.185 3.42391 19.1466 3.12494C19.1056 2.8047 18.9481 2.67573 18.6193 2.69232C18.2331 2.71187 18.0875 2.83061 18.0793 3.13177C18.0709 3.44535 18.2623 3.66059 18.6271 3.68841C19.0914 3.72388 19.4668 3.90241 19.7248 4.29291C20.1634 4.95739 19.9155 5.84967 19.1906 6.21185C19.0719 6.27112 18.9953 6.31417 18.9855 6.47259C18.9719 6.69057 18.8086 6.81536 18.5949 6.8183C18.387 6.82111 18.2386 6.69982 18.2257 6.48529C18.216 6.3241 18.1315 6.27153 18.0041 6.20599C17.5522 5.97358 17.317 5.59124 17.2863 5.17962C17.2832 4.80538 17.4047 4.64693 17.6379 4.62494C17.8803 4.60226 18.0311 4.75163 18.0793 5.06048C18.1231 5.34189 18.3025 5.52847 18.5588 5.56048C18.7789 5.58798 19.0151 5.43582 19.1076 5.20697C19.2263 4.91288 19.0592 4.58736 18.7375 4.50873C18.5764 4.46935 18.4047 4.46955 18.2453 4.42572C17.7216 4.2816 17.3341 3.82767 17.2882 3.3222C17.2336 2.71996 17.5053 2.20881 18.0207 1.95892C18.1285 1.90664 18.2163 1.86507 18.2355 1.72259C18.2636 1.5128 18.4228 1.435 18.6173 1.43744ZM9.75309 1.09662C9.04601 0.792343 8.31284 0.765975 7.56657 0.898374C6.43773 1.09868 5.5072 1.60671 4.90739 2.62396C4.53845 3.24972 4.38427 3.93942 4.33024 4.6513C4.297 5.08922 4.30369 5.53129 4.34489 6.02435C4.84385 5.61593 5.3048 5.2466 5.75602 4.86615C5.93063 4.71892 6.1092 4.66289 6.33219 4.72552C6.75314 4.84371 7.18492 4.87898 7.62125 4.88177C8.65952 4.88841 9.59845 4.60875 10.4025 3.93255C10.745 3.64455 10.8576 3.65326 11.1408 3.98919C11.6678 4.61451 12.196 5.2389 12.7482 5.89251C12.8452 5.46607 12.8647 5.07304 12.8937 4.68158C12.9236 4.27893 12.8882 3.8797 12.8166 3.48333C12.6416 2.51572 12.1796 2.11935 11.2033 2.10833C11.0345 2.10631 10.9223 2.0263 10.8224 1.90521C10.5305 1.55109 10.1755 1.27845 9.75309 1.09662Z" fill="black"/>
</svg>
