<svg width="18" height="18" viewBox="0 0 18 18" fill="none" xmlns="http://www.w3.org/2000/svg">
<path d="M16.9382 18C14.8564 18 12.7994 17.546 10.7675 16.638C8.7356 15.73 6.88688 14.4423 5.22137 12.775C3.55586 11.1077 2.26942 9.25767 1.36205 7.225C0.454684 5.19233 0.000666204 3.134 0 1.05C0 0.75 0.0999306 0.5 0.299792 0.3C0.499653 0.0999999 0.74948 0 1.04927 0H5.09646C5.32963 0 5.53782 0.0793332 5.72103 0.238C5.90423 0.396667 6.01249 0.584 6.0458 0.8L6.69535 4.3C6.72866 4.56667 6.72033 4.79167 6.67037 4.975C6.6204 5.15833 6.5288 5.31667 6.39556 5.45L3.97224 7.9C4.30534 8.51667 4.70074 9.11233 5.15842 9.687C5.6161 10.2617 6.12008 10.816 6.67037 11.35C7.18668 11.8667 7.72797 12.346 8.29424 12.788C8.86051 13.23 9.4601 13.634 10.093 14L12.4414 11.65C12.5913 11.5 12.7871 11.3877 13.029 11.313C13.2708 11.2383 13.508 11.2173 13.7405 11.25L17.1881 11.95C17.4212 12.0167 17.6128 12.1377 17.7627 12.313C17.9126 12.4883 17.9875 12.684 17.9875 12.9V16.95C17.9875 17.25 17.8876 17.5 17.6877 17.7C17.4879 17.9 17.238 18 16.9382 18ZM3.0229 6L4.67176 4.35L4.24705 2H2.02359C2.10687 2.68333 2.22346 3.35833 2.37335 4.025C2.52325 4.69167 2.73976 5.35 3.0229 6ZM11.9667 14.95C12.6162 15.2333 13.2784 15.4583 13.9533 15.625C14.6282 15.7917 15.3067 15.9 15.9889 15.95V13.75L13.6405 13.275L11.9667 14.95Z" fill="white" fill-opacity="0.8"/>
</svg>
