<svg width="25" height="25" viewBox="0 0 25 25" fill="none" xmlns="http://www.w3.org/2000/svg">
<path d="M7.24452 18.2885C7.24452 17.7261 7.24613 17.1637 7.24324 16.6014C7.24262 16.4803 7.23894 16.3418 7.34254 16.2794C7.53799 16.1616 7.52711 15.9802 7.53465 15.8009C7.5611 15.1722 7.57384 14.5426 7.6126 13.9147C7.62501 13.7137 7.5724 13.6394 7.37296 13.6096C6.67901 13.506 5.99972 13.3359 5.33466 13.1105C4.97086 12.9872 4.62122 12.8323 4.27953 12.6563C3.48851 12.2488 3.09018 11.64 3.22757 10.7197C3.3079 10.1816 3.36649 9.64129 3.52269 9.11756C3.61764 8.79918 3.80163 8.66322 4.05973 8.73161C4.29964 8.79518 4.4012 9.03316 4.30702 9.34859C4.14549 9.8896 4.09221 10.4467 4.02818 11.0043C3.98566 11.3747 4.13796 11.6115 4.43187 11.7968C4.82326 12.0436 5.24959 12.21 5.68538 12.3545C6.45544 12.6099 7.24745 12.7714 8.04623 12.9048C8.35863 12.9569 8.46092 13.0792 8.44965 13.3982C8.41972 14.2451 8.38464 15.0919 8.34344 15.9383C8.33622 16.0865 8.36252 16.1377 8.52657 16.138C9.14236 16.1393 9.13204 16.1452 9.21194 15.5331C9.32137 14.6948 9.44422 13.8582 9.57036 13.0223C9.6077 12.7749 9.51879 12.6063 9.32562 12.4631C8.46486 11.8248 7.60807 11.1811 6.74941 10.5399C6.36945 10.2562 6.34541 10.1552 6.54846 9.71765C6.95989 8.83098 7.34531 7.93369 7.57531 6.97942C7.77892 6.13464 7.16619 5.31446 6.28963 5.25902C6.07105 5.2452 5.86321 5.33612 5.66073 5.41098C4.60212 5.80237 3.60102 6.31787 2.60502 6.84403C2.4958 6.90174 2.42566 6.99016 2.3664 7.09343C1.98359 7.76056 1.59881 8.42655 1.21718 9.09435C1.06154 9.36671 1.10214 9.59992 1.31949 9.72516C1.54648 9.85595 1.81154 9.7775 1.95834 9.51853C2.2468 9.00963 2.52976 8.49749 2.80678 7.98226C2.89047 7.82661 2.99771 7.72155 3.16539 7.65628C3.77898 7.41745 4.38739 7.16532 4.99906 6.9215C5.2829 6.80836 5.51603 6.88707 5.60987 7.11927C5.70394 7.35205 5.59172 7.55998 5.29962 7.67946C4.77524 7.89394 4.2519 8.11143 3.72251 8.31287C3.56191 8.37398 3.46298 8.46871 3.38425 8.61627C3.14038 9.07337 2.89481 9.5301 2.63206 9.97642C2.3572 10.4433 1.85089 10.6814 1.3274 10.5822C0.816808 10.4854 0.469961 10.1818 0.337258 9.66737C0.261557 9.3739 0.289167 9.08294 0.441001 8.8162C0.866879 8.06803 1.29683 7.32218 1.72733 6.57666C1.82553 6.40661 1.96186 6.26686 2.13368 6.17441C3.25794 5.56947 4.3922 4.98722 5.6033 4.56832C6.47138 4.26807 7.17654 4.58563 7.8125 5.13736C8.43414 5.67666 8.56316 6.36814 8.37469 7.14881C8.15407 8.06269 7.8036 8.92784 7.41778 9.78012C7.35632 9.91587 7.36302 9.98607 7.49103 10.0797C8.20725 10.6034 8.89828 11.1634 9.63064 11.6629C10.2912 12.1134 10.4977 12.6819 10.3477 13.4565C10.1855 14.2939 10.0922 15.1445 9.96542 15.9888C9.94944 16.0952 9.96862 16.1394 10.0879 16.1356C10.339 16.1275 10.5906 16.1297 10.8419 16.1342C11.1122 16.139 11.2646 16.2848 11.2659 16.5526C11.2698 17.3919 11.2695 18.2313 11.2658 19.0707C11.2647 19.315 11.0843 19.4965 10.8631 19.4954C10.6411 19.4944 10.4653 19.3135 10.4638 19.0674C10.46 18.4211 10.4567 17.7747 10.4665 17.1285C10.4688 16.9714 10.4272 16.9337 10.2728 16.9358C9.59426 16.9448 8.9155 16.9453 8.23704 16.9355C8.07835 16.9331 8.04461 16.9779 8.04579 17.1306C8.05316 18.079 8.04999 19.0275 8.04922 19.976C8.04896 20.3001 7.91063 20.4669 7.64661 20.4668C7.38249 20.4668 7.24528 20.3005 7.24476 19.9756C7.24386 19.4132 7.24451 18.8508 7.24452 18.2885Z" fill="black"/>
<path d="M19.3118 13.5703C19.3118 14.5189 19.3123 15.4675 19.3115 16.4161C19.3113 16.7275 19.1583 16.9207 18.91 16.9154C18.6747 16.9103 18.4996 16.7145 18.5012 16.4173C18.5128 14.3355 18.507 12.2536 18.5077 10.1717C18.5078 9.82111 18.6422 9.68967 18.9917 9.68525C19.2245 9.68231 19.5407 9.76476 19.6682 9.64593C19.8165 9.50774 19.7117 9.18812 19.7121 8.94777C19.7153 6.54689 19.7139 4.14599 19.7142 1.7451C19.7142 1.3452 19.8366 1.22324 20.2377 1.22315C21.637 1.22284 23.0364 1.22511 24.4357 1.22077C24.6438 1.22013 24.8218 1.25414 24.9109 1.46529C25.0039 1.68562 24.904 1.84781 24.7478 1.99861C24.4945 2.24325 24.2557 2.50325 23.9972 2.74207C23.8822 2.84834 23.8943 2.91216 23.9838 3.02648C24.2731 3.39566 24.547 3.77684 24.83 4.151C24.9456 4.30385 24.9901 4.46278 24.8954 4.63993C24.8056 4.80788 24.6563 4.85213 24.4747 4.85164C23.2346 4.84832 21.9944 4.85535 20.7544 4.84449C20.5508 4.8427 20.5132 4.90394 20.5142 5.09309C20.522 6.54534 20.5233 7.99768 20.5131 9.4499C20.5116 9.65497 20.5735 9.69591 20.7619 9.69003C21.1972 9.67644 21.6332 9.68403 22.0689 9.68629C22.385 9.68794 22.5284 9.82975 22.529 10.1454C22.5309 11.094 22.5308 12.0426 22.5289 12.9912C22.5284 13.2602 22.3653 13.445 22.1346 13.4503C21.8958 13.4557 21.7264 13.2648 21.7258 12.9806C21.7241 12.225 21.7204 11.4695 21.729 10.714C21.7309 10.5496 21.7071 10.483 21.5187 10.4866C20.8486 10.4996 20.178 10.4987 19.5079 10.487C19.3327 10.4839 19.3076 10.5454 19.3086 10.6993C19.315 11.6562 19.3118 12.6133 19.3118 13.5703ZM23.5408 2.08499C23.5281 2.06633 23.5154 2.04768 23.5027 2.02902C22.5654 2.02902 21.6281 2.03247 20.6909 2.02546C20.5426 2.02435 20.5137 2.07341 20.5155 2.20975C20.5228 2.75499 20.5262 3.30056 20.514 3.84562C20.5102 4.01733 20.5665 4.04859 20.7236 4.04741C21.6615 4.04036 22.5994 4.04454 23.5373 4.04223C23.5882 4.04211 23.6566 4.07689 23.6915 3.99432C23.4883 3.72101 23.2829 3.44665 23.0796 3.17071C22.8556 2.86669 22.8662 2.72557 23.1398 2.45484C23.269 2.32702 23.4069 2.208 23.5408 2.08499Z" fill="black"/>
<path d="M24.1285 13.5537C23.159 14.5985 22.2187 15.6114 21.2791 16.6248C20.7603 17.1843 20.2372 17.7399 19.7271 18.3073C19.5384 18.5171 19.3451 18.5783 19.0623 18.5177C17.8954 18.2678 16.7231 18.0435 15.5539 17.8043C15.4208 17.7771 15.3351 17.8283 15.2394 17.9051C13.4109 19.3739 11.5748 20.8333 9.75592 22.3138C9.44983 22.563 9.19275 22.6129 8.82678 22.4627C7.97164 22.1116 7.09792 21.8061 6.23511 21.4733C6.09668 21.4199 5.98499 21.4353 5.85632 21.4908C4.13452 22.2328 2.41125 22.9714 0.688263 23.7106C0.396648 23.8357 0.214258 23.8086 0.0813913 23.6221C-0.0866548 23.3861 0.0114224 23.1168 0.321087 22.9825C1.09374 22.6474 1.86738 22.3146 2.64139 21.9827C3.67606 21.539 4.71354 21.1018 5.74474 20.6502C5.94463 20.5626 6.12007 20.5552 6.32067 20.6324C7.18322 20.9643 8.05264 21.2786 8.91136 21.62C9.13393 21.7085 9.26996 21.6525 9.44059 21.5148C11.2662 20.0423 13.0995 18.5794 14.9261 17.1081C15.1131 16.9575 15.2918 16.9222 15.5269 16.9713C16.6941 17.215 17.8651 17.4405 19.0338 17.6775C19.1275 17.6965 19.1887 17.6858 19.2542 17.6149C20.6928 16.0584 22.1333 14.5036 23.6104 12.9085C23.4738 12.9085 23.3784 12.9165 23.2849 12.9069C23.071 12.8848 22.9224 12.71 22.9329 12.4932C22.9437 12.2697 23.0671 12.1185 23.2859 12.1097C23.7208 12.0924 24.1572 12.0959 24.5924 12.1088C24.8022 12.115 24.9392 12.2911 24.9421 12.5238C24.9468 12.9014 24.945 13.2792 24.9429 13.6568C24.9413 13.9412 24.8001 14.1087 24.5599 14.1186C24.3061 14.129 24.1534 13.9665 24.1382 13.6701C24.1369 13.645 24.1341 13.62 24.1285 13.5537Z" fill="black"/>
<path d="M22.5297 20.8998C22.5297 22.0996 22.5302 23.2994 22.5295 24.4992C22.5293 24.8655 22.3973 24.9986 22.0337 24.9988C21.0204 24.9997 20.007 24.9998 18.9937 24.9988C18.6439 24.9984 18.508 24.8633 18.5078 24.515C18.507 22.8705 18.507 21.226 18.5078 19.5814C18.508 19.2784 18.6485 19.1106 18.8995 19.1056C19.1645 19.1003 19.3113 19.2692 19.3115 19.5867C19.3123 21.0466 19.3158 22.5066 19.307 23.9664C19.3058 24.1552 19.3513 24.2019 19.5389 24.1982C20.1918 24.1853 20.8454 24.1853 21.4984 24.1982C21.6861 24.2019 21.7307 24.1549 21.7301 23.9664C21.7227 21.7346 21.7251 19.5027 21.7256 17.2709C21.7256 16.9664 21.8434 16.8065 22.0793 16.7837C22.3497 16.7574 22.528 16.9274 22.5288 17.2248C22.5313 18.0974 22.5297 18.97 22.5297 19.8426C22.5297 20.195 22.5297 20.5474 22.5297 20.8998Z" fill="black"/>
<path d="M16.8985 21.8139C16.8985 22.7119 16.8991 23.6098 16.8982 24.5077C16.8978 24.8594 16.7628 24.9983 16.4189 24.9987C15.397 24.9999 14.3751 24.9999 13.3532 24.9987C13.0182 24.9983 12.877 24.8603 12.8767 24.5309C12.8753 23.2972 12.8755 22.0636 12.8766 20.83C12.8769 20.5224 13.0152 20.3621 13.2743 20.3602C13.532 20.3582 13.6796 20.5225 13.68 20.8223C13.6815 21.8713 13.6866 22.9203 13.6752 23.9692C13.6731 24.1639 13.7287 24.2009 13.9104 24.1977C14.572 24.1862 15.2339 24.1867 15.8955 24.1976C16.0657 24.2004 16.098 24.1466 16.0975 23.9882C16.0919 22.3518 16.0959 20.7154 16.0919 19.0789C16.0913 18.8451 16.1831 18.6881 16.4059 18.6278C16.5999 18.5753 16.7437 18.6645 16.8506 18.8278C16.9111 18.9201 16.8978 19.0208 16.8979 19.1201C16.8989 20.018 16.8985 20.916 16.8985 21.8139Z" fill="black"/>
<path d="M2.45637 17.9211C1.95204 17.8948 1.54519 17.6469 1.33163 17.1461C1.12223 16.6551 1.21217 16.1921 1.57167 15.7957C1.89247 15.442 2.2197 15.0936 2.55563 14.7543C2.74275 14.5653 2.87676 14.3597 2.94428 14.0982C3.02129 13.8 3.12763 13.5092 3.22713 13.2171C3.31999 12.9446 3.52998 12.8295 3.76877 12.9114C3.98623 12.986 4.08463 13.2076 4.00276 13.4703C3.87127 13.8921 3.72815 14.3104 3.59616 14.7321C3.55432 14.8657 3.47288 14.9666 3.38029 15.0646C2.99464 15.4725 2.60929 15.8807 2.22579 16.2907C2.02186 16.5087 1.99535 16.7568 2.15042 16.9424C2.30686 17.1296 2.55921 17.1537 2.8051 16.9919C3.32866 16.6474 3.84646 16.2941 4.37168 15.9522C4.47894 15.8824 4.53162 15.7893 4.57532 15.6794C4.79102 15.1369 5.00665 14.5944 5.22544 14.0531C5.34415 13.7595 5.54948 13.6464 5.783 13.7381C6.01392 13.8288 6.09554 14.0665 5.98351 14.3488C5.7374 14.9689 5.48386 15.5862 5.24082 16.2076C5.18583 16.3482 5.09946 16.4467 4.97656 16.528C4.40491 16.906 3.83445 17.2858 3.26676 17.6698C3.03129 17.829 2.77675 17.9176 2.45637 17.9211Z" fill="black"/>
<path d="M10.4616 2.40846C10.5436 3.63548 9.37679 4.72483 8.13244 4.38557C7.19596 4.13025 6.68252 3.4708 6.49487 2.54459C6.32874 1.72461 6.45676 0.958763 7.17522 0.451934C8.58891 -0.545332 10.067 0.193628 10.4111 1.82866C10.4526 2.02625 10.4741 2.22611 10.4616 2.40846ZM9.65694 2.36239C9.63693 2.01329 9.56319 1.62594 9.31821 1.28589C9.01705 0.867848 8.6204 0.741399 8.13261 0.873733C7.6901 0.993782 7.35608 1.238 7.28252 1.71853C7.18892 2.32992 7.3205 2.88743 7.79499 3.31378C8.07081 3.56162 8.40782 3.69596 8.78554 3.60519C9.33888 3.47221 9.66842 3.01074 9.65694 2.36239Z" fill="black"/>
<path d="M12.876 15.2012C12.876 14.6054 12.8755 14.0095 12.8763 13.4136C12.8767 13.0431 13.0055 12.9102 13.3672 12.9099C14.3808 12.909 15.3944 12.909 16.408 12.9099C16.7595 12.9102 16.8975 13.0447 16.898 13.3897C16.8992 14.2877 16.8994 15.1857 16.8978 16.0837C16.8973 16.3815 16.7466 16.5486 16.4904 16.5456C16.2369 16.5426 16.0949 16.3757 16.0943 16.0726C16.093 15.3509 16.0895 14.6291 16.0975 13.9074C16.0992 13.7566 16.0679 13.7088 15.9074 13.7112C15.2374 13.7215 14.5671 13.7219 13.8971 13.7112C13.7246 13.7084 13.6742 13.747 13.6758 13.9276C13.6854 14.9682 13.6809 16.0089 13.6803 17.0495C13.6801 17.3785 13.5474 17.5447 13.2854 17.5485C13.0148 17.5525 12.8765 17.3814 12.8762 17.0392C12.8756 16.4265 12.876 15.8139 12.876 15.2012Z" fill="black"/>
<path d="M9.98765 10.0888C9.46907 10.1673 8.86476 10.0286 8.27618 9.78884C8.08318 9.71023 7.98186 9.57685 7.99622 9.36408C8.01006 9.15897 8.13683 9.05318 8.3188 8.99527C8.42362 8.96191 8.52465 8.99886 8.61057 9.04027C9.33164 9.38787 10.1011 9.2686 10.8558 9.27771C11.0893 9.28053 11.262 9.09092 11.2641 8.88287C11.2663 8.6639 11.0885 8.48381 10.8371 8.4798C10.3348 8.47177 9.83226 8.478 9.32982 8.47663C9.04969 8.47587 8.50341 8.01635 8.46224 7.7427C8.43576 7.56662 8.51616 7.43023 8.65891 7.33725C8.80724 7.24064 9.00308 7.22543 9.09687 7.36097C9.36314 7.74573 9.7443 7.66722 10.111 7.6702C10.3706 7.67231 10.6303 7.66802 10.8898 7.67129C11.5514 7.6796 12.0718 8.21374 12.0717 8.88133C12.0716 9.54892 11.5503 10.0816 10.888 10.0884C10.6284 10.0911 10.3688 10.0888 9.98765 10.0888Z" fill="black"/>
<path d="M9.24665 24.9992C8.73564 24.9992 8.22463 25.0006 7.71362 24.9987C7.38384 24.9974 7.24636 24.8571 7.24521 24.5225C7.24363 24.0609 7.24323 23.5993 7.24539 23.1377C7.24678 22.8427 7.39897 22.6763 7.65574 22.6808C7.90125 22.6851 8.04617 22.8481 8.04873 23.1303C8.0514 23.424 8.05584 23.718 8.04645 24.0114C8.04212 24.1469 8.07114 24.1986 8.22092 24.1968C8.90776 24.1884 9.59486 24.1865 10.2816 24.1978C10.4513 24.2007 10.4683 24.1368 10.4656 23.9958C10.4575 23.5763 10.4606 23.1565 10.4634 22.7369C10.4653 22.4638 10.6237 22.2869 10.8602 22.284C11.0968 22.2811 11.2649 22.4592 11.2662 22.728C11.2693 23.3407 11.2697 23.9534 11.266 24.566C11.2643 24.8489 11.1148 24.9962 10.8299 24.9981C10.3022 25.0016 9.77442 24.9991 9.24665 24.9992Z" fill="black"/>
<path d="M3.61549 24.9992C3.10458 24.9992 2.59366 25.0006 2.08276 24.9987C1.75272 24.9975 1.61642 24.8573 1.61356 24.5232C1.6127 24.4226 1.61417 24.3218 1.61336 24.2212C1.61151 23.992 1.73891 23.8578 1.94704 23.8128C2.1407 23.7709 2.30392 23.8585 2.37365 24.04C2.42637 24.1773 2.50095 24.1968 2.62847 24.1957C3.29846 24.1901 3.96859 24.1886 4.63854 24.1966C4.78679 24.1983 4.84188 24.1709 4.83569 24.0074C4.82171 23.6388 4.82948 23.2692 4.83192 22.9C4.83371 22.6284 4.99118 22.4462 5.2233 22.4391C5.46328 22.4318 5.63413 22.6213 5.63527 22.905C5.63746 23.4504 5.63766 23.9958 5.63523 24.5412C5.63383 24.8552 5.48987 24.9973 5.17334 24.9986C4.65407 25.0008 4.13477 24.9992 3.61549 24.9992Z" fill="black"/>
<path d="M3.62853 19.3573C4.13935 19.3573 4.65017 19.3563 5.16099 19.3577C5.46154 19.3585 5.63058 19.5009 5.63557 19.7522C5.6408 20.0153 5.46998 20.1729 5.15688 20.173C4.31118 20.1732 3.4654 20.1715 2.61981 20.1595C2.45627 20.1572 2.40493 20.1994 2.41415 20.3652C2.42858 20.6244 2.42164 20.8852 2.41679 21.1452C2.41208 21.3982 2.24908 21.5681 2.01945 21.5706C1.78964 21.5731 1.61771 21.4033 1.61495 21.1532C1.60984 20.6918 1.60941 20.2303 1.61501 19.769C1.61822 19.5045 1.77173 19.3602 2.04581 19.3584C2.57336 19.3548 3.10096 19.3573 3.62853 19.3573Z" fill="black"/>
</svg>
