<svg width="25" height="25" viewBox="0 0 25 25" fill="none" xmlns="http://www.w3.org/2000/svg">
<path d="M5.2229 22.4404C5.46288 22.4331 5.63387 22.6226 5.63501 22.9062C5.6372 23.4515 5.63744 23.9968 5.63501 24.542C5.63361 24.856 5.48962 24.9977 5.1731 24.999C4.65393 25.0012 4.13466 25 3.61548 25C3.10474 25 2.59399 25.0019 2.08325 25C1.75331 24.9988 1.61646 24.8583 1.61353 24.5244C1.61266 24.4237 1.61434 24.3224 1.61353 24.2217C1.61182 23.9928 1.7395 23.8585 1.94751 23.8135C2.14096 23.7718 2.3036 23.8596 2.37329 24.041C2.42596 24.1781 2.50088 24.1973 2.62817 24.1963C3.29817 24.1906 3.96896 24.1893 4.63892 24.1973C4.7868 24.199 4.84225 24.1717 4.83618 24.0088C4.82221 23.6401 4.82984 23.2696 4.83228 22.9004C4.83425 22.6293 4.99118 22.4478 5.2229 22.4404ZM16.4065 18.6289C16.6003 18.5766 16.744 18.6659 16.8508 18.8291C16.911 18.9213 16.8976 19.0219 16.8977 19.1211C16.8986 20.0189 16.8987 20.9167 16.8987 21.8145C16.8987 22.7124 16.8996 23.6108 16.8987 24.5088C16.8983 24.8603 16.7629 24.9996 16.4192 25C15.3974 25.0012 14.3755 25.0012 13.3538 25C13.0189 24.9996 12.8777 24.8614 12.8772 24.5322C12.8759 23.2987 12.8751 22.0646 12.8762 20.8311C12.8765 20.5234 13.0155 20.3633 13.2747 20.3613C13.5322 20.3595 13.6795 20.5236 13.6799 20.8232C13.6814 21.8721 13.6864 22.921 13.675 23.9697C13.6729 24.1644 13.7287 24.2014 13.9104 24.1982C14.5719 24.1867 15.2342 24.1874 15.8958 24.1982C16.0657 24.201 16.0984 24.1475 16.0979 23.9893C16.0923 22.3529 16.0961 20.7164 16.092 19.0801C16.0915 18.8463 16.1837 18.6892 16.4065 18.6289ZM10.8606 22.2832C11.097 22.2804 11.2645 22.4589 11.2659 22.7275C11.2689 23.3401 11.2696 23.9528 11.2659 24.5654C11.2642 24.8482 11.1149 24.9961 10.8303 24.998C10.3026 25.0016 9.7741 24.999 9.24634 24.999C8.73559 24.999 8.22485 25 7.71411 24.998C7.38444 24.9968 7.24659 24.8568 7.24536 24.5225C7.24378 24.061 7.2432 23.5992 7.24536 23.1377C7.24674 22.8428 7.39893 22.6763 7.65552 22.6807C7.90103 22.685 8.04651 22.8477 8.04907 23.1299C8.05174 23.4235 8.05552 23.7174 8.04614 24.0107C8.04181 24.1462 8.0712 24.1981 8.22095 24.1963C8.90772 24.1879 9.59481 24.1859 10.2815 24.1973C10.4512 24.2001 10.4688 24.1361 10.4661 23.9951C10.458 23.5757 10.4603 23.1559 10.4631 22.7363C10.465 22.4633 10.6241 22.2861 10.8606 22.2832ZM22.0793 16.7842C22.3497 16.758 22.5277 16.9283 22.5286 17.2256C22.5311 18.098 22.5295 18.9704 22.5295 19.8428V24.5C22.5293 24.8662 22.397 24.9987 22.0334 24.999C21.0202 24.9998 20.0067 25 18.9934 24.999C18.6439 24.9986 18.5082 24.8638 18.5081 24.5156C18.5072 22.8711 18.5073 21.2265 18.5081 19.582C18.5082 19.279 18.6486 19.1114 18.8997 19.1064C19.1644 19.1012 19.3115 19.2697 19.3118 19.5869C19.3126 21.0468 19.3157 22.507 19.3069 23.9668C19.3057 24.1555 19.3517 24.2029 19.5393 24.1992C20.1921 24.1863 20.8455 24.1863 21.4983 24.1992C21.686 24.2029 21.7304 24.1553 21.7297 23.9668C21.7223 21.735 21.7254 19.5033 21.7258 17.2715C21.7259 16.967 21.8434 16.807 22.0793 16.7842ZM24.592 12.1084C24.8017 12.1146 24.9396 12.2909 24.9426 12.5234C24.9473 12.9011 24.9447 13.2795 24.9426 13.6572C24.941 13.9414 24.7999 14.1093 24.5598 14.1191C24.3061 14.1295 24.1532 13.9663 24.1379 13.6699C24.1366 13.645 24.1338 13.6199 24.1282 13.5537C23.1588 14.5985 22.2191 15.6117 21.2795 16.625C20.7608 17.1845 20.2369 17.7403 19.7268 18.3076C19.5383 18.5171 19.3453 18.578 19.0627 18.5176C17.8959 18.2676 16.7231 18.0439 15.554 17.8047C15.4208 17.7775 15.3352 17.8284 15.2395 17.9053C13.4111 19.3739 11.5749 20.833 9.7561 22.3135C9.45 22.5626 9.19239 22.6132 8.82642 22.4629C7.97153 22.1119 7.09816 21.8063 6.2356 21.4736C6.09722 21.4203 5.98531 21.4358 5.85669 21.4912C4.13497 22.2332 2.41164 22.9718 0.688721 23.7109C0.397106 23.836 0.214165 23.8086 0.0812988 23.6221C-0.0866002 23.3862 0.0119337 23.1167 0.321533 22.9824C1.09406 22.6474 1.86796 22.3143 2.64185 21.9824C3.67623 21.5389 4.71347 21.1019 5.74438 20.6504C5.94425 20.5629 6.11998 20.5556 6.32056 20.6328C7.18309 20.9647 8.05267 21.2787 8.91138 21.6201C9.13395 21.7086 9.27004 21.6523 9.44067 21.5146C11.2662 20.0422 13.0995 18.5796 14.926 17.1084C15.113 16.9578 15.2917 16.9227 15.5266 16.9717C16.6937 17.2153 17.8649 17.4408 19.0334 17.6777C19.127 17.6967 19.1887 17.686 19.2542 17.6152C20.6927 16.0587 22.1335 14.5033 23.6106 12.9082C23.4743 12.9082 23.3788 12.9168 23.2854 12.9072C23.0716 12.8852 22.9224 12.7099 22.9329 12.4932C22.9437 12.2697 23.0676 12.1181 23.2864 12.1094C23.721 12.092 24.1571 12.0956 24.592 12.1084ZM5.16138 19.3574C5.4618 19.3583 5.63099 19.5007 5.63599 19.752C5.64103 20.0147 5.47015 20.1716 5.15747 20.1719C4.31188 20.1722 3.46583 20.1711 2.62036 20.1592C2.45691 20.1569 2.40515 20.1987 2.41431 20.3643C2.42873 20.6235 2.42208 20.8845 2.41724 21.1445C2.41252 21.3975 2.24934 21.5677 2.01978 21.5703C1.78997 21.5728 1.61825 21.4025 1.61548 21.1523C1.61037 20.6911 1.60988 20.2298 1.61548 19.7686C1.61869 19.5041 1.77206 19.3593 2.04614 19.3574C2.57364 19.3538 3.10162 19.3565 3.62915 19.3564C4.13983 19.3564 4.6507 19.356 5.16138 19.3574ZM5.60376 4.56934C6.4717 4.26925 7.17685 4.587 7.81274 5.13867C8.43401 5.67786 8.56356 6.36902 8.37524 7.14941C8.15462 8.0633 7.80403 8.92897 7.41821 9.78125C7.35681 9.91693 7.36349 9.9865 7.49146 10.0801C8.20767 10.6038 8.89875 11.1646 9.6311 11.6641C10.2912 12.1144 10.4977 12.6828 10.3479 13.457C10.1858 14.2942 10.0918 15.145 9.96509 15.9893C9.94911 16.0957 9.96882 16.1405 10.0881 16.1367C10.3392 16.1287 10.5908 16.1303 10.842 16.1348C11.1123 16.1396 11.2646 16.286 11.2659 16.5537C11.2698 17.3929 11.2696 18.2321 11.2659 19.0713C11.2648 19.3155 11.0846 19.497 10.8635 19.4961C10.6416 19.495 10.4657 19.3145 10.4641 19.0684C10.4603 18.4221 10.4563 17.7751 10.4661 17.1289C10.4683 16.9722 10.427 16.9345 10.2727 16.9365C9.5944 16.9456 8.91583 16.9464 8.23755 16.9365C8.07886 16.9342 8.04496 16.9792 8.04614 17.1318C8.05351 18.08 8.04984 19.0283 8.04907 19.9766C8.04881 20.3007 7.91072 20.4678 7.64673 20.4678C7.38265 20.4677 7.24495 20.3014 7.24438 19.9766C7.24349 19.4142 7.24438 18.8514 7.24438 18.2891C7.24439 17.7269 7.24629 17.1647 7.24341 16.6025C7.24279 16.4814 7.23941 16.3427 7.34302 16.2803C7.53819 16.1625 7.52689 15.981 7.53442 15.8018C7.56087 15.173 7.57379 14.543 7.61255 13.915C7.62484 13.7145 7.57238 13.6401 7.37329 13.6104C6.67948 13.5068 6.00012 13.3367 5.33521 13.1113C4.97141 12.988 4.62123 12.8333 4.27954 12.6572C3.48857 12.2497 3.09047 11.6409 3.22778 10.7207C3.30811 10.1827 3.36651 9.64189 3.52271 9.11816C3.61767 8.79993 3.80177 8.66405 4.05981 8.73242C4.29972 8.79599 4.40106 9.03418 4.30688 9.34961C4.14543 9.89046 4.09257 10.4474 4.02856 11.0049C3.98604 11.3753 4.13798 11.6125 4.43188 11.7979C4.82326 12.0446 5.25003 12.2109 5.68579 12.3555C6.45567 12.6108 7.24756 12.7719 8.04614 12.9053C8.35855 12.9574 8.46074 13.0803 8.44946 13.3994C8.41954 14.2462 8.38519 15.0931 8.34399 15.9395C8.33682 16.0875 8.36269 16.1383 8.52661 16.1387C9.14234 16.14 9.13228 16.1461 9.21216 15.5342C9.32158 14.696 9.44443 13.8593 9.57056 13.0234C9.60789 12.776 9.51861 12.6071 9.32544 12.4639C8.46474 11.8256 7.60787 11.1821 6.74927 10.541C6.36944 10.2574 6.34524 10.156 6.5481 9.71875C6.9595 8.83214 7.34543 7.93467 7.57544 6.98047C7.77905 6.13569 7.16586 5.3152 6.28931 5.25977C6.07087 5.24608 5.86275 5.33729 5.6604 5.41211C4.60195 5.80348 3.6006 6.31864 2.60474 6.84473C2.49564 6.90243 2.42567 6.99152 2.36646 7.09473C1.98376 7.76165 1.59855 8.42713 1.21704 9.09473C1.06143 9.36702 1.10237 9.60033 1.31958 9.72559C1.54651 9.85635 1.81143 9.77835 1.95825 9.51953C2.24667 9.0107 2.5299 8.49855 2.80688 7.9834C2.89054 7.82781 2.99771 7.7225 3.16528 7.65723C3.77887 7.4184 4.38759 7.1657 4.99927 6.92188C5.28294 6.80891 5.51578 6.88807 5.60962 7.12012C5.70368 7.35285 5.59202 7.56118 5.30005 7.68066C4.77579 7.8951 4.25217 8.11207 3.7229 8.31348C3.56231 8.37459 3.46276 8.46963 3.38403 8.61719C3.14019 9.07423 2.89479 9.53127 2.63208 9.97754C2.35719 10.4443 1.85079 10.6822 1.32739 10.583C0.816846 10.4862 0.469854 10.1824 0.337158 9.66797C0.261582 9.37475 0.289104 9.08392 0.440674 8.81738C0.866552 8.06921 1.29728 7.32266 1.72778 6.57715C1.82596 6.40729 1.96236 6.26718 2.13403 6.1748C3.25817 5.56995 4.3928 4.98818 5.60376 4.56934ZM3.22681 13.2168C3.31966 12.9443 3.53001 12.8292 3.7688 12.9111C3.98619 12.9857 4.08491 13.2072 4.00317 13.4697C3.8717 13.8915 3.72793 14.3098 3.59595 14.7314C3.55411 14.8651 3.47271 14.9665 3.38013 15.0645C2.9946 15.4723 2.6092 15.8802 2.22583 16.29C2.0219 16.508 1.99556 16.7568 2.15063 16.9424C2.30708 17.1293 2.55918 17.1529 2.80493 16.9912C3.32834 16.6468 3.84627 16.294 4.37134 15.9521C4.4786 15.8823 4.53174 15.7886 4.57544 15.6787C4.79111 15.1363 5.00708 14.5939 5.22583 14.0527C5.34455 13.7592 5.54996 13.6456 5.78345 13.7373C6.01423 13.828 6.09564 14.0664 5.98364 14.3486C5.73756 14.9687 5.4835 15.5857 5.24048 16.207C5.18552 16.3475 5.09958 16.4461 4.97681 16.5273C4.40523 16.9053 3.83447 17.2851 3.26685 17.6689C3.03138 17.8282 2.77668 17.9174 2.4563 17.9209C1.95203 17.8946 1.54484 17.6463 1.3313 17.1455C1.12209 16.6546 1.21212 16.1912 1.57153 15.7949C1.89229 15.4412 2.22001 15.0931 2.55591 14.7539C2.74297 14.565 2.87707 14.3591 2.94458 14.0977C3.02157 13.7996 3.12735 13.5087 3.22681 13.2168ZM16.4084 12.9111C16.7596 12.9115 16.8971 13.046 16.8977 13.3906C16.899 14.2886 16.8993 15.187 16.8977 16.085C16.8972 16.3827 16.7467 16.5499 16.4905 16.5469C16.2372 16.5439 16.0956 16.377 16.095 16.0742C16.0937 15.3526 16.0898 14.6307 16.0979 13.9092C16.0996 13.7584 16.068 13.7104 15.9075 13.7129C15.2377 13.7231 14.5675 13.7236 13.8977 13.7129C13.7252 13.7101 13.6744 13.7483 13.676 13.9287C13.6856 14.9693 13.6815 16.0101 13.6809 17.0508C13.6807 17.3798 13.5474 17.5459 13.2854 17.5498C13.0149 17.5537 12.8765 17.3822 12.8762 17.04V13.415C12.8767 13.0445 13.0057 12.9114 13.3674 12.9111C14.381 12.9103 15.3949 12.9103 16.4084 12.9111ZM24.4358 1.2207C24.6439 1.22006 24.8223 1.2547 24.9114 1.46582C25.0041 1.68592 24.9043 1.84834 24.7483 1.99902C24.495 2.24363 24.2558 2.50339 23.9973 2.74219C23.8824 2.84834 23.8943 2.91228 23.9836 3.02637C24.2729 3.39555 24.5473 3.77721 24.8303 4.15137C24.9458 4.30417 24.9904 4.46354 24.8958 4.64062C24.806 4.80838 24.6563 4.85204 24.4749 4.85156C23.2348 4.84824 21.9942 4.85559 20.7542 4.84473C20.5508 4.84302 20.5129 4.9047 20.5139 5.09375C20.5217 6.54587 20.5232 7.9981 20.5129 9.4502C20.5115 9.65525 20.5736 9.69631 20.762 9.69043C21.1971 9.67684 21.633 9.68426 22.0686 9.68652C22.3846 9.68817 22.5289 9.82999 22.5295 10.1455C22.5314 11.094 22.5304 12.0427 22.5286 12.9912C22.528 13.26 22.3655 13.4447 22.135 13.4502C21.8962 13.4556 21.7265 13.2647 21.7258 12.9805C21.7241 12.2251 21.7202 11.4692 21.7288 10.7139C21.7306 10.5498 21.707 10.4837 21.5188 10.4873C20.8488 10.5003 20.1781 10.499 19.5081 10.4873C19.333 10.4842 19.3079 10.5456 19.3088 10.6992C19.3152 11.6561 19.3118 12.6134 19.3118 13.5703C19.3118 14.5188 19.3125 15.4675 19.3118 16.416C19.3115 16.7273 19.1585 16.9212 18.9104 16.916C18.6751 16.9109 18.4997 16.715 18.5012 16.418C18.5127 14.3361 18.5074 12.2538 18.5081 10.1719C18.5082 9.82147 18.6423 9.69003 18.9915 9.68555C19.2242 9.68261 19.5406 9.76507 19.6682 9.64648C19.8165 9.50833 19.7119 9.18856 19.7122 8.94824C19.7154 6.54735 19.7139 4.14601 19.7141 1.74512C19.7142 1.34552 19.8368 1.22378 20.2375 1.22363C21.6369 1.22332 23.0365 1.22504 24.4358 1.2207ZM8.65942 7.33691C8.8077 7.24058 9.00323 7.22594 9.09692 7.36133C9.36318 7.74586 9.7449 7.66694 10.1116 7.66992C10.371 7.67202 10.6305 7.66764 10.8899 7.6709C11.5515 7.67921 12.0716 8.21425 12.0715 8.88184C12.0712 9.54921 11.5501 10.0821 10.8879 10.0889C10.6284 10.0915 10.3686 10.0889 9.98755 10.0889C9.46912 10.1672 8.86501 10.0287 8.27661 9.78906C8.08365 9.71048 7.98203 9.57695 7.99634 9.36426C8.01017 9.15922 8.13673 9.05304 8.3186 8.99512C8.42337 8.96178 8.52471 8.99865 8.6106 9.04004C9.33162 9.38761 10.101 9.26825 10.8557 9.27734C11.0892 9.28016 11.2618 9.09086 11.2639 8.88281C11.2661 8.66389 11.0885 8.48351 10.8372 8.47949C10.335 8.47147 9.83261 8.47793 9.33032 8.47656C9.05033 8.4758 8.50379 8.01687 8.46216 7.74316C8.43567 7.56708 8.51667 7.42989 8.65942 7.33691ZM7.17505 0.452148C8.58873 -0.545118 10.0673 0.19407 10.4114 1.8291C10.4529 2.02665 10.4747 2.22686 10.4622 2.40918C10.544 3.63592 9.37715 4.72466 8.13306 4.38574C7.19659 4.13043 6.68302 3.47111 6.49536 2.54492C6.32925 1.725 6.45675 0.958979 7.17505 0.452148ZM20.6907 2.02539C20.5427 2.02434 20.5141 2.07375 20.5159 2.20996C20.5231 2.75513 20.5261 3.30071 20.5139 3.8457C20.5101 4.01742 20.5668 4.04903 20.7239 4.04785C21.6617 4.04081 22.5995 4.04527 23.5374 4.04297C23.5883 4.04284 23.6567 4.07671 23.6917 3.99414C23.4885 3.72091 23.2826 3.44676 23.0793 3.1709C22.8556 2.86703 22.8663 2.72574 23.1399 2.45508C23.2691 2.32726 23.4073 2.20796 23.5413 2.08496C23.5286 2.06638 23.5158 2.04787 23.5032 2.0293C22.5659 2.0293 21.6279 2.0324 20.6907 2.02539ZM9.3186 1.28613C9.01749 0.868164 8.62074 0.741798 8.13306 0.874023C7.69057 0.994065 7.35606 1.23828 7.28247 1.71875C7.18887 2.33014 7.32068 2.8881 7.79517 3.31445C8.07088 3.56214 8.40788 3.69608 8.7854 3.60547C9.33875 3.47249 9.66895 3.01065 9.65747 2.3623C9.63742 2.01332 9.56347 1.62604 9.3186 1.28613Z" fill="black"/>
</svg>
