<svg width="16" height="16" viewBox="0 0 16 16" fill="none" xmlns="http://www.w3.org/2000/svg">
<path d="M1.51284 0.0141012C1.61402 0.0313317 1.71179 0.0564157 1.81065 0.083841C1.85301 0.0950833 1.85301 0.0950833 1.89622 0.106553C1.98989 0.131512 2.0834 0.15702 2.17693 0.182532C2.24415 0.200562 2.31139 0.218558 2.37864 0.236521C2.56032 0.285151 2.74186 0.334253 2.92339 0.38344C3.11398 0.434994 3.30469 0.486106 3.4954 0.537253C3.81158 0.622102 4.1277 0.707186 4.44379 0.792406C4.8939 0.913729 5.34426 1.03412 5.79471 1.15421C5.86541 1.17306 5.93611 1.19192 6.00681 1.21078C6.11066 1.23848 6.21452 1.26618 6.31838 1.29387C6.81332 1.42587 7.30824 1.55794 7.80288 1.69107C7.98893 1.74108 8.17513 1.79052 8.36141 1.83966C8.48943 1.87349 8.61737 1.90765 8.74529 1.94186C8.806 1.95802 8.86675 1.97405 8.92754 1.98994C9.01131 2.01185 9.09494 2.03423 9.17855 2.05673C9.21551 2.0662 9.21551 2.0662 9.25321 2.07587C9.39355 2.11424 9.49376 2.15674 9.59945 2.26212C9.62917 2.35125 9.63447 2.40588 9.63422 2.49826C9.63422 2.52701 9.63422 2.55576 9.63421 2.58537C9.63405 2.61631 9.63389 2.64724 9.63373 2.67911C9.63366 2.72673 9.63366 2.72673 9.63359 2.77531C9.63342 2.87679 9.63303 2.97827 9.63263 3.07976C9.63247 3.14852 9.63233 3.21729 9.6322 3.28606C9.63186 3.45471 9.63133 3.62336 9.63068 3.79202C9.65928 3.79808 9.68788 3.80414 9.71734 3.81038C10.1979 3.91395 10.6744 4.03451 11.1514 4.15346C11.2251 4.17184 11.2988 4.1902 11.3725 4.20856C11.6039 4.2662 11.8353 4.32388 12.0666 4.38166C12.3325 4.44805 12.5984 4.51426 12.8643 4.5803C13.071 4.63164 13.2777 4.68315 13.4844 4.73479C13.6074 4.76552 13.7304 4.79618 13.8534 4.82667C13.9688 4.85526 14.0841 4.88405 14.1994 4.91301C14.2416 4.92357 14.2838 4.93406 14.3261 4.94446C14.3839 4.95871 14.4416 4.97326 14.4993 4.98782C14.5315 4.99586 14.5638 5.0039 14.597 5.01219C14.7454 5.05869 14.8509 5.09679 14.9385 5.22825C14.9463 5.30535 14.9463 5.30535 14.9462 5.39923C14.9463 5.43498 14.9464 5.47073 14.9466 5.50756C14.9464 5.54702 14.9462 5.58647 14.946 5.62712C14.946 5.66931 14.9461 5.7115 14.9462 5.7537C14.9463 5.8699 14.9461 5.98609 14.9457 6.10229C14.9455 6.22749 14.9456 6.3527 14.9456 6.47791C14.9456 6.69493 14.9454 6.91194 14.9451 7.12896C14.9446 7.44273 14.9444 7.7565 14.9443 8.07027C14.9442 8.57931 14.9438 9.08835 14.9432 9.59739C14.9426 10.0919 14.9422 10.5865 14.9419 11.0811C14.9419 11.1115 14.9419 11.142 14.9419 11.1734C14.9418 11.3263 14.9417 11.4791 14.9416 11.632C14.941 12.9007 14.9399 14.1693 14.9385 15.438C15.2888 15.438 15.6391 15.438 16.0001 15.438C16.0001 15.6235 16.0001 15.8089 16.0001 16C10.7247 16 5.44937 16 0.0141602 16C0.0141602 15.8145 0.0141602 15.6291 0.0141602 15.438C0.364476 15.438 0.714792 15.438 1.07572 15.438C1.07561 15.3593 1.07549 15.2805 1.07537 15.1994C1.07338 13.8221 1.07153 12.4449 1.07044 11.0676C1.07041 11.0353 1.07041 11.0353 1.07038 11.0023C1.07001 10.534 1.06966 10.0657 1.06935 9.59736C1.06919 9.36771 1.06903 9.13807 1.06886 8.90842C1.06885 8.88556 1.06883 8.86271 1.06881 8.83916C1.06828 8.09801 1.06734 7.35685 1.06619 6.61569C1.06502 5.85426 1.06425 5.09282 1.06399 4.33139C1.06396 4.22391 1.06392 4.11644 1.06387 4.00897C1.06387 3.98782 1.06386 3.96667 1.06385 3.94488C1.0637 3.60395 1.06312 3.26303 1.06238 2.92211C1.06165 2.57962 1.06138 2.23714 1.06155 1.89466C1.06163 1.70898 1.0615 1.52332 1.06084 1.33765C1.06023 1.16785 1.0602 0.998074 1.06062 0.828284C1.06068 0.766677 1.06052 0.70507 1.06013 0.643465C1.05963 0.56006 1.05989 0.476692 1.06036 0.393289C1.05986 0.356963 1.05986 0.356963 1.05936 0.319904C1.06075 0.210005 1.06719 0.150178 1.13475 0.061568C1.25256 -0.0233391 1.37364 -0.000300289 1.51284 0.0141012ZM1.63773 0.669773C1.63773 5.54329 1.63773 10.4168 1.63773 15.438C2.06017 15.438 2.48261 15.438 2.91785 15.438C2.9183 15.349 2.91876 15.2599 2.91923 15.1682C2.9208 14.8741 2.92288 14.58 2.92521 14.2859C2.92661 14.1076 2.92783 13.9292 2.92867 13.7509C2.92948 13.5788 2.93074 13.4068 2.93231 13.2347C2.93283 13.169 2.93319 13.1033 2.93339 13.0377C2.93369 12.9457 2.93456 12.8538 2.93557 12.7619C2.93553 12.7347 2.93548 12.7075 2.93544 12.6795C2.93771 12.5331 2.94712 12.4343 3.04274 12.3157C3.12556 12.2743 3.18836 12.2802 3.28114 12.2797C3.31857 12.2795 3.356 12.2792 3.39456 12.2789C3.43626 12.2788 3.47795 12.2786 3.51965 12.2785C3.56339 12.2783 3.60714 12.278 3.65088 12.2777C3.79474 12.2769 3.93861 12.2764 4.08247 12.276C4.13197 12.2758 4.18147 12.2757 4.23097 12.2755C4.43686 12.2748 4.64275 12.2742 4.84864 12.2739C5.14383 12.2734 5.43901 12.2723 5.7342 12.2706C5.94169 12.2693 6.14917 12.2687 6.35666 12.2686C6.48063 12.2685 6.60457 12.2681 6.72853 12.2671C6.84517 12.2661 6.96178 12.2659 7.07842 12.2663C7.14159 12.2663 7.20476 12.2655 7.26792 12.2648C7.53959 12.2666 7.53959 12.2666 7.67343 12.3454C7.74657 12.4776 7.74816 12.5845 7.7467 12.7335C7.74702 12.7628 7.74735 12.792 7.74769 12.8222C7.74859 12.9186 7.74839 13.0151 7.74818 13.1116C7.74859 13.1785 7.74907 13.2455 7.74961 13.3125C7.75086 13.4886 7.75118 13.6647 7.7513 13.8408C7.75164 14.0522 7.75314 14.2636 7.75444 14.475C7.75628 14.796 7.75667 15.117 7.75733 15.438C8.19007 15.438 8.62282 15.438 9.06867 15.438C9.06867 11.2136 9.06867 6.9892 9.06867 2.63679C8.87712 2.57294 8.68817 2.51401 8.49341 2.46275C8.46517 2.45524 8.43694 2.44773 8.40785 2.44C8.31413 2.4151 8.22038 2.39032 8.12663 2.36554C8.05931 2.34768 7.99198 2.3298 7.92466 2.31192C7.78038 2.27361 7.6361 2.23536 7.4918 2.19715C7.14719 2.10589 6.80265 2.01436 6.45811 1.92287C6.33909 1.89126 6.22007 1.85967 6.10104 1.82808C5.30948 1.61794 4.51824 1.40655 3.72708 1.19489C3.62471 1.1675 3.52233 1.14012 3.41996 1.11273C2.80872 0.94924 2.80872 0.94924 2.59744 0.892681C2.54642 0.879034 2.4954 0.865407 2.44437 0.851802C2.32719 0.820547 2.2101 0.789007 2.0932 0.756726C2.07167 0.750832 2.05013 0.744938 2.02795 0.738865C1.97047 0.723118 1.91304 0.707215 1.85561 0.6913C1.75825 0.665078 1.75825 0.665078 1.63773 0.669773ZM9.63068 4.38524C9.63068 8.03265 9.63068 11.6801 9.63068 15.438C9.97069 15.438 10.3107 15.438 10.661 15.438C10.6611 15.363 10.6613 15.288 10.6614 15.2107C10.6619 14.9629 10.6633 14.7152 10.6651 14.4674C10.6662 14.3172 10.667 14.167 10.6671 14.0168C10.6673 13.8718 10.6681 13.7269 10.6696 13.5819C10.67 13.5266 10.6701 13.4713 10.67 13.416C10.6698 13.3385 10.6706 13.2611 10.6717 13.1837C10.6714 13.1608 10.6711 13.1379 10.6708 13.1143C10.6733 13.0032 10.6847 12.949 10.7574 12.8635C10.8706 12.8035 10.9476 12.7995 11.0757 12.7991C11.1092 12.7988 11.1092 12.7988 11.1433 12.7985C11.2167 12.7979 11.2901 12.7983 11.3635 12.7987C11.4147 12.7986 11.4659 12.7985 11.5171 12.7984C11.6243 12.7982 11.7315 12.7984 11.8387 12.799C11.9759 12.7997 12.1131 12.7993 12.2503 12.7986C12.356 12.7981 12.4617 12.7983 12.5674 12.7986C12.618 12.7987 12.6686 12.7986 12.7192 12.7983C12.79 12.798 12.8607 12.7985 12.9315 12.7991C12.9717 12.7992 13.0119 12.7993 13.0534 12.7994C13.1806 12.8186 13.2315 12.842 13.3149 12.9402C13.3308 13.0276 13.3365 13.0963 13.3355 13.1837C13.3358 13.208 13.3362 13.2324 13.3365 13.2575C13.3374 13.338 13.3372 13.4184 13.337 13.4988C13.3374 13.5546 13.3379 13.6104 13.3384 13.6663C13.3397 13.8131 13.34 13.9598 13.3401 14.1067C13.3404 14.2565 13.3416 14.4064 13.3427 14.5562C13.3447 14.8501 13.3456 15.1441 13.3461 15.438C13.6862 15.438 14.0262 15.438 14.3765 15.438C14.3765 12.1821 14.3765 8.92624 14.3765 5.5717C14.1375 5.492 14.1375 5.492 13.8964 5.42528C13.8594 5.41596 13.8223 5.40663 13.7842 5.39703C13.7445 5.38715 13.7047 5.37726 13.6638 5.36708C13.6209 5.35631 13.5779 5.34553 13.535 5.33474C13.4191 5.30568 13.3033 5.27676 13.1874 5.24787C13.0659 5.21756 12.9445 5.18714 12.823 5.15674C12.6193 5.10577 12.4156 5.0549 12.2119 5.00408C11.9763 4.94531 11.7408 4.88638 11.5052 4.82737C11.3027 4.77664 11.1002 4.726 10.8977 4.67543C10.7769 4.64525 10.656 4.61505 10.5352 4.58476C10.4218 4.55634 10.3083 4.52803 10.1949 4.49981C10.1532 4.48942 10.1116 4.479 10.0699 4.46854C10.0132 4.45429 9.95644 4.44019 9.89966 4.4261C9.86788 4.41816 9.8361 4.41023 9.80335 4.40205C9.72254 4.382 9.72254 4.382 9.63068 4.38524ZM3.47985 12.8153C3.47985 13.6808 3.47985 14.5463 3.47985 15.438C4.00533 15.438 4.5308 15.438 5.0722 15.438C5.0722 14.5725 5.0722 13.707 5.0722 12.8153C4.54672 12.8153 4.02125 12.8153 3.47985 12.8153ZM5.6342 12.8153C5.6342 13.6808 5.6342 14.5463 5.6342 15.438C6.14937 15.438 6.66454 15.438 7.19533 15.438C7.19533 14.5725 7.19533 13.707 7.19533 12.8153C6.68015 12.8153 6.16498 12.8153 5.6342 12.8153ZM11.223 13.3461C11.223 14.0364 11.223 14.7267 11.223 15.438C11.7382 15.438 12.2534 15.438 12.7841 15.438C12.7841 14.7477 12.7841 14.0573 12.7841 13.3461C12.269 13.3461 11.7538 13.3461 11.223 13.3461Z" fill="#A0A0A0"/>
<path d="M3.70123 7.43964C3.73783 7.43949 3.73783 7.43949 3.77517 7.43933C3.82669 7.43917 3.8782 7.4391 3.92972 7.4391C4.00831 7.43903 4.08689 7.43847 4.16548 7.43787C4.21563 7.43778 4.26577 7.43772 4.31592 7.43769C4.33931 7.43747 4.3627 7.43724 4.3868 7.43701C4.5462 7.4377 4.66223 7.44953 4.78451 7.55576C4.84325 7.67421 4.83642 7.78845 4.83597 7.91896C4.83613 7.94682 4.8363 7.97469 4.83647 8.0034C4.83667 8.06227 4.83662 8.12113 4.83636 8.17999C4.83609 8.26991 4.83699 8.35977 4.83798 8.44968C4.83803 8.50694 4.83801 8.5642 4.83792 8.62146C4.83845 8.66167 4.83845 8.66167 4.83898 8.70268C4.83753 8.82794 4.83166 8.89669 4.76682 9.00663C4.63398 9.12518 4.4912 9.10467 4.32007 9.10492C4.28347 9.10508 4.28347 9.10508 4.24612 9.10524C4.19461 9.10539 4.14309 9.10547 4.09158 9.10546C4.01299 9.10553 3.93441 9.1061 3.85582 9.10669C3.80567 9.10678 3.75552 9.10684 3.70538 9.10687C3.68199 9.1071 3.6586 9.10732 3.6345 9.10755C3.4751 9.10686 3.35907 9.09503 3.23679 8.98881C3.17804 8.87036 3.18488 8.75611 3.18533 8.62561C3.18516 8.59774 3.185 8.56988 3.18483 8.54116C3.18463 8.4823 3.18467 8.42343 3.18494 8.36457C3.1852 8.27465 3.18431 8.1848 3.18331 8.09489C3.18326 8.03763 3.18328 7.98036 3.18337 7.9231C3.18302 7.8963 3.18267 7.8695 3.18231 7.84188C3.18377 7.71663 3.18963 7.64787 3.25447 7.53794C3.38731 7.41939 3.5301 7.4399 3.70123 7.43964ZM3.76087 8.00689C3.76087 8.18205 3.76087 8.35721 3.76087 8.53767C3.92572 8.53767 4.09058 8.53767 4.26043 8.53767C4.26043 8.36252 4.26043 8.18736 4.26043 8.00689C4.09557 8.00689 3.93072 8.00689 3.76087 8.00689Z" fill="#A0A0A0"/>
<path d="M6.35814 7.43691C6.39468 7.43682 6.39468 7.43682 6.43195 7.43673C6.48328 7.43668 6.53461 7.4368 6.58594 7.43706C6.66426 7.43739 6.74255 7.43706 6.82087 7.43666C6.87087 7.43671 6.92088 7.43679 6.97088 7.43691C6.99417 7.43678 7.01746 7.43665 7.04146 7.43652C7.19402 7.43789 7.31244 7.4506 7.43292 7.54852C7.48721 7.61459 7.4883 7.64848 7.48891 7.73321C7.48931 7.75968 7.4897 7.78615 7.49011 7.81342C7.49002 7.84191 7.48993 7.8704 7.48983 7.89976C7.49 7.92913 7.49016 7.9585 7.49033 7.98876C7.49053 8.05088 7.49049 8.113 7.49022 8.17513C7.48996 8.27018 7.49086 8.36518 7.49185 8.46024C7.4919 8.52059 7.49188 8.58094 7.49179 8.64129C7.49231 8.68393 7.49231 8.68393 7.49285 8.72744C7.49068 8.92403 7.49068 8.92403 7.41874 9.02328C7.28627 9.11277 7.15638 9.10549 7.00247 9.10633C6.96487 9.1066 6.96487 9.1066 6.92652 9.10687C6.87348 9.10717 6.82044 9.10737 6.7674 9.10749C6.6866 9.10779 6.60584 9.10876 6.52505 9.10975C6.47344 9.10995 6.42183 9.11012 6.37022 9.11024C6.34621 9.11062 6.3222 9.11101 6.29746 9.1114C6.14805 9.11079 6.04311 9.09179 5.91517 9.00632C5.82303 8.89484 5.84318 8.74619 5.84334 8.60836C5.8432 8.58188 5.84307 8.5554 5.84293 8.52812C5.84275 8.47219 5.84274 8.41627 5.84287 8.36034C5.84297 8.27496 5.84224 8.18961 5.84145 8.10423C5.84138 8.04981 5.84135 7.9954 5.84139 7.94098C5.8411 7.91554 5.84081 7.8901 5.84052 7.8639C5.84167 7.72106 5.84891 7.62039 5.9464 7.50765C6.07569 7.43064 6.21169 7.43611 6.35814 7.43691ZM6.41473 8.00721C6.41473 8.18236 6.41473 8.35752 6.41473 8.53799C6.57959 8.53799 6.74444 8.53799 6.91429 8.53799C6.91429 8.36283 6.91429 8.18767 6.91429 8.00721C6.74944 8.00721 6.58458 8.00721 6.41473 8.00721Z" fill="#A0A0A0"/>
<path d="M3.65157 3.1782C3.68009 3.17805 3.7086 3.1779 3.73798 3.17775C3.79813 3.17765 3.85828 3.17793 3.91843 3.17858C4.01035 3.17942 4.10215 3.17859 4.19406 3.17759C4.2526 3.1777 4.31115 3.1779 4.36969 3.1782C4.39708 3.17789 4.42446 3.17757 4.45268 3.17725C4.58209 3.17972 4.65048 3.18884 4.7616 3.25975C4.84612 3.39219 4.84493 3.49741 4.84315 3.65166C4.8433 3.68018 4.84345 3.70869 4.8436 3.73807C4.84371 3.79822 4.84342 3.85837 4.84277 3.91852C4.84193 4.01044 4.84276 4.10224 4.84376 4.19415C4.84365 4.2527 4.84345 4.31124 4.84315 4.36978C4.84346 4.39717 4.84378 4.42456 4.8441 4.45278C4.84163 4.58218 4.83251 4.65057 4.7616 4.76169C4.62916 4.84621 4.52394 4.84502 4.36969 4.84324C4.34117 4.84339 4.31266 4.84354 4.28328 4.84369C4.22313 4.8438 4.16298 4.84351 4.10283 4.84286C4.01091 4.84202 3.91911 4.84285 3.8272 4.84385C3.76866 4.84375 3.71011 4.84355 3.65157 4.84324C3.62418 4.84355 3.59679 4.84387 3.56858 4.8442C3.43917 4.84172 3.37078 4.8326 3.25966 4.76169C3.17514 4.62925 3.17633 4.52403 3.17811 4.36978C3.17796 4.34126 3.17781 4.31275 3.17766 4.28337C3.17755 4.22322 3.17784 4.16307 3.17849 4.10293C3.17933 4.01101 3.1785 3.91921 3.1775 3.82729C3.17761 3.76875 3.17781 3.7102 3.17811 3.65166C3.1778 3.62427 3.17748 3.59689 3.17715 3.56867C3.17963 3.43926 3.18875 3.37087 3.25966 3.25975C3.3921 3.17523 3.49732 3.17642 3.65157 3.1782ZM3.76085 3.76094C3.76085 3.9258 3.76085 4.09065 3.76085 4.2605C3.9257 4.2605 4.09056 4.2605 4.26041 4.2605C4.26041 4.09565 4.26041 3.93079 4.26041 3.76094C4.09555 3.76094 3.9307 3.76094 3.76085 3.76094Z" fill="#A0A0A0"/>
<path d="M3.65154 9.57859C3.68005 9.57844 3.70857 9.5783 3.73795 9.57814C3.7981 9.57804 3.85825 9.57832 3.91839 9.57898C4.01031 9.57981 4.10211 9.57898 4.19403 9.57798C4.25257 9.57809 4.31111 9.57829 4.36965 9.57859C4.39704 9.57828 4.42443 9.57796 4.45265 9.57764C4.58237 9.58012 4.65042 9.58915 4.76164 9.66057C4.84532 9.79128 4.84438 9.89292 4.84202 10.0452C4.84209 10.073 4.84217 10.1009 4.84224 10.1295C4.84221 10.1882 4.8418 10.2469 4.84102 10.3056C4.83995 10.3952 4.84037 10.4848 4.84098 10.5744C4.84076 10.6315 4.84046 10.6887 4.84006 10.7458C4.84022 10.7725 4.84037 10.7992 4.84053 10.8267C4.83803 10.9541 4.8324 11.0197 4.76273 11.1298C4.64048 11.2458 4.52172 11.2289 4.36124 11.2303C4.33398 11.2306 4.30672 11.2308 4.27863 11.2311C4.22086 11.2315 4.16309 11.2319 4.10532 11.2321C4.01712 11.2326 3.92896 11.234 3.84076 11.2354C3.78464 11.2357 3.72852 11.236 3.67239 11.2362C3.64608 11.2367 3.61976 11.2373 3.59265 11.2378C3.46554 11.2374 3.40215 11.233 3.29215 11.1635C3.13423 10.997 3.18925 10.7107 3.18788 10.4925C3.18736 10.4319 3.18651 10.3713 3.18532 10.3107C3.18361 10.2233 3.18293 10.1359 3.18247 10.0485C3.18176 10.0215 3.18105 9.99452 3.18032 9.9667C3.18078 9.83762 3.18866 9.77138 3.25935 9.66036C3.39197 9.57567 3.49705 9.57681 3.65154 9.57859ZM3.76082 10.1613C3.76082 10.3262 3.76082 10.491 3.76082 10.6609C3.92567 10.6609 4.09053 10.6609 4.26038 10.6609C4.26038 10.496 4.26038 10.3312 4.26038 10.1613C4.09552 10.1613 3.93067 10.1613 3.76082 10.1613Z" fill="#A0A0A0"/>
<path d="M12.714 7.98631C12.7433 7.98616 12.7726 7.98601 12.8027 7.98586C12.8645 7.98575 12.9262 7.98604 12.988 7.98669C13.0825 7.98753 13.1769 7.9867 13.2714 7.9857C13.3315 7.9858 13.3916 7.986 13.4516 7.98631C13.4799 7.98599 13.5081 7.98568 13.5372 7.98535C13.6628 7.9877 13.7303 7.99054 13.8322 8.06779C13.8946 8.20086 13.8949 8.31548 13.8935 8.46087C13.8936 8.48946 13.8938 8.51805 13.8939 8.5475C13.894 8.60778 13.8937 8.66806 13.8932 8.72834C13.8925 8.82059 13.8932 8.91276 13.894 9.005C13.8939 9.06365 13.8938 9.12229 13.8935 9.18093C13.8938 9.20848 13.894 9.23603 13.8943 9.26442C13.8914 9.45474 13.8914 9.45474 13.8193 9.55334C13.6852 9.64516 13.5515 9.63612 13.3952 9.63695C13.3564 9.63722 13.3564 9.63722 13.3169 9.63749C13.2623 9.63779 13.2076 9.63799 13.153 9.63811C13.0696 9.63841 12.9862 9.63938 12.9028 9.64037C12.8497 9.64057 12.7965 9.64074 12.7434 9.64086C12.7186 9.64124 12.6937 9.64163 12.6681 9.64202C12.5249 9.64145 12.4319 9.62991 12.3158 9.53694C12.253 9.44272 12.2454 9.42338 12.2438 9.31761C12.2433 9.29249 12.2428 9.26737 12.2423 9.24149C12.2421 9.21447 12.2419 9.18744 12.2418 9.15959C12.2415 9.13168 12.2412 9.10377 12.2409 9.07501C12.2405 9.01596 12.2402 8.95691 12.2401 8.89786C12.2397 8.80766 12.2382 8.71753 12.2366 8.62735C12.2363 8.56994 12.2361 8.51254 12.2359 8.45513C12.2353 8.42823 12.2347 8.40133 12.2341 8.37361C12.235 8.24526 12.2435 8.1787 12.3135 8.06815C12.4482 7.98239 12.5572 7.98455 12.714 7.98631ZM12.8154 8.56905C12.8154 8.7339 12.8154 8.89876 12.8154 9.06861C12.9802 9.06861 13.1451 9.06861 13.3149 9.06861C13.3149 8.90375 13.3149 8.7389 13.3149 8.56905C13.1501 8.56905 12.9852 8.56905 12.8154 8.56905Z" fill="#A0A0A0"/>
<path d="M3.65999 5.31464C3.68725 5.31439 3.71452 5.31414 3.7426 5.31388C3.80037 5.31344 3.85814 5.31311 3.91591 5.31286C4.00411 5.31233 4.09227 5.31096 4.18047 5.30958C4.23659 5.30926 4.29271 5.309 4.34884 5.30879C4.37515 5.30824 4.40147 5.30769 4.42858 5.30713C4.55569 5.3076 4.61909 5.31197 4.72908 5.38145C4.887 5.54802 4.83198 5.83432 4.83335 6.05248C4.83387 6.11307 4.83472 6.17367 4.83591 6.23426C4.83762 6.32167 4.8383 6.40903 4.83876 6.49646C4.83947 6.52346 4.84018 6.55046 4.84091 6.57827C4.84045 6.70735 4.83257 6.77359 4.76188 6.88461C4.62926 6.96931 4.52418 6.96816 4.36969 6.96638C4.34118 6.96653 4.31266 6.96668 4.28328 6.96683C4.22313 6.96694 4.16298 6.96665 4.10284 6.966C4.01092 6.96516 3.91912 6.96599 3.8272 6.96699C3.76866 6.96689 3.71012 6.96669 3.65158 6.96638C3.62419 6.9667 3.5968 6.96701 3.56858 6.96734C3.43886 6.96486 3.37081 6.95583 3.2596 6.88441C3.17591 6.7537 3.17685 6.65205 3.17921 6.49975C3.17914 6.47193 3.17906 6.44411 3.17899 6.41544C3.17902 6.35676 3.17943 6.29808 3.18021 6.23941C3.18128 6.14976 3.18086 6.06021 3.18025 5.97056C3.18047 5.91344 3.18077 5.85632 3.18117 5.7992C3.18101 5.77249 3.18086 5.74579 3.1807 5.71827C3.1832 5.59087 3.18883 5.52524 3.2585 5.4152C3.38075 5.29921 3.49951 5.31604 3.65999 5.31464ZM3.76085 5.88408C3.76085 6.04894 3.76085 6.21379 3.76085 6.38364C3.92571 6.38364 4.09056 6.38364 4.26041 6.38364C4.26041 6.21879 4.26041 6.05393 4.26041 5.88408C4.09556 5.88408 3.9307 5.88408 3.76085 5.88408Z" fill="#A0A0A0"/>
<path d="M12.538 10.1206C12.5638 10.1201 12.5895 10.1196 12.616 10.119C12.6576 10.1188 12.6576 10.1188 12.7 10.1185C12.7286 10.1183 12.7572 10.118 12.7867 10.1177C12.8472 10.1172 12.9077 10.117 12.9683 10.1168C13.0607 10.1165 13.1531 10.1149 13.2456 10.1134C13.3044 10.1131 13.3632 10.1128 13.422 10.1127C13.4496 10.1121 13.4772 10.1115 13.5056 10.1108C13.6359 10.1118 13.7043 10.1196 13.8163 10.1907C13.9007 10.3237 13.8989 10.4293 13.8966 10.584C13.8967 10.6125 13.8967 10.6411 13.8968 10.6706C13.8968 10.7309 13.8964 10.7911 13.8956 10.8514C13.8945 10.9437 13.895 11.0358 13.8956 11.1281C13.8953 11.1867 13.895 11.2454 13.8946 11.304C13.8948 11.3316 13.895 11.3591 13.8951 11.3875C13.8914 11.5784 13.8914 11.5784 13.8173 11.6764C13.6871 11.7684 13.5706 11.7598 13.4158 11.7611C13.3886 11.7614 13.3613 11.7616 13.3332 11.7619C13.2754 11.7623 13.2177 11.7627 13.1599 11.7629C13.0717 11.7634 12.9835 11.7648 12.8953 11.7662C12.8392 11.7665 12.7831 11.7668 12.727 11.767C12.7007 11.7675 12.6743 11.7681 12.6472 11.7686C12.5201 11.7682 12.4567 11.7638 12.3467 11.6943C12.2301 11.5713 12.2484 11.4528 12.2481 11.2915C12.248 11.2505 12.248 11.2505 12.2478 11.2086C12.2477 11.1507 12.2476 11.0928 12.2476 11.0349C12.2475 10.9464 12.247 10.8579 12.2464 10.7693C12.2463 10.7131 12.2462 10.6569 12.2462 10.6007C12.246 10.5742 12.2457 10.5477 12.2455 10.5204C12.2457 10.4832 12.2457 10.4832 12.2458 10.4453C12.2458 10.4236 12.2457 10.4019 12.2457 10.3795C12.255 10.3047 12.2758 10.2564 12.3158 10.1926C12.4108 10.1293 12.431 10.1221 12.538 10.1206ZM12.8154 10.6921C12.8154 10.857 12.8154 11.0218 12.8154 11.1917C12.9802 11.1917 13.1451 11.1917 13.315 11.1917C13.315 11.0268 13.315 10.862 13.315 10.6921C13.1501 10.6921 12.9852 10.6921 12.8154 10.6921Z" fill="#A0A0A0"/>
<path d="M10.584 10.1106C10.6126 10.1105 10.6412 10.1104 10.6707 10.1104C10.731 10.1104 10.7912 10.1108 10.8515 10.1116C10.9438 10.1127 11.0359 10.1122 11.1282 10.1116C11.1868 10.1118 11.2455 10.1121 11.3041 10.1125C11.3454 10.1123 11.3454 10.1123 11.3876 10.1121C11.5785 10.1157 11.5785 10.1157 11.6765 10.1899C11.7685 10.3201 11.7599 10.4365 11.7612 10.5914C11.7615 10.6186 11.7617 10.6459 11.762 10.674C11.7624 10.7317 11.7628 10.7895 11.763 10.8473C11.7635 10.9355 11.7649 11.0236 11.7663 11.1118C11.7666 11.168 11.7669 11.2241 11.7671 11.2802C11.7676 11.3065 11.7682 11.3328 11.7687 11.36C11.7683 11.4871 11.7639 11.5505 11.6944 11.6605C11.5714 11.7771 11.4529 11.7588 11.2915 11.759C11.2505 11.7592 11.2505 11.7592 11.2087 11.7594C11.1508 11.7595 11.0929 11.7596 11.035 11.7596C10.9465 11.7596 10.858 11.7602 10.7694 11.7608C10.7132 11.7609 10.657 11.761 10.6008 11.761C10.5743 11.7612 10.5478 11.7614 10.5205 11.7617C10.4957 11.7616 10.4709 11.7615 10.4454 11.7614C10.4237 11.7614 10.4019 11.7615 10.3796 11.7615C10.3047 11.7522 10.2565 11.7314 10.1927 11.6913C10.1294 11.5964 10.1222 11.5761 10.1207 11.4691C10.1202 11.4434 10.1197 11.4177 10.1191 11.3911C10.119 11.3634 10.1188 11.3357 10.1186 11.3072C10.1184 11.2786 10.1181 11.25 10.1178 11.2205C10.1173 11.16 10.117 11.0994 10.1169 11.0389C10.1166 10.9465 10.115 10.8541 10.1135 10.7616C10.1132 10.7028 10.1129 10.644 10.1128 10.5851C10.1122 10.5576 10.1116 10.53 10.1109 10.5016C10.1119 10.3713 10.1197 10.3029 10.1908 10.1908C10.3238 10.1065 10.4294 10.1083 10.584 10.1106ZM10.6922 10.6922C10.6922 10.8571 10.6922 11.0219 10.6922 11.1918C10.8571 11.1918 11.0219 11.1918 11.1918 11.1918C11.1918 11.0269 11.1918 10.8621 11.1918 10.6922C11.0269 10.6922 10.8621 10.6922 10.6922 10.6922Z" fill="#A0A0A0"/>
<path d="M6.3055 9.57689C6.33402 9.57686 6.36253 9.57683 6.39191 9.5768C6.45206 9.57694 6.51222 9.57755 6.57236 9.57858C6.66427 9.58006 6.75607 9.57987 6.84799 9.57945C6.90654 9.5798 6.96508 9.58025 7.02362 9.58079C7.05101 9.58074 7.0784 9.58068 7.10662 9.58062C7.22576 9.58338 7.30668 9.59321 7.4156 9.64435C7.50799 9.7662 7.49816 9.87683 7.49598 10.026C7.49606 10.0553 7.49613 10.0846 7.49621 10.1148C7.49618 10.1768 7.49576 10.2387 7.49498 10.3006C7.49391 10.3954 7.49434 10.4901 7.49494 10.5849C7.49473 10.6451 7.49443 10.7053 7.49403 10.7655C7.49418 10.7939 7.49434 10.8222 7.4945 10.8514C7.49083 11.0478 7.49083 11.0478 7.4167 11.1464C7.28619 11.2375 7.16988 11.2292 7.0152 11.2306C6.98794 11.2308 6.96068 11.2311 6.93259 11.2313C6.87482 11.2318 6.81706 11.2321 6.75929 11.2324C6.67109 11.2329 6.58292 11.2343 6.49473 11.2356C6.43861 11.236 6.38248 11.2362 6.32636 11.2364C6.30004 11.237 6.27373 11.2375 6.24661 11.2381C6.12084 11.2376 6.05578 11.2327 5.94612 11.1657C5.79157 10.9979 5.84328 10.7044 5.84185 10.4876C5.84133 10.4304 5.84048 10.3733 5.83929 10.3161C5.83757 10.2335 5.83689 10.1509 5.83643 10.0683C5.83573 10.0429 5.83502 10.0175 5.83429 9.99139C5.83474 9.87047 5.84416 9.77861 5.91332 9.67708C6.0451 9.57021 6.1404 9.57342 6.3055 9.57689ZM6.41478 10.1616C6.41478 10.3264 6.41478 10.4913 6.41478 10.6611C6.57964 10.6611 6.74449 10.6611 6.91434 10.6611C6.91434 10.4963 6.91434 10.3314 6.91434 10.1616C6.74949 10.1616 6.58463 10.1616 6.41478 10.1616Z" fill="#A0A0A0"/>
<path d="M12.9889 5.84154C13.046 5.84102 13.1032 5.84017 13.1603 5.83898C13.243 5.83727 13.3255 5.83659 13.4082 5.83613C13.4462 5.83507 13.4462 5.83507 13.4851 5.83398C13.606 5.83443 13.6978 5.84383 13.7993 5.91301C13.9062 6.04466 13.9035 6.14015 13.9007 6.3052C13.9008 6.33371 13.9009 6.36223 13.901 6.39161C13.901 6.45176 13.9005 6.51191 13.8996 6.57205C13.8984 6.66398 13.899 6.75576 13.8998 6.84769C13.8995 6.90623 13.8992 6.96477 13.8987 7.02331C13.899 7.0644 13.899 7.0644 13.8994 7.10631C13.8964 7.23558 13.8868 7.30433 13.8161 7.41536C13.6831 7.50002 13.5777 7.49746 13.4231 7.49458C13.3945 7.49458 13.3659 7.49458 13.3364 7.49458C13.2762 7.49442 13.2159 7.49387 13.1556 7.49296C13.0634 7.49165 12.9712 7.49168 12.8789 7.4919C12.8203 7.49157 12.7616 7.49116 12.703 7.49068C12.6755 7.49067 12.6479 7.49066 12.6195 7.49066C12.4301 7.487 12.4301 7.487 12.3306 7.43415C12.2249 7.3153 12.2472 7.16161 12.2459 7.01185C12.2456 6.98463 12.2454 6.95741 12.2451 6.92937C12.2447 6.87179 12.2444 6.81421 12.2441 6.75663C12.2436 6.6687 12.2422 6.58081 12.2408 6.4929C12.2405 6.43692 12.2402 6.38094 12.24 6.32496C12.2392 6.28563 12.2392 6.28563 12.2384 6.24551C12.2388 6.11999 12.2438 6.05531 12.3107 5.94588C12.4785 5.79123 12.7721 5.84298 12.9889 5.84154ZM12.8153 6.41448C12.8153 6.57933 12.8153 6.74419 12.8153 6.91404C12.9802 6.91404 13.145 6.91404 13.3149 6.91404C13.3149 6.74918 13.3149 6.58433 13.3149 6.41448C13.15 6.41448 12.9852 6.41448 12.8153 6.41448Z" fill="#A0A0A0"/>
<path d="M10.5967 5.83396C10.6231 5.83396 10.6495 5.83396 10.6767 5.83396C10.7322 5.83413 10.7878 5.83467 10.8433 5.83558C10.9282 5.83689 11.013 5.83686 11.0978 5.83665C11.1519 5.83698 11.2061 5.83738 11.2602 5.83787C11.2981 5.83788 11.2981 5.83788 11.3367 5.83789C11.4799 5.84088 11.5752 5.85338 11.6913 5.94617C11.7731 6.06886 11.7633 6.17429 11.7632 6.31669C11.7633 6.34391 11.7634 6.37113 11.7636 6.39917C11.7638 6.45675 11.7638 6.51433 11.7636 6.57192C11.7635 6.65984 11.7643 6.74773 11.7651 6.83564C11.7651 6.89163 11.7652 6.94761 11.7651 7.00359C11.7654 7.02981 11.7657 7.05602 11.766 7.08304C11.7648 7.22908 11.7554 7.32643 11.6601 7.44485C11.59 7.47989 11.5505 7.48072 11.4727 7.48209C11.4469 7.48259 11.4212 7.4831 11.3947 7.48361C11.2769 7.485 11.1591 7.48628 11.0413 7.487C10.9791 7.48752 10.917 7.48837 10.8549 7.48956C10.7654 7.49127 10.6758 7.49196 10.5862 7.49241C10.5585 7.49312 10.5309 7.49383 10.5023 7.49456C10.3717 7.49411 10.3033 7.48684 10.1909 7.41553C10.1068 7.28302 10.1072 7.17753 10.1084 7.02334C10.1082 6.99483 10.1079 6.96631 10.1077 6.93693C10.1075 6.87679 10.1076 6.81664 10.1081 6.75649C10.1087 6.66456 10.1075 6.57278 10.1061 6.48085C10.1061 6.42231 10.1062 6.36377 10.1064 6.30523C10.1059 6.27784 10.1055 6.25045 10.105 6.22223C10.1077 6.08186 10.1167 6.0252 10.2079 5.91318C10.3306 5.82959 10.4524 5.83103 10.5967 5.83396ZM10.6922 6.41451C10.6922 6.57936 10.6922 6.74422 10.6922 6.91407C10.8571 6.91407 11.0219 6.91407 11.1918 6.91407C11.1918 6.74921 11.1918 6.58436 11.1918 6.41451C11.0269 6.41451 10.8621 6.41451 10.6922 6.41451Z" fill="#A0A0A0"/>
<path d="M6.34435 5.31239C6.37083 5.31226 6.39731 5.31213 6.4246 5.31199C6.48052 5.31181 6.53645 5.31179 6.59237 5.31193C6.67776 5.31203 6.76311 5.31129 6.84849 5.3105C6.9029 5.31043 6.95732 5.31041 7.01173 5.31044C7.03717 5.31015 7.06261 5.30987 7.08882 5.30957C7.23307 5.31074 7.32786 5.3219 7.44507 5.41545C7.48052 5.48637 7.48096 5.52743 7.48231 5.60625C7.48281 5.63272 7.48331 5.65919 7.48383 5.68646C7.48522 5.80743 7.4865 5.92838 7.48722 6.04935C7.48774 6.11319 7.48859 6.17703 7.48978 6.24086C7.49149 6.33284 7.49217 6.42478 7.49263 6.51677C7.49334 6.5453 7.49405 6.57383 7.49478 6.60322C7.49435 6.72988 7.49337 6.79775 7.41582 6.90085C7.28258 6.96285 7.16786 6.96328 7.02247 6.96194C6.97958 6.96212 6.97958 6.96212 6.93583 6.9623C6.87555 6.96239 6.81527 6.96216 6.75499 6.96163C6.66275 6.96096 6.57057 6.96163 6.47833 6.96243C6.41969 6.96234 6.36104 6.96218 6.3024 6.96194C6.27485 6.96219 6.2473 6.96244 6.21891 6.9627C6.02793 6.95978 6.02793 6.95978 5.92999 6.88577C5.83917 6.75695 5.84717 6.64411 5.84638 6.49104C5.8462 6.46447 5.84602 6.4379 5.84584 6.41053C5.84555 6.35423 5.84534 6.29793 5.84522 6.24163C5.84492 6.1557 5.84395 6.06979 5.84296 5.98386C5.84276 5.92916 5.8426 5.87446 5.84248 5.81976C5.84209 5.79412 5.84171 5.76849 5.84131 5.74208C5.84187 5.59787 5.84991 5.49946 5.94639 5.38423C6.06064 5.29415 6.20548 5.31224 6.34435 5.31239ZM6.41473 5.88379C6.41473 6.04864 6.41473 6.2135 6.41473 6.38335C6.57958 6.38335 6.74444 6.38335 6.91429 6.38335C6.91429 6.21849 6.91429 6.05364 6.91429 5.88379C6.74943 5.88379 6.58458 5.88379 6.41473 5.88379Z" fill="#A0A0A0"/>
<path d="M10.5566 7.98856C10.5859 7.98856 10.6152 7.98856 10.6454 7.98856C10.7074 7.98873 10.7693 7.98928 10.8312 7.99018C10.926 7.99149 11.0207 7.99146 11.1155 7.99125C11.1757 7.99157 11.2359 7.99198 11.2962 7.99247C11.3245 7.99247 11.3528 7.99248 11.382 7.99248C11.5769 7.99614 11.5769 7.99614 11.677 8.049C11.7819 8.16827 11.7599 8.3216 11.7612 8.47129C11.7615 8.49851 11.7617 8.52573 11.762 8.55377C11.7624 8.61135 11.7627 8.66893 11.763 8.72651C11.7635 8.81444 11.7649 8.90233 11.7663 8.99024C11.7666 9.04622 11.7668 9.1022 11.7671 9.15819C11.7676 9.1844 11.7681 9.21062 11.7687 9.23764C11.7682 9.36315 11.7632 9.42783 11.6963 9.53726C11.571 9.65282 11.4332 9.63615 11.272 9.63701C11.2333 9.63728 11.2333 9.63728 11.1937 9.63755C11.1391 9.63784 11.0844 9.63805 11.0298 9.63817C10.9464 9.63847 10.863 9.63944 10.7796 9.64043C10.7265 9.64063 10.6734 9.64079 10.6202 9.64091C10.5954 9.6413 10.5705 9.64168 10.5449 9.64208C10.4017 9.64151 10.3087 9.62997 10.1926 9.537C10.1297 9.44259 10.1223 9.42361 10.1211 9.31767C10.1207 9.29255 10.1203 9.26743 10.1199 9.24155C10.1198 9.21452 10.1198 9.1875 10.1197 9.15965C10.1195 9.13174 10.1193 9.10383 10.1191 9.07507C10.1188 9.01602 10.1186 8.95697 10.1186 8.89792C10.1185 8.80773 10.1174 8.71758 10.1162 8.6274C10.116 8.57 10.1159 8.5126 10.1158 8.45519C10.1154 8.42829 10.1149 8.40139 10.1144 8.37367C10.1153 8.25508 10.1239 8.17664 10.1747 8.06807C10.2968 7.97545 10.4071 7.98586 10.5566 7.98856ZM10.6922 8.56911C10.6922 8.73396 10.6922 8.89881 10.6922 9.06866C10.8571 9.06866 11.0219 9.06866 11.1918 9.06866C11.1918 8.90381 11.1918 8.73896 11.1918 8.56911C11.0269 8.56911 10.862 8.56911 10.6922 8.56911Z" fill="#A0A0A0"/>
<path d="M6.16572 3.18941C6.19084 3.18891 6.21596 3.18841 6.24184 3.1879C6.28238 3.18765 6.28238 3.18765 6.32374 3.18739C6.36561 3.18697 6.36561 3.18697 6.40832 3.18654C6.46737 3.18608 6.52642 3.18581 6.58547 3.18569C6.67567 3.18532 6.7658 3.18378 6.85599 3.18221C6.91339 3.18191 6.97079 3.18168 7.0282 3.18154C7.06855 3.18062 7.06855 3.18062 7.10972 3.17969C7.23841 3.18065 7.30456 3.18901 7.41519 3.25958C7.5 3.39215 7.49881 3.4972 7.49702 3.6517C7.49717 3.68022 7.49732 3.70873 7.49748 3.73811C7.49758 3.79826 7.4973 3.85841 7.49664 3.91856C7.49581 4.01048 7.49663 4.10228 7.49763 4.19419C7.49753 4.25273 7.49733 4.31128 7.49702 4.36982C7.49734 4.39721 7.49766 4.4246 7.49798 4.45281C7.4955 4.58253 7.48647 4.65058 7.41505 4.7618C7.28434 4.84549 7.18269 4.84454 7.03039 4.84218C7.00257 4.84226 6.97475 4.84233 6.94608 4.84241C6.8874 4.84238 6.82872 4.84196 6.77005 4.84118C6.6804 4.84011 6.59085 4.84054 6.5012 4.84114C6.44408 4.84093 6.38696 4.84063 6.32984 4.84023C6.28978 4.84046 6.28978 4.84046 6.24891 4.8407C6.12285 4.83822 6.05555 4.83203 5.94584 4.76485C5.8305 4.63963 5.84723 4.50171 5.84638 4.34079C5.8462 4.31496 5.84602 4.28913 5.84584 4.26251C5.84555 4.20787 5.84534 4.15323 5.84522 4.09859C5.84492 4.01519 5.84395 3.93182 5.84296 3.84843C5.84276 3.79529 5.8426 3.74216 5.84248 3.68902C5.84209 3.66417 5.84171 3.63932 5.84131 3.61371C5.84188 3.47051 5.85342 3.37751 5.94639 3.26142C6.04061 3.1986 6.05996 3.191 6.16572 3.18941ZM6.41473 3.76098C6.41473 3.92583 6.41473 4.09069 6.41473 4.26054C6.57958 4.26054 6.74444 4.26054 6.91429 4.26054C6.91429 4.09569 6.91429 3.93083 6.91429 3.76098C6.74943 3.76098 6.58458 3.76098 6.41473 3.76098Z" fill="#A0A0A0"/>
</svg>
