<svg width="16" height="20" viewBox="0 0 16 20" fill="none" xmlns="http://www.w3.org/2000/svg">
<path d="M0.237074 19.1992C0.0557225 19.1144 -9.35451e-05 18.9687 1.17641e-07 18.774C0.00273888 13.0823 0.00202464 7.3906 0.0027544 1.69889C0.00279497 1.38371 0.113669 1.27874 0.437754 1.27802C0.924211 1.27693 1.41067 1.27773 1.92208 1.27773C1.92208 0.985807 1.92129 0.706984 1.92229 0.428168C1.92344 0.107835 2.02958 0.000498796 2.34902 0.000451214C5.2672 1.79608e-05 8.18538 -0.00176313 11.1035 0.00676418C11.2314 0.00713783 11.3915 0.0706958 11.4818 0.160135C12.9424 1.6067 14.393 3.06327 15.8495 4.51394C15.9789 4.6428 16.0001 4.78907 16 4.95678C15.9982 8.11815 15.9987 11.2795 15.9987 14.4409C15.9987 15.2281 15.999 16.0153 15.9986 16.8025C15.9984 17.1931 15.907 17.2824 15.5089 17.2825C15.041 17.2827 14.573 17.2826 14.0788 17.2826C14.0788 17.4857 14.0788 17.677 14.0788 17.8683C14.0788 18.1682 14.0701 18.4684 14.0819 18.7678C14.0897 18.9651 14.0217 19.1055 13.8511 19.1992H0.237074ZM15.3462 16.6323V5.12108C15.2606 5.12108 15.1868 5.12109 15.1131 5.12109C13.8757 5.12108 12.6383 5.12118 11.4009 5.12102C10.9589 5.12097 10.884 5.04722 10.8839 4.61372C10.8839 3.36404 10.8839 2.11436 10.8839 0.864676V0.650369H2.57199V16.6323L15.3462 16.6323ZM13.4318 17.2826H13.1728C9.59123 17.2826 6.0097 17.2826 2.42817 17.2826C2.00597 17.2826 1.9221 17.1993 1.92209 16.7805C1.92206 11.9122 1.92207 7.04381 1.92207 2.17546V1.92968H0.653947V18.5495H13.4318V17.2826ZM14.8043 4.47065C13.713 3.38043 12.61 2.27858 11.5352 1.2048V4.47065H14.8043Z" fill="white"/>
<path d="M9.93264 13.7608C11.1575 13.7608 12.3823 13.7607 13.6071 13.761C13.6696 13.761 13.7328 13.7581 13.7943 13.7665C13.9563 13.7889 14.0702 13.9139 14.0759 14.0681C14.0817 14.2293 13.9677 14.3655 13.7984 14.3928C13.7434 14.4016 13.6863 14.3993 13.6301 14.3993C11.1555 14.3995 8.6808 14.3996 6.20615 14.3991C6.1439 14.3991 6.07986 14.4009 6.01974 14.3877C5.85824 14.3524 5.77493 14.2405 5.76445 14.0817C5.75456 13.932 5.87669 13.7941 6.03373 13.7688C6.10098 13.758 6.17077 13.7611 6.2394 13.7611C7.47048 13.7607 8.70156 13.7608 9.93264 13.7608Z" fill="white"/>
<path d="M9.93251 9.92061C11.151 9.92057 12.3695 9.92036 13.588 9.9211C13.6627 9.92114 13.7385 9.92219 13.812 9.93411C13.9763 9.96077 14.0677 10.0664 14.0735 10.2283C14.0793 10.39 13.9964 10.5032 13.8341 10.5406C13.762 10.5572 13.6857 10.5611 13.6113 10.5611C11.1493 10.5621 8.68733 10.5619 6.22533 10.5619C6.21283 10.5619 6.20033 10.5621 6.18784 10.5619C5.91772 10.5573 5.76589 10.4428 5.76391 10.2422C5.76191 10.0408 5.91231 9.92162 6.18327 9.9213C7.43301 9.91982 8.68276 9.92064 9.93251 9.92061Z" fill="white"/>
<path d="M9.91902 11.8423C11.1501 11.8423 12.3813 11.8422 13.6124 11.8424C13.9255 11.8425 14.0714 11.941 14.0759 12.1534C14.0804 12.3711 13.9221 12.4828 13.6065 12.4828C11.1505 12.483 8.69444 12.4831 6.23842 12.4822C6.16403 12.4822 6.08755 12.4804 6.01568 12.4638C5.85165 12.4258 5.74768 12.2912 5.76694 12.1386C5.78804 11.9712 5.88213 11.8648 6.05712 11.8476C6.1253 11.8409 6.19442 11.8425 6.26311 11.8425C7.48175 11.8422 8.70038 11.8423 9.91902 11.8423Z" fill="white"/>
<path d="M9.91235 6.71676C8.69379 6.71676 7.47522 6.71683 6.25665 6.71658C6.18796 6.71657 6.11865 6.71927 6.05069 6.71148C5.88863 6.69292 5.76687 6.5701 5.76648 6.41449C5.76608 6.25436 5.84225 6.13849 6.00411 6.09844C6.06972 6.0822 6.13978 6.07838 6.20783 6.07836C8.68245 6.0774 11.1571 6.0774 13.6317 6.07834C13.6998 6.07837 13.7701 6.08124 13.8354 6.09813C13.9974 6.14003 14.0941 6.27585 14.0733 6.43139C14.0516 6.59306 13.9551 6.68953 13.7927 6.7111C13.725 6.72009 13.6555 6.71656 13.5868 6.71657C12.362 6.71683 11.1372 6.71676 9.91235 6.71676Z" fill="white"/>
<path d="M9.92481 8.63776C8.69378 8.63776 7.46275 8.63795 6.23172 8.63762C5.92105 8.63754 5.77093 8.53744 5.76419 8.32836C5.75723 8.11246 5.91897 7.99728 6.23292 7.99725C8.68872 7.997 11.1445 7.99703 13.6003 7.99722C13.9198 7.99724 14.0765 8.10435 14.076 8.32034C14.0756 8.53766 13.9263 8.63759 13.5991 8.63766C12.3744 8.6379 11.1496 8.63775 9.92481 8.63776Z" fill="white"/>
<path d="M5.11811 2.88341C5.42391 2.88347 5.72975 2.88032 6.03549 2.88448C6.27562 2.88775 6.39368 3.0007 6.39552 3.24097C6.40019 3.85242 6.40021 4.46396 6.39568 5.07542C6.39384 5.32304 6.2731 5.43657 6.02075 5.43772C5.42165 5.44045 4.82252 5.44034 4.22342 5.43779C3.96459 5.4367 3.84163 5.31777 3.84 5.06057C3.8362 4.46158 3.83643 3.86254 3.83988 3.26354C3.84138 3.00345 3.96053 2.88696 4.21945 2.88411C4.51897 2.88082 4.81856 2.88335 5.11811 2.88341ZM5.74497 4.78986V3.53642H4.4933V4.78986H5.74497Z" fill="white"/>
<path d="M4.46706 6.71226C4.3547 6.71226 4.24164 6.7202 4.13015 6.71036C3.96963 6.69619 3.84489 6.56799 3.84485 6.41472C3.84481 6.2548 3.92052 6.11712 4.0834 6.10276C4.34251 6.07992 4.60641 6.07742 4.86544 6.09959C5.03365 6.11398 5.11918 6.24825 5.11238 6.42188C5.10627 6.57765 4.98814 6.69845 4.82278 6.71135C4.70488 6.72056 4.58568 6.71314 4.46706 6.71314L4.46706 6.71226Z" fill="white"/>
<path d="M4.47975 11.8459C4.59215 11.8459 4.70509 11.839 4.81683 11.8475C4.98908 11.8607 5.09126 11.9598 5.11154 12.1315C5.13034 12.2905 5.03701 12.4429 4.87098 12.4574C4.61201 12.48 4.34827 12.4793 4.08916 12.4575C3.92797 12.4439 3.82299 12.2797 3.84587 12.132C3.87161 11.9658 3.96772 11.859 4.14263 11.8474C4.25454 11.8399 4.36734 11.846 4.47975 11.8459Z" fill="white"/>
<path d="M4.47907 14.3965C4.36668 14.3965 4.2535 14.405 4.14208 14.3946C3.96456 14.378 3.83601 14.2316 3.84246 14.0693C3.84875 13.9107 3.97306 13.7736 4.1438 13.7658C4.36811 13.7555 4.59364 13.7553 4.81791 13.7662C4.99197 13.7746 5.10976 13.9081 5.11384 14.071C5.11811 14.2414 4.99841 14.3779 4.81605 14.3946C4.7046 14.4048 4.59146 14.3965 4.47907 14.3965Z" fill="white"/>
<path d="M4.48665 8.62797C4.36195 8.62797 4.23622 8.63803 4.11279 8.62551C3.94543 8.60853 3.85513 8.49247 3.84677 8.33555C3.83837 8.178 3.91743 8.0371 4.08228 8.02419C4.34767 8.00341 4.61743 8.00209 4.88239 8.02572C5.04391 8.04013 5.12225 8.17799 5.11126 8.34076C5.10027 8.5034 5.00655 8.60898 4.84188 8.62644C4.72472 8.63887 4.60518 8.62885 4.48671 8.62885C4.48669 8.62856 4.48667 8.62826 4.48665 8.62797Z" fill="white"/>
<path d="M4.48727 9.92837C4.5995 9.92837 4.71269 9.91909 4.82376 9.93047C5.00385 9.94893 5.11695 10.0719 5.11253 10.2381C5.10795 10.4103 5.01855 10.5325 4.84551 10.5441C4.60387 10.5602 4.35979 10.559 4.11788 10.5452C3.94218 10.5353 3.85593 10.4085 3.84442 10.2418C3.83346 10.0832 3.95789 9.94905 4.13207 9.93133C4.24933 9.9194 4.36877 9.92906 4.48724 9.92906C4.48725 9.92883 4.48726 9.9286 4.48727 9.92837Z" fill="white"/>
</svg>
