<svg width="27" height="25" viewBox="0 0 27 25" fill="none" xmlns="http://www.w3.org/2000/svg">
<path d="M15.4424 21.1152C16.4298 20.7762 17.4127 20.384 18.4941 20.5332C19.5331 20.6768 20.2058 21.65 19.9619 22.6641C19.8845 22.9859 19.7035 23.231 19.3818 23.3623C18.0986 23.8862 16.8166 24.4145 15.5361 24.9453C15.4188 24.9938 15.3027 24.9961 15.1826 24.9961C14.3646 24.9963 13.5465 24.9971 12.7285 24.9971C12.0499 24.9971 11.3708 24.9875 10.6924 24.999C9.72611 25.0154 8.82189 24.7805 7.95898 24.3613C6.96042 23.8762 5.96208 23.3901 4.96289 22.9062C4.13113 22.5035 3.24943 22.3213 2.32812 22.3193C1.72389 22.3181 1.11888 22.3204 0.514648 22.3184C0.1853 22.3171 -0.0011234 22.1515 0 21.8701C0.00128176 21.5905 0.189453 21.4198 0.519531 21.4268C1.42017 21.4458 2.32209 21.3757 3.22168 21.4717C4.00408 21.5552 4.73892 21.7924 5.44434 22.1338C6.50987 22.6495 7.57483 23.168 8.64551 23.6729C9.29224 23.9778 9.98394 24.101 10.6963 24.1025C12.1278 24.1056 13.5597 24.1019 14.9912 24.1055C15.1341 24.1058 15.264 24.0785 15.3945 24.0244C16.5475 23.5463 17.6998 23.0661 18.8574 22.5996C19.0543 22.5202 19.129 22.4263 19.1025 22.2109C19.0455 21.7486 18.7663 21.4667 18.2832 21.4199C17.6383 21.3575 17.0357 21.5521 16.4307 21.7275C16.2 21.7944 15.9754 21.8831 15.7432 21.9434C15.5069 22.0046 15.3004 21.8793 15.2197 21.6475C15.1349 21.4035 15.2278 21.189 15.4424 21.1152ZM4.97266 15.8008C6.86199 15.3218 8.85188 16.0733 9.77051 17.7451C9.82536 17.8447 9.91302 17.8786 10.0078 17.918C10.8015 18.2474 11.5953 18.5773 12.3867 18.9121C12.9399 19.1462 13.4389 19.4622 13.8291 19.9277C14.5156 20.7469 14.5264 21.7058 14.1279 22.6133C14.0083 22.8858 13.7734 22.9419 13.4424 22.8047C12.2298 22.3016 11.0175 21.7967 9.80566 21.292C9.38761 21.1179 8.97018 20.9412 8.55273 20.7656C8.20135 20.6178 8.08164 20.4012 8.20117 20.1299C8.31981 19.8606 8.56268 19.7926 8.91016 19.9365C10.3014 20.5129 11.6921 21.0908 13.083 21.668C13.1928 21.7135 13.3036 21.758 13.4365 21.8125C13.5893 21.041 13.2644 20.5086 12.6807 20.0967C12.2839 19.8167 11.8273 19.6563 11.3838 19.4717C10.7096 19.191 10.0336 18.9124 9.35742 18.6367C9.21118 18.577 9.11312 18.4768 9.04688 18.3369C8.5588 17.3064 7.70213 16.7956 6.61133 16.626C5.83222 16.5049 5.0786 16.623 4.34668 16.9023C4.23262 16.9459 4.11717 16.9642 3.99414 16.9639C2.8418 16.9612 1.68945 16.9629 0.537109 16.9619C0.184508 16.9616 -0.00478478 16.799 0 16.5068C0.0047604 16.2295 0.192807 16.0704 0.525391 16.0693C1.10164 16.0678 1.67863 16.0707 2.25488 16.0693C3.16895 16.0671 4.06294 16.0314 4.97266 15.8008ZM19.2549 18.7539C19.4954 18.7565 19.6932 18.9523 19.6982 19.1934C19.703 19.4264 19.4664 19.6711 19.2246 19.6836C18.9876 19.6958 18.757 19.4781 18.751 19.2363C18.7448 18.9808 18.9846 18.7512 19.2549 18.7539ZM22.0488 10.2305C22.337 10.1679 22.5217 10.3581 22.6143 10.8291C22.7236 11.3859 22.7786 11.9483 22.7676 12.5176C22.7548 14.5621 22.1487 16.4119 20.9424 18.0654C20.786 18.2797 20.593 18.3727 20.3438 18.2676C20.127 18.1761 20.0503 17.9876 20.0938 17.7637C20.1106 17.6776 20.1652 17.5934 20.2188 17.5205C21.092 16.3321 21.6158 15.0034 21.8037 13.5439C21.9122 12.7012 21.889 11.8573 21.7295 11.0215C21.6395 10.5492 21.7338 10.299 22.0488 10.2305ZM14.5342 8.03711C15.058 8.03725 15.1757 8.15302 15.1758 8.66602C15.1759 9.27929 15.1834 9.8928 15.1719 10.5059C15.1686 10.6788 15.2137 10.7227 15.3857 10.7197C16.0268 10.7086 16.6684 10.7147 17.3096 10.7158C17.6996 10.7165 17.8528 10.8649 17.8535 11.2461C17.855 12.0823 17.8551 12.9187 17.8535 13.7549C17.8528 14.1354 17.6987 14.2844 17.3086 14.2852C16.6674 14.2863 16.0257 14.2927 15.3848 14.2812C15.2113 14.2782 15.169 14.3248 15.1719 14.4961C15.1827 15.1463 15.1779 15.7969 15.1758 16.4473C15.1746 16.7998 15.0172 16.9619 14.6719 16.9629C13.8171 16.9654 12.9622 16.9655 12.1074 16.9629C11.7628 16.9618 11.6067 16.7997 11.6055 16.4463C11.6035 15.7959 11.5979 15.1444 11.6094 14.4941C11.6124 14.3199 11.5651 14.2784 11.3945 14.2812C10.7443 14.2919 10.0938 14.2873 9.44336 14.2852C9.08993 14.284 8.92881 14.1283 8.92773 13.7822C8.92528 12.9275 8.92521 12.0725 8.92773 11.2178C8.92875 10.8728 9.0903 10.717 9.44434 10.7158C10.0948 10.7138 10.7462 10.7084 11.3965 10.7197C11.57 10.7227 11.6124 10.6763 11.6094 10.5049C11.5983 9.88266 11.6052 9.26012 11.6055 8.6377C11.6057 8.17128 11.7359 8.03757 12.1924 8.03711H14.5342ZM14.0801 8.9248C13.6252 8.94026 13.1686 8.94171 12.7139 8.9248C12.5163 8.9175 12.492 8.99344 12.4941 9.16113C12.5026 9.81137 12.5003 10.462 12.4971 11.1123C12.4954 11.4439 12.3335 11.6039 12.001 11.6074C11.6759 11.6108 11.3505 11.6084 11.0254 11.6084C10.7003 11.6084 10.3744 11.6169 10.0498 11.6045C9.87823 11.5979 9.80735 11.632 9.81445 11.8262C9.83074 12.2714 9.83239 12.718 9.81445 13.1631C9.80603 13.3718 9.88242 13.4007 10.0654 13.3975C10.6971 13.3863 11.3291 13.3921 11.9609 13.3936C12.3471 13.3944 12.4962 13.545 12.4971 13.9326C12.4985 14.5736 12.5029 15.2146 12.4941 15.8555C12.4919 16.0168 12.5183 16.0824 12.7021 16.0762C13.1568 16.0608 13.6128 16.0591 14.0674 16.0762C14.2657 16.0836 14.2892 16.0068 14.2871 15.8398C14.2788 15.1988 14.2823 14.5572 14.2842 13.916C14.2852 13.5485 14.439 13.3947 14.8076 13.3936C15.4488 13.3917 16.0904 13.3874 16.7314 13.3965C16.9019 13.3989 16.974 13.3705 16.9668 13.1758C16.9503 12.7304 16.9489 12.2832 16.9668 11.8379C16.9751 11.6298 16.8994 11.6002 16.7158 11.6035C16.0842 11.6148 15.4521 11.6089 14.8203 11.6074C14.4341 11.6065 14.285 11.4565 14.2842 11.0693C14.2828 10.4282 14.2784 9.78654 14.2871 9.14551C14.2892 8.98522 14.264 8.91864 14.0801 8.9248ZM5.8125 6.97461C6.04486 6.65419 6.36126 6.61141 6.57715 6.87012C6.7683 7.09942 6.69104 7.30883 6.53418 7.52344C5.90446 8.38447 5.45446 9.33305 5.18652 10.3662C4.85743 11.6354 4.83913 12.9125 5.08105 14.1982C5.14565 14.5417 5.00482 14.7607 4.72168 14.8008C4.44579 14.8398 4.24734 14.6771 4.19141 14.3574C4.08285 13.7353 3.9939 13.1105 4.00781 12.7637C4.02498 10.4498 4.62289 8.61536 5.8125 6.97461ZM12.6592 2.37598C12.7792 2.11345 13.0046 2.05793 13.3223 2.18945C14.3294 2.60667 15.335 3.0281 16.3418 3.44629C16.9903 3.71568 17.64 3.98273 18.2891 4.25098C18.4852 4.33205 18.6177 4.47191 18.6211 4.68848C18.624 4.878 18.527 5.0283 18.3486 5.10645C18.1832 5.17881 18.0235 5.12811 17.8662 5.0625C16.8338 4.63191 15.8005 4.20284 14.7676 3.77344C14.2999 3.57901 13.8317 3.38583 13.3438 3.18359C13.1967 3.97628 13.5249 4.51559 14.1318 4.91797C14.7694 5.34066 15.5068 5.54859 16.1973 5.85742C16.5934 6.03465 16.9969 6.19802 17.4014 6.35547C17.5599 6.41723 17.6651 6.51733 17.7363 6.66602C18.2338 7.70375 19.099 8.21316 20.2031 8.37305C20.9738 8.48458 21.7184 8.36771 22.4414 8.09375C22.5568 8.05003 22.6727 8.03495 22.7949 8.03516C23.9473 8.03707 25.0996 8.03503 26.252 8.03613C26.5869 8.03645 26.775 8.19355 26.7812 8.4707C26.7877 8.7625 26.5971 8.92781 26.2471 8.92871C25.6895 8.93014 25.1317 8.93547 24.5742 8.92773C23.63 8.91464 22.7112 9.00162 21.7744 9.2041C19.975 9.59307 18.3757 9.13948 17.2393 7.58984C16.9945 7.25619 16.7241 7.0536 16.3574 6.90137C15.5467 6.56484 14.7111 6.28005 13.9395 5.85742C13.162 5.4316 12.5707 4.84109 12.418 3.91699C12.3288 3.37727 12.4362 2.8645 12.6592 2.37598ZM7.66504 5.31445C7.89984 5.3155 8.1059 5.51805 8.11523 5.75684C8.12496 6.00905 7.86715 6.28503 7.61328 6.29395C7.3761 6.30219 7.1469 6.07867 7.14551 5.83789C7.14415 5.59126 7.41998 5.31336 7.66504 5.31445ZM16.1006 0.000976562C17.0269 -0.0117825 17.9004 0.195983 18.7314 0.59668C19.7975 1.11068 20.8621 1.62797 21.9297 2.13867C22.7121 2.51293 23.5447 2.67143 24.4072 2.67969C25.03 2.68563 25.6535 2.67921 26.2764 2.68164C26.5998 2.68305 26.7877 2.85664 26.7812 3.13867C26.7749 3.40664 26.589 3.57822 26.2793 3.57129C25.3602 3.55071 24.4396 3.62609 23.5215 3.52246C22.7581 3.43628 22.0398 3.20536 21.3516 2.87305C20.3186 2.37427 19.2879 1.87062 18.2539 1.37402C17.592 1.05617 16.8879 0.902266 16.1562 0.898438C14.6875 0.890752 13.2187 0.897244 11.75 0.893555C11.6249 0.89324 11.5131 0.922648 11.4014 0.96875C10.2396 1.4482 9.07991 1.93304 7.91406 2.40234C7.71165 2.48383 7.65086 2.58763 7.67871 2.79785C7.7386 3.24951 8.01286 3.53052 8.47852 3.57715C9.19096 3.6484 9.85097 3.41534 10.5166 3.21875C10.685 3.16901 10.8498 3.10364 11.0195 3.05957C11.2618 2.99675 11.4677 3.10658 11.5547 3.33301C11.6468 3.57273 11.5678 3.79596 11.3525 3.87305C10.3426 4.23476 9.33096 4.63288 8.22266 4.45898C7.1803 4.2954 6.51702 3.19098 6.85742 2.2207C6.95182 1.95185 7.11587 1.75873 7.38477 1.64844C8.66773 1.1222 9.94889 0.591555 11.2295 0.0595703C11.345 0.0116002 11.4614 0.00173987 11.583 0.00195312C12.4102 0.00340391 13.2373 0.00292985 14.0645 0.00292969C14.7431 0.00292969 15.4221 0.0103215 16.1006 0.000976562Z" fill="black"/>
</svg>
