<svg width="19" height="17" viewBox="0 0 19 17" fill="none" xmlns="http://www.w3.org/2000/svg">
<path d="M11.2824 0.529642C11.317 0.549226 11.3515 0.56881 11.387 0.588987C12.1983 1.09331 12.7151 1.9242 12.9435 2.83889C12.9505 2.86653 12.9576 2.89418 12.9649 2.92266C12.9923 3.09298 12.9922 3.26149 12.9936 3.43376C12.994 3.47157 12.9943 3.50937 12.9946 3.54832C12.9952 3.6281 12.9956 3.70788 12.9959 3.78767C12.9964 3.86912 12.9972 3.95057 12.9984 4.03201C13.0002 4.14996 13.0008 4.26786 13.0012 4.38582C13.0019 4.42203 13.0026 4.45825 13.0034 4.49556C13.0024 4.77326 12.9272 4.92132 12.7282 5.12028C12.5968 5.20284 12.4885 5.21107 12.3358 5.22916C12.3377 5.2806 12.3395 5.33204 12.3415 5.38504C12.3624 6.19562 12.1841 6.91264 11.6243 7.52068C11.4659 7.68644 11.3025 7.84457 11.1204 7.98404C11.0936 7.98404 11.0669 7.98404 11.0394 7.98404C11.0394 8.17121 11.0394 8.35838 11.0394 8.55123C11.0909 8.56175 11.1425 8.57227 11.1956 8.58311C11.4096 8.63078 11.614 8.6984 11.821 8.77025C11.8594 8.78343 11.8979 8.79661 11.9376 8.81019C12.0594 8.85198 12.1811 8.89403 12.3029 8.9361C12.385 8.96434 12.4672 8.99256 12.5493 9.02077C12.7 9.07248 12.8505 9.12432 13.0011 9.17625C13.0333 9.18725 13.0655 9.19824 13.0986 9.20957C13.1745 9.23579 13.25 9.26315 13.3255 9.29072C13.4657 9.33145 13.5405 9.29953 13.6752 9.24754C13.902 9.16204 14.097 9.11379 14.34 9.11124C14.3834 9.11072 14.4269 9.1102 14.4716 9.10966C14.5416 9.10921 14.5416 9.10921 14.613 9.10875C14.6617 9.10843 14.7103 9.1081 14.7604 9.10776C14.8635 9.1072 14.9665 9.10677 15.0696 9.10645C15.1741 9.10599 15.2786 9.10516 15.3831 9.10396C16.5094 9.09101 16.5094 9.09101 16.9948 9.28046C17.026 9.29251 17.0573 9.30457 17.0895 9.31699C17.8143 9.62815 18.375 10.2498 18.6653 10.9755C18.8073 11.3758 18.8366 11.7569 18.8354 12.179C18.8356 12.2384 18.8358 12.2978 18.8361 12.3572C18.8364 12.4807 18.8363 12.6042 18.8359 12.7278C18.8355 12.8853 18.8363 13.0428 18.8375 13.2004C18.8382 13.3227 18.8382 13.4449 18.838 13.5672C18.838 13.6253 18.8382 13.6834 18.8387 13.7415C18.8415 14.1157 18.8311 14.3877 18.5762 14.6785C18.5498 14.7003 18.5235 14.7222 18.4963 14.7447C18.47 14.7671 18.4437 14.7896 18.4167 14.8127C18.2218 14.947 18.044 14.9638 17.8123 14.9615C17.7811 14.9615 17.7498 14.9615 17.7177 14.9615C17.6148 14.9615 17.512 14.9608 17.4092 14.9602C17.3378 14.96 17.2663 14.9599 17.1948 14.9599C17.0071 14.9595 16.8193 14.9587 16.6316 14.9579C16.4399 14.957 16.2481 14.9567 16.0564 14.9562C15.6805 14.9554 15.3045 14.954 14.9286 14.9523C14.9297 15.0149 14.9297 15.0149 14.9307 15.0788C14.9313 15.1341 14.9319 15.1894 14.9324 15.2447C14.9332 15.2859 14.9332 15.2859 14.9339 15.3279C14.936 15.6051 14.8799 15.7653 14.6908 15.9635C14.4208 16.2136 14.2117 16.2608 13.8517 16.2595C13.7927 16.2598 13.7927 16.2598 13.7325 16.2601C13.6006 16.2606 13.4688 16.2605 13.3369 16.2605C13.2424 16.2607 13.1479 16.261 13.0534 16.2613C12.7966 16.262 12.5398 16.2622 12.283 16.2623C12.0687 16.2623 11.8543 16.2626 11.64 16.2629C11.1631 16.2636 10.6863 16.2638 10.2095 16.2637C10.1666 16.2637 10.1666 16.2637 10.1229 16.2637C10.0942 16.2637 10.0656 16.2637 10.0361 16.2637C9.57208 16.2637 9.10809 16.2645 8.64409 16.2656C8.16742 16.2668 7.69075 16.2673 7.21408 16.2672C6.94656 16.2672 6.67905 16.2675 6.41153 16.2683C6.15991 16.2691 5.90829 16.2691 5.65667 16.2685C5.56436 16.2684 5.47205 16.2686 5.37975 16.2691C5.25363 16.2697 5.12756 16.2694 5.00144 16.2687C4.96501 16.2692 4.92857 16.2696 4.89103 16.27C4.60903 16.2669 4.3964 16.1942 4.18284 16.0071C4.16101 15.9807 4.13918 15.9543 4.11669 15.9271C4.09423 15.9009 4.07177 15.8746 4.04864 15.8475C3.91395 15.6521 3.89821 15.4761 3.90399 15.2435C3.90436 15.2154 3.90472 15.1873 3.9051 15.1584C3.90605 15.0897 3.9075 15.021 3.90906 14.9523C3.86968 14.9526 3.8303 14.953 3.78973 14.9534C3.41781 14.9567 3.04589 14.9591 2.67396 14.9607C2.48276 14.9615 2.29158 14.9627 2.10039 14.9645C1.91572 14.9663 1.73107 14.9672 1.54639 14.9677C1.4761 14.968 1.40581 14.9685 1.33552 14.9694C1.23671 14.9706 1.13794 14.9708 1.03912 14.9707C1.01036 14.9713 0.981594 14.9718 0.951961 14.9725C0.692036 14.9703 0.486874 14.88 0.293583 14.7106C0.271754 14.6843 0.249924 14.6579 0.227433 14.6307C0.204977 14.6044 0.182521 14.5782 0.159384 14.5511C0.0358578 14.3718 0.00948405 14.2168 0.00803366 14.001C0.00751673 13.9487 0.00699979 13.8963 0.00646719 13.8424C0.00634321 13.7854 0.00625301 13.7284 0.00619396 13.6714C0.00593315 13.6123 0.00566054 13.5532 0.00537672 13.494C0.00489193 13.37 0.00474139 13.246 0.00478945 13.122C0.00479762 12.9647 0.00369748 12.8076 0.00229571 12.6503C0.00138399 12.528 0.00123072 12.4058 0.00127324 12.2835C0.00117898 12.2256 0.000829302 12.1678 0.0001939 12.1099C-0.00770804 11.3154 0.225463 10.5925 0.781451 10.0128C1.3486 9.44497 2.0229 9.1101 2.83598 9.10048C2.88119 9.1006 2.9264 9.10072 2.97298 9.10084C3.04533 9.10052 3.04533 9.10052 3.11913 9.1002C3.22048 9.09994 3.32183 9.09999 3.42319 9.10034C3.57654 9.10068 3.72983 9.09952 3.88318 9.09823C4.42167 9.09672 4.90208 9.11128 5.40678 9.31222C5.53814 9.32619 5.63182 9.2716 5.75177 9.21937C6.09902 9.07303 6.45337 8.95287 6.81098 8.83454C6.91879 8.79883 7.02645 8.76271 7.13412 8.72657C7.20295 8.70365 7.27179 8.68076 7.34064 8.65789C7.37267 8.64713 7.40469 8.63637 7.43769 8.62529C7.56233 8.58428 7.66619 8.55123 7.79831 8.55123C7.79831 8.36406 7.79831 8.17689 7.79831 7.98404C7.74483 7.9573 7.69136 7.93057 7.63626 7.90302C7.06221 7.46766 6.63878 6.84423 6.51257 6.12764C6.47658 5.83033 6.49098 5.52771 6.50189 5.22916C6.45829 5.22482 6.41468 5.22049 6.36975 5.21602C6.22367 5.18961 6.16936 5.17231 6.06384 5.0747C6.04102 5.05438 6.0182 5.03407 5.99469 5.01314C5.88534 4.88994 5.84368 4.7793 5.84191 4.61549C5.8414 4.58271 5.84088 4.54994 5.84035 4.51617C5.84026 4.48094 5.84017 4.4457 5.84007 4.4094C5.83967 4.35405 5.83967 4.35405 5.83926 4.29758C5.83885 4.21926 5.83866 4.14093 5.83867 4.06261C5.83849 3.94496 5.83703 3.82739 5.83548 3.70976C5.83186 3.12389 5.88583 2.57558 6.17272 2.05141C6.19401 2.01101 6.19401 2.01101 6.21572 1.96979C6.2561 1.89426 6.29758 1.81952 6.33984 1.74503C6.35942 1.71051 6.37901 1.67599 6.39919 1.64043C6.9035 0.829131 7.7344 0.312347 8.64908 0.0839981C9.56819 -0.127592 10.4811 0.0749978 11.2824 0.529642ZM7.34254 1.57032C6.65228 2.27302 6.49892 3.14057 6.49176 4.08973C6.49138 4.12903 6.491 4.16833 6.49061 4.20882C6.49078 4.24545 6.49095 4.28209 6.49113 4.31983C6.49122 4.35262 6.49131 4.38541 6.49141 4.41919C6.49476 4.50927 6.49476 4.50927 6.58292 4.58095C7.32562 4.60842 8.08711 4.38714 8.64537 3.88675C8.77429 3.76641 8.8992 3.6424 9.02335 3.51716C9.14713 3.39843 9.2436 3.30759 9.41883 3.28959C9.66645 3.31377 9.82028 3.51921 9.98174 3.68966C10.5094 4.23989 11.2037 4.51911 11.956 4.57335C11.9843 4.5755 12.0126 4.57766 12.0418 4.57988C12.1127 4.58375 12.1838 4.58272 12.2547 4.58095C12.3537 4.48196 12.3462 4.45561 12.3465 4.31983C12.3467 4.2832 12.3469 4.24656 12.3471 4.20882C12.3465 4.14987 12.3465 4.14987 12.3459 4.08973C12.3456 4.04946 12.3453 4.00919 12.345 3.9677C12.3309 2.99461 12.0996 2.15581 11.3925 1.46678C10.2234 0.385646 8.45561 0.490826 7.34254 1.57032ZM9.20361 4.29736C8.65499 4.7994 8.02125 5.02574 7.31215 5.18864C7.2581 5.20199 7.20405 5.21539 7.1501 5.22916C7.16461 5.87549 7.24292 6.39532 7.63626 6.9307C7.65652 6.95937 7.67678 6.98805 7.69766 7.01759C8.00676 7.41333 8.52158 7.70259 9.0137 7.78148C9.68831 7.84414 10.2419 7.74314 10.7963 7.33583C10.8249 7.31557 10.8536 7.29531 10.8832 7.27443C11.2836 6.9617 11.5589 6.45324 11.647 5.95839C11.673 5.71585 11.6821 5.4729 11.6876 5.22916C11.644 5.21981 11.6003 5.21046 11.5554 5.20083C10.8196 5.03857 10.1964 4.78591 9.62899 4.27937C9.42611 4.09901 9.39373 4.11314 9.20361 4.29736ZM8.44652 8.34866C8.42908 8.52291 8.42735 8.60586 8.53205 8.74998C8.57077 8.78865 8.61025 8.82656 8.65035 8.86378C8.68137 8.8942 8.68137 8.8942 8.71302 8.92524C8.77885 8.98948 8.84559 9.05267 8.91242 9.11588C8.95737 9.15941 9.00227 9.20301 9.04709 9.24667C9.15678 9.35324 9.2673 9.45887 9.37832 9.56405C9.59702 9.4713 9.74958 9.29347 9.91609 9.129C9.97565 9.07053 10.0361 9.01311 10.0966 8.95564C10.1343 8.91854 10.1719 8.88143 10.2107 8.8432C10.2453 8.80956 10.28 8.77592 10.3156 8.74126C10.4115 8.60293 10.4056 8.5134 10.3911 8.34866C10.3673 8.35451 10.3435 8.36036 10.319 8.36638C9.72361 8.48956 9.03832 8.49402 8.44652 8.34866ZM10.6013 9.31844C10.4993 9.42903 10.4359 9.50013 10.4257 9.65213C10.4345 9.76318 10.4499 9.87166 10.4674 9.98168C10.4735 10.025 10.4795 10.0683 10.4857 10.1129C10.4996 10.2118 10.5139 10.3107 10.5286 10.4094C10.5557 10.5924 10.5807 10.7755 10.6057 10.9588C10.6441 11.2406 10.683 11.5224 10.7223 11.8041C10.7273 11.8401 10.7323 11.876 10.7375 11.913C10.7633 12.0978 10.7892 12.2826 10.8151 12.4674C10.8406 12.6493 10.866 12.8312 10.8912 13.0131C10.9007 13.0816 10.9103 13.1502 10.92 13.2187C10.9335 13.3138 10.9467 13.4091 10.9599 13.5043C10.9638 13.532 10.9678 13.5597 10.9719 13.5882C11.0386 14.0768 11.0386 14.0768 10.9245 14.2496C10.9082 14.2749 10.892 14.3001 10.8753 14.3261C10.8487 14.3653 10.8487 14.3653 10.8216 14.4054C10.8035 14.4331 10.7855 14.4609 10.7668 14.4895C10.7098 14.5768 10.6519 14.6633 10.5937 14.7497C10.5379 14.8332 10.482 14.9167 10.4263 15.0002C10.392 15.0512 10.3575 15.1021 10.3228 15.1529C10.2232 15.2996 10.1473 15.4399 10.067 15.6005C10.8157 15.6005 11.5644 15.6005 12.3358 15.6005C12.3373 15.3328 12.3388 15.0652 12.3404 14.7894C12.3416 14.6201 12.3428 14.4508 12.3442 14.2815C12.3464 14.0127 12.3485 13.7438 12.3498 13.4749C12.3509 13.2582 12.3525 13.0415 12.3545 12.8248C12.3552 12.742 12.3557 12.6592 12.3559 12.5764C12.3563 12.4607 12.3575 12.345 12.3588 12.2292C12.3587 12.1948 12.3587 12.1604 12.3586 12.125C12.3624 11.8903 12.3624 11.8903 12.4332 11.8038C12.5137 11.739 12.5575 11.7354 12.6599 11.7366C12.7012 11.7361 12.7012 11.7361 12.7434 11.7356C12.8457 11.7566 12.8779 11.7931 12.9435 11.8733C12.956 11.9947 12.9612 12.1078 12.961 12.2292C12.9614 12.2656 12.9618 12.302 12.9622 12.3395C12.9635 12.4598 12.9638 12.5801 12.9642 12.7005C12.9649 12.7839 12.9656 12.8673 12.9664 12.9507C12.9683 13.1703 12.9695 13.3898 12.9706 13.6094C12.9718 13.8335 12.9737 14.0575 12.9755 14.2815C12.979 14.7212 12.9817 15.1608 12.984 15.6005C13.141 15.604 13.2979 15.6062 13.4549 15.6081C13.4993 15.6091 13.5436 15.6101 13.5893 15.6112C13.9139 15.6185 13.9139 15.6185 14.1994 15.479C14.29 15.309 14.2919 15.1457 14.2909 14.9574C14.291 14.9259 14.2912 14.8944 14.2913 14.8619C14.2917 14.7579 14.2914 14.6539 14.2912 14.5498C14.2912 14.477 14.2913 14.4042 14.2914 14.3313C14.2915 14.1785 14.2913 14.0257 14.291 13.8729C14.2905 13.6786 14.2908 13.4842 14.2913 13.2898C14.2915 13.1392 14.2914 12.9886 14.2912 12.838C14.2912 12.7665 14.2913 12.6949 14.2914 12.6233C14.293 11.8494 14.2318 11.1789 13.7537 10.5364C13.7236 10.4946 13.6936 10.4528 13.6626 10.4098C13.2824 10.0124 12.7733 9.82255 12.2609 9.65442C12.2213 9.64121 12.1816 9.62801 12.1408 9.61441C12.058 9.58689 11.9752 9.5595 11.8923 9.53221C11.765 9.49028 11.6379 9.44795 11.5107 9.40556C11.4299 9.37877 11.3491 9.35199 11.2683 9.32525C11.2303 9.31259 11.1922 9.29993 11.153 9.28689C11.118 9.27538 11.0829 9.26387 11.0468 9.252C11.0159 9.24182 10.9851 9.23164 10.9533 9.22114C10.7983 9.17684 10.7289 9.22575 10.6013 9.31844ZM7.77908 9.25572C7.74146 9.26805 7.70384 9.28037 7.66508 9.29307C7.62424 9.30661 7.58339 9.32016 7.5413 9.33411C7.49922 9.34802 7.45713 9.36192 7.41377 9.37625C7.32438 9.40585 7.23501 9.43552 7.14567 9.46525C7.01009 9.51028 6.87437 9.55486 6.73864 9.59942C6.6517 9.62828 6.56476 9.65716 6.47784 9.68607C6.43765 9.6992 6.39746 9.71233 6.35605 9.72586C5.63087 9.96913 5.12803 10.345 4.76743 11.0276C4.51648 11.5558 4.55027 12.1404 4.54904 12.712C4.54892 12.748 4.54881 12.784 4.54869 12.8211C4.54809 13.011 4.54771 13.2009 4.54753 13.3909C4.54731 13.5866 4.54633 13.7823 4.54518 13.978C4.54443 14.1291 4.54422 14.2802 4.54416 14.4313C4.54403 14.5035 4.54371 14.5757 4.54318 14.6478C4.54248 14.7487 4.54256 14.8494 4.54282 14.9503C4.54245 14.9798 4.54208 15.0094 4.54169 15.0398C4.54323 15.229 4.57158 15.3624 4.6788 15.5195C4.82275 15.6037 4.94927 15.6102 5.11384 15.6084C5.15706 15.6081 5.20028 15.6079 5.2448 15.6076C5.28948 15.6069 5.33416 15.6063 5.38019 15.6056C5.44838 15.605 5.44838 15.605 5.51795 15.6045C5.62987 15.6035 5.74177 15.6022 5.85368 15.6005C5.85392 15.5541 5.85416 15.5076 5.8544 15.4598C5.85672 15.0228 5.85967 14.5859 5.86323 14.1489C5.86505 13.9242 5.86664 13.6996 5.86772 13.4749C5.86877 13.2582 5.8704 13.0415 5.87245 12.8248C5.87313 12.742 5.87359 12.6592 5.87384 12.5764C5.87423 12.4607 5.87537 12.345 5.87668 12.2292C5.87662 12.1948 5.87656 12.1604 5.8765 12.125C5.88028 11.8903 5.88028 11.8903 5.95107 11.8038C6.0316 11.739 6.07543 11.7354 6.17779 11.7366C6.21915 11.7361 6.21915 11.7361 6.26135 11.7356C6.36358 11.7566 6.39581 11.7931 6.46138 11.8733C6.47394 11.9947 6.4791 12.1078 6.4789 12.2292C6.47931 12.2656 6.47972 12.302 6.48015 12.3395C6.48137 12.4598 6.48174 12.5801 6.48211 12.7005C6.48279 12.7839 6.48353 12.8673 6.48431 12.9507C6.48624 13.1703 6.48745 13.3898 6.4885 13.6094C6.48992 13.8728 6.49223 14.1363 6.49439 14.3997C6.49758 14.7999 6.49963 15.2002 6.50189 15.6005C7.25057 15.6005 7.99925 15.6005 8.77062 15.6005C8.64614 15.3764 8.53585 15.1817 8.38876 14.9781C8.35612 14.9317 8.32355 14.8852 8.29103 14.8387C8.24098 14.7674 8.19066 14.6964 8.13926 14.626C8.08882 14.5567 8.03995 14.4865 7.99122 14.416C7.96196 14.375 7.9327 14.334 7.90255 14.2918C7.69672 13.8954 7.88221 13.2947 7.9451 12.8741C7.96464 12.7434 7.98375 12.6126 8.00276 12.4818C8.0431 12.2046 8.084 11.9276 8.12495 11.6505C8.17256 11.3281 8.21994 11.0057 8.26682 10.6833C8.28566 10.5544 8.30488 10.4256 8.32412 10.2968C8.33561 10.2181 8.34708 10.1394 8.35854 10.0607C8.36399 10.025 8.36944 9.98918 8.37505 9.95231C8.37977 9.91939 8.38449 9.88646 8.38934 9.85253C8.39356 9.82404 8.39778 9.79554 8.40213 9.76618C8.40889 9.62552 8.38343 9.54514 8.29349 9.43682C8.26461 9.40861 8.23573 9.38041 8.20597 9.35136C8.1772 9.32274 8.14842 9.29412 8.11877 9.26464C7.99672 9.1618 7.92134 9.20892 7.77908 9.25572ZM1.26289 10.5114C0.759503 11.1055 0.663046 11.7398 0.659783 12.4918C0.659552 12.5338 0.659322 12.5758 0.659084 12.6191C0.658704 12.7072 0.658437 12.7953 0.65828 12.8834C0.657884 13.018 0.656623 13.1526 0.655352 13.2871C0.655088 13.3731 0.654875 13.4591 0.654719 13.5451C0.654219 13.5851 0.653719 13.6251 0.653203 13.6663C0.653892 13.8794 0.659211 14.0446 0.789552 14.2231C0.938327 14.2984 1.05906 14.3138 1.22459 14.312C1.26781 14.3117 1.31102 14.3115 1.35555 14.3112C1.40023 14.3105 1.4449 14.3098 1.49093 14.3091C1.53639 14.3088 1.58186 14.3084 1.62869 14.308C1.74062 14.3071 1.85252 14.3058 1.96443 14.3041C1.96467 14.2739 1.96491 14.2437 1.96515 14.2126C1.9675 13.9283 1.97041 13.6439 1.97398 13.3596C1.97579 13.2134 1.97738 13.0672 1.97847 12.921C1.97952 12.7799 1.98115 12.6389 1.9832 12.4978C1.9842 12.4178 1.9846 12.3377 1.985 12.2577C1.9858 12.209 1.9866 12.1604 1.98743 12.1102C1.98788 12.0673 1.98833 12.0244 1.98879 11.9802C2.00494 11.8733 2.00494 11.8733 2.0619 11.7987C2.14247 11.7401 2.18959 11.7354 2.28853 11.7366C2.3299 11.7361 2.3299 11.7361 2.37209 11.7356C2.47683 11.7572 2.50729 11.7884 2.57213 11.8733C2.58828 11.9802 2.58828 11.9802 2.58964 12.1102C2.59085 12.1832 2.59085 12.1832 2.59207 12.2577C2.59233 12.3102 2.59259 12.3628 2.59286 12.4169C2.59354 12.4712 2.59427 12.5255 2.59506 12.5799C2.59699 12.7227 2.59819 12.8656 2.59925 13.0085C2.60046 13.1543 2.60234 13.3001 2.60417 13.4459C2.60772 13.732 2.61015 14.018 2.61264 14.3041C3.04046 14.3041 3.46827 14.3041 3.90906 14.3041C3.9101 14.1064 3.91115 13.9087 3.91222 13.7051C3.91324 13.5786 3.91431 13.4521 3.91554 13.3257C3.91749 13.1257 3.91928 12.9257 3.92004 12.7256C3.92066 12.5641 3.92206 12.4025 3.92398 12.241C3.92457 12.1799 3.9249 12.1187 3.92493 12.0576C3.92583 11.2615 4.13854 10.5332 4.70033 9.94655C4.71996 9.92728 4.7396 9.90801 4.75983 9.88816C4.47437 9.69785 4.04155 9.75907 3.70613 9.75911C3.61875 9.75902 3.5314 9.75829 3.44403 9.75752C2.60769 9.75405 1.86943 9.88743 1.26289 10.5114ZM14.0778 9.84764C14.094 9.86876 14.1102 9.88988 14.1268 9.91164C14.6627 10.6146 14.9052 11.2498 14.9088 12.136C14.9095 12.1989 14.9102 12.2618 14.911 12.3247C14.9129 12.4885 14.9142 12.6523 14.9152 12.8162C14.9166 13.0137 14.919 13.2111 14.9211 13.4086C14.9243 13.7071 14.9263 14.0056 14.9286 14.3041C15.3564 14.3041 15.7842 14.3041 16.225 14.3041C16.2265 14.13 16.2281 13.956 16.2296 13.7766C16.2312 13.6379 16.2328 13.4992 16.2346 13.3604C16.2364 13.214 16.238 13.0675 16.2391 12.921C16.2401 12.7799 16.2417 12.6389 16.2438 12.4978C16.2448 12.4178 16.2452 12.3377 16.2456 12.2577C16.2464 12.209 16.2472 12.1604 16.248 12.1102C16.2485 12.0673 16.2489 12.0244 16.2494 11.9802C16.2655 11.8733 16.2655 11.8733 16.3225 11.7987C16.4031 11.7401 16.4502 11.7354 16.5491 11.7366C16.5905 11.7361 16.5905 11.7361 16.6327 11.7356C16.7374 11.7572 16.7679 11.7884 16.8327 11.8733C16.8489 11.9802 16.8489 11.9802 16.8502 12.1102C16.851 12.1589 16.8518 12.2075 16.8527 12.2577C16.8529 12.3102 16.8532 12.3628 16.8535 12.4169C16.8541 12.4712 16.8549 12.5255 16.8557 12.5799C16.8576 12.7227 16.8588 12.8656 16.8598 13.0085C16.8611 13.1543 16.8629 13.3001 16.8648 13.4459C16.8683 13.732 16.871 14.018 16.8732 14.3041C17.0302 14.3076 17.1872 14.3098 17.3442 14.3117C17.4107 14.3132 17.4107 14.3132 17.4786 14.3148C17.8031 14.3221 17.8031 14.3221 18.0886 14.1825C18.2102 14.0008 18.1813 13.7656 18.1804 13.5547C18.1805 13.5132 18.1806 13.4717 18.1806 13.4289C18.1807 13.3409 18.1806 13.253 18.1802 13.165C18.1798 13.0322 18.1802 12.8994 18.1807 12.7666C18.1814 11.8968 18.1313 11.1344 17.5214 10.4553C16.8899 9.84143 16.1634 9.75902 15.3259 9.75911C15.238 9.75902 15.1501 9.75828 15.0622 9.75752C14.7272 9.75621 14.4067 9.77819 14.0778 9.84764ZM9.0137 10.2123C8.93088 10.6676 8.85684 11.1233 8.79167 11.5815C8.78277 11.6436 8.77386 11.7057 8.76494 11.7678C8.74652 11.8963 8.72818 12.0249 8.7099 12.1534C8.68651 12.3179 8.66289 12.4823 8.6392 12.6467C8.62085 12.7742 8.60264 12.9018 8.58447 13.0293C8.5758 13.09 8.5671 13.1507 8.55834 13.2113C8.54619 13.2957 8.53422 13.3801 8.52229 13.4645C8.51205 13.5363 8.51205 13.5363 8.50159 13.6095C8.47034 13.861 8.47034 13.861 8.56885 14.0852C8.58669 14.1119 8.60454 14.1387 8.62292 14.1662C8.65217 14.2085 8.65217 14.2085 8.682 14.2517C8.70178 14.2811 8.72157 14.3105 8.74195 14.3408C8.80509 14.4343 8.86887 14.5275 8.93267 14.6206C8.97566 14.684 9.0186 14.7475 9.06149 14.811C9.16662 14.9665 9.27231 15.1215 9.37832 15.2764C9.50529 15.1543 9.61386 15.0366 9.70875 14.8882C9.73095 14.8538 9.75314 14.8193 9.77601 14.7838C9.79852 14.7483 9.82103 14.7129 9.84422 14.6763C9.86673 14.6413 9.88924 14.6063 9.91243 14.5702C9.95689 14.5009 10.001 14.4313 10.0447 14.3616C10.0846 14.2994 10.1259 14.2382 10.1691 14.1784C10.3759 13.8845 10.319 13.5829 10.2705 13.2422C10.2663 13.2112 10.2621 13.1802 10.2577 13.1483C10.2439 13.0471 10.2297 12.9459 10.2155 12.8448C10.2057 12.774 10.1959 12.7031 10.1861 12.6323C10.1656 12.4844 10.145 12.3366 10.1242 12.1888C10.0976 11.9995 10.0714 11.8101 10.0454 11.6206C10.0254 11.4746 10.005 11.3286 9.98455 11.1826C9.9748 11.1128 9.96514 11.0429 9.95557 10.973C9.94219 10.8756 9.92843 10.7781 9.91458 10.6807C9.90877 10.6376 9.90877 10.6376 9.90284 10.5935C9.8824 10.4526 9.85755 10.3349 9.78345 10.2123C9.75671 10.239 9.72997 10.2657 9.70242 10.2933C9.57566 10.3778 9.49556 10.3934 9.34429 10.3958C9.21538 10.3641 9.12225 10.2868 9.0137 10.2123Z" fill="white"/>
<path d="M16.426 4.20626C16.525 4.27358 16.6184 4.34351 16.7112 4.41896C16.7449 4.44434 16.7787 4.46972 16.8134 4.49587C17.1861 4.81208 17.4858 5.36455 17.5304 5.85418C17.5497 6.29877 17.5578 6.72546 17.3594 7.13333C17.3408 7.17229 17.3222 7.21125 17.3031 7.25139C17.0095 7.82456 16.532 8.21328 15.9185 8.41266C15.6963 8.47784 15.4883 8.49054 15.2578 8.48799C15.2187 8.48768 15.1796 8.48737 15.1393 8.48706C14.8423 8.48021 14.5903 8.43924 14.3209 8.30821C14.282 8.28962 14.243 8.27103 14.2029 8.25187C13.6297 7.95836 13.2404 7.48061 13.0418 6.86683C12.9775 6.64743 12.9621 6.44198 12.9637 6.21419C12.964 6.17543 12.9642 6.13667 12.9644 6.09673C12.9775 5.57157 13.1364 5.15369 13.4701 4.74306C13.4952 4.70974 13.5203 4.67643 13.5461 4.6421C14.2282 3.83716 15.5342 3.67917 16.426 4.20626ZM13.9376 5.26356C13.6653 5.64447 13.6328 6.072 13.6727 6.52564C13.7617 6.96194 14.0283 7.30082 14.3847 7.5584C14.7889 7.80962 15.2435 7.85135 15.7045 7.7548C16.1577 7.60799 16.5006 7.28774 16.7242 6.87174C16.8883 6.48898 16.8976 6.03237 16.7694 5.63688C16.584 5.20447 16.2498 4.87024 15.8174 4.68483C15.0949 4.45075 14.4146 4.69617 13.9376 5.26356Z" fill="white"/>
<path d="M4.75826 4.20626C4.8572 4.27358 4.9506 4.34351 5.04344 4.41896C5.07717 4.44434 5.11091 4.46972 5.14567 4.49587C5.5183 4.81208 5.81802 5.36455 5.86266 5.85418C5.88192 6.29877 5.89007 6.72546 5.69164 7.13333C5.67305 7.17229 5.65446 7.21125 5.63531 7.25139C5.34177 7.82456 4.8642 8.21328 4.25074 8.41266C4.02859 8.47784 3.82055 8.49054 3.59003 8.48799C3.55092 8.48768 3.51182 8.48737 3.47153 8.48706C3.17457 8.48021 2.9225 8.43924 2.65317 8.30821C2.61421 8.28962 2.57525 8.27103 2.53511 8.25187C1.96198 7.95836 1.57261 7.48061 1.374 6.86683C1.3097 6.64743 1.29438 6.44198 1.29598 6.21419C1.29621 6.17543 1.29644 6.13667 1.29668 6.09673C1.30977 5.57157 1.46866 5.15369 1.80239 4.74306C1.82746 4.70974 1.85253 4.67643 1.87835 4.6421C2.56042 3.83716 3.86644 3.67917 4.75826 4.20626ZM2.26987 5.26356C1.9975 5.64447 1.96505 6.072 2.00496 6.52564C2.09393 6.96194 2.36052 7.30082 2.71694 7.5584C3.1211 7.80962 3.57573 7.85135 4.03678 7.7548C4.48991 7.60799 4.83287 7.28774 5.05641 6.87174C5.22054 6.48898 5.2298 6.03237 5.10167 5.63688C4.91626 5.20447 4.58203 4.87024 4.14962 4.68483C3.42714 4.45075 2.74687 4.69617 2.26987 5.26356Z" fill="white"/>
</svg>
