<svg width="29" height="25" viewBox="0 0 29 25" fill="none" xmlns="http://www.w3.org/2000/svg">
<path d="M4.2688 8.79883C5.93053 7.11661 8.64522 7.15427 10.2327 8.87207C11.847 10.6191 11.7474 13.5527 9.46899 15.1348C9.48112 15.2332 9.57119 15.2093 9.62817 15.2314C12.3632 16.2931 13.9658 18.2757 14.3713 21.1768C14.5249 22.2749 14.4262 23.3943 14.4211 24.5039C14.4195 24.8353 14.2249 24.9979 13.8909 24.998C9.44132 24.9993 4.99178 24.9994 0.542236 24.998C0.187398 24.9979 0.0148147 24.8285 0.013916 24.4795C0.0114875 23.5267 -0.0202613 22.5722 0.020752 21.6211C0.136844 18.9301 1.83536 16.395 4.55005 15.3311C4.68513 15.2781 4.82183 15.2293 4.99438 15.165C2.59737 13.5046 2.62131 10.4667 4.2688 8.79883ZM13.3782 20.9463C12.6998 17.157 8.93407 14.9099 5.27173 16.1094C2.75922 16.9322 1.33886 18.7446 1.0022 21.3789C0.899777 22.1804 0.984916 22.9883 0.950439 23.792C0.940704 24.0194 1.01083 24.0615 1.22485 24.0605C3.21829 24.0518 5.21185 24.0547 7.20532 24.0547H10.2102C11.2216 24.0547 12.233 24.0559 13.2444 24.0537C13.3398 24.0535 13.4677 24.1037 13.4622 23.915C13.4329 22.9252 13.5537 21.9271 13.3782 20.9463ZM20.9241 0.683594C21.4644 0.0697697 22.2063 -0.14639 22.9397 0.0976562C23.6794 0.343904 24.1597 0.980274 24.2219 1.7959C24.2879 2.66248 24.6049 2.92217 25.4778 2.8252C26.6049 2.7001 27.5513 3.54316 27.5481 4.69434C27.5612 5.12092 27.399 5.51044 27.1233 5.85938C26.6647 6.43958 26.7591 6.96553 27.3938 7.3584C28.0677 7.77534 28.4249 8.52813 28.2952 9.25977C28.1545 10.0526 27.5585 10.6435 26.7502 10.792C26.0986 10.9118 25.7974 11.4249 26.0071 12.0576C26.2738 12.8624 26.0786 13.6444 25.4866 14.1445C24.8677 14.667 24.0762 14.7349 23.3225 14.3301C22.7119 14.0021 22.1899 14.1959 21.9329 14.8467C21.6304 15.613 20.9531 16.0924 20.1741 16.0908C19.4102 16.0892 18.7325 15.6128 18.4319 14.8652C18.1565 14.1802 17.6561 13.9989 17.0002 14.3477C16.2811 14.7302 15.4806 14.657 14.886 14.1543C14.2854 13.6463 14.0796 12.8786 14.3362 12.1055C14.5663 11.4124 14.2794 10.9219 13.5667 10.7891C12.7955 10.6453 12.2202 10.0568 12.0618 9.25C11.9271 8.56326 12.2844 7.78344 12.9172 7.38184C13.6189 6.93669 13.7001 6.47394 13.1936 5.80664C12.7242 5.18805 12.6575 4.39199 13.051 3.73926C13.4642 3.05427 14.0829 2.74518 14.884 2.82715C15.1885 2.85835 15.4899 2.89865 15.761 2.69922C16.0491 2.48726 16.1321 2.1928 16.1458 1.85156C16.1837 0.908132 16.7417 0.224067 17.6497 0.0419922C18.3499 -0.0983741 18.9464 0.13007 19.4182 0.665039C19.8914 1.20142 20.4592 1.2117 20.9241 0.683594ZM22.676 1.01855C22.3095 0.884468 21.9279 0.963617 21.6682 1.29395C20.9037 2.26713 19.4316 2.25807 18.6838 1.28711C18.4808 1.02338 18.1843 0.913705 17.845 0.981445C17.3792 1.07458 17.113 1.40603 17.1018 1.89844C17.0786 2.92371 16.4547 3.65122 15.4631 3.81738C15.1948 3.8622 14.9375 3.77929 14.7698 3.77246C14.3145 3.77025 14.0191 3.94426 13.8596 4.25195C13.6901 4.57947 13.7182 4.89657 13.9299 5.19141C14.0729 5.39033 14.2319 5.57803 14.3264 5.80762C14.6898 6.69018 14.3629 7.60428 13.4866 8.15625C13.1184 8.38805 12.948 8.72426 13.0129 9.09082C13.0856 9.49995 13.3457 9.7863 13.7649 9.84766C14.9429 10.0197 15.6941 11.2344 15.2522 12.3838C15.0929 12.7982 15.203 13.1722 15.5012 13.4238C15.7959 13.6724 16.1828 13.6983 16.5715 13.4951C17.719 12.8951 18.8284 13.2921 19.3108 14.4834C19.4702 14.877 19.7388 15.1099 20.1702 15.1221C20.5755 15.1334 20.8781 14.9046 21.053 14.4727C21.5203 13.3178 22.6567 12.8966 23.7483 13.4736C23.8778 13.5421 24.0059 13.6084 24.1565 13.627C24.8876 13.7172 25.3415 12.9824 25.1028 12.3379C24.6851 11.2118 25.3524 10.0972 26.5188 9.85938C27.0282 9.75551 27.2696 9.53002 27.3518 9.08105C27.4197 8.70979 27.2396 8.38889 26.8157 8.125C25.8067 7.49682 25.588 6.25804 26.3215 5.3291C26.6404 4.92504 26.6871 4.5573 26.4661 4.19336C26.2603 3.85472 25.8822 3.70784 25.4114 3.79785C25.2249 3.83346 25.0418 3.84004 24.8567 3.80566C23.8712 3.62252 23.294 2.93328 23.2522 1.89062C23.235 1.46163 23.0273 1.14718 22.676 1.01855ZM7.22681 8.52637C5.51324 8.50421 4.09611 9.88578 4.06567 11.6084C4.03423 13.3898 5.41394 14.8119 7.20532 14.8447C8.89953 14.8757 10.3511 13.4483 10.3811 11.7217C10.4112 9.98131 8.99771 8.54944 7.22681 8.52637ZM22.3059 8.37305C23.3003 8.37747 24.0919 9.17684 24.0862 10.1719C24.0805 11.1581 23.2611 11.9689 22.2815 11.959C21.2971 11.9488 20.4894 11.1278 20.4993 10.1475C20.5095 9.15108 21.3065 8.36886 22.3059 8.37305ZM22.5481 4.96777C22.7415 4.92471 22.922 4.95981 23.051 5.12598C23.1841 5.29741 23.2052 5.48505 23.0852 5.6709C23.0275 5.76035 22.9507 5.83873 22.8762 5.91602C21.2966 7.55454 19.7155 9.19245 18.136 10.8311C18.0115 10.9602 17.8844 11.0798 17.6965 11.0869C17.4995 11.0756 17.3468 10.9967 17.2649 10.8213C17.1803 10.64 17.1862 10.4562 17.3264 10.3008C17.4971 10.1116 17.6749 9.9286 17.8518 9.74512C19.3157 8.2266 20.7805 6.70891 22.2444 5.19043C22.3331 5.09835 22.4196 4.99642 22.5481 4.96777ZM22.2854 9.31934C21.8362 9.32447 21.4696 9.69225 21.4641 10.1436C21.4585 10.6215 21.8133 10.9842 22.2874 10.9854C22.7646 10.9863 23.1248 10.6295 23.1252 10.1553C23.1256 9.6931 22.7445 9.31423 22.2854 9.31934ZM18.0833 4.13281C19.0501 4.13949 19.8607 4.95196 19.8625 5.91699C19.8644 6.90807 19.035 7.7286 18.0393 7.72168C17.053 7.71469 16.2673 6.90478 16.2756 5.90332C16.284 4.90888 17.0835 4.12608 18.0833 4.13281ZM18.0471 5.08398C17.5965 5.09655 17.2285 5.46881 17.2249 5.91504C17.2214 6.37646 17.5945 6.75558 18.0598 6.7627C18.5185 6.76946 18.8903 6.39048 18.8879 5.91895C18.8855 5.4544 18.4999 5.07144 18.0471 5.08398Z" fill="black"/>
</svg>
