<svg width="22" height="23" viewBox="0 0 22 23" fill="none" xmlns="http://www.w3.org/2000/svg">
<path d="M10.3414 0.392535C10.4153 0.392097 10.4153 0.392097 10.4906 0.391649C10.5944 0.391166 10.6983 0.390829 10.8022 0.39063C10.9573 0.390137 11.1124 0.388544 11.2675 0.38692C12.1457 0.382088 13.005 0.463473 13.854 0.698152C13.927 0.717869 13.927 0.717869 14.0015 0.737984C14.7863 0.955724 15.5166 1.25308 16.2348 1.63506C16.2859 1.66146 16.337 1.68786 16.3896 1.71507C17.246 2.1665 18.0024 2.76476 18.699 3.43186C18.7246 3.45607 18.7502 3.48028 18.7766 3.50523C20.7941 5.41967 21.9157 8.19216 21.9991 10.9512C22.0293 13.1911 21.292 15.4324 19.9824 17.2416C19.9619 17.2701 19.9413 17.2986 19.9201 17.328C19.617 17.7448 19.2826 18.1278 18.9263 18.4997C18.8588 18.5702 18.7919 18.6413 18.725 18.7125C17.0279 20.4736 14.3965 21.7105 11.9412 21.7675C11.8571 21.7685 11.7731 21.7692 11.689 21.7697C11.6433 21.77 11.5975 21.7702 11.5503 21.7705C11.4537 21.771 11.357 21.7714 11.2604 21.7716C11.1164 21.7721 10.9725 21.7736 10.8285 21.7753C9.97376 21.7803 9.13967 21.6907 8.31282 21.4672C8.22651 21.4441 8.14008 21.4215 8.05353 21.3993C7.9993 21.3846 7.9993 21.3846 7.94398 21.3697C7.5797 21.3098 7.34351 21.3486 7.02258 21.529C6.96986 21.5573 6.96986 21.5573 6.91608 21.5862C6.80259 21.6473 6.6898 21.7097 6.57699 21.7721C6.49892 21.8144 6.4208 21.8567 6.34265 21.8989C6.14983 22.0032 5.95755 22.1085 5.76547 22.2142C5.55764 22.3285 5.34931 22.4419 5.14107 22.5554C5.04607 22.6073 4.95119 22.6595 4.85646 22.7119C4.79419 22.7463 4.79419 22.7463 4.73065 22.7814C4.69525 22.801 4.65985 22.8207 4.62338 22.8409C4.3324 22.9895 3.99527 22.9849 3.68225 22.9085C3.37693 22.7908 3.19627 22.6101 3.04114 22.3239C2.84426 21.87 2.99153 21.354 3.08465 20.8889C3.10321 20.7937 3.12175 20.6985 3.1403 20.6033C3.1694 20.4555 3.1986 20.3077 3.22785 20.16C3.25629 20.0158 3.28439 19.8716 3.31246 19.7274C3.32129 19.6834 3.33011 19.6395 3.3392 19.5942C3.42885 19.1762 3.42885 19.1762 3.31407 18.7785C3.19627 18.6291 3.07361 18.5014 2.93525 18.371C2.60997 18.0557 2.33582 17.7071 2.06573 17.3442C2.03304 17.3004 2.00035 17.2566 1.96667 17.2115C1.00323 15.8751 0.35398 14.3037 0.114918 12.6725C0.109053 12.6327 0.103189 12.5928 0.0971459 12.5517C-0.29157 9.76844 0.502923 6.92007 2.18167 4.68044C2.30863 4.51601 2.44221 4.35812 2.5791 4.20191C2.6333 4.13928 2.6333 4.13928 2.6886 4.07538C4.59776 1.90961 7.41265 0.40646 10.3414 0.392535ZM8.73956 1.73773C8.66994 1.75382 8.66994 1.75382 8.59891 1.77024C6.04467 2.38475 3.89114 4.02986 2.52777 6.2554C2.49673 6.30417 2.46569 6.35295 2.43371 6.4032C1.93384 7.2145 1.59872 8.15616 1.38872 9.08215C1.37679 9.13477 1.37679 9.13477 1.36461 9.18845C1.22594 9.83489 1.17189 10.4701 1.17375 11.1292C1.17379 11.1685 1.17384 11.2077 1.17388 11.2481C1.18147 13.265 1.86312 15.262 3.14381 16.8309C3.16577 16.858 3.18774 16.8851 3.21036 16.913C3.45473 17.2132 3.70336 17.4977 3.98446 17.7646C4.34998 18.1208 4.53406 18.5229 4.54616 19.0311C4.54238 19.5613 4.4255 20.0734 4.32136 20.5913C4.29127 20.7428 4.26138 20.8944 4.23189 21.046C4.21364 21.1397 4.19503 21.2333 4.17602 21.3268C4.16779 21.3687 4.15957 21.4105 4.15109 21.4537C4.14368 21.4905 4.13627 21.5273 4.12864 21.5652C4.11041 21.6619 4.11041 21.6619 4.17056 21.7592C4.85057 21.4087 5.52909 21.0565 6.1972 20.6836C6.99329 20.2431 7.52561 20.0787 8.4155 20.3122C9.90968 20.6816 11.4829 20.7937 13.0006 20.4758C13.0424 20.4673 13.0842 20.4587 13.1273 20.4499C15.6435 19.9206 17.829 18.3925 19.2511 16.2623C20.2512 14.7243 20.8254 12.9549 20.8231 11.1132C20.823 11.06 20.823 11.06 20.823 11.0058C20.821 10.3319 20.7482 9.68516 20.5985 9.02761C20.5891 8.98599 20.5798 8.94438 20.5702 8.9015C20.1715 7.18535 19.2366 5.67165 18.0316 4.40726C17.9923 4.36465 17.953 4.32203 17.9125 4.27812C16.3866 2.67464 13.9807 1.59381 11.7685 1.52329C11.6963 1.52195 11.6242 1.52092 11.5521 1.52015C11.5128 1.51965 11.4736 1.51914 11.4331 1.51862C10.5181 1.50933 9.63566 1.52962 8.73956 1.73773Z" fill="white"/>
<path d="M12.2818 5.53657C12.3643 5.5731 12.3643 5.5731 12.4485 5.61037C13.2464 6.00136 13.8473 6.64513 14.1477 7.48337C14.4398 8.38307 14.3719 9.29888 13.9759 10.1569C13.5046 10.9919 12.8331 11.516 11.9303 11.8244C11.7364 11.9178 11.7007 11.964 11.6144 12.1591C11.5931 12.3218 11.5942 12.4829 11.5954 12.6468C11.5945 12.743 11.5936 12.8393 11.5927 12.9355C11.5922 13.0866 11.592 13.2377 11.5921 13.3888C11.5919 13.535 11.5905 13.6813 11.589 13.8275C11.5896 13.8951 11.5896 13.8951 11.5902 13.964C11.5876 14.1765 11.5813 14.2866 11.4648 14.4698C11.311 14.6164 11.2159 14.6663 11.0048 14.6938C10.801 14.6694 10.6957 14.596 10.5363 14.4692C10.4297 14.3093 10.4205 14.2719 10.4188 14.0899C10.4181 14.0445 10.4174 13.999 10.4168 13.9522C10.4167 13.9031 10.4165 13.854 10.4164 13.8035C10.4161 13.7526 10.4157 13.7017 10.4154 13.6493C10.4149 13.5415 10.4146 13.4336 10.4146 13.3257C10.4144 13.1622 10.4126 12.9988 10.4106 12.8353C10.4103 12.7302 10.4101 12.6251 10.41 12.52C10.4093 12.4718 10.4085 12.4235 10.4078 12.3738C10.4111 11.8762 10.5477 11.4296 10.8973 11.0659C11.1554 10.8422 11.4536 10.7233 11.7684 10.5997C12.3333 10.3678 12.7062 10.0011 12.9656 9.44762C13.1756 8.89638 13.1756 8.33722 12.9656 7.78598C12.6912 7.20058 12.2837 6.8245 11.6792 6.60061C11.1236 6.42213 10.5499 6.4703 10.023 6.71732C9.52742 6.99177 9.18154 7.37489 8.984 7.9075C8.92173 8.13777 8.89993 8.37243 8.8709 8.60878C8.83367 8.81913 8.77997 8.92273 8.63687 9.07883C8.44684 9.20553 8.29266 9.21645 8.07216 9.18151C7.78981 9.0275 7.78981 9.0275 7.7128 8.87348C7.64938 7.95325 7.86663 7.13494 8.47563 6.41835C9.39359 5.39452 10.9987 4.95633 12.2818 5.53657Z" fill="white"/>
<path d="M11.374 15.4934C11.5869 15.6177 11.7106 15.7324 11.8198 15.958C11.8621 16.2414 11.8582 16.4944 11.7332 16.7537C11.4899 17.0167 11.3322 17.1254 10.9791 17.1516C10.7424 17.1353 10.5802 17.081 10.4106 16.9095C10.1787 16.6378 10.156 16.4655 10.1593 16.1148C10.1852 15.8854 10.2643 15.7523 10.4337 15.5986C10.7096 15.3997 11.0584 15.364 11.374 15.4934Z" fill="white"/>
</svg>
