<svg width="22" height="25" viewBox="0 0 22 25" fill="none" xmlns="http://www.w3.org/2000/svg">
<path d="M6.47159 14.0322C6.99217 14.4724 7.37756 15.0837 7.47629 15.7678C7.53017 16.5956 7.39568 17.3829 6.83197 18.027C6.69951 18.1715 6.57478 18.298 6.41136 18.4069C6.43486 18.4185 6.45836 18.4301 6.48257 18.4421C7.09805 18.7487 7.64093 19.0677 8.1245 19.5645C8.32247 19.4882 8.51425 19.4 8.70616 19.3098C8.73669 19.2955 8.76722 19.2813 8.79867 19.2666C8.94529 19.1979 9.09142 19.1286 9.23573 19.0551C9.2066 19.0338 9.17747 19.0124 9.14747 18.9904C8.53891 18.5266 8.10892 17.9011 7.95937 17.1422C7.84874 16.2023 7.9957 15.3555 8.58172 14.5929C9.1192 13.9636 9.84069 13.5411 10.6711 13.4527C11.6296 13.3884 12.3915 13.6823 13.1281 14.2699C13.6197 14.7193 14.0168 15.474 14.0567 16.1406C14.0891 17.0926 13.9193 17.8755 13.2804 18.6189C13.1194 18.7845 12.9442 18.9238 12.7546 19.0551C12.801 19.0764 12.8474 19.0976 12.8951 19.1195C12.9573 19.1482 13.0195 19.1769 13.0816 19.2056C13.112 19.2195 13.1424 19.2334 13.1738 19.2478C13.3303 19.3202 13.4769 19.3959 13.6226 19.4885C13.7611 19.5785 13.7611 19.5785 13.8736 19.5415C13.9733 19.4597 14.0659 19.374 14.1581 19.2838C14.5699 18.906 15.0754 18.6427 15.579 18.4069C15.5395 18.3749 15.5395 18.3749 15.4992 18.3422C15.0587 17.97 14.7974 17.561 14.6066 17.0179C14.5952 16.9854 14.5837 16.9528 14.5719 16.9193C14.38 16.2384 14.5119 15.4808 14.8179 14.8591C15.2073 14.1981 15.7843 13.7489 16.522 13.5303C17.2554 13.3421 17.9995 13.4622 18.6629 13.8166C19.2982 14.1994 19.7259 14.815 19.9352 15.5205C20.1102 16.2474 19.9747 17.0153 19.612 17.6571C19.4243 17.942 19.1979 18.2168 18.9126 18.4069C18.9361 18.4185 18.9596 18.4301 18.9838 18.4421C20.3359 19.1156 21.2851 20.023 21.7949 21.4686C21.9365 21.9183 22.1218 22.5487 21.8904 22.9936C21.7247 23.2041 21.5792 23.2719 21.3203 23.3148C21.2472 23.3187 21.174 23.3205 21.1009 23.3204C21.0581 23.3205 21.0153 23.3205 20.9712 23.3206C20.9017 23.3204 20.9017 23.3204 20.8307 23.3201C20.7815 23.3201 20.7322 23.3201 20.6815 23.3201C20.5189 23.3201 20.3563 23.3197 20.1937 23.3194C20.0809 23.3193 19.9681 23.3192 19.8552 23.3192C19.5585 23.319 19.2617 23.3185 18.9649 23.318C18.662 23.3175 18.3591 23.3173 18.0562 23.3171C17.4619 23.3166 16.8677 23.3158 16.2735 23.3148C16.2846 23.357 16.2846 23.357 16.2959 23.4001C16.3573 23.6572 16.369 23.9531 16.2445 24.1917C16.1144 24.3595 15.9847 24.4943 15.7678 24.5356C15.6635 24.5425 15.5606 24.5434 15.4561 24.5422C15.3965 24.5426 15.3965 24.5426 15.3357 24.5431C15.2028 24.5438 15.07 24.5432 14.9371 24.5426C14.8417 24.5429 14.7463 24.5432 14.6509 24.5436C14.3921 24.5445 14.1332 24.5441 13.8744 24.5435C13.6035 24.5431 13.3326 24.5435 13.0617 24.5438C12.6067 24.5441 12.1518 24.5437 11.6969 24.5428C11.1709 24.5418 10.645 24.5421 10.119 24.5432C9.66741 24.544 9.21584 24.5441 8.76426 24.5436C8.49455 24.5433 8.22485 24.5433 7.95514 24.5439C7.70157 24.5444 7.44803 24.5441 7.19446 24.543C7.1014 24.5428 7.00834 24.5428 6.91527 24.5432C6.78824 24.5437 6.66126 24.5431 6.53423 24.5422C6.47898 24.5428 6.47898 24.5428 6.42261 24.5434C6.18237 24.5401 6.0466 24.4915 5.85575 24.3335C5.64862 24.0664 5.63958 23.8316 5.67055 23.5C5.68531 23.4381 5.70063 23.3764 5.71685 23.3148C5.69122 23.315 5.6656 23.3151 5.63919 23.3152C5.01425 23.3183 4.38932 23.3206 3.76437 23.322C3.46215 23.3228 3.15993 23.3237 2.8577 23.3253C2.5659 23.3268 2.2741 23.3277 1.98229 23.328C1.87111 23.3283 1.75992 23.3288 1.64874 23.3295C1.4927 23.3305 1.33667 23.3307 1.18062 23.3306C1.13493 23.3311 1.08924 23.3316 1.04216 23.3321C0.709343 23.3306 0.382031 23.3046 0.137574 23.0602C-0.0993955 22.6652 0.02129 22.1624 0.118854 21.7372C0.327992 20.9018 0.767384 20.18 1.36455 19.5645C1.3923 19.5333 1.42006 19.5021 1.44865 19.47C1.89189 18.9895 2.49205 18.6794 3.07769 18.4069C3.04803 18.3828 3.01836 18.3586 2.9878 18.3337C2.46852 17.8918 2.06689 17.2772 2.00245 16.5826C1.96468 15.7423 2.11 15.0257 2.66966 14.3701C3.66928 13.317 5.30059 13.1044 6.47159 14.0322ZM3.22672 14.9414C2.84912 15.4478 2.73954 15.9336 2.79988 16.5549C2.87429 16.9198 3.01538 17.2046 3.26289 17.4809C3.29772 17.5229 3.29772 17.5229 3.33325 17.5657C3.63604 17.9039 4.10456 18.1407 4.55932 18.1754C5.19057 18.1811 5.68294 18.0081 6.1379 17.5735C6.55939 17.1331 6.70519 16.6604 6.69912 16.0617C6.66467 15.525 6.40633 15.0727 6.02215 14.7065C5.17552 14.0281 3.93546 14.085 3.22672 14.9414ZM9.19937 15.1167C8.78242 15.6285 8.67119 16.2387 8.72642 16.879C8.85407 17.5494 9.2177 18.1056 9.78266 18.4909C10.3551 18.8178 10.9845 18.8943 11.6208 18.7372C12.2317 18.5388 12.7074 18.1703 13.0192 17.6066C13.3106 16.9911 13.364 16.3681 13.1368 15.7213C12.8782 15.1035 12.4326 14.6354 11.8091 14.3789C10.8145 14.0302 9.89541 14.3612 9.19937 15.1167ZM15.7081 14.9711C15.3414 15.4234 15.2613 15.9417 15.3012 16.5086C15.3866 17.0192 15.6821 17.4874 16.0883 17.805C16.5977 18.1217 17.1095 18.2505 17.7001 18.1233C18.2121 17.9854 18.6563 17.6771 18.9405 17.2237C19.1986 16.7271 19.2799 16.195 19.1516 15.6484C18.9695 15.1312 18.6597 14.7282 18.1718 14.4713C17.266 14.0509 16.399 14.2512 15.7081 14.9711ZM1.66153 20.3952C1.35427 20.7845 1.13055 21.1926 0.970992 21.6625C0.954094 21.7122 0.954094 21.7122 0.936854 21.763C0.854224 22.0261 0.83751 22.242 0.808939 22.5277C2.48967 22.5277 4.17039 22.5277 5.90205 22.5277C5.97845 22.3444 6.05485 22.161 6.13356 21.9721C6.35978 21.493 6.63076 21.0832 6.96698 20.6757C6.99383 20.6423 7.02069 20.6088 7.04836 20.5744C7.19155 20.4005 7.34545 20.2593 7.52259 20.1201C6.88567 19.4421 5.95845 18.9913 5.02468 18.9499C3.67672 18.9158 2.56002 19.3669 1.66153 20.3952ZM14.4677 20.0738C14.5592 20.1923 14.6512 20.3036 14.7571 20.4095C15.284 20.9364 15.6476 21.4996 15.9304 22.1852C15.9786 22.3013 16.0321 22.4153 16.0883 22.5277C17.769 22.5277 19.4497 22.5277 21.1814 22.5277C21.0757 21.4704 20.6195 20.5621 19.8081 19.8692C18.1741 18.5482 16.0079 18.6975 14.4677 20.0738ZM7.58137 21.1152C7.13065 21.6132 6.78813 22.2494 6.59657 22.8923C6.58752 22.9225 6.57847 22.9528 6.56914 22.9839C6.49561 23.2534 6.48388 23.4894 6.45766 23.7779C9.45242 23.7779 12.4472 23.7779 15.5327 23.7779C15.4093 22.5446 14.87 21.4338 13.9121 20.6294C11.9409 19.0843 9.30418 19.3408 7.58137 21.1152Z" fill="white"/>
<path d="M6.15968 0.892815C6.21284 0.892501 6.21284 0.892501 6.26708 0.89218C6.38593 0.891593 6.50478 0.891669 6.62364 0.891746C6.70882 0.891469 6.79401 0.891154 6.87919 0.890803C7.1107 0.889985 7.34221 0.889768 7.57373 0.889709C7.76703 0.889621 7.96032 0.889281 8.15362 0.888952C8.60977 0.888198 9.06592 0.887972 9.52207 0.888038C9.99243 0.888094 10.4628 0.887117 10.9331 0.885654C11.3371 0.884443 11.741 0.883947 12.1449 0.884006C12.3861 0.884029 12.6273 0.883766 12.8685 0.882785C13.0954 0.881888 13.3224 0.881882 13.5493 0.882555C13.6325 0.882652 13.7157 0.882434 13.7988 0.881874C13.9127 0.881157 14.0264 0.88159 14.1403 0.882303C14.1893 0.881588 14.1893 0.881588 14.2393 0.880859C14.5285 0.88484 14.7743 0.981555 14.9798 1.18463C15.0008 1.21561 15.0219 1.24658 15.0436 1.2785C15.0655 1.3096 15.0874 1.34069 15.11 1.37273C15.2128 1.54598 15.214 1.68965 15.2131 1.88674C15.2129 1.9427 15.2128 1.99865 15.2126 2.0563C15.2122 2.11476 15.2118 2.17323 15.2114 2.23346C15.2112 2.29246 15.211 2.35146 15.2108 2.41224C15.2103 2.55811 15.2095 2.70397 15.2085 2.84984C15.2388 2.84943 15.2691 2.84902 15.3004 2.84859C15.6173 2.84448 15.9343 2.8417 16.2513 2.83967C16.3694 2.83874 16.4875 2.83748 16.6056 2.83587C16.776 2.83361 16.9463 2.83257 17.1167 2.83175C17.169 2.8308 17.2213 2.82984 17.2751 2.82886C17.6336 2.82876 17.9849 2.86659 18.2617 3.11609C18.4581 3.3287 18.5534 3.53854 18.5549 3.83045C18.5556 3.90142 18.5556 3.90142 18.5563 3.97382C18.5563 4.02523 18.5564 4.07663 18.5564 4.1296C18.5568 4.18413 18.5572 4.23866 18.5576 4.29485C18.5585 4.44409 18.559 4.59333 18.5592 4.74257C18.5594 4.83595 18.5597 4.92933 18.56 5.02271C18.5612 5.34886 18.5618 5.67501 18.5619 6.00117C18.5621 6.30456 18.5635 6.60792 18.5654 6.9113C18.567 7.17229 18.5677 7.43326 18.5678 7.69425C18.5678 7.8499 18.5682 8.00553 18.5695 8.16118C18.5708 8.33496 18.5706 8.50868 18.57 8.68247C18.5707 8.7336 18.5713 8.78472 18.5721 8.83739C18.5687 9.19313 18.4919 9.42356 18.2423 9.68012C17.9825 9.91159 17.7551 9.94755 17.4165 9.93969C17.3822 9.93927 17.348 9.93885 17.3126 9.93842C17.2286 9.93734 17.1446 9.93568 17.0606 9.9339C17.0613 9.98342 17.062 10.0329 17.0628 10.084C17.0653 10.2679 17.0669 10.4519 17.0682 10.6359C17.0689 10.7155 17.0699 10.795 17.0711 10.8746C17.0728 10.9891 17.0735 11.1035 17.0742 11.218C17.0749 11.2535 17.0756 11.289 17.0763 11.3256C17.0764 11.4736 17.0706 11.5819 17.0004 11.7138C16.8971 11.8085 16.7992 11.838 16.6603 11.8482C16.2962 11.795 15.9697 11.4557 15.6901 11.2357C15.4308 11.0334 15.1589 10.8506 14.8859 10.6675C14.6581 10.5136 14.4429 10.3512 14.2304 10.177C13.9943 9.99009 13.8426 9.9237 13.5417 9.9339C13.5439 9.96195 13.546 9.99 13.5482 10.0189C13.5631 10.3648 13.5128 10.6768 13.2818 10.9475C12.9858 11.2178 12.6894 11.2433 12.3035 11.2348C12.2109 11.2336 12.1182 11.2324 12.0256 11.2313C11.9767 11.2305 11.9279 11.2297 11.8775 11.2289C11.6165 11.2252 11.3554 11.2245 11.0944 11.2233C10.7631 11.2216 10.4319 11.2191 10.1007 11.213C9.8323 11.2082 9.564 11.2066 9.29552 11.2071C9.19401 11.2067 9.0925 11.2051 8.99103 11.2023C8.23781 11.1826 7.81384 11.3433 7.24873 11.8426C7.09276 11.9755 6.92469 12.09 6.75571 12.2055C6.54874 12.3497 6.34369 12.4956 6.14204 12.6472C6.10486 12.6749 6.06768 12.7026 6.02938 12.7311C5.958 12.7844 5.88697 12.8382 5.81639 12.8926C5.61529 13.042 5.46677 13.1242 5.20752 13.1287C5.07105 13.0664 4.99719 13.0321 4.92972 12.8972C4.9257 12.7722 4.92436 12.6485 4.92519 12.5235C4.92526 12.4866 4.92533 12.4498 4.92539 12.4118C4.92565 12.2938 4.92623 12.1759 4.92682 12.058C4.92705 11.9781 4.92727 11.8982 4.92746 11.8183C4.92797 11.6223 4.92877 11.4263 4.92972 11.2303C4.87872 11.2312 4.82773 11.232 4.77519 11.2329C4.70769 11.2336 4.64019 11.2342 4.57269 11.2348C4.52238 11.2358 4.52238 11.2358 4.47106 11.2367C4.15513 11.2389 3.96506 11.1844 3.73819 10.9688C3.5389 10.7515 3.43685 10.5511 3.4357 10.2515C3.43531 10.2046 3.43491 10.1576 3.4345 10.1093C3.43455 10.0583 3.43459 10.0073 3.43463 9.95482C3.43432 9.90074 3.43401 9.84666 3.43369 9.79094C3.43281 9.61209 3.43263 9.43325 3.43253 9.2544C3.4324 9.19264 3.43225 9.13089 3.43209 9.06914C3.43123 8.74569 3.43085 8.42223 3.43092 8.09878C3.43098 7.79792 3.43 7.49708 3.42854 7.19623C3.42733 6.9374 3.42683 6.67858 3.42689 6.41976C3.42691 6.2654 3.42657 6.11107 3.42567 5.95672C3.42476 5.78438 3.42503 5.61209 3.42559 5.43975C3.42507 5.38906 3.42455 5.33837 3.42401 5.28614C3.42686 4.9392 3.48259 4.6949 3.71251 4.42299C3.73793 4.40234 3.76336 4.38169 3.78955 4.36041C3.82733 4.32836 3.82733 4.32836 3.86588 4.29566C4.13085 4.13123 4.39147 4.13459 4.69242 4.14048C4.75348 4.14111 4.75348 4.14111 4.81577 4.14175C4.91549 4.14283 5.01521 4.14449 5.11492 4.14627C5.11451 4.11645 5.1141 4.08663 5.11367 4.05591C5.10956 3.74419 5.10678 3.43247 5.10475 3.12072C5.10382 3.00454 5.10256 2.88836 5.10095 2.77219C5.09869 2.60473 5.09765 2.43729 5.09683 2.26981C5.09588 2.21829 5.09492 2.16676 5.09394 2.11367C5.09384 1.76423 5.13348 1.45155 5.38253 1.18861C5.63101 0.963497 5.82325 0.891357 6.15968 0.892815ZM5.94834 1.73862C5.89332 1.84865 5.8961 1.9155 5.89585 2.03829C5.89565 2.08185 5.89545 2.12541 5.89525 2.17029C5.89527 2.21823 5.89529 2.26617 5.89531 2.31556C5.89516 2.36593 5.895 2.4163 5.89484 2.46819C5.8944 2.63538 5.89431 2.80257 5.89426 2.96975C5.89411 3.08555 5.89396 3.20135 5.89379 3.31715C5.89352 3.56015 5.89343 3.80315 5.89346 4.04615C5.89349 4.32715 5.893 4.60814 5.89227 4.88914C5.89159 5.1593 5.89142 5.42946 5.89145 5.69962C5.89139 5.81465 5.89119 5.92968 5.89083 6.0447C5.89038 6.20534 5.89051 6.36597 5.89079 6.5266C5.89053 6.57445 5.89027 6.62229 5.89 6.67159C5.8902 6.71528 5.89039 6.75897 5.89059 6.80398C5.89057 6.84198 5.89054 6.87997 5.89051 6.91911C5.89619 7.03091 5.89619 7.03091 5.99464 7.15584C6.13306 7.20198 6.23042 7.20917 6.37518 7.2119C6.42215 7.21322 6.46912 7.21453 6.51752 7.21588C6.6165 7.21829 6.71549 7.22034 6.81449 7.22203C6.86147 7.22347 6.90844 7.2249 6.95683 7.22637C6.99984 7.22729 7.04284 7.22821 7.08715 7.22915C7.19847 7.24844 7.19847 7.24844 7.28154 7.3007C7.36365 7.42812 7.35766 7.53386 7.36106 7.6845C7.3627 7.74254 7.36435 7.80059 7.36604 7.86039C7.36708 7.92106 7.36813 7.98173 7.3692 8.04424C7.37074 8.10606 7.37234 8.16789 7.374 8.22971C7.37782 8.38106 7.38102 8.5324 7.38367 8.68377C7.65871 8.50307 7.92814 8.31638 8.19394 8.12237C8.29432 8.04919 8.39474 7.97641 8.49666 7.90538C8.60005 7.82899 8.69417 7.75195 8.79036 7.6674C9.35142 7.19662 9.83277 7.17247 10.5446 7.18894C10.651 7.18929 10.7574 7.18937 10.8638 7.1892C11.1414 7.18938 11.4188 7.19273 11.6964 7.19692C12.1425 7.20302 12.5888 7.20387 13.035 7.20536C13.1904 7.20629 13.3458 7.20837 13.5013 7.21068C13.5961 7.21158 13.6909 7.21247 13.7857 7.21334C13.8503 7.21475 13.8503 7.21475 13.9163 7.21619C13.956 7.21641 13.9956 7.21663 14.0364 7.21686C14.0708 7.21737 14.1051 7.21788 14.1404 7.2184C14.2686 7.19664 14.33 7.15517 14.4214 7.06323C14.4493 6.9621 14.4493 6.9621 14.4453 6.84708C14.4461 6.78048 14.4461 6.78048 14.447 6.71253C14.4466 6.63957 14.4466 6.63957 14.4461 6.56514C14.4465 6.51386 14.4469 6.46258 14.4473 6.40974C14.4484 6.23979 14.4481 6.06988 14.4477 5.89992C14.4479 5.78211 14.4482 5.6643 14.4485 5.54649C14.449 5.2994 14.4488 5.05233 14.4481 4.80525C14.4473 4.51953 14.4481 4.23384 14.4496 3.94813C14.4509 3.67335 14.451 3.39857 14.4506 3.12378C14.4506 3.00682 14.4509 2.88985 14.4516 2.77288C14.4524 2.60957 14.4517 2.44633 14.4507 2.28301C14.4512 2.23438 14.4517 2.18574 14.4523 2.13563C14.4517 2.09122 14.4511 2.04682 14.4505 2.00107C14.4505 1.96246 14.4505 1.92384 14.4504 1.88405C14.4286 1.77576 14.4286 1.77576 14.3246 1.70304C14.1599 1.63329 14.0365 1.62866 13.8575 1.62869C13.8245 1.6285 13.7915 1.62832 13.7576 1.62813C13.6474 1.62768 13.5372 1.62823 13.427 1.62878C13.3479 1.62866 13.2688 1.62849 13.1897 1.62826C12.975 1.62783 12.7604 1.62826 12.5457 1.62888C12.3211 1.6294 12.0965 1.62921 11.8719 1.62912C11.4948 1.62908 11.1177 1.6296 10.7406 1.63045C10.3044 1.63143 9.86829 1.63159 9.43214 1.6313C9.01268 1.63104 8.59323 1.6313 8.17377 1.63182C7.9952 1.63203 7.81663 1.63208 7.63806 1.63198C7.42786 1.63189 7.21767 1.63227 7.00747 1.633C6.93027 1.6332 6.85307 1.63323 6.77587 1.63311C6.67061 1.63296 6.56537 1.63338 6.46011 1.63394C6.40117 1.63404 6.34223 1.63413 6.28151 1.63423C6.14166 1.64537 6.06307 1.66018 5.94834 1.73862ZM15.2085 3.63696C15.2084 3.68138 15.2082 3.7258 15.208 3.77157C15.2063 4.19119 15.2036 4.6108 15.2 5.0304C15.1982 5.2461 15.1967 5.4618 15.196 5.6775C15.1953 5.88586 15.1937 6.0942 15.1915 6.30255C15.1908 6.38184 15.1904 6.46114 15.1904 6.54044C15.1896 7.31739 15.1896 7.31739 14.977 7.61885C14.587 7.99517 14.0514 7.96171 13.5417 7.98926C13.5417 8.37124 13.5417 8.75322 13.5417 9.14678C13.6343 9.1506 13.727 9.15442 13.8224 9.15836C14.2492 9.17596 14.5325 9.41825 14.8642 9.66188C14.9378 9.71549 15.0115 9.76908 15.0852 9.82267C15.1215 9.84918 15.1579 9.87568 15.1953 9.90299C15.3489 10.015 15.5028 10.1266 15.6571 10.2377C15.706 10.2731 15.7549 10.3085 15.8052 10.345C15.9576 10.4488 16.1123 10.539 16.2735 10.6284C16.2741 10.5946 16.2748 10.5607 16.2755 10.5258C16.279 10.3719 16.2834 10.218 16.2879 10.0641C16.289 10.0109 16.29 9.95758 16.2911 9.9027C16.2927 9.85122 16.2944 9.79974 16.2961 9.74671C16.2973 9.69942 16.2985 9.65214 16.2998 9.60343C16.3228 9.45096 16.366 9.36199 16.4587 9.23938C16.597 9.19328 16.6961 9.18539 16.8408 9.18169C16.888 9.18017 16.9352 9.17864 16.9838 9.17708C17.0834 9.17424 17.183 9.17159 17.2826 9.16912C17.3297 9.16754 17.3768 9.16595 17.4254 9.16433C17.4686 9.16317 17.5119 9.162 17.5564 9.16081C17.6715 9.15653 17.6715 9.15653 17.7551 9.05418C17.7693 8.95706 17.7693 8.95706 17.7672 8.84359C17.7675 8.79925 17.7678 8.75491 17.7682 8.70923C17.7681 8.66043 17.7679 8.61162 17.7678 8.56134C17.7682 8.48443 17.7682 8.48443 17.7685 8.40597C17.7692 8.23577 17.7691 8.06558 17.769 7.89539C17.7692 7.77751 17.7694 7.65964 17.7696 7.54176C17.77 7.2944 17.77 7.04704 17.7697 6.79968C17.7694 6.51363 17.77 6.22759 17.771 5.94155C17.7719 5.66654 17.7721 5.39154 17.7719 5.11653C17.7719 4.99943 17.7722 4.88234 17.7726 4.76524C17.7732 4.60172 17.7729 4.43822 17.7723 4.27469C17.7727 4.22598 17.7731 4.17727 17.7734 4.12708C17.7731 4.08261 17.7728 4.03814 17.7724 3.99233C17.7724 3.93431 17.7724 3.93431 17.7725 3.87513C17.751 3.75247 17.7144 3.71142 17.6162 3.63696C17.5051 3.61685 17.5051 3.61685 17.3794 3.62119C17.3071 3.62121 17.3071 3.62121 17.2334 3.62122C17.1814 3.62194 17.1295 3.62266 17.076 3.62339C17.0227 3.62359 16.9695 3.62379 16.9146 3.62399C16.7443 3.62477 16.574 3.62651 16.4037 3.62828C16.2883 3.62897 16.173 3.62961 16.0576 3.63018C15.7746 3.63171 15.4916 3.63403 15.2085 3.63696ZM4.29478 4.99016C4.21789 5.09616 4.21774 5.15838 4.21756 5.28876C4.21717 5.33323 4.21678 5.3777 4.21638 5.42351C4.21666 5.47222 4.21694 5.52094 4.21723 5.57112C4.21698 5.62248 4.21674 5.67383 4.21649 5.72674C4.21588 5.89691 4.21628 6.06706 4.21675 6.23723C4.21666 6.35515 4.21652 6.47307 4.21635 6.59099C4.21614 6.83827 4.21643 7.08555 4.21709 7.33282C4.21785 7.6189 4.2176 7.90497 4.21684 8.19104C4.21613 8.46608 4.21621 8.7411 4.21661 9.01613C4.21671 9.13327 4.21659 9.25041 4.21627 9.36754C4.21592 9.53096 4.21645 9.69435 4.21723 9.85777C4.21695 9.90657 4.21667 9.95538 4.21638 10.0057C4.21677 10.05 4.21716 10.0943 4.21756 10.14C4.21761 10.1787 4.21767 10.2173 4.21772 10.2572C4.22349 10.288 4.22926 10.3188 4.2352 10.3506C4.38811 10.4525 4.43489 10.4543 4.61248 10.4542C4.65904 10.455 4.70559 10.4557 4.75356 10.4565C4.85134 10.4573 4.94913 10.4575 5.04692 10.4572C5.25515 10.4614 5.40092 10.469 5.58607 10.5687C5.72201 10.8138 5.70682 11.0617 5.70815 11.3374C5.70932 11.3938 5.71048 11.4501 5.71168 11.5082C5.7144 11.6471 5.71608 11.7859 5.71683 11.9248C6.1456 11.6623 6.54966 11.3704 6.95568 11.0744C7.11327 10.9598 7.27151 10.846 7.42997 10.7326C7.45688 10.7132 7.48379 10.6939 7.51151 10.6739C7.68363 10.5508 7.78195 10.4838 7.99339 10.4831C8.03383 10.4829 8.07428 10.4826 8.11595 10.4824C8.16042 10.4823 8.2049 10.4823 8.25072 10.4822C8.29748 10.482 8.34423 10.4817 8.39241 10.4815C8.49417 10.481 8.59594 10.4806 8.6977 10.4803C8.8586 10.4797 9.01948 10.4788 9.18038 10.4778C9.63791 10.475 10.0954 10.4725 10.553 10.4709C10.8326 10.47 11.1122 10.4683 11.3918 10.4663C11.4985 10.4656 11.6053 10.4652 11.7121 10.4651C11.8612 10.4648 12.0103 10.4638 12.1594 10.4625C12.2259 10.4627 12.2259 10.4627 12.2938 10.4629C12.3344 10.4624 12.375 10.4619 12.4168 10.4614C12.4697 10.4611 12.4697 10.4611 12.5237 10.4609C12.6408 10.4384 12.6823 10.3976 12.7546 10.3043C12.7747 10.197 12.7747 10.197 12.7704 10.076C12.7703 10.0065 12.7703 10.0065 12.7703 9.9356C12.7696 9.88568 12.7689 9.83576 12.7682 9.78432C12.768 9.73314 12.7678 9.68195 12.7676 9.62921C12.7668 9.46549 12.765 9.30181 12.7633 9.1381C12.7626 9.0272 12.7619 8.9163 12.7614 8.8054C12.7598 8.53334 12.7575 8.2613 12.7546 7.98926C12.3706 7.97517 11.9867 7.96455 11.6025 7.95807C11.424 7.95496 11.2456 7.95075 11.0672 7.94385C10.0215 7.8878 10.0215 7.8878 9.11576 8.35455C9.05969 8.40659 9.00431 8.45938 8.9497 8.51295C8.80303 8.64889 8.63698 8.75707 8.47175 8.86898C8.40746 8.91401 8.34324 8.95916 8.27913 9.00444C8.24677 9.02728 8.21441 9.05012 8.18108 9.07364C7.95591 9.2337 7.73249 9.39623 7.50919 9.55888C7.47595 9.58302 7.4427 9.60716 7.40845 9.63204C7.37903 9.65348 7.34961 9.67491 7.3193 9.697C7.1543 9.81145 7.02751 9.80899 6.82806 9.795C6.73066 9.72357 6.69654 9.67086 6.64285 9.56349C6.63561 9.44537 6.6309 9.32832 6.6282 9.21008C6.62724 9.17527 6.62628 9.14046 6.62529 9.1046C6.62226 8.99326 6.61953 8.88193 6.61681 8.77059C6.61481 8.69516 6.61279 8.61974 6.61075 8.54433C6.60579 8.35931 6.6011 8.17428 6.59655 7.98926C6.53992 7.98453 6.48329 7.97981 6.42495 7.97494C5.97147 7.93578 5.65697 7.88883 5.32906 7.55229C5.14458 7.26137 5.14584 6.97657 5.14205 6.64255C5.14115 6.59361 5.14026 6.54467 5.13933 6.49425C5.13657 6.33859 5.13442 6.18292 5.13228 6.02725C5.13051 5.92144 5.12871 5.81564 5.12686 5.70983C5.12242 5.45102 5.11848 5.19221 5.11492 4.93339C4.99432 4.92964 4.87383 4.92688 4.75319 4.92471C4.71902 4.92354 4.68485 4.92238 4.64965 4.92118C4.46117 4.91436 4.46117 4.91436 4.29478 4.99016Z" fill="white"/>
<path d="M7.61153 5.66738C7.68202 5.66688 7.68202 5.66688 7.75394 5.66637C7.80546 5.66625 7.85699 5.66613 7.91007 5.666C7.99151 5.66554 7.99151 5.66554 8.07459 5.66507C8.25461 5.66416 8.43463 5.66362 8.61465 5.66316C8.67666 5.66297 8.73868 5.66278 8.80069 5.66259C9.09198 5.66171 9.38328 5.66105 9.67458 5.66066C10.0107 5.66021 10.3469 5.65899 10.683 5.65712C10.9429 5.65572 11.2028 5.65504 11.4627 5.65488C11.618 5.65477 11.7731 5.65436 11.9283 5.6532C12.1015 5.65207 12.2746 5.65211 12.4478 5.65243C12.4991 5.65184 12.5504 5.65125 12.6033 5.65063C12.9491 5.65299 12.9491 5.65299 13.1326 5.75821C13.2516 5.8999 13.2639 6.00005 13.2639 6.1835C13.2016 6.31998 13.1674 6.39384 13.0324 6.46131C12.9566 6.466 12.8806 6.46777 12.8046 6.46812C12.7323 6.46862 12.7323 6.46862 12.6586 6.46913C12.6055 6.46925 12.5525 6.46938 12.4978 6.46951C12.4421 6.46981 12.3864 6.47011 12.329 6.47043C12.1759 6.47118 12.0229 6.47172 11.8698 6.4721C11.7742 6.47234 11.6786 6.47262 11.583 6.47291C11.284 6.4738 10.9849 6.47446 10.6859 6.47484C10.3405 6.47529 9.99521 6.47651 9.64987 6.47838C9.38303 6.47978 9.1162 6.48047 8.84936 6.48062C8.68994 6.48073 8.53053 6.48114 8.37111 6.48231C8.1933 6.48358 8.0155 6.48339 7.83768 6.48307C7.78481 6.48366 7.73193 6.48426 7.67746 6.48487C7.62903 6.48455 7.5806 6.48422 7.5307 6.48389C7.48865 6.484 7.44661 6.48411 7.40329 6.48423C7.25556 6.45405 7.19981 6.39132 7.10589 6.27611C7.06289 6.10276 7.08256 5.94901 7.16666 5.79284C7.30255 5.66701 7.43507 5.66823 7.61153 5.66738Z" fill="white"/>
<path d="M7.53005 2.36327C7.57835 2.36274 7.62664 2.36222 7.6764 2.36168C7.75549 2.36225 7.75549 2.36225 7.83618 2.36282C7.91978 2.36233 7.91978 2.36233 8.00506 2.36184C8.15775 2.36116 8.31039 2.36132 8.46308 2.36191C8.62292 2.36238 8.78276 2.36194 8.94259 2.36165C9.21101 2.36131 9.47941 2.36176 9.74782 2.36264C10.0581 2.36365 10.3683 2.36332 10.6785 2.3623C10.945 2.36146 11.2114 2.36134 11.4779 2.36183C11.637 2.36212 11.7961 2.36215 11.9552 2.36154C12.1326 2.36091 12.3099 2.36179 12.4873 2.36282C12.5664 2.36226 12.5664 2.36226 12.6471 2.36168C12.6953 2.36221 12.7436 2.36273 12.7934 2.36327C12.8353 2.36334 12.8773 2.36341 12.9205 2.36348C13.0693 2.39446 13.1239 2.45449 13.2176 2.57199C13.2639 2.73115 13.2639 2.73115 13.2639 2.8961C13.1821 3.02583 13.1236 3.10516 12.9861 3.1739C12.9121 3.17848 12.8379 3.18016 12.7638 3.1804C12.7169 3.18067 12.67 3.18093 12.6216 3.18121C12.5699 3.18126 12.5182 3.18131 12.465 3.18136C12.4107 3.18159 12.3564 3.18182 12.3005 3.18206C12.1513 3.18262 12.0022 3.18297 11.853 3.18317C11.7598 3.18331 11.6667 3.1835 11.5735 3.1837C11.2819 3.18434 10.9904 3.18478 10.6989 3.18496C10.3623 3.18517 10.0258 3.18598 9.68926 3.18732C9.42915 3.18833 9.16903 3.18879 8.90892 3.18885C8.75356 3.1889 8.59821 3.18918 8.44286 3.19C8.26948 3.19079 8.09613 3.19071 7.92276 3.19041C7.84565 3.19105 7.84565 3.19105 7.76698 3.1917C7.32881 3.18931 7.32881 3.18931 7.15216 3.035C7.07971 2.8901 7.07358 2.72891 7.10586 2.57199C7.23919 2.40785 7.31965 2.36362 7.53005 2.36327Z" fill="white"/>
<path d="M7.53213 4.03043C7.58088 4.02998 7.62963 4.02952 7.67986 4.02905C7.75971 4.02972 7.75971 4.02972 7.84118 4.03041C7.89743 4.03016 7.95369 4.02991 8.01164 4.02965C8.16577 4.02917 8.31985 4.02952 8.47396 4.03029C8.63525 4.03093 8.79652 4.03063 8.9578 4.03047C9.22859 4.03034 9.49937 4.03096 9.77015 4.03204C10.0833 4.03327 10.3964 4.03335 10.7096 4.03281C11.0108 4.03231 11.312 4.03259 11.6132 4.03325C11.7414 4.03352 11.8696 4.03351 11.9978 4.03329C12.1768 4.03303 12.3557 4.03392 12.5346 4.03493C12.6146 4.03462 12.6146 4.03462 12.6962 4.0343C12.7448 4.03476 12.7934 4.03522 12.8435 4.03569C12.8858 4.0358 12.9281 4.03591 12.9717 4.03603C13.1015 4.05739 13.1412 4.08676 13.2176 4.19254C13.2929 4.50392 13.2929 4.50392 13.2048 4.68305C13.0028 4.86153 12.7901 4.82633 12.5293 4.82368C12.4731 4.82401 12.417 4.82434 12.3591 4.82468C12.2051 4.82533 12.0513 4.82494 11.8973 4.82403C11.7362 4.82327 11.5751 4.82368 11.4139 4.82391C11.1433 4.82412 10.8728 4.82339 10.6022 4.82209C10.2894 4.82061 9.97663 4.82061 9.66385 4.82141C9.36289 4.82214 9.06193 4.82183 8.76097 4.82104C8.63292 4.82072 8.50488 4.82077 8.37684 4.82111C8.19803 4.82153 8.01925 4.82042 7.84044 4.81915C7.7607 4.81961 7.7607 4.81961 7.67935 4.82007C7.63066 4.81948 7.58198 4.81889 7.53182 4.81828C7.48955 4.81815 7.44728 4.81802 7.40373 4.81789C7.25594 4.78715 7.19999 4.72457 7.10587 4.60925C7.08127 4.51665 7.08127 4.51665 7.08272 4.42405C7.082 4.37821 7.082 4.37821 7.08127 4.33145C7.14316 4.09845 7.30853 4.03048 7.53213 4.03043Z" fill="white"/>
</svg>
