<svg width="19" height="18" viewBox="0 0 19 18" fill="none" xmlns="http://www.w3.org/2000/svg">
<path d="M8.58348 5.70561C8.62709 5.70511 8.6707 5.70461 8.71564 5.7041C8.76255 5.70442 8.80946 5.70474 8.85779 5.70507C8.90612 5.70492 8.95445 5.70477 9.00424 5.70461C9.10642 5.7045 9.20859 5.70479 9.31076 5.70545C9.46732 5.70629 9.6238 5.70546 9.78035 5.70445C9.87957 5.70456 9.9788 5.70476 10.078 5.70507C10.1249 5.70475 10.1718 5.70443 10.2202 5.7041C10.2856 5.70485 10.2856 5.70485 10.3523 5.70561C10.4098 5.70579 10.4098 5.70579 10.4685 5.70599C10.6008 5.73203 10.6474 5.77634 10.7275 5.88343C10.7464 5.96811 10.7464 5.96811 10.7454 6.06029C10.7454 6.09495 10.7454 6.12962 10.7453 6.16533C10.7445 6.2024 10.7437 6.23947 10.7429 6.27767C10.7427 6.31589 10.7424 6.35411 10.7422 6.39349C10.7413 6.51543 10.7394 6.63732 10.7373 6.75925C10.7366 6.84197 10.7358 6.92469 10.7352 7.00742C10.7335 7.21009 10.7307 7.41273 10.7275 7.61538C10.7791 7.61456 10.8308 7.61373 10.884 7.61288C11.0756 7.61003 11.2672 7.60823 11.4588 7.60673C11.5418 7.60594 11.6247 7.60487 11.7076 7.60351C11.8268 7.6016 11.946 7.6007 12.0652 7.60001C12.1023 7.59919 12.1394 7.59838 12.1776 7.59754C12.2122 7.59753 12.2469 7.59752 12.2826 7.59751C12.3282 7.59698 12.3282 7.59698 12.3748 7.59645C12.4965 7.62368 12.5424 7.67421 12.6169 7.77283C12.6369 7.87439 12.6369 7.87439 12.6373 7.99056C12.6378 8.03417 12.6383 8.07778 12.6388 8.12271C12.6385 8.16962 12.6381 8.21653 12.6378 8.26487C12.638 8.3132 12.6381 8.36153 12.6383 8.41132C12.6384 8.5135 12.6381 8.61567 12.6374 8.71784C12.6366 8.8744 12.6374 9.03088 12.6384 9.18743C12.6383 9.28665 12.6381 9.38588 12.6378 9.48511C12.6381 9.53202 12.6385 9.57893 12.6388 9.62726C12.638 9.69268 12.638 9.69268 12.6373 9.75941C12.6372 9.79775 12.637 9.83608 12.6369 9.87558C12.6109 10.0079 12.5666 10.0544 12.4595 10.1346C12.3748 10.1535 12.3748 10.1535 12.2826 10.1525C12.2479 10.1525 12.2133 10.1524 12.1776 10.1524C12.122 10.1512 12.122 10.1512 12.0652 10.15C12.027 10.1497 11.9888 10.1495 11.9494 10.1493C11.8275 10.1484 11.7056 10.1464 11.5836 10.1444C11.5009 10.1436 11.4182 10.1429 11.3355 10.1423C11.1328 10.1405 10.9302 10.1378 10.7275 10.1346C10.7287 10.2121 10.7287 10.2121 10.73 10.2911C10.7329 10.4827 10.7347 10.6743 10.7362 10.8659C10.7369 10.9488 10.738 11.0318 10.7394 11.1147C10.7413 11.2339 10.7422 11.3531 10.7429 11.4723C10.7437 11.5094 10.7445 11.5464 10.7453 11.5846C10.7454 11.6366 10.7454 11.6366 10.7454 11.6897C10.7457 11.7201 10.7461 11.7505 10.7464 11.7819C10.7192 11.9036 10.6687 11.9494 10.5701 12.024C10.4685 12.044 10.4685 12.044 10.3523 12.0444C10.3087 12.0449 10.2651 12.0454 10.2202 12.0459C10.1498 12.0454 10.1498 12.0454 10.078 12.0449C10.0055 12.0451 10.0055 12.0451 9.93157 12.0454C9.8294 12.0455 9.72722 12.0452 9.62505 12.0445C9.4685 12.0437 9.31202 12.0445 9.15547 12.0455C9.05624 12.0454 8.95701 12.0452 8.85779 12.0449C8.81088 12.0452 8.76397 12.0455 8.71564 12.0459C8.65022 12.0451 8.65022 12.0451 8.58348 12.0444C8.52598 12.0442 8.52598 12.0442 8.46731 12.044C8.33501 12.0179 8.28845 11.9736 8.20831 11.8665C8.18937 11.7819 8.18937 11.7819 8.19043 11.6897C8.19044 11.655 8.19046 11.6204 8.19047 11.5846C8.19128 11.5476 8.19209 11.5105 8.19293 11.4723C8.19315 11.4341 8.19338 11.3959 8.19361 11.3565C8.19449 11.2345 8.19646 11.1127 8.19847 10.9907C8.19926 10.908 8.19997 10.8253 8.20062 10.7426C8.20235 10.5399 8.20507 10.3372 8.20831 10.1346C8.13084 10.1358 8.13084 10.1358 8.05182 10.1371C7.86021 10.1399 7.66861 10.1417 7.47699 10.1432C7.39405 10.144 7.31113 10.1451 7.2282 10.1465C7.10899 10.1484 6.98982 10.1493 6.8706 10.15C6.81499 10.1512 6.81499 10.1512 6.75826 10.1524C6.72359 10.1524 6.68893 10.1525 6.65322 10.1525C6.6228 10.1528 6.59238 10.1532 6.56104 10.1535C6.43927 10.1263 6.39345 10.0758 6.3189 9.97714C6.29891 9.87558 6.29891 9.87558 6.29853 9.75941C6.29804 9.7158 6.29754 9.67219 6.29703 9.62726C6.29735 9.58035 6.29767 9.53344 6.29799 9.48511C6.29784 9.43678 6.29769 9.38845 6.29754 9.33865C6.29743 9.23648 6.29772 9.1343 6.29838 9.03213C6.29922 8.87558 6.29839 8.7191 6.29738 8.56255C6.29748 8.46332 6.29768 8.36409 6.29799 8.26487C6.29767 8.21796 6.29736 8.17105 6.29703 8.12271C6.29752 8.0791 6.29802 8.03549 6.29853 7.99056C6.29866 7.95222 6.29878 7.91389 6.29891 7.87439C6.32496 7.74209 6.36926 7.69553 6.47635 7.61538C6.56104 7.59645 6.56104 7.59645 6.65322 7.59751C6.70521 7.59753 6.70521 7.59753 6.75826 7.59754C6.81386 7.59876 6.81386 7.59876 6.8706 7.60001C6.90881 7.60023 6.94703 7.60045 6.98641 7.60068C7.10835 7.60156 7.23025 7.60354 7.35217 7.60554C7.43489 7.60633 7.51762 7.60705 7.60034 7.6077C7.80301 7.60943 8.00565 7.61215 8.20831 7.61538C8.20748 7.56374 8.20666 7.5121 8.20581 7.45889C8.20296 7.26729 8.20115 7.07568 8.19966 6.88406C8.19887 6.80113 8.19779 6.7182 8.19643 6.63528C8.19452 6.51607 8.19363 6.39689 8.19293 6.27767C8.19212 6.2406 8.1913 6.20353 8.19047 6.16533C8.19046 6.13067 8.19044 6.09601 8.19043 6.06029C8.19008 6.02987 8.18973 5.99946 8.18937 5.96811C8.23707 5.7548 8.38379 5.70626 8.58348 5.70561ZM8.83811 6.35578C8.83664 6.47944 8.83516 6.60309 8.83365 6.73049C8.83183 6.85009 8.82981 6.96967 8.82778 7.08926C8.82647 7.17246 8.82536 7.25566 8.82447 7.33886C8.82315 7.45836 8.82109 7.57784 8.81889 7.69734C8.81851 7.75325 8.81851 7.75325 8.81812 7.81029C8.81735 7.84496 8.81657 7.87962 8.81576 7.91534C8.81533 7.94585 8.81489 7.97635 8.81444 8.00778C8.79428 8.11048 8.76531 8.14508 8.68066 8.20582C8.6007 8.22152 8.6007 8.22152 8.50826 8.22284C8.45626 8.22401 8.45626 8.22401 8.40321 8.2252C8.36594 8.22545 8.32866 8.22571 8.29026 8.22596C8.25198 8.22667 8.21371 8.22738 8.17427 8.22811C8.05195 8.23024 7.92963 8.23157 7.8073 8.23288C7.7244 8.23419 7.6415 8.23555 7.55859 8.23696C7.3553 8.2404 7.15203 8.24277 6.94871 8.24518C6.94871 8.66085 6.94871 9.07652 6.94871 9.50479C7.13419 9.507 7.13419 9.507 7.32342 9.50925C7.44301 9.51107 7.5626 9.51308 7.68219 9.51512C7.76538 9.51643 7.84858 9.51753 7.93178 9.51842C8.05129 9.51974 8.17076 9.5218 8.29026 9.52401C8.32754 9.52426 8.36481 9.52451 8.40321 9.52477C8.43788 9.52555 8.47255 9.52633 8.50826 9.52713C8.55402 9.52779 8.55402 9.52779 8.6007 9.52846C8.7034 9.54861 8.738 9.57759 8.79874 9.66224C8.81444 9.74219 8.81444 9.74219 8.81576 9.83463C8.81693 9.88663 8.81693 9.88663 8.81812 9.93968C8.81838 9.97696 8.81863 10.0142 8.81889 10.0526C8.81959 10.0909 8.8203 10.1292 8.82103 10.1686C8.82316 10.2909 8.82449 10.4133 8.82581 10.5356C8.82711 10.6185 8.82847 10.7014 8.82988 10.7843C8.83333 10.9876 8.83569 11.1909 8.83811 11.3942C9.25378 11.3942 9.66944 11.3942 10.0977 11.3942C10.0992 11.2705 10.1007 11.1469 10.1022 11.0195C10.104 10.8999 10.106 10.7803 10.108 10.6607C10.1093 10.5775 10.1105 10.4943 10.1113 10.4111C10.1127 10.2916 10.1147 10.1721 10.1169 10.0526C10.1172 10.0154 10.1174 9.97809 10.1177 9.93968C10.1185 9.90501 10.1192 9.87035 10.1201 9.83463C10.1205 9.80413 10.1209 9.77362 10.1214 9.74219C10.1415 9.6395 10.1705 9.60489 10.2552 9.54415C10.3351 9.52846 10.3351 9.52846 10.4276 9.52713C10.4622 9.52635 10.4969 9.52557 10.5326 9.52477C10.5699 9.52452 10.6071 9.52427 10.6456 9.52401C10.6838 9.5233 10.7221 9.52259 10.7615 9.52187C10.8839 9.51973 11.0062 9.5184 11.1285 9.51709C11.2114 9.51578 11.2943 9.51443 11.3772 9.51301C11.5805 9.50957 11.7838 9.50721 11.9871 9.50479C11.9871 9.08912 11.9871 8.67345 11.9871 8.24518C11.8016 8.24298 11.8016 8.24298 11.6124 8.24073C11.4928 8.23891 11.3732 8.23689 11.2536 8.23485C11.1704 8.23354 11.0872 8.23244 11.004 8.23155C10.8845 8.23023 10.765 8.22817 10.6456 8.22596C10.6083 8.22571 10.571 8.22546 10.5326 8.2252C10.4979 8.22442 10.4633 8.22364 10.4276 8.22284C10.397 8.2224 10.3665 8.22197 10.3351 8.22152C10.2324 8.20136 10.1978 8.17239 10.1371 8.08773C10.1214 8.00778 10.1214 8.00778 10.1201 7.91534C10.1193 7.88067 10.1185 7.84601 10.1177 7.81029C10.1174 7.77302 10.1172 7.73574 10.1169 7.69734C10.1162 7.65906 10.1155 7.62079 10.1148 7.58135C10.1127 7.45903 10.1113 7.33671 10.11 7.21438C10.1087 7.13147 10.1073 7.04857 10.1059 6.96567C10.1025 6.76237 10.1001 6.5591 10.0977 6.35578C9.68204 6.35578 9.26637 6.35578 8.83811 6.35578Z" fill="white"/>
<path d="M9.83578 0.0215863C10.0212 0.0239399 10.2066 0.0242328 10.392 0.0244658C10.5728 0.0248172 10.7535 0.0260265 10.9342 0.0275264C11.0196 0.0282163 11.1049 0.0287505 11.1902 0.0291135C11.8339 0.0330137 12.4606 0.0824244 13.0548 0.353011C13.085 0.366188 13.1151 0.379365 13.1462 0.392941C13.4853 0.543806 13.8157 0.713055 14.1467 0.880716C15.2895 1.45896 16.2751 1.89833 17.5718 1.91475C17.606 1.91523 17.6401 1.9157 17.6753 1.91619C17.8172 1.9181 17.9591 1.91997 18.101 1.92066C18.2059 1.92127 18.3108 1.92285 18.4157 1.92459C18.4477 1.92452 18.4797 1.92444 18.5127 1.92437C18.6563 1.92749 18.7403 1.93409 18.8563 2.02241C18.9198 2.11155 18.9363 2.15381 18.9346 2.2621C18.9352 2.30107 18.9352 2.30107 18.9358 2.34082C18.9054 2.45539 18.8479 2.50193 18.7575 2.577C18.6603 2.59673 18.6603 2.59673 18.5502 2.59675C18.5088 2.59712 18.4674 2.59748 18.4247 2.59787C18.3577 2.5972 18.3577 2.5972 18.2893 2.59653C18.2428 2.59658 18.1964 2.59664 18.1486 2.5967C18.0501 2.59663 17.9516 2.59618 17.8531 2.59536C17.7041 2.59423 17.5552 2.59455 17.4063 2.59506C16.4645 2.59448 16.4645 2.59448 16.0021 2.45891C15.975 2.45111 15.948 2.44332 15.9201 2.43529C15.4997 2.31183 15.1076 2.14677 14.7165 1.95037C14.6289 1.90637 14.5409 1.86297 14.4529 1.81969C14.2737 1.73145 14.0947 1.64257 13.9159 1.55357C12.9097 1.03081 12.9097 1.03081 11.8174 0.763878C11.7867 0.760557 11.7559 0.757237 11.7243 0.753816C11.3882 0.719405 11.0523 0.705447 10.7148 0.697127C10.6655 0.695884 10.6655 0.695884 10.6153 0.694616C10.3681 0.688724 10.121 0.685064 9.87384 0.682673C9.81953 0.682133 9.81953 0.682133 9.76413 0.681582C8.68541 0.672648 7.77879 0.720445 6.82555 1.27257C6.59083 1.40637 6.33913 1.50209 6.08845 1.60148C6.01394 1.63128 5.93986 1.66196 5.86589 1.69307C5.5415 1.82911 5.5415 1.82911 5.45294 1.82911C5.47698 1.96084 5.50374 2.09178 5.53166 2.22273C5.53897 2.26089 5.54628 2.29905 5.5538 2.33836C5.65355 2.48147 5.79919 2.50567 5.96465 2.53764C6.48152 2.61044 7.05058 2.41974 7.53423 2.2498C7.7 2.19226 7.83456 2.15087 8.0115 2.18337C8.15682 2.28541 8.20158 2.34246 8.23292 2.51795C8.20827 2.65596 8.18169 2.71012 8.08102 2.8046C7.9323 2.90715 7.75557 2.9469 7.58343 2.99523C7.54284 3.00697 7.50224 3.01872 7.46041 3.03083C7.34259 3.06433 7.22453 3.09657 7.10616 3.12807C7.07673 3.13592 7.0473 3.14377 7.01698 3.15185C6.49634 3.28547 5.85147 3.35857 5.3676 3.07872C5.06579 2.8709 4.85218 2.58585 4.78378 2.22273C4.75749 1.94641 4.75642 1.67886 4.90186 1.43548C5.08878 1.22952 5.31265 1.12697 5.56718 1.02648C5.60474 1.01115 5.6423 0.995816 5.681 0.980019C5.80078 0.931248 5.92083 0.883207 6.04092 0.835203C6.15786 0.787868 6.27473 0.740386 6.39155 0.692758C6.47118 0.660599 6.55102 0.62897 6.63106 0.597832C6.82365 0.522271 7.00664 0.444057 7.18616 0.340922C7.99559 -0.100454 8.94252 0.00779162 9.83578 0.0215863Z" fill="white"/>
<path d="M13.6502 14.7278C13.9415 14.9668 14.1238 15.2559 14.1631 15.6336C14.1709 15.8671 14.1594 16.1117 14.034 16.3146C13.8401 16.5167 13.6262 16.6219 13.3687 16.7236C13.3311 16.739 13.2935 16.7543 13.2548 16.7701C13.1351 16.8189 13.015 16.8669 12.8949 16.9149C12.778 16.9622 12.6611 17.0097 12.5443 17.0573C12.4647 17.0895 12.3848 17.1211 12.3048 17.1523C12.1122 17.2278 11.9292 17.306 11.7497 17.4092C10.9402 17.8506 9.99331 17.7423 9.10005 17.7285C8.91464 17.7262 8.72925 17.7259 8.54382 17.7256C8.36307 17.7253 8.18233 17.7241 8.00159 17.7226C7.91626 17.7219 7.83093 17.7214 7.7456 17.721C7.07927 17.717 6.44962 17.6577 5.83672 17.3749C5.80267 17.3598 5.76862 17.3447 5.73353 17.3291C5.40739 17.1823 5.0882 17.0213 4.76932 16.8594C4.39704 16.6708 4.0203 16.4914 3.64226 16.3146C3.61466 16.3017 3.58706 16.2887 3.55862 16.2754C2.84787 15.9451 2.13735 15.8448 1.36016 15.8353C1.32606 15.8349 1.29196 15.8344 1.25683 15.8339C1.11544 15.832 0.974067 15.8301 0.832667 15.8294C0.728018 15.8288 0.623421 15.8273 0.518786 15.8255C0.470937 15.8256 0.470937 15.8256 0.422123 15.8257C0.278797 15.8226 0.195361 15.8159 0.0796668 15.7277C0.0159743 15.6385 -0.000462794 15.5963 0.00123008 15.488C0.00062119 15.449 0.00062119 15.449 0 15.4093C0.030432 15.2947 0.0879559 15.2482 0.178361 15.1731C0.275512 15.1534 0.275512 15.1534 0.385601 15.1534C0.427027 15.153 0.468454 15.1526 0.511135 15.1522C0.555826 15.1527 0.600515 15.1531 0.64656 15.1536C0.69299 15.1535 0.739421 15.1535 0.787258 15.1534C0.885762 15.1535 0.984266 15.1539 1.08277 15.1547C1.23171 15.1559 1.38059 15.1556 1.52953 15.155C2.4713 15.1556 2.4713 15.1556 2.93374 15.2912C2.96079 15.299 2.98783 15.3068 3.0157 15.3148C3.43609 15.4383 3.82827 15.6033 4.21932 15.7997C4.30697 15.8437 4.3949 15.8871 4.48292 15.9304C4.66216 16.0186 4.84108 16.1075 5.01995 16.1965C6.02608 16.7193 6.02608 16.7193 7.11844 16.9862C7.14917 16.9895 7.1799 16.9929 7.21156 16.9963C7.5476 17.0307 7.88351 17.0447 8.22108 17.053C8.25391 17.0538 8.28674 17.0546 8.32057 17.0555C8.5677 17.0614 8.81481 17.065 9.06199 17.0674C9.0982 17.0678 9.1344 17.0681 9.17171 17.0685C10.2504 17.0775 11.157 17.0297 12.1103 16.4775C12.345 16.3437 12.5967 16.248 12.8474 16.1486C12.9219 16.1188 12.996 16.0881 13.0699 16.057C13.3943 15.921 13.3943 15.921 13.4829 15.921C13.4589 15.7893 13.4321 15.6583 13.4042 15.5274C13.3969 15.4892 13.3896 15.4511 13.382 15.4117C13.2819 15.268 13.1376 15.2438 12.9712 15.2125C12.4412 15.1447 11.8995 15.3267 11.4041 15.5003C11.2376 15.5575 11.1018 15.5993 10.9243 15.5667C10.779 15.4647 10.7343 15.4076 10.7029 15.2321C10.7276 15.0941 10.7541 15.04 10.8548 14.9455C11.0035 14.843 11.1803 14.8032 11.3524 14.7549C11.393 14.7431 11.4336 14.7314 11.4754 14.7193C11.5932 14.6858 11.7113 14.6535 11.8297 14.622C11.8591 14.6142 11.8885 14.6063 11.9189 14.5983C12.4761 14.4552 13.1536 14.3859 13.6502 14.7278Z" fill="white"/>
<path d="M6.30954 11.7885C6.33861 11.8143 6.36769 11.8401 6.39764 11.8667C6.42225 11.8881 6.44686 11.9095 6.47221 11.9315C6.57837 12.03 6.66106 12.1193 6.72926 12.2484C6.9574 12.6724 7.28923 12.7814 7.72121 12.9443C7.78722 12.9703 7.85319 12.9965 7.9191 13.0229C8.04724 13.0739 8.1756 13.1243 8.3042 13.1741C8.46765 13.2377 8.63002 13.3035 8.79153 13.3719C8.83291 13.3894 8.87429 13.4068 8.91693 13.4248C9.44682 13.6753 9.92435 14.0791 10.1297 14.6393C10.2499 15.0885 10.2208 15.6188 10.019 16.0392C9.95442 16.1319 9.95442 16.1319 9.86154 16.1966C9.59921 16.2206 9.41543 16.16 9.17654 16.0566C9.14114 16.0418 9.10574 16.027 9.06926 16.0117C8.95345 15.9632 8.83798 15.9138 8.72249 15.8645C8.64207 15.8306 8.56163 15.7968 8.48116 15.763C8.31534 15.6934 8.14963 15.6234 7.984 15.5533C7.74515 15.4524 7.50567 15.353 7.26592 15.2542C7.21035 15.2313 7.21035 15.2313 7.15366 15.2079C7.01123 15.1492 6.8688 15.0905 6.72635 15.0318C6.62905 14.9917 6.53179 14.9515 6.43454 14.9112C6.40621 14.8995 6.37787 14.8879 6.34868 14.8759C5.85039 14.6691 5.85039 14.6691 5.76784 14.504C5.74834 14.3481 5.742 14.2649 5.83427 14.135C5.9392 14.0613 5.99451 14.0429 6.1221 14.0317C6.21983 14.0592 6.30746 14.0892 6.40087 14.1273C6.42817 14.138 6.45548 14.1487 6.48361 14.1597C6.57331 14.1952 6.66263 14.2314 6.7519 14.2679C6.7972 14.2862 6.7972 14.2862 6.84341 14.305C7.0718 14.3978 7.29937 14.4926 7.52685 14.5877C7.59758 14.6171 7.6683 14.6466 7.73903 14.676C7.88053 14.7349 8.022 14.7938 8.16346 14.8528C8.42969 14.9637 8.69619 15.074 8.96274 15.1842C9.03628 15.2146 9.10981 15.245 9.18334 15.2754C9.29132 15.3201 9.3993 15.3647 9.50728 15.4094C9.49659 15.315 9.4854 15.2206 9.47392 15.1263C9.47096 15.0998 9.46801 15.0732 9.46497 15.0459C9.4227 14.7068 9.27133 14.5166 9.01033 14.3072C8.58824 14.0213 8.0996 13.8475 7.63049 13.6547C7.60058 13.6424 7.57068 13.6301 7.53986 13.6174C7.38909 13.5555 7.2382 13.4939 7.08709 13.4328C7.05865 13.4212 7.0302 13.4096 7.00089 13.3977C6.94733 13.3759 6.89372 13.3543 6.84005 13.3328C6.59775 13.234 6.44001 13.1658 6.3263 12.9246C6.04563 12.3847 5.62048 12.1138 5.06101 11.904C4.47625 11.7223 3.64536 11.7471 3.09119 12.0242C2.99999 12.0286 2.90866 12.0305 2.81736 12.0312C2.77511 12.0315 2.77511 12.0315 2.732 12.0319C2.63862 12.0327 2.54524 12.0332 2.45186 12.0336C2.41999 12.0337 2.38812 12.0339 2.35529 12.0341C2.18666 12.0349 2.01803 12.0354 1.8494 12.0358C1.67512 12.0362 1.50085 12.0376 1.32657 12.0392C1.19265 12.0402 1.05873 12.0405 0.924797 12.0407C0.860546 12.0409 0.796294 12.0413 0.732046 12.042C0.64214 12.043 0.552285 12.043 0.462375 12.0427C0.411216 12.0429 0.360057 12.0432 0.307348 12.0434C0.157186 12.021 0.111177 11.9863 0.0209113 11.8667C0 11.788 0 11.788 0.00123008 11.7093C0.00062119 11.6703 0.00062119 11.6703 0 11.6306C0.030826 11.5145 0.085435 11.4693 0.178361 11.3944C0.292914 11.3753 0.292914 11.3753 0.427712 11.376C0.478341 11.3759 0.52897 11.3757 0.581132 11.3756C0.621642 11.376 0.621642 11.376 0.662971 11.3765C0.748338 11.3773 0.833651 11.3772 0.919021 11.3768C1.13146 11.3759 1.34389 11.3766 1.55633 11.3776C2.47104 11.4018 2.47104 11.4018 3.35541 11.2055C4.31363 10.8552 5.5478 11.1434 6.30954 11.7885Z" fill="white"/>
<path d="M9.38921 1.55367C9.51724 1.59001 9.6373 1.64089 9.75931 1.69374C9.79471 1.70854 9.83012 1.72334 9.86659 1.73859C9.98241 1.78714 10.0979 1.83646 10.2134 1.88579C10.2938 1.91967 10.3742 1.9535 10.4547 1.98727C10.6205 2.05693 10.7862 2.12687 10.9519 2.19698C11.1907 2.29792 11.4302 2.39727 11.6699 2.49606C11.707 2.51134 11.744 2.52662 11.7822 2.54236C11.9246 2.60108 12.0671 2.65978 12.2095 2.71846C12.3068 2.75859 12.4041 2.79883 12.5013 2.8391C12.5438 2.85659 12.5438 2.85659 12.5872 2.87442C13.0855 3.08116 13.0855 3.08116 13.168 3.24626C13.1875 3.40224 13.1939 3.48543 13.1016 3.61528C12.9967 3.68902 12.9413 3.70737 12.8138 3.71861C12.716 3.69106 12.6284 3.66108 12.535 3.62297C12.5077 3.61227 12.4804 3.60157 12.4522 3.59055C12.3625 3.55514 12.2732 3.51889 12.184 3.48244C12.1387 3.46406 12.1387 3.46406 12.0924 3.44532C11.8641 3.35247 11.6365 3.25767 11.409 3.16261C11.3383 3.13316 11.2676 3.10372 11.1968 3.07429C11.0553 3.01541 10.9139 2.95648 10.7724 2.89751C10.5062 2.78659 10.2397 2.67631 9.97312 2.56613C9.89958 2.53573 9.82605 2.50532 9.75252 2.4749C9.64454 2.43024 9.53656 2.38557 9.42857 2.34092C9.43337 2.40916 9.43858 2.47738 9.44395 2.54558C9.44823 2.60256 9.44823 2.60256 9.4526 2.66069C9.49459 2.97066 9.65751 3.23221 9.89923 3.42616C10.3521 3.74077 10.8944 3.92441 11.4014 4.13256C11.5127 4.1783 11.6238 4.22428 11.735 4.27025C11.8162 4.30364 11.8976 4.33654 11.9789 4.36942C12.0294 4.39018 12.0799 4.41095 12.1303 4.43175C12.1748 4.44986 12.2194 4.46797 12.2652 4.48662C12.4539 4.58234 12.5484 4.70774 12.6489 4.88965C12.9487 5.39755 13.3831 5.70657 13.9521 5.86526C14.1908 5.92474 14.4208 5.93803 14.6662 5.93768C14.7056 5.9377 14.745 5.93772 14.7855 5.93774C15.1442 5.93249 15.5192 5.88883 15.8447 5.7261C15.9359 5.72166 16.0272 5.71983 16.1185 5.71914C16.1607 5.71875 16.1607 5.71875 16.2039 5.71835C16.2972 5.71758 16.3906 5.71712 16.484 5.71672C16.5159 5.71656 16.5477 5.7164 16.5806 5.71624C16.7492 5.71542 16.9178 5.71485 17.0864 5.71449C17.2607 5.71405 17.435 5.71269 17.6093 5.71113C17.7432 5.7101 17.8771 5.70977 18.0111 5.70963C18.0753 5.70944 18.1396 5.70898 18.2038 5.70825C18.2937 5.7073 18.3836 5.70733 18.4735 5.7076C18.5246 5.70737 18.5758 5.70714 18.6285 5.7069C18.7787 5.72926 18.8247 5.764 18.9149 5.88355C18.9359 5.96228 18.9359 5.96228 18.9346 6.041C18.9352 6.07997 18.9352 6.07997 18.9359 6.11973C18.905 6.23578 18.8504 6.28101 18.7575 6.35591C18.6429 6.37501 18.6429 6.37501 18.5081 6.37427C18.4322 6.37448 18.4322 6.37448 18.3547 6.3747C18.3277 6.37441 18.3007 6.37412 18.2729 6.37383C18.1875 6.37296 18.1022 6.37311 18.0168 6.37353C17.8044 6.37438 17.592 6.37371 17.3795 6.37268C16.4649 6.34853 16.4649 6.34853 15.5804 6.54452C14.8782 6.80261 14.0084 6.68246 13.3328 6.40019C13.2774 6.3733 13.2225 6.34538 13.168 6.31654C13.1367 6.30005 13.1053 6.28356 13.073 6.26657C12.6668 6.03835 12.2826 5.70897 12.0601 5.29467C11.946 5.11102 11.8171 5.0504 11.6193 4.97545C11.5876 4.96247 11.5559 4.9495 11.5233 4.93613C11.4224 4.89508 11.321 4.85543 11.2196 4.81584C11.1527 4.78903 11.0859 4.76212 11.0191 4.73512C10.9211 4.69554 10.8232 4.65601 10.7251 4.61682C9.97234 4.31514 9.19378 3.98376 8.83967 3.20213C8.67625 2.75759 8.72454 2.25655 8.86704 1.81491C8.98752 1.56391 9.11991 1.52114 9.38921 1.55367Z" fill="white"/>
<path d="M4.54759 4.78142C4.66322 4.86261 4.66322 4.86261 4.7444 4.97823C4.77425 5.21474 4.70464 5.34343 4.56727 5.52685C3.89821 6.4778 3.55611 7.61226 3.55623 8.77044C3.55615 8.85931 3.55543 8.94817 3.55468 9.03704C3.55352 9.34622 3.56802 9.63989 3.62529 9.94505C3.65299 10.1263 3.67412 10.2948 3.56353 10.4496C3.45903 10.5309 3.4026 10.5282 3.26831 10.5234C3.11128 10.4842 3.07061 10.458 2.97309 10.3315C2.94243 10.2225 2.92117 10.1247 2.90528 10.0136C2.9005 9.98235 2.89572 9.95114 2.8908 9.91898C2.84205 9.57466 2.83508 9.23218 2.83778 8.88497C2.83789 8.8525 2.83799 8.82003 2.8381 8.78657C2.84069 8.26435 2.87989 7.7683 3.01245 7.26126C3.02319 7.21736 3.02319 7.21736 3.03415 7.17256C3.23968 6.34072 3.64013 5.48011 4.19333 4.82078C4.31687 4.75901 4.41134 4.76756 4.54759 4.78142Z" fill="white"/>
<path d="M15.7659 7.26125C15.997 7.44633 16.0244 7.64474 16.061 7.92457C16.1373 8.70747 16.152 9.56514 15.9627 10.3315C15.951 10.3805 15.951 10.3805 15.939 10.4304C15.7546 11.1805 15.3547 12.5248 14.6699 12.9774C14.5462 13.023 14.4616 13.0067 14.3366 12.9713C14.2308 12.8901 14.2308 12.8901 14.1668 12.7646C14.1405 12.4973 14.2851 12.3315 14.4374 12.1225C15.078 11.2255 15.3797 10.0679 15.3796 8.97981C15.3797 8.89094 15.3804 8.80208 15.3811 8.71321C15.3823 8.40223 15.3672 8.10693 15.31 7.79991C15.2859 7.6452 15.2936 7.5311 15.3329 7.37934C15.4517 7.23316 15.5868 7.23612 15.7659 7.26125Z" fill="white"/>
<path d="M5.57103 3.79725C5.70036 3.88234 5.72454 3.94028 5.76538 4.09001C5.76814 4.24716 5.74677 4.30578 5.64975 4.42705C5.50212 4.52547 5.43095 4.52687 5.25613 4.50577C5.1405 4.42459 5.1405 4.42459 5.05931 4.30896C5.03209 4.13959 5.03902 4.06454 5.13312 3.92026C5.27365 3.77972 5.3747 3.78032 5.57103 3.79725Z" fill="white"/>
<path d="M13.7585 13.2837C13.8791 13.3641 13.9089 13.4191 13.9528 13.5568C13.9558 13.7021 13.9256 13.7605 13.8372 13.8741C13.6895 13.9726 13.6184 13.974 13.4436 13.9529C13.2982 13.8508 13.2535 13.7938 13.2221 13.6183C13.2467 13.4805 13.2467 13.4805 13.3255 13.3649C13.4889 13.2526 13.5628 13.2557 13.7585 13.2837Z" fill="white"/>
</svg>
