<svg width="16" height="18" viewBox="0 0 16 18" fill="none" xmlns="http://www.w3.org/2000/svg">
<path d="M11.4071 5.29341C12.4926 6.24943 13.038 7.55278 13.1444 8.98198C13.2274 10.3919 12.6815 11.6716 11.7746 12.7228C10.967 13.6279 9.73414 14.2422 8.52403 14.3365C6.96156 14.4159 5.61589 14.0042 4.43802 12.9574C3.91351 12.4803 3.52846 11.8828 3.24363 11.2371C3.23283 11.2127 3.22204 11.1883 3.21091 11.1631C2.65756 9.87834 2.73894 8.43026 3.24901 7.14578C3.74958 5.93731 4.69908 4.96316 5.91097 4.46045C7.7582 3.73865 9.87926 4.00888 11.4071 5.29341ZM4.53395 6.26394C3.95327 6.92894 3.60678 7.8407 3.51147 8.71174C3.50639 8.7513 3.50131 8.79086 3.49608 8.83161C3.40354 9.72788 3.62821 10.6559 4.08543 11.4285C4.14816 11.3463 4.20833 11.2634 4.26629 11.1778C4.69371 10.556 5.29735 10.3643 5.98427 10.1347C6.05258 10.1116 6.12089 10.0885 6.18919 10.0654C6.35515 10.0093 6.52122 9.9535 6.68737 9.89792C6.55457 9.76446 6.55457 9.76446 6.41847 9.6344C6.01606 9.25503 5.79681 8.76074 5.76126 8.20833C5.75183 7.53513 5.93337 6.94118 6.37528 6.42279C6.77089 6.02288 7.30953 5.79824 7.86841 5.78914C8.50208 5.79035 9.07859 5.92361 9.55804 6.36853C10.019 6.89057 10.2299 7.50005 10.217 8.19338C10.1735 8.82138 9.90885 9.31505 9.44579 9.73455C9.39476 9.77762 9.34223 9.81893 9.2893 9.85965C9.36928 9.93963 9.40822 9.95637 9.51306 9.9904C9.54335 10.0004 9.57365 10.0104 9.60486 10.0206C9.65412 10.0365 9.65412 10.0365 9.70437 10.0528C9.77405 10.0759 9.84373 10.099 9.9134 10.1221C10.0231 10.1583 10.1328 10.1942 10.2426 10.2299C10.3487 10.2644 10.4546 10.2997 10.5605 10.335C10.5928 10.3453 10.6251 10.3555 10.6584 10.3661C10.8918 10.4446 11.0808 10.5563 11.279 10.7015C11.3038 10.7196 11.3286 10.7377 11.3542 10.7564C11.5357 10.8932 11.6425 11.067 11.7581 11.2605C11.8115 11.3546 11.8115 11.3546 11.8912 11.4285C12.4978 10.2965 12.6493 9.12903 12.2896 7.88922C11.947 6.76955 11.2405 5.82887 10.206 5.26354C9.81488 5.0576 9.41246 4.9122 8.98319 4.80884C8.94477 4.79942 8.90634 4.78999 8.86675 4.78029C7.24382 4.46271 5.6353 5.06871 4.53395 6.26394ZM6.68079 7.04472C6.42153 7.40869 6.3283 7.84753 6.39889 8.28546C6.49839 8.73729 6.68862 9.09157 7.07 9.36222C7.44401 9.59274 7.85089 9.69297 8.28667 9.60959C8.72833 9.49796 9.10256 9.29434 9.36104 8.90545C9.61468 8.46027 9.65375 7.97559 9.52023 7.48685C9.3842 7.09418 9.121 6.76622 8.75122 6.57375C7.99044 6.21172 7.21478 6.42349 6.68079 7.04472ZM6.35822 10.6614C6.25161 10.6968 6.14478 10.7315 6.03793 10.7662C5.28699 11.0106 5.28699 11.0106 4.7549 11.5679C4.66232 11.7607 4.58453 11.9387 4.58286 12.1555C4.65021 12.2523 4.70567 12.3166 4.79092 12.3946C4.81332 12.4159 4.83572 12.4372 4.8588 12.4591C5.79465 13.3232 6.9737 13.7271 8.23735 13.6993C9.26334 13.6572 10.1965 13.2352 10.9729 12.5764C10.9938 12.5593 11.0148 12.5422 11.0363 12.5246C11.2845 12.3306 11.2845 12.3306 11.4095 12.0559C11.3924 11.9508 11.3627 11.8691 11.3173 11.7728C11.3041 11.7428 11.2909 11.7128 11.2774 11.6818C11.0186 11.1599 10.5436 10.974 10.02 10.7955C9.91516 10.7603 9.81015 10.7256 9.70502 10.6911C9.59801 10.6561 9.49122 10.6204 9.38444 10.5846C8.25519 10.2093 7.47668 10.2885 6.35822 10.6614Z" fill="white"/>
<path d="M10.534 1.61383C10.691 1.64554 10.8348 1.70075 10.9825 1.76206C11.0153 1.77551 11.048 1.78897 11.0818 1.80283C12.3948 2.35468 13.5369 3.23513 14.3784 4.38791C14.4082 4.42836 14.438 4.4688 14.4687 4.51047C15.6792 6.20522 16.2327 8.36901 15.9089 10.4336C15.8202 10.9548 15.6985 11.4825 15.4989 11.9732C15.4462 12.1271 15.4462 12.1271 15.488 12.2702C15.5291 12.3322 15.5724 12.3927 15.6172 12.452C15.8525 12.7799 15.9437 13.1304 15.9089 13.5329C15.8297 13.965 15.6469 14.331 15.2967 14.6043C14.8745 14.8565 14.4408 14.9532 13.9533 14.846C13.5239 14.6998 13.2054 14.4559 12.99 14.0532C12.8112 13.6681 12.7851 13.2407 12.9076 12.8322C12.991 12.6117 13.1082 12.4416 13.2687 12.2702C13.2887 12.2486 13.3088 12.227 13.3294 12.2048C13.6447 11.9018 14.0669 11.8038 14.4932 11.8111C14.5957 11.8214 14.6972 11.835 14.7993 11.8493C15.4898 9.94123 15.464 7.94091 14.5982 6.08329C14.2935 5.45286 13.9207 4.87747 13.46 4.34965C13.4432 4.33029 13.4265 4.31093 13.4091 4.29098C12.9857 3.80633 12.5114 3.39488 11.9678 3.04868C11.9436 3.0332 11.9194 3.01772 11.8944 3.00176C11.4393 2.71412 10.9648 2.50417 10.4634 2.31106C10.4295 2.29798 10.3956 2.28491 10.3607 2.27145C10.3331 2.26133 10.3054 2.25122 10.277 2.24081C10.197 2.20168 10.1495 2.16052 10.0928 2.09208C10.051 1.95449 10.0423 1.88941 10.1024 1.75728C10.2385 1.58234 10.3324 1.58576 10.534 1.61383ZM13.6514 12.8442C13.5156 13.0566 13.4706 13.2456 13.4983 13.4947C13.5592 13.7565 13.6933 13.9716 13.9207 14.1193C14.1674 14.2435 14.4061 14.2741 14.6709 14.1893C14.9329 14.0734 15.1016 13.9133 15.214 13.6486C15.2812 13.4283 15.2778 13.2019 15.1828 12.9907C15.0361 12.7389 14.8448 12.5728 14.5673 12.4808C14.2045 12.3865 13.8852 12.5767 13.6514 12.8442Z" fill="white"/>
<path d="M8.93775 0.303219C9.24228 0.558804 9.45592 0.892333 9.51888 1.28851C9.55416 1.71409 9.49873 2.12084 9.24147 2.4723C8.98389 2.77153 8.65047 2.98754 8.25618 3.04864C7.77055 3.08321 7.34046 3.03041 6.95671 2.70666C6.76907 2.51687 6.62652 2.30413 6.53431 2.05379C5.88441 2.16306 5.28511 2.36914 4.69765 2.66601C4.67394 2.67774 4.65023 2.68947 4.62579 2.70156C2.93209 3.54318 1.66512 5.12104 1.05542 6.89415C0.617297 8.21615 0.553261 9.59662 0.889959 10.9488C0.918185 11.0886 0.914719 11.1775 0.871276 11.3136C0.809097 11.4069 0.809097 11.4069 0.718221 11.4667C0.560133 11.4925 0.484116 11.4908 0.352623 11.3969C0.209529 11.2435 0.191697 11.0398 0.156222 10.8401C0.148296 10.7979 0.14037 10.7558 0.132204 10.7123C-0.202699 8.84902 0.104694 7.01348 0.986067 5.34447C1.00395 5.31022 1.00395 5.31022 1.0222 5.27528C1.94896 3.51738 3.67749 2.15937 5.56068 1.56518C5.68274 1.52917 5.8045 1.50278 5.92956 1.47938C6.20271 1.43049 6.20271 1.43049 6.45778 1.32677C6.53689 1.20306 6.55855 1.10437 6.58349 0.960279C6.64605 0.66079 6.86619 0.433566 7.10588 0.255389C7.66606 -0.0969434 8.39678 -0.0881825 8.93775 0.303219ZM7.32589 0.953703C7.15737 1.1686 7.07517 1.39689 7.10827 1.67115C7.18309 1.96199 7.31087 2.1615 7.56743 2.32163C7.7995 2.43463 7.99677 2.45471 8.24646 2.39024C8.49181 2.30392 8.67297 2.13563 8.79097 1.90387C8.89112 1.66193 8.89566 1.46105 8.811 1.21198C8.71048 0.977319 8.54651 0.819663 8.31776 0.708277C7.94539 0.588986 7.59006 0.671447 7.32589 0.953703Z" fill="white"/>
<path d="M2.50303 12.0867C2.83785 12.3421 3.06894 12.6919 3.12885 13.112C3.1687 13.5317 3.09095 13.9629 2.82274 14.2982C3.06505 14.8964 4.01253 15.3533 4.55348 15.6398C4.61332 15.6715 4.67265 15.7043 4.73189 15.7371C5.36507 16.075 6.0621 16.2704 6.7639 16.4027C6.81205 16.4121 6.86019 16.4216 6.90979 16.4313C7.71312 16.559 8.60948 16.5287 9.4041 16.3644C9.4354 16.3581 9.4667 16.3517 9.49894 16.3452C10.4612 16.1427 11.4347 15.7479 12.2217 15.1505C12.2452 15.1329 12.2687 15.1152 12.2928 15.0971C12.3378 15.063 12.3823 15.0282 12.4262 14.9927C12.6009 14.8596 12.7134 14.851 12.9244 14.8722C13.02 14.9296 13.02 14.9296 13.0774 15.0252C13.107 15.2325 13.107 15.2325 13.0774 15.3313C12.0781 16.462 10.2031 17.0427 8.75362 17.168C8.6402 17.1735 8.52697 17.1751 8.41343 17.1758C8.38211 17.176 8.3508 17.1763 8.31853 17.1766C7.00635 17.1853 7.00635 17.1853 6.41953 17.0532C6.36768 17.0418 6.36768 17.0418 6.31477 17.0302C4.91734 16.7142 3.32071 16.0369 2.40423 14.8841C2.29953 14.7857 2.29953 14.7857 2.19707 14.7988C2.12535 14.8131 2.05394 14.8291 1.98288 14.8465C1.57169 14.937 1.13333 14.8778 0.771592 14.6587C0.684434 14.5939 0.605421 14.5263 0.526914 14.4513C0.494582 14.4206 0.494582 14.4206 0.461596 14.3892C0.167255 14.0785 0.0540565 13.6825 0.0596774 13.2637C0.0897554 12.841 0.266082 12.4757 0.56996 12.1817C1.13471 11.7089 1.89462 11.6959 2.50303 12.0867ZM0.936156 12.7642C0.791702 12.9423 0.730599 13.1387 0.6991 13.3631C0.738944 13.6371 0.848407 13.8519 1.06261 14.0304C1.29727 14.2028 1.50022 14.2613 1.78962 14.2217C2.10272 14.1139 2.27299 13.9632 2.43293 13.6764C2.50712 13.4421 2.52086 13.2191 2.42097 12.9901C2.26664 12.7226 2.04325 12.5637 1.75061 12.4772C1.4497 12.4149 1.14928 12.5602 0.936156 12.7642Z" fill="white"/>
</svg>
