<svg width="18" height="18" viewBox="0 0 18 18" fill="none" xmlns="http://www.w3.org/2000/svg">
<path d="M10.7308 0.0175855C10.7546 0.0176045 10.7783 0.0176236 10.8029 0.0176432C11.9281 0.0217762 12.9174 0.46745 13.7175 1.25126C13.9325 1.46864 14.1125 1.69581 14.2697 1.95904C14.283 1.98121 14.2963 2.00338 14.31 2.02623C14.686 2.66402 14.8741 3.33906 14.8777 4.0799C14.8782 4.12016 14.8788 4.16042 14.8793 4.20191C14.8809 4.32932 14.8821 4.45674 14.8832 4.58416C14.8917 5.56711 14.9288 6.37608 15.5515 7.18299C15.9214 7.66756 16.0765 8.1862 16.0227 8.79575C15.941 9.3574 15.688 9.8968 15.225 10.2443C15.0429 10.3713 14.8546 10.4857 14.6553 10.5838C14.6926 10.5997 14.7299 10.6156 14.7683 10.632C14.9084 10.6918 15.0484 10.7518 15.1884 10.8119C15.2486 10.8378 15.3089 10.8635 15.3692 10.8892C16.1955 11.2415 16.9049 11.6408 17.2874 12.5001C17.4884 13.0083 17.479 13.4986 17.4743 14.0393C17.4735 14.1598 17.4734 14.2802 17.4732 14.4007C17.4728 14.6279 17.4716 14.8551 17.4702 15.0823C17.4686 15.3413 17.4679 15.6004 17.4672 15.8594C17.4657 16.3915 17.4633 16.9235 17.4601 17.4556C17.4893 17.4544 17.5184 17.4531 17.5485 17.4519C17.5866 17.4509 17.6247 17.45 17.6639 17.449C17.7017 17.4478 17.7396 17.4466 17.7785 17.4453C17.8808 17.4556 17.8808 17.4556 17.9461 17.5039C17.9986 17.5787 18.0001 17.6277 17.9992 17.7185C17.9994 17.7457 17.9997 17.7728 18 17.8007C17.9816 17.9001 17.9643 17.9233 17.8808 17.9815C17.7817 17.9918 17.6903 17.9956 17.5911 17.9947C17.5461 17.9949 17.5461 17.995 17.5001 17.9952C17.3985 17.9956 17.297 17.9952 17.1954 17.9948C17.1222 17.995 17.049 17.9951 16.9758 17.9953C16.774 17.9958 16.5722 17.9956 16.3704 17.9952C16.153 17.995 15.9356 17.9954 15.7182 17.9957C15.3167 17.9961 14.9152 17.9961 14.5137 17.9958C14.1429 17.9955 13.772 17.9954 13.4012 17.9956C13.3766 17.9956 13.352 17.9956 13.3267 17.9956C13.227 17.9956 13.1272 17.9956 13.0275 17.9957C12.0913 17.996 11.1551 17.9957 10.2189 17.9951C9.38667 17.9946 8.5544 17.9947 7.72212 17.9952C6.78769 17.9958 5.85325 17.996 4.91882 17.9957C4.81926 17.9956 4.7197 17.9956 4.62014 17.9956C4.59563 17.9956 4.57111 17.9955 4.54585 17.9955C4.17517 17.9954 3.80449 17.9956 3.4338 17.9958C3.01245 17.9961 2.59109 17.996 2.16973 17.9955C1.95457 17.9952 1.73941 17.9951 1.52424 17.9954C1.32754 17.9958 1.13083 17.9956 0.934128 17.995C0.862712 17.9949 0.791296 17.995 0.71988 17.9952C0.623298 17.9955 0.526738 17.9952 0.430157 17.9947C0.402002 17.995 0.373847 17.9952 0.344839 17.9955C0.157746 17.9935 0.157745 17.9935 0.070627 17.9328C0.0238647 17.8581 0.0212454 17.8063 0.022123 17.7185C0.0218518 17.6914 0.0215807 17.6643 0.0213013 17.6364C0.0393808 17.5385 0.0598022 17.514 0.140451 17.4556C0.249761 17.4426 0.24976 17.4426 0.387357 17.4429C0.425289 17.4428 0.425289 17.4428 0.463987 17.4427C0.548943 17.4425 0.633877 17.4431 0.71883 17.4436C0.779639 17.4437 0.840447 17.4437 0.901256 17.4436C1.06655 17.4436 1.23184 17.4442 1.39713 17.4449C1.56979 17.4456 1.74246 17.4456 1.91512 17.4458C2.24218 17.4461 2.56923 17.447 2.89629 17.448C3.26859 17.4492 3.64089 17.4498 4.0132 17.4503C4.77914 17.4514 5.54508 17.4532 6.31102 17.4556C6.30885 17.4355 6.30669 17.4155 6.30445 17.3948C6.25155 16.9052 6.19888 16.4156 6.14646 15.9259C6.1211 15.6891 6.09567 15.4523 6.07005 15.2155C6.04531 14.9869 6.02079 14.7582 5.9964 14.5295C5.98708 14.4424 5.97768 14.3553 5.96822 14.2683C5.95493 14.146 5.9419 14.0236 5.92892 13.9013C5.92499 13.8656 5.92105 13.8299 5.917 13.7932C5.84169 13.0727 5.84169 13.0727 6.03054 12.7926C6.20211 12.6017 6.36994 12.4879 6.63216 12.4691C6.67072 12.4695 6.70927 12.4698 6.749 12.4702C6.78691 12.4704 6.82482 12.4706 6.86389 12.4707C6.93514 12.4717 6.93514 12.4717 7.00784 12.4727C7.15969 12.4741 7.31155 12.4756 7.468 12.4771C7.468 11.9796 7.468 11.4821 7.468 10.9695C7.01323 11.1636 7.01323 11.1636 6.55891 11.3587C6.37939 11.4361 6.19968 11.5128 6.01931 11.5882C5.43192 11.837 4.98524 12.1445 4.71141 12.7415C4.59607 13.0315 4.55285 13.2745 4.55249 13.5841C4.55231 13.6177 4.55213 13.6513 4.55195 13.6859C4.55157 13.7587 4.55127 13.8315 4.55103 13.9044C4.55062 14.0196 4.54994 14.1348 4.54917 14.25C4.54701 14.5776 4.54511 14.9052 4.54395 15.2328C4.54321 15.4333 4.54198 15.6337 4.54041 15.8342C4.53992 15.9106 4.53961 15.987 4.5395 16.0633C4.53933 16.1701 4.53852 16.2768 4.53756 16.3836C4.53772 16.4309 4.53772 16.4309 4.53788 16.4792C4.53544 16.6625 4.51892 16.7935 4.38272 16.9297C4.13249 16.9502 4.13249 16.9502 4.02864 16.8798C3.9277 16.7429 3.9424 16.6169 3.94385 16.4509C3.94361 16.4166 3.94336 16.3822 3.94311 16.3469C3.94249 16.2331 3.9429 16.1193 3.94337 16.0055C3.94328 15.9261 3.94314 15.8467 3.94297 15.7673C3.94276 15.6004 3.94306 15.4336 3.94371 15.2668C3.94451 15.0544 3.94406 14.842 3.94321 14.6296C3.9427 14.4653 3.94287 14.301 3.94323 14.1367C3.94332 14.0585 3.94321 13.9803 3.94288 13.9021C3.9401 13.0535 4.09109 12.3367 4.69826 11.7057C4.88745 11.5237 5.08981 11.3794 5.32181 11.2569C5.34441 11.245 5.36702 11.233 5.39031 11.2206C5.6345 11.0935 5.88602 10.9848 6.13996 10.8788C6.21845 10.8461 6.29675 10.8129 6.37505 10.7797C6.42514 10.7585 6.47524 10.7374 6.52535 10.7164C6.54865 10.7065 6.57195 10.6967 6.59595 10.6865C6.75866 10.6189 6.75866 10.6189 6.83692 10.6189C6.83692 10.5957 6.83692 10.5726 6.83692 10.5488C6.81179 10.5448 6.78667 10.5409 6.76078 10.5368C6.30458 10.4303 5.96027 10.067 5.71541 9.68759C5.40405 9.15556 5.32261 8.57711 5.46383 7.97923C5.58238 7.60131 5.77908 7.2847 6.02219 6.97441C6.42578 6.4243 6.56 5.82767 6.56261 5.15334C6.56342 5.07116 6.56426 4.98899 6.56514 4.90682C6.56636 4.779 6.56739 4.65118 6.56787 4.52335C6.57374 3.19902 6.90425 2.13021 7.82956 1.16142C8.28477 0.721703 8.82334 0.412845 9.42041 0.210416C9.46472 0.195353 9.46472 0.195353 9.50992 0.179986C9.91354 0.0500313 10.3082 0.0170107 10.7308 0.0175855ZM8.05978 1.75265C7.86218 1.96335 7.71584 2.19962 7.57318 2.44988C7.55655 2.47871 7.53992 2.50755 7.52279 2.53725C7.29237 2.96497 7.14728 3.48371 7.15096 3.96896C7.15117 4.00635 7.15139 4.04374 7.15162 4.08226C7.1519 4.11049 7.15218 4.13873 7.15246 4.16782C7.77687 4.18924 8.33854 4.17196 8.94053 3.99252C8.96763 3.98483 8.99474 3.97714 9.02266 3.96922C9.70178 3.77458 10.3286 3.45311 10.9039 3.0459C10.9241 3.03163 10.9443 3.01737 10.9651 3.00267C11.5669 2.57205 12.0737 2.0409 12.5079 1.44409C12.523 1.42346 12.5381 1.40283 12.5537 1.38157C12.6393 1.26176 12.6393 1.26176 12.6569 1.11759C11.0397 0.261202 9.36982 0.447434 8.05978 1.75265ZM13.1127 1.50326C13.0833 1.54167 13.0555 1.58129 13.0283 1.62131C13.0024 1.65897 13.0024 1.65897 12.976 1.6974C12.9575 1.72444 12.9389 1.75149 12.9198 1.77935C12.7533 2.01906 12.577 2.23751 12.3764 2.44988C12.3383 2.49504 12.3003 2.54032 12.2625 2.58573C11.3361 3.64138 9.97854 4.32796 8.61896 4.61319C8.56382 4.62496 8.56382 4.62496 8.50757 4.63697C8.41818 4.65603 8.32877 4.67494 8.23933 4.69372C8.23605 4.97659 8.23357 5.25945 8.23206 5.54234C8.23133 5.67376 8.23035 5.80516 8.22875 5.93657C8.2272 6.06388 8.22638 6.19117 8.22602 6.31849C8.22564 6.38963 8.22455 6.46077 8.22344 6.5319C8.22329 7.15536 8.38745 7.69634 8.82343 8.15481C9.23348 8.55459 9.72215 8.77008 10.2947 8.7737C10.3265 8.77402 10.3582 8.77433 10.3909 8.77466C10.4578 8.77516 10.5248 8.77548 10.5917 8.77561C10.6923 8.77602 10.7928 8.77775 10.8933 8.77952C11.5599 8.7854 12.1014 8.6418 12.5977 8.17124C12.7536 8.00816 12.8701 7.83931 12.9724 7.63877C12.9947 7.59558 12.9947 7.59558 13.0175 7.55153C13.1071 7.37363 13.1071 7.37363 13.0776 7.18299C13.0521 7.20292 13.0266 7.22285 13.0004 7.24338C12.8148 7.38586 12.6363 7.51315 12.429 7.62343C12.2642 7.71567 12.1931 7.78475 12.1255 7.95924C12.0597 8.10425 11.9326 8.18102 11.7876 8.23871C11.5912 8.29312 11.3935 8.28279 11.1909 8.283C11.1261 8.28428 11.1261 8.28428 11.0599 8.2856C10.7848 8.28648 10.5378 8.26912 10.3227 8.08133C10.1437 7.88417 10.1171 7.6761 10.1209 7.41992C10.1358 7.2965 10.1759 7.20699 10.2387 7.10081C10.2786 7.03746 10.2786 7.03746 10.3079 6.93757C10.3627 6.90251 10.3627 6.90251 10.4481 6.86745C10.4868 6.84964 10.5254 6.83183 10.5652 6.81349C10.7674 6.73816 10.9712 6.74694 11.1844 6.74912C11.2242 6.74871 11.2641 6.7483 11.3052 6.74789C11.5837 6.74885 11.8057 6.76503 12.0214 6.95729C12.046 6.98549 12.0706 7.01369 12.0959 7.04275C12.1191 7.06589 12.1422 7.08903 12.1661 7.11287C12.438 7.09477 12.6831 6.8551 12.8607 6.66366C12.8984 6.61511 12.9356 6.56612 12.9724 6.51684C12.9911 6.49289 13.0097 6.46894 13.0289 6.44426C13.2456 6.1166 13.2062 5.76501 13.1959 5.38835C13.1949 5.32086 13.1939 5.25336 13.1931 5.18586C13.1908 5.02178 13.1871 4.85777 13.1828 4.69372C13.1515 4.6835 13.1515 4.6835 13.1196 4.67308C12.7136 4.54009 12.3545 4.3926 11.9908 4.16782C11.9639 4.15639 11.9371 4.14495 11.9094 4.13317C11.89 4.12147 11.8705 4.10976 11.8505 4.0977C11.8192 3.95913 11.7991 3.86631 11.8439 3.73176C11.9075 3.64816 11.955 3.64204 12.0587 3.62439C12.2304 3.62617 12.3484 3.72896 12.4862 3.8216C13.0463 4.18784 13.6561 4.2257 14.3047 4.20288C14.3431 3.27947 14.0096 2.43239 13.3932 1.74868C13.2746 1.62176 13.2746 1.62176 13.1477 1.50326C13.1362 1.50326 13.1246 1.50326 13.1127 1.50326ZM7.15246 4.72878C7.15075 4.78636 7.14903 4.84394 7.14726 4.90326C7.11356 5.93812 6.93957 6.71707 6.30677 7.55168C6.05478 7.8912 5.92468 8.26627 5.96042 8.69057C6.04144 9.16331 6.22924 9.54959 6.6178 9.83659C7.01958 10.1063 7.48056 10.1981 7.95884 10.128C8.33626 10.0228 8.68248 9.8163 8.88944 9.47887C8.97388 9.32088 9.02116 9.18439 9.04571 9.00611C9.01647 8.98699 8.98722 8.96787 8.9571 8.94818C8.46214 8.61907 8.09115 8.23619 7.87558 7.67164C7.86721 7.64976 7.85884 7.62788 7.85022 7.60534C7.71823 7.23497 7.70215 6.86143 7.69891 6.47151C7.69825 6.42097 7.69756 6.37043 7.69685 6.31989C7.69507 6.18819 7.69367 6.05649 7.69236 5.92479C7.69094 5.78987 7.68916 5.65495 7.6874 5.52003C7.68403 5.25628 7.6811 4.99254 7.67836 4.72878C7.50482 4.72878 7.33127 4.72878 7.15246 4.72878ZM13.7438 4.76384C13.7432 4.83031 13.7427 4.89677 13.7422 4.96525C13.7404 5.18677 13.7381 5.40829 13.7355 5.62981C13.7339 5.76389 13.7326 5.89797 13.7316 6.03206C13.7307 6.16188 13.7293 6.29167 13.7275 6.42148C13.7269 6.47059 13.7265 6.51969 13.7263 6.56881C13.7223 7.367 13.4971 8.01203 12.9439 8.59415C12.7722 8.76135 12.5837 8.88708 12.3764 9.00611C12.4725 9.40989 12.6505 9.69715 13.0075 9.91767C13.4389 10.1639 13.8578 10.203 14.3354 10.0732C14.7747 9.91675 15.0806 9.66424 15.2974 9.25372C15.4802 8.8641 15.5335 8.4504 15.3901 8.03648C15.3021 7.82116 15.1839 7.64037 15.0436 7.45594C14.4254 6.64114 14.3377 5.75727 14.3047 4.76384C14.1196 4.76384 13.9345 4.76384 13.7438 4.76384ZM10.6585 7.42841C10.6525 7.55576 10.6525 7.55576 10.6935 7.67383C10.8499 7.77809 10.9982 7.75549 11.1822 7.7549C11.2349 7.75575 11.2349 7.75575 11.2887 7.75662C11.3225 7.75664 11.3564 7.75666 11.3913 7.75668C11.4377 7.75684 11.4377 7.75684 11.485 7.757C11.5879 7.7412 11.6361 7.71117 11.7103 7.63877C11.7282 7.49566 11.7213 7.4449 11.6402 7.32323C11.4901 7.2732 11.346 7.27889 11.1888 7.27721C11.1573 7.27619 11.1258 7.27518 11.0933 7.27413C10.9069 7.27234 10.7867 7.2768 10.6585 7.42841ZM9.57161 9.25153C9.56139 9.27824 9.55118 9.30495 9.54066 9.33247C9.45634 9.54486 9.36604 9.73403 9.23265 9.91986C9.18376 9.98636 9.18376 9.98636 9.15349 10.0623C9.10584 10.1455 9.06234 10.1604 8.97559 10.1982C8.93295 10.2284 8.89061 10.2592 8.84849 10.2902C8.59668 10.4617 8.30825 10.5703 8.02896 10.689C8.02896 10.8857 8.02896 11.0824 8.02896 11.285C8.27656 11.3741 8.52219 11.4313 8.78056 11.48C8.83571 11.491 8.83571 11.491 8.89198 11.5022C9.46346 11.6115 10.0271 11.649 10.6081 11.6466C10.6403 11.6465 10.6725 11.6464 10.7056 11.6463C11.6189 11.6429 12.5223 11.5402 13.3932 11.25C13.3932 11.0648 13.3932 10.8797 13.3932 10.689C13.3324 10.6586 13.2717 10.6283 13.2091 10.597C13.1515 10.5679 13.1515 10.5679 13.0928 10.5383C13.0164 10.5004 12.9394 10.4634 12.8619 10.4277C12.3596 10.1923 12.0656 9.84143 11.8755 9.32108C11.8631 9.28665 11.8631 9.28665 11.8505 9.25153C11.8189 9.25525 11.8189 9.25525 11.7867 9.25904C11.568 9.28307 11.3528 9.29174 11.1329 9.29125C11.0992 9.29128 11.0655 9.29131 11.0308 9.29135C10.9601 9.29137 10.8894 9.29131 10.8187 9.29116C10.7113 9.29097 10.604 9.29116 10.4967 9.29138C10.4276 9.29136 10.3584 9.29132 10.2892 9.29125C10.2576 9.29132 10.226 9.29139 10.1935 9.29146C9.98432 9.2907 9.77932 9.27597 9.57161 9.25153ZM13.9541 10.9344C13.9541 11.4435 13.9541 11.9526 13.9541 12.4771C14.3422 12.4816 14.3422 12.4816 14.7302 12.4843C15.0759 12.4893 15.3521 12.5215 15.6173 12.7663C15.9169 13.2937 15.7166 14.0121 15.6544 14.5892C15.6458 14.6699 15.6372 14.7507 15.6286 14.8315C15.6062 15.0423 15.5836 15.2531 15.561 15.4639C15.5247 15.803 15.4885 16.1421 15.4524 16.4811C15.4398 16.5994 15.4271 16.7177 15.4144 16.836C15.4067 16.9079 15.399 16.9798 15.3914 17.0517C15.3878 17.0847 15.3843 17.1176 15.3806 17.1516C15.3774 17.1815 15.3742 17.2115 15.3709 17.2424C15.3681 17.2685 15.3653 17.2946 15.3624 17.3215C15.3554 17.3864 15.3554 17.3864 15.3565 17.4556C15.8772 17.4556 16.3978 17.4556 16.9342 17.4556C16.9358 16.9521 16.9371 16.4486 16.9379 15.9451C16.9382 15.7112 16.9387 15.4774 16.9395 15.2436C16.9403 15.0176 16.9407 14.7916 16.9409 14.5657C16.941 14.4798 16.9413 14.3939 16.9416 14.308C16.9451 13.4818 16.9257 12.7024 16.3204 12.068C15.9421 11.7138 15.4455 11.5294 14.975 11.3323C14.8555 11.2822 14.7363 11.2315 14.6171 11.1807C14.5413 11.1486 14.4655 11.1165 14.3896 11.0844C14.354 11.0693 14.3183 11.0541 14.2815 11.0386C14.2487 11.0249 14.2159 11.0111 14.1821 10.997C14.1532 10.9849 14.1243 10.9727 14.0946 10.9602C14.0258 10.9304 14.0258 10.9304 13.9541 10.9344ZM13.0951 11.8806C13.0644 11.888 13.0336 11.8954 13.0019 11.903C12.9691 11.9109 12.9362 11.9189 12.9023 11.9271C12.6391 11.9887 12.3765 12.0429 12.1091 12.0826C12.0822 12.0867 12.0553 12.0907 12.0276 12.0949C11.5637 12.1607 11.1021 12.17 10.6344 12.1703C10.584 12.1703 10.584 12.1703 10.5327 12.1704C10.006 12.1698 9.49547 12.1472 8.97559 12.0563C8.93341 12.049 8.89124 12.0417 8.84779 12.0341C8.57427 11.986 8.30148 11.9346 8.02896 11.881C8.02896 12.0777 8.02896 12.2744 8.02896 12.4771C9.79915 12.4771 11.5693 12.4771 13.3932 12.4771C13.3932 12.2688 13.3932 12.0605 13.3932 11.846C13.2792 11.846 13.203 11.8541 13.0951 11.8806ZM6.45126 13.2133C6.43439 13.3263 6.43439 13.3263 6.45243 13.4516C6.45472 13.4756 6.45701 13.4997 6.45937 13.5246C6.46463 13.5785 6.47034 13.6323 6.47642 13.6861C6.48686 13.779 6.49597 13.872 6.50487 13.965C6.52623 14.1853 6.5495 14.4054 6.57288 14.6254C6.5814 14.7063 6.58991 14.7872 6.59841 14.868C6.61613 15.0362 6.63394 15.2044 6.65181 15.3725C6.67476 15.5885 6.69745 15.8045 6.72007 16.0205C6.73752 16.1868 6.75512 16.3532 6.77276 16.5195C6.7812 16.5992 6.78959 16.679 6.79792 16.7587C6.80952 16.8694 6.82131 16.9801 6.83316 17.0907C6.83658 17.1238 6.84001 17.1569 6.84354 17.191C6.84615 17.335 6.84615 17.335 6.90704 17.4556C7.00855 17.459 7.10922 17.4601 7.21074 17.4598C7.24298 17.4598 7.27522 17.4599 7.30844 17.4599C7.41735 17.4599 7.52626 17.4598 7.63516 17.4596C7.71289 17.4596 7.79061 17.4596 7.86833 17.4596C8.08006 17.4596 8.29179 17.4594 8.50352 17.4591C8.72452 17.4589 8.94552 17.4589 9.16652 17.4589C9.53769 17.4588 9.90886 17.4585 10.28 17.4582C10.6624 17.4579 11.0448 17.4577 11.4271 17.4575C11.4625 17.4575 11.4625 17.4575 11.4985 17.4575C11.6167 17.4574 11.7348 17.4574 11.853 17.4573C12.8338 17.457 13.8147 17.4564 14.7956 17.4556C14.8402 17.1765 14.8798 16.8978 14.9096 16.6167C14.9134 16.5814 14.9173 16.5461 14.9212 16.5097C14.9336 16.3949 14.9459 16.28 14.9581 16.1651C14.9667 16.0845 14.9754 16.0039 14.984 15.9233C15.002 15.7552 15.0198 15.5872 15.0377 15.4191C15.0605 15.2039 15.0837 14.9887 15.107 14.7735C15.1249 14.6074 15.1426 14.4414 15.1601 14.2753C15.1686 14.1959 15.1771 14.1165 15.1858 14.0371C15.1978 13.9264 15.2095 13.8157 15.221 13.7049C15.2247 13.6723 15.2283 13.6397 15.232 13.6061C15.2566 13.3726 15.2566 13.3726 15.2163 13.1432C15.1537 13.0726 15.1017 13.0417 15.0078 13.0283C14.9183 13.0242 14.8292 13.0237 14.7396 13.0242C14.7051 13.024 14.6706 13.0238 14.635 13.0235C14.5191 13.023 14.4032 13.0231 14.2873 13.0233C14.2043 13.023 14.1213 13.0227 14.0383 13.0224C13.8361 13.0217 13.6339 13.0215 13.4317 13.0216C13.2674 13.0216 13.1031 13.0215 12.9388 13.0212C12.8914 13.0211 12.8441 13.0211 12.7968 13.021C12.7615 13.0209 12.7615 13.0209 12.7254 13.0209C12.2799 13.0202 11.8344 13.0203 11.3889 13.0205C10.9813 13.0207 10.5736 13.02 10.166 13.0188C9.74753 13.0176 9.32904 13.0171 8.91054 13.0172C8.67556 13.0173 8.44059 13.0171 8.20562 13.0163C7.98469 13.0155 7.76379 13.0156 7.54286 13.0163C7.46169 13.0164 7.38052 13.0162 7.29935 13.0157C7.18871 13.0151 7.07812 13.0155 6.96747 13.0162C6.9352 13.0158 6.90293 13.0154 6.86969 13.0149C6.67144 13.0177 6.57395 13.043 6.45126 13.2133Z" fill="white"/>
<path d="M4.10224 0.170743C4.13939 0.183443 4.17654 0.196142 4.21482 0.209227C4.9304 0.480559 5.57066 1.08587 5.88682 1.78299C6.19349 2.51092 6.263 3.34494 5.99549 4.09747C5.98062 4.13937 5.96575 4.18126 5.95043 4.22443C5.80142 4.60339 5.5892 4.93692 5.29429 5.21939C5.31544 5.23295 5.33659 5.24651 5.35838 5.26048C5.70981 5.48947 5.70981 5.48947 5.78513 5.64011C5.80431 5.83965 5.77087 5.94027 5.64489 6.09589C5.53752 6.14958 5.4249 6.13704 5.30703 6.13772C5.26553 6.13815 5.26553 6.13815 5.2232 6.13858C5.13117 6.13946 5.03914 6.14004 4.94711 6.14054C4.91551 6.14073 4.88392 6.14091 4.85137 6.14111C4.68351 6.14204 4.51566 6.14272 4.34781 6.14323C4.20999 6.14369 4.07219 6.14466 3.93438 6.1461C3.76721 6.14785 3.60006 6.1487 3.43288 6.14895C3.36973 6.14918 3.30657 6.14971 3.24342 6.15056C2.69324 6.15754 2.13294 6.08771 1.64804 5.80665C1.61167 5.7864 1.61167 5.7864 1.57456 5.76575C0.840436 5.3451 0.334847 4.65207 0.0922501 3.84767C-0.0503043 3.28269 -0.0314671 2.60851 0.175518 2.06399C0.188624 2.02724 0.201731 1.9905 0.215234 1.95264C0.372113 1.54382 0.611283 1.22158 0.911779 0.907004C0.930716 0.885446 0.949652 0.863889 0.969163 0.841678C1.72615 0.0122347 3.07689 -0.18872 4.10224 0.170743ZM1.28867 1.31677C0.783152 1.83067 0.585282 2.44444 0.585282 3.15071C0.594327 3.80768 0.842035 4.38215 1.30538 4.84606C1.84024 5.35681 2.43652 5.58995 3.17808 5.58026C3.22185 5.58012 3.26561 5.57997 3.3107 5.57981C3.44892 5.57923 3.58713 5.57791 3.72535 5.57657C3.81971 5.57598 3.91407 5.57555 4.00843 5.57513C4.23838 5.57398 4.46832 5.57222 4.69827 5.56999C4.68697 5.54355 4.67567 5.51711 4.66403 5.48987C4.61778 5.36719 4.61442 5.27969 4.62815 5.14927C4.69856 5.01139 4.79148 4.91527 4.90205 4.80963C5.33556 4.38579 5.57087 3.78731 5.58897 3.18842C5.5968 2.49254 5.40284 1.87346 4.91564 1.36547C3.89115 0.339762 2.33494 0.302228 1.28867 1.31677Z" fill="white"/>
<path d="M11.4298 14.3703C11.6502 14.5361 11.791 14.7308 11.8505 15.0014C11.8908 15.3702 11.8411 15.6436 11.6182 15.9393C11.4212 16.1548 11.1471 16.25 10.8623 16.2723C10.5635 16.2527 10.3124 16.1601 10.0975 15.948C9.88574 15.6939 9.80534 15.4701 9.82142 15.1416C9.84172 14.9523 9.88905 14.81 9.99233 14.6508C10.0111 14.6204 10.0299 14.5901 10.0493 14.5588C10.4169 14.1912 10.9762 14.0959 11.4298 14.3703ZM10.4481 15.0014C10.3718 15.1513 10.3694 15.2516 10.4152 15.4134C10.4979 15.5521 10.5664 15.6377 10.7235 15.6886C10.8574 15.715 10.9508 15.709 11.0726 15.6456C11.1857 15.5614 11.2391 15.5175 11.2896 15.3871C11.3095 15.2487 11.3032 15.14 11.2501 15.0102C11.1283 14.864 11.0249 14.7991 10.836 14.7691C10.662 14.7792 10.5524 14.8664 10.4481 15.0014Z" fill="white"/>
<path d="M4.13731 2.77856C4.28015 2.80832 4.33168 2.85928 4.41779 2.97578C4.4397 3.08096 4.4397 3.08096 4.41779 3.18614C4.33168 3.30263 4.28015 3.35359 4.13731 3.38335C3.99446 3.35359 3.94293 3.30263 3.85683 3.18614C3.83491 3.08096 3.83491 3.08096 3.85683 2.97578C3.94293 2.85928 3.99446 2.80832 4.13731 2.77856Z" fill="white"/>
<path d="M3.08552 2.77856C3.22837 2.80832 3.27989 2.85928 3.366 2.97578C3.38791 3.08096 3.38791 3.08096 3.366 3.18614C3.27989 3.30263 3.22837 3.35359 3.08552 3.38335C2.94267 3.35359 2.89114 3.30263 2.80504 3.18614C2.78313 3.08096 2.78313 3.08096 2.80504 2.97578C2.89114 2.85928 2.94267 2.80832 3.08552 2.77856Z" fill="white"/>
<path d="M2.0337 2.77856C2.17655 2.80832 2.22808 2.85928 2.31418 2.97578C2.33609 3.08096 2.33609 3.08096 2.31418 3.18614C2.22808 3.30263 2.17655 3.35359 2.0337 3.38335C1.89085 3.35359 1.83933 3.30263 1.75322 3.18614C1.73131 3.08096 1.73131 3.08096 1.75322 2.97578C1.83933 2.85928 1.89085 2.80832 2.0337 2.77856Z" fill="white"/>
</svg>
