<svg width="16" height="20" viewBox="0 0 16 20" fill="none" xmlns="http://www.w3.org/2000/svg">
<path d="M7.99513 10.875C9.44387 10.875 10.6183 9.69975 10.6183 8.25C10.6183 6.80025 9.44387 5.625 7.99513 5.625C6.54639 5.625 5.37195 6.80025 5.37195 8.25C5.37195 9.69975 6.54639 10.875 7.99513 10.875Z" stroke="white" stroke-opacity="0.8" stroke-width="1.5" stroke-linecap="round" stroke-linejoin="round"/>
<path d="M7.99514 1.25C6.13992 1.25 4.36067 1.9875 3.04883 3.30025C1.73699 4.61301 1 6.39348 1 8.25C1 9.9055 1.35151 10.9887 2.31159 12.1875L7.99514 18.75L13.6787 12.1875C14.6388 10.9887 14.9903 9.9055 14.9903 8.25C14.9903 6.39348 14.2533 4.61301 12.9415 3.30025C11.6296 1.9875 9.85037 1.25 7.99514 1.25Z" stroke="white" stroke-opacity="0.8" stroke-width="1.5" stroke-linecap="round" stroke-linejoin="round"/>
</svg>
