<svg width="230" height="32" viewBox="0 0 230 32" fill="none" xmlns="http://www.w3.org/2000/svg">
<mask id="mask0_102_269" style="mask-type:luminance" maskUnits="userSpaceOnUse" x="0" y="0" width="230" height="32">
<path d="M229.869 0H0V31.6762H229.869V0Z" fill="white"/>
</mask>
<g mask="url(#mask0_102_269)">
<path d="M118.18 7.283L112.959 20.7254C112.906 20.8576 112.714 20.8179 112.714 20.6792L112.417 7.58701C112.404 7.15083 112.047 6.79395 111.611 6.79395H105.286C104.909 6.79395 104.592 7.05829 104.525 7.42839L100.395 30.7313C100.31 31.2203 100.693 31.6763 101.195 31.6763H104.942C105.325 31.6763 105.65 31.3987 105.709 31.0221L108.313 13.72C108.339 13.568 108.563 13.5878 108.563 13.7399L108.782 30.8766C108.782 31.3194 109.152 31.6763 109.595 31.6763H112.437C112.76 31.6763 113.044 31.478 113.163 31.1807L119.733 13.6671C119.786 13.5218 120.01 13.5878 119.977 13.7399L116.554 30.718C116.455 31.2137 116.838 31.6829 117.347 31.6829H120.883C121.259 31.6829 121.576 31.4186 121.643 31.0485L125.767 7.74564C125.853 7.25656 125.469 6.80055 124.967 6.80055H118.9C118.576 6.80055 118.292 6.99221 118.18 7.28961V7.283Z" fill="#003250"/>
<path d="M128.41 7.42839L124.287 30.7313C124.2 31.2203 124.584 31.6763 125.086 31.6763H128.846C129.223 31.6763 129.541 31.4119 129.607 31.0418L133.737 7.73905C133.823 7.24995 133.439 6.79395 132.937 6.79395H129.177C128.8 6.79395 128.483 7.05829 128.417 7.42839H128.41Z" fill="#003250"/>
<path d="M148.263 7.98357C146.644 6.78735 144.251 6.78735 142.262 6.78735H136.936C136.559 6.78735 136.241 7.05171 136.175 7.42181L132.052 30.7246C131.966 31.2137 132.349 31.6697 132.851 31.6697H139.256C141.046 31.6697 142.831 31.4648 144.404 30.4735C146.175 29.4822 147.126 27.6846 147.668 25.1005L149.605 14.1496C150.147 11.7572 150.087 9.17314 148.27 7.97698L148.263 7.98357ZM144.027 14.3545L142.619 22.5165C142.13 25.7019 141.78 27.3013 138.746 27.1426C138.429 27.1294 138.191 26.832 138.244 26.5214L140.881 11.6184C140.928 11.3607 141.165 11.1823 141.429 11.202C143.842 11.4003 144.523 11.7242 144.02 14.3545H144.027Z" fill="#003250"/>
<path d="M164.983 7.98357C163.364 6.78735 160.972 6.78735 158.983 6.78735H153.656C153.279 6.78735 152.962 7.05171 152.896 7.42181L148.772 30.7246C148.686 31.2137 149.07 31.6697 149.571 31.6697H155.969C157.76 31.6697 159.545 31.4648 161.118 30.4735C162.889 29.4822 163.84 27.6846 164.382 25.1005L166.319 14.1496C166.861 11.7572 166.801 9.17314 164.983 7.97698V7.98357ZM160.748 14.3545L159.339 22.5165C158.85 25.7085 158.679 27.3078 155.474 27.1426C155.156 27.1294 154.912 26.832 154.971 26.5214L157.608 11.625C157.654 11.3673 157.892 11.1889 158.156 11.2087C160.569 11.4069 161.25 11.7307 160.748 14.3611V14.3545Z" fill="#003250"/>
<path d="M173.945 6.79395H170.185C169.808 6.79395 169.491 7.05829 169.424 7.42839L165.301 30.7313C165.215 31.2203 165.598 31.6763 166.101 31.6763H176.629C177.005 31.6763 177.322 31.4119 177.389 31.0418L177.99 27.6449C178.076 27.1559 177.692 26.6998 177.19 26.6998H172.022C171.692 26.6998 171.44 26.4025 171.5 26.0786L174.751 7.73905C174.837 7.24995 174.454 6.79395 173.952 6.79395H173.945Z" fill="#003250"/>
<path d="M192.675 20.6857L193.277 17.2954C193.362 16.8064 192.978 16.3503 192.477 16.3503H187.288C186.965 16.3503 186.714 16.0595 186.76 15.7423L187.295 12.2C187.335 11.9489 187.547 11.7704 187.797 11.7704H193.877C194.254 11.7704 194.571 11.5061 194.637 11.136L195.239 7.74562C195.325 7.25655 194.942 6.80054 194.44 6.80054H183.515C183.139 6.80054 182.821 7.06489 182.755 7.43499L178.625 30.7379C178.538 31.2269 178.922 31.6829 179.424 31.6829H190.752C191.128 31.6829 191.445 31.4186 191.512 31.0485L192.113 27.6515C192.199 27.1625 191.815 26.7064 191.313 26.7064H185.365C185.035 26.7064 184.777 26.3958 184.843 26.072L185.709 21.7365C185.755 21.4986 185.96 21.3268 186.205 21.3268H191.908C192.285 21.3268 192.602 21.0625 192.668 20.6923L192.675 20.6857Z" fill="#003250"/>
<path d="M204.769 6.79397H198.451C198.074 6.79397 197.757 7.05832 197.691 7.42841L193.567 30.7313C193.481 31.2203 193.864 31.6764 194.367 31.6764H201.167C205.548 31.6764 208.682 29.4888 209.56 24.5057C210.082 21.3202 209.851 19.9257 207.433 18.5313H207.63C209.593 17.3351 210.75 15.5441 211.094 13.1583C211.973 8.1818 208.959 6.78735 204.775 6.78735L204.769 6.79397ZM204.168 23.9109C203.506 27.0303 202.608 27.103 200.294 27.0964C199.971 27.0964 199.713 26.799 199.766 26.4752L200.638 21.3731C200.684 21.1154 200.916 20.9369 201.174 20.9568C203.309 21.1087 204.657 21.1154 204.168 23.9109ZM205.522 13.5614C205.04 16.2776 204.174 16.5222 202.073 16.5487C201.736 16.5487 201.477 16.2446 201.544 15.9142L202.409 11.5788C202.456 11.3409 202.667 11.169 202.912 11.169C204.696 11.1823 206.031 11.3409 205.529 13.5548L205.522 13.5614Z" fill="#003250"/>
<path d="M219.064 14.3413L217.901 7.47464C217.835 7.08472 217.498 6.80054 217.101 6.80054H213.156C212.66 6.80054 212.297 7.24994 212.395 7.73237L215.092 20.9898C215.112 21.0823 215.112 21.1814 215.092 21.2806L213.519 30.751C213.44 31.2401 213.823 31.6895 214.319 31.6895H218.284C218.667 31.6895 218.984 31.4186 219.044 31.0418L220.663 21.274C220.676 21.1814 220.71 21.0955 220.756 21.0162L228.23 8.00338C228.535 7.47464 228.138 6.80715 227.523 6.80715H223.815C223.525 6.80715 223.261 6.96576 223.128 7.2235L219.434 14.4206C219.341 14.5924 219.084 14.5462 219.051 14.3544L219.064 14.3413Z" fill="#003250"/>
<path d="M62.7841 0.0594889L0.337032 30.6783C-0.211504 30.9493 -0.0462818 31.7688 0.561734 31.7688H57.1071C57.6623 31.7688 58.1448 31.359 58.2439 30.8106L63.5839 0.660895C63.6632 0.204884 63.2005 -0.145386 62.7775 0.0660978L62.7841 0.0594889Z" fill="#003250"/>
<path d="M91.2091 30.8106L96.549 0.660895C96.6279 0.204884 96.1659 -0.145386 95.7429 0.0660978L33.302 30.6783C32.7535 30.9493 32.9187 31.7688 33.5268 31.7688H90.072C90.6275 31.7688 91.1095 31.359 91.2091 30.8106Z" fill="#E22D3F"/>
</g>
</svg>
