<svg width="25" height="25" viewBox="0 0 25 25" fill="none" xmlns="http://www.w3.org/2000/svg">
<path d="M19.7789 18.912C19.8182 18.9114 19.8576 18.9109 19.8982 18.9103C19.941 18.9102 19.9838 18.9101 20.0279 18.91C20.0733 18.9096 20.1187 18.9091 20.1654 18.9086C20.3157 18.9072 20.4659 18.9066 20.6161 18.9061C20.7206 18.9055 20.8252 18.905 20.9298 18.9044C21.1491 18.9034 21.3685 18.9029 21.5879 18.9025C21.8683 18.902 22.1488 18.8998 22.4293 18.8971C22.6453 18.8953 22.8614 18.8948 23.0775 18.8947C23.1809 18.8944 23.2843 18.8936 23.3876 18.8924C23.5326 18.8908 23.6775 18.8909 23.8225 18.8916C23.8648 18.8907 23.9071 18.8898 23.9507 18.8889C24.2738 18.8932 24.4872 18.9907 24.7261 19.2089C24.961 19.4697 24.9967 19.7153 24.9934 20.0572C24.9939 20.1026 24.9944 20.1481 24.9949 20.195C24.9962 20.3444 24.9957 20.4937 24.9951 20.6431C24.9954 20.7475 24.9958 20.8519 24.9962 20.9564C24.9967 21.1749 24.9964 21.3934 24.9955 21.6119C24.9944 21.8912 24.9957 22.1705 24.9976 22.4498C24.9988 22.6654 24.9987 22.8809 24.9982 23.0964C24.9981 23.1994 24.9985 23.3024 24.9993 23.4053C25.0002 23.5496 24.9994 23.6937 24.998 23.8379C24.999 23.9011 24.999 23.9011 25 23.9655C24.9941 24.2866 24.8873 24.4967 24.6788 24.7396C24.4946 24.9005 24.3085 24.9815 24.0638 24.9829C24.0252 24.9833 23.9866 24.9836 23.9469 24.984C23.9047 24.9841 23.8625 24.9842 23.8191 24.9843C23.7746 24.9847 23.73 24.985 23.6841 24.9853C23.5365 24.9862 23.3889 24.9868 23.2412 24.9872C23.1656 24.9875 23.1656 24.9875 23.0884 24.9878C22.8213 24.9888 22.5542 24.9895 22.2871 24.9899C22.0116 24.9905 21.7361 24.9921 21.4605 24.994C21.2484 24.9952 21.0363 24.9956 20.8241 24.9958C20.7226 24.996 20.621 24.9965 20.5195 24.9974C20.3771 24.9986 20.2347 24.9985 20.0924 24.9982C20.0298 24.9991 20.0298 24.9991 19.966 25C19.6449 24.9973 19.3845 24.9208 19.1521 24.6907C19.1199 24.6432 19.1199 24.6432 19.087 24.5949C19.0535 24.5472 19.0535 24.5472 19.0193 24.4986C18.9348 24.3561 18.9128 24.237 18.9115 24.0747C18.9111 24.0357 18.9107 23.9967 18.9103 23.9565C18.9101 23.9138 18.9099 23.8712 18.9097 23.8272C18.9093 23.7822 18.9089 23.7371 18.9085 23.6907C18.9073 23.5413 18.9066 23.392 18.9059 23.2426C18.9055 23.1661 18.9055 23.1661 18.9051 23.088C18.9038 22.8178 18.9029 22.5477 18.9023 22.2775C18.9015 21.9988 18.8994 21.72 18.8969 21.4413C18.8954 21.2267 18.8948 21.0122 18.8945 20.7976C18.8942 20.6949 18.8935 20.5921 18.8924 20.4894C18.8909 20.3453 18.8909 20.2014 18.8912 20.0573C18.8905 20.0152 18.8897 19.973 18.8889 19.9295C18.8918 19.6331 18.9681 19.4395 19.1548 19.2089C19.3444 19.033 19.5166 18.9141 19.7789 18.912Z" fill="white"/>
<path d="M10.3344 18.912C10.3738 18.9114 10.4132 18.9109 10.4537 18.9103C10.4965 18.9102 10.5393 18.9101 10.5834 18.91C10.6288 18.9096 10.6742 18.9091 10.721 18.9086C10.8712 18.9072 11.0214 18.9066 11.1716 18.9061C11.2762 18.9055 11.3808 18.905 11.4853 18.9044C11.7047 18.9034 11.9241 18.9029 12.1434 18.9025C12.4239 18.902 12.7043 18.8998 12.9848 18.8971C13.2009 18.8953 13.417 18.8948 13.6331 18.8947C13.7364 18.8944 13.8398 18.8936 13.9432 18.8924C14.0882 18.8908 14.233 18.8909 14.378 18.8916C14.4204 18.8907 14.4627 18.8898 14.5063 18.8889C14.8293 18.8932 15.0428 18.9907 15.2816 19.2089C15.5166 19.4697 15.5523 19.7153 15.549 20.0572C15.5495 20.1026 15.55 20.1481 15.5505 20.195C15.5517 20.3444 15.5513 20.4937 15.5507 20.6431C15.551 20.7475 15.5513 20.8519 15.5517 20.9564C15.5523 21.1749 15.552 21.3934 15.5511 21.6119C15.55 21.8912 15.5512 22.1705 15.5532 22.4498C15.5544 22.6654 15.5543 22.8809 15.5538 23.0964C15.5537 23.1994 15.554 23.3024 15.5549 23.4053C15.5558 23.5496 15.5549 23.6937 15.5536 23.8379C15.5546 23.9011 15.5546 23.9011 15.5556 23.9655C15.5497 24.2866 15.4428 24.4967 15.2344 24.7396C15.0501 24.9005 14.8641 24.9815 14.6193 24.9829C14.5808 24.9833 14.5422 24.9836 14.5024 24.984C14.4603 24.9841 14.4181 24.9842 14.3747 24.9843C14.3301 24.9847 14.2856 24.985 14.2397 24.9853C14.092 24.9862 13.9444 24.9868 13.7968 24.9872C13.7211 24.9875 13.7211 24.9875 13.6439 24.9878C13.3768 24.9888 13.1098 24.9895 12.8427 24.9899C12.5671 24.9905 12.2916 24.9921 12.0161 24.994C11.8039 24.9952 11.5918 24.9956 11.3797 24.9958C11.2781 24.996 11.1766 24.9965 11.075 24.9974C10.9326 24.9986 10.7903 24.9985 10.6479 24.9982C10.5854 24.9991 10.5854 24.9991 10.5216 25C10.2004 24.9973 9.94008 24.9208 9.70764 24.6907C9.67541 24.6432 9.67541 24.6432 9.64254 24.5949C9.60903 24.5472 9.60903 24.5472 9.57485 24.4986C9.49037 24.3561 9.46833 24.237 9.46707 24.0747C9.46667 24.0357 9.46626 23.9967 9.46584 23.9565C9.46564 23.9138 9.46544 23.8712 9.46523 23.8272C9.46485 23.7822 9.46446 23.7371 9.46406 23.6907C9.46289 23.5413 9.46211 23.392 9.46143 23.2426C9.46105 23.1661 9.46105 23.1661 9.46067 23.088C9.45941 22.8178 9.45849 22.5477 9.45781 22.2775C9.45702 21.9988 9.45491 21.72 9.4525 21.4413C9.45091 21.2267 9.45037 21.0122 9.4501 20.7976C9.44979 20.6949 9.44907 20.5921 9.44794 20.4894C9.44644 20.3453 9.44644 20.2014 9.44679 20.0573C9.44602 20.0152 9.44524 19.973 9.44444 19.9295C9.44738 19.6331 9.52363 19.4395 9.71041 19.2089C9.89997 19.033 10.0721 18.9141 10.3344 18.912Z" fill="white"/>
<path d="M0.970887 18.912C1.01384 18.9114 1.05679 18.9109 1.10104 18.9103C1.14773 18.9102 1.19443 18.9101 1.24253 18.91C1.29206 18.9096 1.34158 18.9091 1.3926 18.9086C1.55647 18.9072 1.72033 18.9066 1.88421 18.9061C1.99828 18.9055 2.11235 18.905 2.22642 18.9044C2.46573 18.9034 2.70503 18.9029 2.94434 18.9025C3.25032 18.902 3.55625 18.8998 3.86222 18.8971C4.09796 18.8953 4.33369 18.8948 4.56943 18.8947C4.68219 18.8944 4.79495 18.8936 4.90769 18.8924C5.06587 18.8908 5.22393 18.8909 5.38211 18.8916C5.42828 18.8907 5.47445 18.8898 5.52203 18.8889C5.87444 18.8932 6.10726 18.9907 6.36783 19.2089C6.62417 19.4697 6.66307 19.7153 6.6595 20.0572C6.66003 20.1026 6.66056 20.1481 6.66111 20.195C6.6625 20.3444 6.66201 20.4937 6.66137 20.6431C6.66167 20.7475 6.66205 20.8519 6.66249 20.9564C6.6631 21.1749 6.66275 21.3934 6.66176 21.6119C6.66058 21.8912 6.66196 22.1705 6.66408 22.4498C6.6654 22.6654 6.66526 22.8809 6.6647 23.0964C6.66463 23.1994 6.66502 23.3024 6.6659 23.4053C6.66693 23.5496 6.66598 23.6937 6.66453 23.8379C6.66559 23.9011 6.66559 23.9011 6.66667 23.9655C6.66024 24.2866 6.54371 24.4967 6.31632 24.7396C6.11529 24.9005 5.91234 24.9815 5.64533 24.9829C5.60325 24.9833 5.56116 24.9836 5.5178 24.984C5.4718 24.9841 5.4258 24.9842 5.37841 24.9843C5.32982 24.9847 5.28123 24.985 5.23116 24.9853C5.07011 24.9862 4.90906 24.9868 4.74801 24.9872C4.66546 24.9875 4.66546 24.9875 4.58125 24.9878C4.2899 24.9888 3.99855 24.9895 3.70719 24.9899C3.40659 24.9905 3.106 24.9921 2.8054 24.994C2.57399 24.9952 2.34259 24.9956 2.11118 24.9958C2.0004 24.996 1.88961 24.9965 1.77883 24.9974C1.6235 24.9986 1.46822 24.9985 1.31288 24.9982C1.24467 24.9991 1.24467 24.9991 1.17508 25C0.824695 24.9973 0.540699 24.9208 0.287125 24.6907C0.251969 24.6432 0.251969 24.6432 0.216103 24.5949C0.179553 24.5472 0.179553 24.5472 0.142265 24.4986C0.0501052 24.3561 0.0260613 24.237 0.0246872 24.0747C0.0242442 24.0357 0.0238012 23.9967 0.0233448 23.9565C0.0231254 23.9138 0.022906 23.8712 0.02268 23.8272C0.0222588 23.7822 0.0218376 23.7371 0.0214036 23.6907C0.0201241 23.5413 0.0192729 23.392 0.0185303 23.2426C0.018119 23.1661 0.018119 23.1661 0.0176994 23.088C0.0163228 22.8178 0.0153248 22.5477 0.0145819 22.2775C0.013725 21.9988 0.0114191 21.72 0.00879411 21.4413C0.00705879 21.2267 0.00646562 21.0122 0.00617475 20.7976C0.00582923 20.6949 0.00504577 20.5921 0.0038111 20.4894C0.00217882 20.3453 0.0021793 20.2014 0.00256051 20.0573C0.00171554 20.0152 0.000870575 19.973 0 19.9295C0.00319928 19.6331 0.0863861 19.4395 0.290143 19.2089C0.496933 19.033 0.684755 18.9141 0.970887 18.912Z" fill="white"/>
<path d="M19.7789 9.4674C19.8182 9.46686 19.8576 9.46632 19.8982 9.46576C19.941 9.46566 19.9838 9.46555 20.0279 9.46544C20.0733 9.46497 20.1187 9.4645 20.1654 9.46402C20.3157 9.46264 20.4659 9.46199 20.6161 9.46147C20.7206 9.46093 20.8252 9.46038 20.9298 9.45984C21.1491 9.45884 21.3685 9.45829 21.5879 9.45796C21.8683 9.45744 22.1488 9.45517 22.4293 9.45248C22.6453 9.45072 22.8614 9.45023 23.0775 9.45008C23.1809 9.4498 23.2843 9.44904 23.3876 9.4478C23.5326 9.44618 23.6775 9.44636 23.8225 9.44698C23.8648 9.4461 23.9071 9.44523 23.9507 9.44434C24.2738 9.44858 24.4872 9.54616 24.7261 9.7643C24.961 10.0252 24.9967 10.2707 24.9934 10.6126C24.9939 10.6581 24.9944 10.7035 24.9949 10.7504C24.9962 10.8998 24.9957 11.0491 24.9951 11.1985C24.9954 11.3029 24.9958 11.4074 24.9962 11.5118C24.9967 11.7303 24.9964 11.9488 24.9955 12.1673C24.9944 12.4466 24.9957 12.7259 24.9976 13.0052C24.9988 13.2208 24.9987 13.4363 24.9982 13.6519C24.9981 13.7548 24.9985 13.8578 24.9993 13.9607C25.0002 14.105 24.9994 14.2491 24.998 14.3934C24.999 14.4565 24.999 14.4565 25 14.5209C24.9941 14.8421 24.8873 15.0522 24.6788 15.295C24.4946 15.4559 24.3085 15.5369 24.0638 15.5384C24.0252 15.5387 23.9866 15.539 23.9469 15.5394C23.9047 15.5395 23.8625 15.5396 23.8191 15.5398C23.7746 15.5401 23.73 15.5404 23.6841 15.5407C23.5365 15.5416 23.3889 15.5422 23.2412 15.5427C23.1656 15.5429 23.1656 15.5429 23.0884 15.5432C22.8213 15.5442 22.5542 15.5449 22.2871 15.5453C22.0116 15.5459 21.7361 15.5475 21.4605 15.5494C21.2484 15.5506 21.0363 15.551 20.8241 15.5512C20.7226 15.5514 20.621 15.552 20.5195 15.5528C20.3771 15.554 20.2347 15.5539 20.0924 15.5536C20.0298 15.5545 20.0298 15.5545 19.966 15.5554C19.6449 15.5528 19.3845 15.4762 19.1521 15.2461C19.1199 15.1987 19.1199 15.1987 19.087 15.1503C19.0535 15.1027 19.0535 15.1027 19.0193 15.0541C18.9348 14.9115 18.9128 14.7924 18.9115 14.6302C18.9111 14.5911 18.9107 14.5521 18.9103 14.5119C18.9101 14.4692 18.9099 14.4266 18.9097 14.3826C18.9093 14.3376 18.9089 14.2925 18.9085 14.2461C18.9073 14.0967 18.9066 13.9474 18.9059 13.7981C18.9055 13.7215 18.9055 13.7215 18.9051 13.6434C18.9038 13.3733 18.9029 13.1031 18.9023 12.833C18.9015 12.5542 18.8994 12.2755 18.8969 11.9967C18.8954 11.7821 18.8948 11.5676 18.8945 11.353C18.8942 11.2503 18.8935 11.1475 18.8924 11.0448C18.8909 10.9008 18.8909 10.7568 18.8912 10.6128C18.8905 10.5706 18.8897 10.5284 18.8889 10.4849C18.8918 10.1886 18.9681 9.99493 19.1548 9.7643C19.3444 9.5884 19.5166 9.46956 19.7789 9.4674Z" fill="white"/>
<path d="M10.3344 9.4674C10.3738 9.46686 10.4132 9.46632 10.4537 9.46576C10.4965 9.46566 10.5393 9.46555 10.5834 9.46544C10.6288 9.46497 10.6742 9.4645 10.721 9.46402C10.8712 9.46264 11.0214 9.46199 11.1716 9.46147C11.2762 9.46093 11.3808 9.46038 11.4853 9.45984C11.7047 9.45884 11.9241 9.45829 12.1434 9.45796C12.4239 9.45744 12.7043 9.45517 12.9848 9.45248C13.2009 9.45072 13.417 9.45023 13.6331 9.45008C13.7364 9.4498 13.8398 9.44904 13.9432 9.4478C14.0882 9.44618 14.233 9.44636 14.378 9.44698C14.4204 9.4461 14.4627 9.44523 14.5063 9.44434C14.8293 9.44858 15.0428 9.54616 15.2816 9.7643C15.5166 10.0252 15.5523 10.2707 15.549 10.6126C15.5495 10.6581 15.55 10.7035 15.5505 10.7504C15.5517 10.8998 15.5513 11.0491 15.5507 11.1985C15.551 11.3029 15.5513 11.4074 15.5517 11.5118C15.5523 11.7303 15.552 11.9488 15.5511 12.1673C15.55 12.4466 15.5512 12.7259 15.5532 13.0052C15.5544 13.2208 15.5543 13.4363 15.5538 13.6519C15.5537 13.7548 15.554 13.8578 15.5549 13.9607C15.5558 14.105 15.5549 14.2491 15.5536 14.3934C15.5546 14.4565 15.5546 14.4565 15.5556 14.5209C15.5497 14.8421 15.4428 15.0522 15.2344 15.295C15.0501 15.4559 14.8641 15.5369 14.6193 15.5384C14.5808 15.5387 14.5422 15.539 14.5024 15.5394C14.4603 15.5395 14.4181 15.5396 14.3747 15.5398C14.3301 15.5401 14.2856 15.5404 14.2397 15.5407C14.092 15.5416 13.9444 15.5422 13.7968 15.5427C13.7211 15.5429 13.7211 15.5429 13.6439 15.5432C13.3768 15.5442 13.1098 15.5449 12.8427 15.5453C12.5671 15.5459 12.2916 15.5475 12.0161 15.5494C11.8039 15.5506 11.5918 15.551 11.3797 15.5512C11.2781 15.5514 11.1766 15.552 11.075 15.5528C10.9326 15.554 10.7903 15.5539 10.6479 15.5536C10.5854 15.5545 10.5854 15.5545 10.5216 15.5554C10.2004 15.5528 9.94008 15.4762 9.70764 15.2461C9.67541 15.1987 9.67541 15.1987 9.64254 15.1503C9.60903 15.1027 9.60903 15.1027 9.57485 15.0541C9.49037 14.9115 9.46833 14.7924 9.46707 14.6302C9.46667 14.5911 9.46626 14.5521 9.46584 14.5119C9.46564 14.4692 9.46544 14.4266 9.46523 14.3826C9.46485 14.3376 9.46446 14.2925 9.46406 14.2461C9.46289 14.0967 9.46211 13.9474 9.46143 13.7981C9.46105 13.7215 9.46105 13.7215 9.46067 13.6434C9.45941 13.3733 9.45849 13.1031 9.45781 12.833C9.45702 12.5542 9.45491 12.2755 9.4525 11.9967C9.45091 11.7821 9.45037 11.5676 9.4501 11.353C9.44979 11.2503 9.44907 11.1475 9.44794 11.0448C9.44644 10.9008 9.44644 10.7568 9.44679 10.6128C9.44602 10.5706 9.44524 10.5284 9.44444 10.4849C9.44738 10.1886 9.52363 9.99493 9.71041 9.7643C9.89997 9.5884 10.0721 9.46956 10.3344 9.4674Z" fill="white"/>
<path d="M0.970887 9.4674C1.01384 9.46686 1.05679 9.46632 1.10104 9.46576C1.14773 9.46566 1.19443 9.46555 1.24253 9.46544C1.29206 9.46497 1.34158 9.4645 1.3926 9.46402C1.55647 9.46264 1.72033 9.46199 1.88421 9.46147C1.99828 9.46093 2.11235 9.46038 2.22642 9.45984C2.46573 9.45884 2.70503 9.45829 2.94434 9.45796C3.25032 9.45744 3.55625 9.45517 3.86222 9.45248C4.09796 9.45072 4.33369 9.45023 4.56943 9.45008C4.68219 9.4498 4.79495 9.44904 4.90769 9.4478C5.06587 9.44618 5.22393 9.44636 5.38211 9.44698C5.42828 9.4461 5.47445 9.44523 5.52203 9.44434C5.87444 9.44858 6.10726 9.54616 6.36783 9.7643C6.62417 10.0252 6.66307 10.2707 6.6595 10.6126C6.66003 10.6581 6.66056 10.7035 6.66111 10.7504C6.6625 10.8998 6.66201 11.0491 6.66137 11.1985C6.66167 11.3029 6.66205 11.4074 6.66249 11.5118C6.6631 11.7303 6.66275 11.9488 6.66176 12.1673C6.66058 12.4466 6.66196 12.7259 6.66408 13.0052C6.6654 13.2208 6.66526 13.4363 6.6647 13.6519C6.66463 13.7548 6.66502 13.8578 6.6659 13.9607C6.66693 14.105 6.66598 14.2491 6.66453 14.3934C6.66559 14.4565 6.66559 14.4565 6.66667 14.5209C6.66024 14.8421 6.54371 15.0522 6.31632 15.295C6.11529 15.4559 5.91234 15.5369 5.64533 15.5384C5.60325 15.5387 5.56116 15.539 5.5178 15.5394C5.4718 15.5395 5.4258 15.5396 5.37841 15.5398C5.32982 15.5401 5.28123 15.5404 5.23116 15.5407C5.07011 15.5416 4.90906 15.5422 4.74801 15.5427C4.66546 15.5429 4.66546 15.5429 4.58125 15.5432C4.2899 15.5442 3.99855 15.5449 3.70719 15.5453C3.40659 15.5459 3.106 15.5475 2.8054 15.5494C2.57399 15.5506 2.34259 15.551 2.11118 15.5512C2.0004 15.5514 1.88961 15.552 1.77883 15.5528C1.6235 15.554 1.46822 15.5539 1.31288 15.5536C1.24467 15.5545 1.24467 15.5545 1.17508 15.5554C0.824695 15.5528 0.540699 15.4762 0.287125 15.2461C0.251969 15.1987 0.251969 15.1987 0.216103 15.1503C0.179553 15.1027 0.179553 15.1027 0.142265 15.0541C0.0501052 14.9115 0.0260613 14.7924 0.0246872 14.6302C0.0242442 14.5911 0.0238012 14.5521 0.0233448 14.5119C0.0231254 14.4692 0.022906 14.4266 0.02268 14.3826C0.0222588 14.3376 0.0218376 14.2925 0.0214036 14.2461C0.0201241 14.0967 0.0192729 13.9474 0.0185303 13.7981C0.018119 13.7215 0.018119 13.7215 0.0176994 13.6434C0.0163228 13.3733 0.0153248 13.1031 0.0145819 12.833C0.013725 12.5542 0.0114191 12.2755 0.00879411 11.9967C0.00705879 11.7821 0.00646562 11.5676 0.00617475 11.353C0.00582923 11.2503 0.00504577 11.1475 0.0038111 11.0448C0.00217882 10.9008 0.0021793 10.7568 0.00256051 10.6128C0.00171554 10.5706 0.000870575 10.5284 0 10.4849C0.00319928 10.1886 0.0863861 9.99493 0.290143 9.7643C0.496933 9.5884 0.684755 9.46956 0.970887 9.4674Z" fill="white"/>
<path d="M19.7789 0.025158C19.8182 0.024569 19.8576 0.0239801 19.8982 0.0233733C19.941 0.023258 19.9838 0.0231428 20.0279 0.023024C20.0733 0.0225119 20.1187 0.0219998 20.1654 0.0214722C20.3157 0.0199657 20.4659 0.0192629 20.6161 0.018693C20.7206 0.0180996 20.8252 0.0175058 20.9298 0.0169115C21.1491 0.0158279 21.3685 0.0152251 21.5879 0.0148656C21.8683 0.0143007 22.1488 0.0118239 22.4293 0.00888657C22.6453 0.00696123 22.8614 0.00642838 23.0775 0.00627061C23.1809 0.00595926 23.2843 0.0051339 23.3876 0.00377621C23.5326 0.00200779 23.6775 0.00221255 23.8225 0.00287996C23.8648 0.00192958 23.9071 0.000979187 23.9507 0C24.2738 0.00463455 24.4872 0.111083 24.7261 0.349055C24.961 0.633622 24.9967 0.901523 24.9934 1.27446C24.9939 1.32407 24.9944 1.37368 24.9949 1.4248C24.9962 1.58777 24.9957 1.75067 24.9951 1.91364C24.9954 2.02756 24.9958 2.14147 24.9962 2.25539C24.9967 2.49376 24.9964 2.73211 24.9955 2.97048C24.9944 3.27522 24.9957 3.57988 24.9976 3.88461C24.9988 4.11975 24.9987 4.35488 24.9982 4.59003C24.9981 4.70235 24.9985 4.81466 24.9993 4.92698C25.0002 5.08434 24.9994 5.24158 24.998 5.39894C24.999 5.4678 24.999 5.4678 25 5.53804C24.9941 5.88843 24.8873 6.11762 24.6788 6.38259C24.4946 6.55806 24.3085 6.64641 24.0638 6.64802C24.0252 6.64839 23.9866 6.64876 23.9469 6.64914C23.9047 6.64928 23.8625 6.64941 23.8191 6.64956C23.7746 6.6499 23.73 6.65023 23.6841 6.65058C23.5365 6.6516 23.3889 6.6522 23.2412 6.65272C23.1656 6.65303 23.1656 6.65303 23.0884 6.65335C22.8213 6.65443 22.5542 6.65517 22.2871 6.65565C22.0116 6.65622 21.7361 6.65799 21.4605 6.66004C21.2484 6.66139 21.0363 6.66182 20.8241 6.66201C20.7226 6.66226 20.621 6.66286 20.5195 6.66381C20.3771 6.66507 20.2347 6.66502 20.0924 6.66466C20.0298 6.66566 20.0298 6.66566 19.966 6.66667C19.6449 6.66374 19.3845 6.5802 19.1521 6.3292C19.1199 6.27745 19.1199 6.27745 19.087 6.22466C19.0535 6.17271 19.0535 6.17271 19.0193 6.11971C18.9348 5.96422 18.9128 5.83426 18.9115 5.65725C18.9111 5.61468 18.9107 5.57211 18.9103 5.52824C18.9101 5.48171 18.9099 5.43518 18.9097 5.38723C18.9093 5.33808 18.9089 5.28892 18.9085 5.23828C18.9073 5.07536 18.9066 4.91244 18.9059 4.74951C18.9055 4.66601 18.9055 4.66601 18.9051 4.58082C18.9038 4.28611 18.9029 3.99139 18.9023 3.69667C18.9015 3.39257 18.8994 3.0885 18.8969 2.78441C18.8954 2.55034 18.8948 2.31627 18.8945 2.08218C18.8942 1.97011 18.8935 1.85804 18.8924 1.74597C18.8909 1.58884 18.8909 1.43178 18.8912 1.27463C18.8905 1.22862 18.8897 1.18261 18.8889 1.1352C18.8918 0.811875 18.9681 0.600644 19.1548 0.349055C19.3444 0.157161 19.5166 0.0275184 19.7789 0.025158Z" fill="white"/>
<path d="M10.3344 0.025158C10.3738 0.024569 10.4132 0.0239801 10.4537 0.0233733C10.4965 0.023258 10.5393 0.0231428 10.5834 0.023024C10.6288 0.0225119 10.6742 0.0219998 10.721 0.0214722C10.8712 0.0199657 11.0214 0.0192629 11.1716 0.018693C11.2762 0.0180996 11.3808 0.0175058 11.4853 0.0169115C11.7047 0.0158279 11.9241 0.0152251 12.1434 0.0148656C12.4239 0.0143007 12.7043 0.0118239 12.9848 0.00888657C13.2009 0.00696123 13.417 0.00642838 13.6331 0.00627061C13.7364 0.00595926 13.8398 0.0051339 13.9432 0.00377621C14.0882 0.00200779 14.233 0.00221255 14.378 0.00287996C14.4204 0.00192958 14.4627 0.000979187 14.5063 0C14.8293 0.00463455 15.0428 0.111083 15.2816 0.349055C15.5166 0.633622 15.5523 0.901523 15.549 1.27446C15.5495 1.32407 15.55 1.37368 15.5505 1.4248C15.5517 1.58777 15.5513 1.75067 15.5507 1.91364C15.551 2.02756 15.5513 2.14147 15.5517 2.25539C15.5523 2.49376 15.552 2.73211 15.5511 2.97048C15.55 3.27522 15.5512 3.57988 15.5532 3.88461C15.5544 4.11975 15.5543 4.35488 15.5538 4.59003C15.5537 4.70235 15.554 4.81466 15.5549 4.92698C15.5558 5.08434 15.5549 5.24158 15.5536 5.39894C15.5546 5.4678 15.5546 5.4678 15.5556 5.53804C15.5497 5.88843 15.4428 6.11762 15.2344 6.38259C15.0501 6.55806 14.8641 6.64641 14.6193 6.64802C14.5808 6.64839 14.5422 6.64876 14.5024 6.64914C14.4603 6.64928 14.4181 6.64941 14.3747 6.64956C14.3301 6.6499 14.2856 6.65023 14.2397 6.65058C14.092 6.6516 13.9444 6.6522 13.7968 6.65272C13.7211 6.65303 13.7211 6.65303 13.6439 6.65335C13.3768 6.65443 13.1098 6.65517 12.8427 6.65565C12.5671 6.65622 12.2916 6.65799 12.0161 6.66004C11.8039 6.66139 11.5918 6.66182 11.3797 6.66201C11.2781 6.66226 11.1766 6.66286 11.075 6.66381C10.9326 6.66507 10.7903 6.66502 10.6479 6.66466C10.5854 6.66566 10.5854 6.66566 10.5216 6.66667C10.2004 6.66374 9.94008 6.5802 9.70764 6.3292C9.67541 6.27745 9.67541 6.27745 9.64254 6.22466C9.60903 6.17271 9.60903 6.17271 9.57485 6.11971C9.49037 5.96422 9.46833 5.83426 9.46707 5.65725C9.46667 5.61468 9.46626 5.57211 9.46584 5.52824C9.46564 5.48171 9.46544 5.43518 9.46523 5.38723C9.46485 5.33808 9.46446 5.28892 9.46406 5.23828C9.46289 5.07536 9.46211 4.91244 9.46143 4.74951C9.46105 4.66601 9.46105 4.66601 9.46067 4.58082C9.45941 4.28611 9.45849 3.99139 9.45781 3.69667C9.45702 3.39257 9.45491 3.0885 9.4525 2.78441C9.45091 2.55034 9.45037 2.31627 9.4501 2.08218C9.44979 1.97011 9.44907 1.85804 9.44794 1.74597C9.44644 1.58884 9.44644 1.43178 9.44679 1.27463C9.44602 1.22862 9.44524 1.18261 9.44444 1.1352C9.44738 0.811875 9.52363 0.600644 9.71041 0.349055C9.89997 0.157161 10.0721 0.0275184 10.3344 0.025158Z" fill="white"/>
<path d="M0.970887 0.025158C1.01384 0.024569 1.05679 0.0239801 1.10104 0.0233733C1.14773 0.023258 1.19443 0.0231428 1.24253 0.023024C1.29206 0.0225119 1.34158 0.0219998 1.3926 0.0214722C1.55647 0.0199657 1.72033 0.0192629 1.88421 0.018693C1.99828 0.0180996 2.11235 0.0175058 2.22642 0.0169115C2.46573 0.0158279 2.70503 0.0152251 2.94434 0.0148656C3.25032 0.0143007 3.55625 0.0118239 3.86222 0.00888657C4.09796 0.00696123 4.33369 0.00642838 4.56943 0.00627061C4.68219 0.00595926 4.79495 0.0051339 4.90769 0.00377621C5.06587 0.00200779 5.22393 0.00221255 5.38211 0.00287996C5.42828 0.00192958 5.47445 0.000979187 5.52203 0C5.87444 0.00463455 6.10726 0.111083 6.36783 0.349055C6.62417 0.633622 6.66307 0.901523 6.6595 1.27446C6.66003 1.32407 6.66056 1.37368 6.66111 1.4248C6.6625 1.58777 6.66201 1.75067 6.66137 1.91364C6.66167 2.02756 6.66205 2.14147 6.66249 2.25539C6.6631 2.49376 6.66275 2.73211 6.66176 2.97048C6.66058 3.27522 6.66196 3.57988 6.66408 3.88461C6.6654 4.11975 6.66526 4.35488 6.6647 4.59003C6.66463 4.70235 6.66502 4.81466 6.6659 4.92698C6.66693 5.08434 6.66598 5.24158 6.66453 5.39894C6.66559 5.4678 6.66559 5.4678 6.66667 5.53804C6.66024 5.88843 6.54371 6.11762 6.31632 6.38259C6.11529 6.55806 5.91234 6.64641 5.64533 6.64802C5.60325 6.64839 5.56116 6.64876 5.5178 6.64914C5.4718 6.64928 5.4258 6.64941 5.37841 6.64956C5.32982 6.6499 5.28123 6.65023 5.23116 6.65058C5.07011 6.6516 4.90906 6.6522 4.74801 6.65272C4.66546 6.65303 4.66546 6.65303 4.58125 6.65335C4.2899 6.65443 3.99855 6.65517 3.70719 6.65565C3.40659 6.65622 3.106 6.65799 2.8054 6.66004C2.57399 6.66139 2.34259 6.66182 2.11118 6.66201C2.0004 6.66226 1.88961 6.66286 1.77883 6.66381C1.6235 6.66507 1.46822 6.66502 1.31288 6.66466C1.24467 6.66566 1.24467 6.66566 1.17508 6.66667C0.824695 6.66374 0.540699 6.5802 0.287125 6.3292C0.251969 6.27745 0.251969 6.27745 0.216103 6.22466C0.179553 6.17271 0.179553 6.17271 0.142265 6.11971C0.0501052 5.96422 0.0260613 5.83426 0.0246872 5.65725C0.0242442 5.61468 0.0238012 5.57211 0.0233448 5.52824C0.0231254 5.48171 0.022906 5.43518 0.02268 5.38723C0.0222588 5.33808 0.0218376 5.28892 0.0214036 5.23828C0.0201241 5.07536 0.0192729 4.91244 0.0185303 4.74951C0.018119 4.66601 0.018119 4.66601 0.0176994 4.58082C0.0163228 4.28611 0.0153248 3.99139 0.0145819 3.69667C0.013725 3.39257 0.0114191 3.0885 0.00879411 2.78441C0.00705879 2.55034 0.00646562 2.31627 0.00617475 2.08218C0.00582923 1.97011 0.00504577 1.85804 0.0038111 1.74597C0.00217882 1.58884 0.0021793 1.43178 0.00256051 1.27463C0.00171554 1.22862 0.000870575 1.18261 0 1.1352C0.00319928 0.811875 0.0863861 0.600644 0.290143 0.349055C0.496933 0.157161 0.684755 0.0275184 0.970887 0.025158Z" fill="white"/>
</svg>
