<svg width="16" height="15" viewBox="0 0 16 15" fill="none" xmlns="http://www.w3.org/2000/svg">
<path d="M14.8757 3.973V8.92825C14.8759 9.31876 14.7992 9.70548 14.6499 10.0663C14.5005 10.4271 14.2816 10.755 14.0055 11.0312C13.7294 11.3074 13.4016 11.5264 13.0408 11.6758C12.68 11.8252 12.2933 11.9021 11.9027 11.902H9.9205L8.2855 13.537C8.24091 13.5842 8.18715 13.6219 8.1275 13.6476C8.06785 13.6733 8.00358 13.6866 7.93863 13.6866C7.87367 13.6866 7.8094 13.6733 7.74975 13.6476C7.6901 13.6219 7.63634 13.5842 7.59175 13.537L5.95675 11.902H3.973C3.58252 11.902 3.19586 11.8251 2.83511 11.6756C2.47436 11.5262 2.14658 11.3071 1.87051 11.031C1.59443 10.7548 1.37545 10.427 1.22609 10.0662C1.07673 9.70541 0.999902 9.31873 1 8.92825V3.973C1 3.18451 1.31323 2.42832 1.87077 1.87077C2.42832 1.31323 3.18451 1 3.973 1H11.902C12.6905 1 13.4467 1.31323 14.0042 1.87077C14.5618 2.42832 14.8757 3.18451 14.8757 3.973Z" stroke="#A0A0A0" stroke-linecap="round" stroke-linejoin="round"/>
</svg>
