<svg width="22" height="25" viewBox="0 0 22 25" fill="none" xmlns="http://www.w3.org/2000/svg">
<path d="M14.759 1.86168e-07C14.9249 -0.000121829 15.0437 0.0597356 15.1575 0.171875C16.7163 1.70976 18.2769 3.24687 19.8401 4.78027C19.9688 4.9066 20.0429 5.04209 20.0422 5.22363C20.0367 6.4836 20.0318 7.74393 20.0305 9.00391C20.0286 10.89 20.0341 12.777 20.0247 14.6631C20.0237 14.88 20.0878 14.9389 20.2922 14.9219C20.4964 14.9047 20.704 14.9129 20.9094 14.9189C21.3958 14.9335 21.7781 15.3051 21.7795 15.7891C21.7849 17.702 21.7844 19.6154 21.7795 21.5283C21.7782 22.0207 21.4002 22.39 20.8909 22.4141C20.668 22.4246 20.4436 22.4251 20.2209 22.4131C20.0657 22.4047 20.0247 22.4612 20.0266 22.6113C20.0343 23.201 20.0305 23.7911 20.0295 24.3809C20.0287 24.884 19.9142 25 19.4202 25H2.33911C1.8802 25 1.75547 24.8756 1.75415 24.4102C1.75251 23.8113 1.75007 23.2121 1.75708 22.6133C1.7588 22.4667 1.72389 22.4034 1.5647 22.4131C1.3512 22.426 1.1362 22.4216 0.922122 22.415C0.373888 22.3983 0.00300481 22.0242 0.00219976 21.4775C-0.000563754 19.6006 -0.000897997 17.7236 0.00219976 15.8467C0.00310948 15.2956 0.378083 14.9243 0.925051 14.918C1.12146 14.9157 1.3197 14.9012 1.51392 14.9219C1.72805 14.9447 1.78362 14.8562 1.75513 14.666C1.74733 14.6137 1.75412 14.5593 1.75415 14.5059C1.75415 9.88457 1.75411 5.26289 1.75513 0.641602C1.75517 0.474175 1.73051 0.299328 1.85474 0.155274C1.9637 0.0289713 2.1024 0.000937257 2.26294 0.000976749C6.42814 0.00334818 10.5938 0.00339961 14.759 1.86168e-07ZM5.67603 22.417C4.72855 22.417 3.78068 22.4204 2.83325 22.4131C2.67497 22.4119 2.61667 22.4427 2.62232 22.6152C2.63631 23.0349 2.64311 23.4569 2.62134 23.876C2.60937 24.1072 2.68418 24.1471 2.89966 24.1465C5.55444 24.1385 8.2097 24.1416 10.8645 24.1416C13.5463 24.1416 16.2287 24.1391 18.9104 24.1455C19.1015 24.1459 19.1727 24.1138 19.1624 23.9033C19.1425 23.5021 19.1391 23.098 19.1633 22.6973C19.1781 22.4527 19.098 22.4108 18.8704 22.4111C14.4723 22.4184 10.0741 22.417 5.67603 22.417ZM10.884 15.7852C7.6315 15.7852 4.37875 15.7875 1.12622 15.7813C0.921379 15.7809 0.855461 15.824 0.856692 16.043C0.866534 17.7945 0.864314 19.5463 0.857669 21.2979C0.856995 21.4787 0.89414 21.545 1.08911 21.5391C1.5708 21.5245 2.05327 21.5342 2.5354 21.5342C8.56717 21.5342 14.5993 21.5331 20.6311 21.5391C20.8536 21.5393 20.9309 21.5034 20.929 21.2539C20.9156 19.5294 20.9156 17.8046 20.929 16.0801C20.931 15.8203 20.8463 15.7798 20.6145 15.7803C17.371 15.7873 14.1275 15.7852 10.884 15.7852ZM8.53443 16.7109C8.80663 16.7764 8.88275 16.9847 8.88208 17.2422C8.87954 18.2254 8.87995 19.2091 8.88111 20.1924C8.88129 20.3996 8.84123 20.5867 8.63794 20.6895C8.33238 20.8436 8.01171 20.6242 8.00513 20.248C7.99706 19.7685 8.00246 19.2882 7.95923 18.793C7.81077 19.0388 7.66605 19.2874 7.51294 19.5303C7.27475 19.9078 6.9252 19.9085 6.68872 19.5342C6.53691 19.2935 6.38854 19.0494 6.23853 18.8076C6.2343 18.8015 6.22372 18.7981 6.18579 18.7764C6.18579 19.2512 6.18717 19.7095 6.18482 20.167C6.18425 20.2811 6.19747 20.3984 6.13404 20.5049C6.02546 20.6864 5.86935 20.7677 5.66138 20.7188C5.41469 20.6606 5.31764 20.4863 5.31763 20.2451V17.1611C5.3225 16.9262 5.43857 16.7696 5.66333 16.7119C5.87138 16.6585 6.02892 16.7535 6.13599 16.9297C6.4043 17.3714 6.66912 17.8151 6.93579 18.2578C6.98585 18.3409 7.0406 18.4217 7.10474 18.5215C7.41635 18.0014 7.71796 17.5006 8.01685 16.998C8.13473 16.7999 8.28507 16.6511 8.53443 16.7109ZM9.60474 16.7412C9.84754 16.6263 10.0704 16.7206 10.2043 17.0127C10.5339 17.7319 10.8573 18.4545 11.2102 19.2363C11.5145 18.5599 11.793 17.9382 12.0725 17.3174C12.1199 17.2121 12.167 17.1065 12.218 17.0029C12.3548 16.7255 12.5596 16.6324 12.7991 16.7363C13.0445 16.843 13.1297 17.081 13.0051 17.3623C12.6525 18.1586 12.2926 18.9517 11.9358 19.7461C11.8374 19.9651 11.7365 20.1834 11.6428 20.4043C11.5589 20.602 11.4246 20.7384 11.2024 20.7344C10.9949 20.7306 10.8677 20.6041 10.7834 20.415C10.3313 19.4005 9.87144 18.389 9.41822 17.375C9.29216 17.0927 9.36807 16.8533 9.60474 16.7412ZM14.1086 16.585C14.5628 16.6053 15.0207 16.5345 15.4709 16.6289C16.0962 16.76 16.5258 17.3423 16.4631 17.9609C16.3994 18.5884 15.8734 19.0804 15.2454 19.0967C15.04 19.1019 14.8333 19.1055 14.6282 19.0967C14.5088 19.0917 14.476 19.1338 14.4788 19.249C14.4858 19.5435 14.4853 19.8383 14.4807 20.1328C14.476 20.4321 14.2914 20.6352 14.0374 20.6318C13.7886 20.6284 13.6162 20.442 13.6126 20.1475C13.6063 19.6388 13.6106 19.1298 13.6106 18.6211C13.6086 18.6211 13.6067 18.6211 13.6047 18.6211C13.6047 18.1212 13.6094 17.6209 13.6028 17.1211C13.5982 16.7725 13.77 16.5698 14.1086 16.585ZM14.6155 17.4678C14.4818 17.4563 14.4641 17.5359 14.4827 17.6318C14.5212 17.8318 14.3544 18.1218 14.5842 18.2158C14.7866 18.2985 15.0565 18.2402 15.2922 18.21C15.4949 18.184 15.5996 18.0245 15.5872 17.8271C15.574 17.6182 15.4495 17.4859 15.2278 17.4736C15.1307 17.4683 15.0331 17.4726 14.9358 17.4727V17.4697C14.8293 17.4697 14.7212 17.477 14.6155 17.4678ZM14.0823 0.855469C10.3558 0.863218 6.62909 0.863191 2.90259 0.856445C2.69078 0.856062 2.62096 0.890371 2.62134 1.12402C2.62961 5.63746 2.62935 10.1516 2.62232 14.665C2.62207 14.8796 2.68233 14.9234 2.88599 14.9229C5.54899 14.9159 8.21223 14.918 10.8752 14.918C13.5471 14.918 16.219 14.9144 18.8909 14.9238C19.1205 14.9246 19.1629 14.8609 19.1624 14.6445C19.1546 11.7132 19.155 8.7819 19.1614 5.85059C19.1618 5.64772 19.1201 5.58112 18.9026 5.58301C17.6158 5.59446 16.3282 5.58895 15.0413 5.58887C14.4397 5.58878 14.3519 5.49919 14.3518 4.88477C14.3518 3.63356 14.3454 2.38194 14.3577 1.13086C14.3599 0.907011 14.3048 0.855031 14.0823 0.855469ZM11.7112 7.68262C11.9408 7.72279 12.0571 7.88243 12.0745 8.14063C12.0532 8.21187 12.029 8.30671 11.9973 8.39844C11.5374 9.732 11.0759 11.0651 10.6155 12.3984C10.5597 12.5601 10.5042 12.7289 10.3323 12.7988C10.1675 12.8658 9.99626 12.8599 9.85767 12.7275C9.71599 12.5922 9.67995 12.4311 9.74634 12.2402C10.0668 11.3189 10.3823 10.3958 10.7004 9.47363C10.8711 8.97892 11.0416 8.4836 11.2161 7.99023C11.2979 7.75901 11.4673 7.64 11.7112 7.68262ZM14.2668 8.05273C14.4345 8.04914 14.5452 8.11793 14.6409 8.21777C15.1842 8.78573 15.731 9.35159 16.2698 9.92383C16.4803 10.1476 16.4786 10.3626 16.2688 10.5859C15.7307 11.1586 15.189 11.728 14.6428 12.293C14.4425 12.5001 14.1824 12.5088 14.0012 12.335C13.8157 12.1569 13.815 11.9082 14.0159 11.6934C14.4187 11.263 14.8243 10.8344 15.2385 10.415C15.36 10.292 15.361 10.2216 15.2366 10.0967C14.8208 9.67916 14.4192 9.24728 14.0129 8.82031C13.871 8.67113 13.8185 8.49648 13.9075 8.30566C13.9801 8.15002 14.1155 8.06561 14.2668 8.05273ZM7.50025 8.05273C7.66032 8.06401 7.79603 8.14595 7.87134 8.30078C7.96338 8.49012 7.91771 8.66659 7.77564 8.81641C7.37637 9.23743 6.98395 9.66554 6.57056 10.0723C6.41395 10.2263 6.43886 10.3108 6.5774 10.4502C6.97393 10.8491 7.35966 11.2594 7.74439 11.6699C7.96706 11.9075 7.97708 12.1436 7.78736 12.3311C7.59591 12.5201 7.33394 12.4967 7.10767 12.2607C6.58234 11.7129 6.05903 11.1627 5.53736 10.6113C5.29973 10.3601 5.2952 10.158 5.52857 9.91113C6.06219 9.3467 6.60057 8.78642 7.13697 8.22461C7.23234 8.12477 7.34182 8.05412 7.50025 8.05273ZM15.2288 4.60254C15.2286 4.69498 15.2594 4.7258 15.3518 4.72559C16.3936 4.72321 17.4354 4.72363 18.5374 4.72363C17.4159 3.62283 16.3419 2.56926 15.2297 1.47754C15.2297 2.55515 15.2312 3.57905 15.2288 4.60254Z" fill="black"/>
</svg>
