<svg width="22" height="27" viewBox="0 0 22 27" fill="none" xmlns="http://www.w3.org/2000/svg">
<path d="M0.325976 26.3989C0.0766184 26.2823 -0.000128625 26.0819 1.61756e-07 25.8143C0.00376596 17.9882 0.00278387 10.1621 0.00378731 2.33597C0.00384309 1.9026 0.156294 1.75826 0.601912 1.75727C1.27079 1.75578 1.93967 1.75688 2.64287 1.75688C2.64287 1.35548 2.64178 0.972104 2.64315 0.588732C2.64474 0.148273 2.79068 0.000685845 3.22991 0.000620419C7.2424 2.46961e-05 11.2549 -0.00242431 15.2674 0.00930075C15.4432 0.00981452 15.6634 0.0972067 15.7875 0.220186C17.7958 2.20921 19.7904 4.212 21.793 6.20667C21.9709 6.38385 22.0001 6.58497 22 6.81558C21.9976 11.1625 21.9982 15.5093 21.9982 19.8562C21.9982 20.9386 21.9986 22.0211 21.9981 23.1035C21.9978 23.6405 21.8721 23.7633 21.3247 23.7635C20.6813 23.7638 20.0379 23.7636 19.3584 23.7636C19.3584 24.0428 19.3584 24.3058 19.3584 24.5689C19.3584 24.9812 19.3463 25.3941 19.3626 25.8058C19.3733 26.077 19.2799 26.27 19.0453 26.3989H0.325976ZM21.101 22.8694V7.04149C20.9833 7.04149 20.8819 7.04149 20.7804 7.04149C19.079 7.04149 17.3776 7.04162 15.6762 7.04141C15.0685 7.04133 14.9654 6.93993 14.9654 6.34387C14.9653 4.62556 14.9654 2.90724 14.9654 1.18893V0.894258H3.53649V22.8694L21.101 22.8694ZM18.4688 23.7636H18.1125C13.1879 23.7636 8.26334 23.7636 3.33873 23.7635C2.75821 23.7635 2.64288 23.649 2.64288 23.0732C2.64283 16.3792 2.64285 9.68524 2.64285 2.99126V2.65331H0.899178V25.5055H18.4688V23.7636ZM20.3559 6.14714C18.8554 4.64809 17.3388 3.13305 15.8608 1.6566V6.14714H20.3559Z" fill="white"/>
<path d="M13.6574 18.921C15.3415 18.921 17.0257 18.921 18.7098 18.9213C18.7957 18.9213 18.8826 18.9173 18.9671 18.9289C19.1899 18.9596 19.3466 19.1316 19.3543 19.3436C19.3624 19.5652 19.2056 19.7525 18.9728 19.79C18.8971 19.8022 18.8186 19.799 18.7414 19.799C15.3388 19.7993 11.9361 19.7994 8.53346 19.7987C8.44787 19.7987 8.35981 19.8012 8.27716 19.7831C8.05509 19.7345 7.94055 19.5807 7.92612 19.3622C7.91254 19.1565 8.08046 18.9668 8.2964 18.9321C8.38886 18.9172 8.48482 18.9215 8.57919 18.9214C10.2719 18.9209 11.9647 18.921 13.6574 18.921Z" fill="white"/>
<path d="M13.6572 13.6409C15.3326 13.6408 17.0081 13.6406 18.6835 13.6416C18.7862 13.6416 18.8904 13.6431 18.9914 13.6595C19.2174 13.6961 19.3431 13.8414 19.351 14.064C19.359 14.2864 19.2451 14.442 19.0219 14.4934C18.9228 14.5162 18.8178 14.5215 18.7156 14.5216C15.3303 14.523 11.9451 14.5227 8.55981 14.5227C8.54263 14.5227 8.52544 14.5229 8.50826 14.5226C8.13684 14.5163 7.92809 14.3589 7.92535 14.0831C7.9226 13.8061 8.12941 13.6423 8.50197 13.6418C10.2204 13.6398 11.9388 13.6409 13.6572 13.6409Z" fill="white"/>
<path d="M13.6386 16.283C15.3315 16.283 17.0243 16.2828 18.7171 16.2832C19.1476 16.2832 19.3482 16.4187 19.3543 16.7108C19.3606 17.0101 19.1429 17.1637 18.7089 17.1637C15.3319 17.1639 11.9549 17.164 8.57783 17.1628C8.47554 17.1628 8.37038 17.1604 8.27155 17.1375C8.04601 17.0853 7.90307 16.9003 7.92954 16.6904C7.95856 16.4602 8.08793 16.3139 8.32853 16.2903C8.42228 16.2811 8.51733 16.2833 8.61178 16.2833C10.2874 16.2829 11.963 16.283 13.6386 16.283Z" fill="white"/>
<path d="M13.6295 9.23549C11.9539 9.23549 10.2784 9.23558 8.60288 9.23524C8.50843 9.23522 8.41313 9.23893 8.31968 9.22823C8.09685 9.20271 7.92943 9.03383 7.9289 8.81986C7.92834 8.59968 8.03307 8.44036 8.25563 8.38529C8.34585 8.36296 8.44219 8.35771 8.53575 8.35768C11.9384 8.35636 15.341 8.35637 18.7436 8.35766C18.8372 8.35769 18.9339 8.36164 19.0237 8.38487C19.2464 8.44247 19.3794 8.62923 19.3507 8.84311C19.3209 9.06539 19.1882 9.19804 18.9649 9.2277C18.8719 9.24006 18.7763 9.23521 18.6818 9.23523C16.9977 9.23558 15.3136 9.23549 13.6295 9.23549Z" fill="white"/>
<path d="M13.6466 11.8768C11.9539 11.8768 10.2613 11.8771 8.5686 11.8766C8.14142 11.8765 7.93501 11.7389 7.92574 11.4514C7.91617 11.1545 8.13857 10.9961 8.57024 10.9961C11.947 10.9958 15.3237 10.9958 18.7004 10.9961C19.1397 10.9961 19.3551 11.1434 19.3545 11.4403C19.3539 11.7392 19.1486 11.8766 18.6988 11.8767C17.0147 11.877 15.3307 11.8768 13.6466 11.8768Z" fill="white"/>
<path d="M7.03738 3.96463C7.45785 3.96471 7.87838 3.96038 8.29877 3.9661C8.62896 3.9706 8.79129 4.1259 8.79381 4.45627C8.80024 5.29702 8.80027 6.13789 8.79403 6.97865C8.79151 7.31912 8.62549 7.47523 8.27851 7.47681C7.45475 7.48056 6.63094 7.48041 5.80718 7.47691C5.45129 7.4754 5.28222 7.31188 5.27998 6.95823C5.27475 6.13462 5.27506 5.31093 5.27982 4.48731C5.28188 4.12968 5.4457 3.96951 5.80172 3.96559C6.21356 3.96107 6.62549 3.96454 7.03738 3.96463ZM7.89931 6.586V4.86251H6.17827V6.586H7.89931Z" fill="white"/>
<path d="M6.14222 9.2295C5.98773 9.2295 5.83227 9.24043 5.67897 9.2269C5.45825 9.20742 5.28674 9.03114 5.28668 8.82039C5.28662 8.60051 5.39074 8.4112 5.61469 8.39145C5.97097 8.36005 6.33383 8.3566 6.68999 8.38708C6.92128 8.40688 7.03888 8.5915 7.02953 8.83024C7.02114 9.04442 6.8587 9.21052 6.63133 9.22826C6.46922 9.24092 6.30533 9.23072 6.14223 9.23072L6.14222 9.2295Z" fill="white"/>
<path d="M6.15964 16.2884C6.31419 16.2883 6.46948 16.2788 6.62313 16.2905C6.85996 16.3087 7.00046 16.4449 7.02835 16.681C7.05419 16.8997 6.92587 17.1092 6.69758 17.1291C6.34149 17.1602 5.97885 17.1592 5.62257 17.1292C5.40094 17.1106 5.25659 16.8848 5.28805 16.6817C5.32344 16.4532 5.45559 16.3063 5.6961 16.2903C5.84997 16.2801 6.00508 16.2884 6.15964 16.2884Z" fill="white"/>
<path d="M6.15875 19.7953C6.00421 19.7954 5.84858 19.807 5.69538 19.7927C5.45129 19.7699 5.27454 19.5686 5.2834 19.3454C5.29206 19.1274 5.46299 18.9389 5.69775 18.9281C6.00617 18.914 6.31628 18.9137 6.62465 18.9287C6.86398 18.9403 7.02594 19.1237 7.03156 19.3478C7.03742 19.5821 6.87284 19.7697 6.62209 19.7927C6.46885 19.8068 6.31328 19.7953 6.15875 19.7953Z" fill="white"/>
<path d="M6.16916 11.8633C5.99769 11.8633 5.82481 11.8771 5.65509 11.8599C5.42498 11.8365 5.30082 11.677 5.28931 11.4612C5.27777 11.2446 5.38647 11.0508 5.61314 11.0331C5.97805 11.0045 6.34898 11.0027 6.7133 11.0352C6.93539 11.055 7.04311 11.2445 7.02799 11.4684C7.01288 11.692 6.88402 11.8372 6.65759 11.8612C6.4965 11.8783 6.33214 11.8645 6.16923 11.8645C6.16921 11.8641 6.16918 11.8637 6.16916 11.8633Z" fill="white"/>
<path d="M6.17002 13.6514C6.32435 13.6514 6.47998 13.6386 6.6327 13.6543C6.88033 13.6796 7.03583 13.8487 7.02976 14.0772C7.02347 14.3141 6.90054 14.4821 6.6626 14.498C6.33035 14.5201 5.99474 14.5185 5.66212 14.4996C5.42053 14.4858 5.30194 14.3115 5.28611 14.0824C5.27104 13.8642 5.44213 13.6798 5.68163 13.6555C5.84285 13.6391 6.00709 13.6523 6.16998 13.6523C6.17 13.652 6.17001 13.6517 6.17002 13.6514Z" fill="white"/>
</svg>
