<svg width="25" height="25" viewBox="0 0 25 25" fill="none" xmlns="http://www.w3.org/2000/svg">
<path d="M13.1912 0.308594C13.3537 0.388806 13.5169 0.391086 13.6785 0.313477C13.8901 0.211807 14.0991 0.1047 14.3093 0H14.8464C15.0527 0.101467 15.2611 0.199094 15.4646 0.305664C15.6487 0.402042 15.8231 0.367347 16.0017 0.291992C16.6733 0.00872877 17.1316 0.313542 17.1355 1.04883C17.1377 1.47109 16.9983 1.86159 16.8347 2.24219C16.6135 2.75695 16.3375 3.24416 16.0232 3.70703C15.9316 3.84214 15.9513 3.91008 16.0574 4.02344C16.3142 4.29786 16.4202 4.63894 16.3718 5.01074C16.3538 5.15005 16.4026 5.21427 16.4988 5.29102C16.8607 5.57985 17.2205 5.87165 17.573 6.17188C17.8053 6.36974 17.8334 6.58253 17.6716 6.75977C17.5186 6.9274 17.3135 6.91828 17.0906 6.73438C16.7647 6.46544 16.4392 6.19515 16.1121 5.92773C16.0532 5.87951 16.0029 5.81491 15.9021 5.87988C15.371 6.22223 14.7586 6.28763 14.155 6.32812C13.2058 6.39179 12.2541 6.38536 11.321 6.14844C11.2349 6.12658 11.138 6.11713 11.0671 6.07031C10.8122 5.90179 10.6287 5.99298 10.4128 6.1709C8.76518 7.5292 7.34348 9.0722 6.41968 11.0225C5.86408 12.1954 5.55688 13.4303 5.57495 14.7363C5.58334 15.3423 5.58213 15.3447 6.14526 15.5244C6.85288 15.7503 7.49696 16.1071 8.12671 16.4902C8.79463 16.8966 9.52668 17.0581 10.2947 17.1367C11.4893 17.2589 12.6876 17.3717 13.8708 17.5693C15.0083 17.7593 15.7229 18.7043 15.7195 19.8594C15.7192 19.9375 15.7195 20.0159 15.7195 20.124C16.4211 19.8156 17.0934 19.5204 17.7654 19.2246C18.5355 18.8856 19.3051 18.5453 20.0759 18.208C20.1817 18.1617 20.2714 18.1097 20.3376 18.0059C21.1385 16.7507 21.4075 15.3725 21.2615 13.9092C21.0354 11.644 19.9538 9.78187 18.4802 8.11133C18.4533 8.08085 18.4259 8.05012 18.3992 8.01953C18.2164 7.81032 18.205 7.58924 18.3689 7.43848C18.5473 7.27455 18.7521 7.30772 18.9578 7.5332C19.3031 7.91176 19.6275 8.30745 19.9304 8.7207C20.8562 9.98376 21.5467 11.3595 21.864 12.9004C22.1909 14.4881 22.0989 16.046 21.4275 17.5596C21.6214 17.5747 21.7578 17.4595 21.908 17.3965C22.3167 17.225 22.7378 17.1444 23.1658 17.2812C23.7622 17.4721 24.1136 17.9091 24.2058 18.5146C24.3005 19.1377 24.1088 19.6847 23.5583 20.0361C21.3298 21.4581 19.0941 22.8698 16.8601 24.2832C16.1008 24.7636 15.2733 24.9956 14.3708 24.9893C12.8337 24.9784 11.2946 24.9552 9.75854 24.9971C8.68186 25.0263 7.6709 24.8404 6.67944 24.4297C5.79083 24.0615 4.87754 23.7513 3.97534 23.416C3.93094 23.3995 3.88525 23.3865 3.83569 23.3701C3.8109 23.506 3.79782 23.6344 3.76343 23.7568C3.64919 24.1628 3.28457 24.4857 2.86401 24.499C2.22259 24.5193 1.5793 24.5225 0.938232 24.4971C0.437003 24.4772 0.0400559 24.0416 0.00561523 23.5381C0.00284407 23.4975 0.000735031 23.4566 0.000732422 23.416C0.000540609 20.5938 -0.00173622 17.7715 0.00268555 14.9492C0.00354057 14.4034 0.316881 14.0143 0.828857 13.8887C0.914224 13.8678 1.00511 13.8627 1.09351 13.8623C1.63025 13.8599 2.16712 13.8593 2.70386 13.8613C3.33751 13.8637 3.79849 14.3067 3.80933 14.9395C3.81193 15.0947 3.84727 15.1495 4.00854 15.1465C4.21082 15.1428 4.42103 15.1442 4.61499 15.1934C4.84943 15.2526 4.85663 15.1597 4.84741 14.9717C4.80211 14.0483 4.9114 13.1416 5.16772 12.252C5.71223 10.3625 6.74164 8.7606 8.07007 7.33496C8.74112 6.61481 9.47396 5.96171 10.3064 5.31543C9.70227 5.31823 9.17677 5.40381 8.66772 5.58594C8.12692 5.77945 7.67113 6.08608 7.3562 6.58301C7.22271 6.79369 7.01461 6.83665 6.83276 6.71973C6.65565 6.60577 6.61017 6.39269 6.73511 6.1875C7.19201 5.4373 7.89574 5.0287 8.71265 4.78809C9.21008 4.64162 9.72266 4.57564 10.2917 4.57031C9.81761 3.98062 9.25848 3.73767 8.55737 3.81738C7.78719 3.9049 7.07658 3.72484 6.41968 3.32227C6.15768 3.16169 6.08952 2.96077 6.21753 2.75977C6.34618 2.55822 6.55039 2.53126 6.81323 2.69434C7.29852 2.99533 7.82816 3.13334 8.39233 3.08008C9.23878 3.0002 9.98847 3.1849 10.6013 3.80078C10.6703 3.87009 10.7176 3.85484 10.7878 3.80762C10.8953 3.73536 10.8084 3.67892 10.7771 3.62793C10.4099 3.02532 10.0564 2.41554 9.85522 1.73242C9.76538 1.42717 9.70655 1.1205 9.76929 0.798828C9.87739 0.245646 10.2893 0.0116612 10.7898 0.25293C11.0746 0.390153 11.3277 0.400727 11.5847 0.210938C11.7282 0.104948 11.9048 0.0696464 12.0652 0H12.5525C12.7652 0.102679 12.9794 0.20395 13.1912 0.308594ZM1.19116 14.5986C0.845804 14.5998 0.741091 14.705 0.740967 15.0479V23.3184C0.741063 23.6721 0.835269 23.769 1.18042 23.7695C1.64396 23.7702 2.1075 23.7697 2.57104 23.7695C2.98771 23.7694 3.06994 23.6886 3.07007 23.2734C3.07054 21.7933 3.07047 20.3131 3.07104 18.833C3.07108 18.7438 3.07044 18.6538 3.08081 18.5654C3.10156 18.3886 3.2173 18.2873 3.38159 18.2598C3.55991 18.2301 3.69329 18.3101 3.77612 18.4766C3.82247 18.57 3.81317 18.6663 3.81323 18.7627C3.81398 19.9582 3.81891 21.1542 3.80933 22.3496C3.80807 22.5197 3.86519 22.5855 4.01538 22.6406C5.19133 23.0726 6.36458 23.5119 7.53784 23.9512C8.00418 24.1258 8.48152 24.2521 8.98218 24.2529C10.8038 24.2559 12.6254 24.2577 14.447 24.251C15.1154 24.2485 15.7533 24.0941 16.323 23.7354C18.6015 22.3004 20.8762 20.8593 23.1501 19.417C23.4605 19.2202 23.5715 18.795 23.4246 18.4434C23.2704 18.0746 22.9269 17.8978 22.5359 17.9805C22.352 18.0194 22.1807 18.091 22.0105 18.166C19.8863 19.1022 17.762 20.039 15.6384 20.9766C15.4803 21.0464 15.3196 21.0798 15.1443 21.0791C13.8839 21.0742 12.6235 21.0765 11.363 21.0752C11.2745 21.0751 11.1814 21.0779 11.0984 21.0527C10.9132 20.9966 10.8182 20.8629 10.8347 20.666C10.8503 20.4807 10.9548 20.3687 11.1394 20.3408C11.2192 20.3288 11.3016 20.3272 11.3826 20.3271C12.4073 20.3263 13.4321 20.3272 14.4568 20.3271C14.7941 20.3271 14.9652 20.1587 14.9695 19.8223C14.9791 19.0743 14.4945 18.4242 13.7615 18.3018C12.9702 18.1696 12.1682 18.1012 11.3708 18.0049C10.6942 17.9231 10.0132 17.8639 9.34155 17.752C8.56987 17.6233 7.90229 17.225 7.23511 16.8408C6.24261 16.2694 5.18959 15.912 4.03198 15.8926C3.84123 15.8894 3.80007 15.9412 3.8103 16.1182C3.82528 16.3774 3.82127 16.6387 3.81128 16.8984C3.8006 17.1717 3.57151 17.346 3.32983 17.2666C3.13301 17.2018 3.06799 17.0447 3.06909 16.8457C3.07241 16.2442 3.07212 15.6426 3.06909 15.041C3.06743 14.7097 2.95785 14.6002 2.63062 14.5986C2.15093 14.5963 1.67085 14.5971 1.19116 14.5986ZM13.3875 7.57227C13.5721 7.5662 13.7909 7.72592 13.7595 7.91211C13.6822 8.36668 13.8934 8.52844 14.2996 8.59961C14.5362 8.64112 14.7479 8.78515 14.9343 8.94531C15.1096 9.09609 15.1405 9.30093 15.0222 9.46387C14.896 9.63721 14.6854 9.66702 14.4861 9.5293C14.3117 9.40856 14.129 9.30968 13.9246 9.24707C13.8067 9.21102 13.7675 9.22629 13.7683 9.35742C13.773 10.0399 13.7734 10.7228 13.7683 11.4053C13.7675 11.5186 13.8144 11.5573 13.9138 11.5879C14.0755 11.6376 14.2338 11.7013 14.3894 11.7686C15.6378 12.3081 15.9478 13.858 15.0242 14.9268C14.7344 15.262 14.3791 15.4993 13.948 15.5928C13.7831 15.6285 13.7618 15.6982 13.7693 15.834C13.7769 15.9716 13.778 16.1107 13.7683 16.248C13.7527 16.4665 13.5927 16.6081 13.3835 16.6016C13.1794 16.595 13.0481 16.4636 13.0339 16.2422C13.0223 16.0573 13.0835 15.8228 12.9919 15.7021C12.9143 15.6003 12.661 15.6397 12.489 15.6006C12.1299 15.5185 11.8029 15.3574 11.4998 15.1514C11.317 15.0272 11.2737 14.8139 11.3816 14.6406C11.4894 14.4676 11.6953 14.4132 11.8914 14.5283C12.193 14.7054 12.4924 14.8724 12.8533 14.9053C12.9999 14.9186 13.0352 14.8843 13.033 14.7441C13.026 14.3137 13.031 13.8827 13.031 13.4521C13.031 13.0703 13.0201 12.688 13.0349 12.3066C13.0425 12.1123 12.9948 11.9947 12.8005 11.9238C12.6354 11.8637 12.4868 11.7572 12.3298 11.6738C11.1915 11.0696 11.3502 9.54884 12.1531 8.88672C12.3492 8.72495 12.5664 8.59626 12.8162 8.54688C12.9935 8.51189 13.0555 8.42753 13.033 8.25293C13.0195 8.14932 13.0275 8.04155 13.0349 7.93652C13.0496 7.72837 13.1974 7.57862 13.3875 7.57227ZM13.7712 14.7598C13.7716 14.9223 13.8774 14.8387 13.9373 14.8174C14.478 14.6248 14.8417 14.0157 14.8005 13.3789C14.7677 12.8743 14.3884 12.4907 13.7712 12.3535C13.7712 13.1584 13.77 13.9593 13.7712 14.7598ZM12.8494 9.31641C12.4811 9.48582 12.2296 9.91655 12.2585 10.373C12.2849 10.7886 12.5176 10.9488 12.9255 11.1572C13.0558 11.2238 13.0305 11.1152 13.031 11.0508C13.0331 10.7835 13.032 10.5163 13.032 10.249C13.032 9.98156 13.0248 9.71337 13.0349 9.44629C13.0409 9.2877 13.0096 9.24276 12.8494 9.31641ZM11.4958 4.37695C11.2454 4.32344 11.0505 4.4627 10.99 4.70996C10.9015 5.07184 11.0554 5.32395 11.4324 5.4082C12.0348 5.54262 12.6431 5.63826 13.2312 5.62109C13.9403 5.63452 14.6052 5.54877 15.2605 5.37988C15.4861 5.32172 15.6068 5.1801 15.6287 4.95508C15.6693 4.53579 15.4229 4.30673 15.0115 4.3916C14.535 4.48992 14.0582 4.57149 13.5701 4.58984C12.8676 4.61622 12.18 4.5231 11.4958 4.37695ZM14.8962 0.837891C14.6965 0.705782 14.4806 0.692725 14.2791 0.831055C13.7179 1.21618 13.1608 1.20274 12.6003 0.833008C12.3962 0.698482 12.1912 0.706369 11.9851 0.834961C11.8272 0.933479 11.6634 1.0184 11.4832 1.07422C11.1423 1.1797 10.8289 1.06868 10.5134 0.949219C10.4751 1.09758 10.488 1.22795 10.5212 1.35254C10.7393 2.17061 11.1823 2.87777 11.6287 3.58301C11.668 3.64516 11.728 3.6518 11.7927 3.66797C12.9138 3.94782 14.0283 3.88209 15.1414 3.61816C15.2194 3.59965 15.2468 3.54796 15.28 3.49707C15.6263 2.96771 15.9527 2.42641 16.1931 1.83887C16.2883 1.60635 16.3643 1.36777 16.3914 1.11621C16.4025 1.01185 16.3929 0.923547 16.2527 0.988281C15.7698 1.21118 15.3243 1.12126 14.8962 0.837891Z" fill="black"/>
</svg>
