<svg width="16" height="15" viewBox="0 0 16 15" fill="none" xmlns="http://www.w3.org/2000/svg">
<path d="M4.32273 0.000680313C4.36597 0.000608301 4.40922 0.000509156 4.45247 0.00038553C4.57028 0.000127114 4.6881 0.000253012 4.80592 0.000447029C4.93338 0.000588839 5.06084 0.000369985 5.1883 0.000198848C5.4376 -7.77328e-05 5.6869 -1.8855e-05 5.93621 0.000162221C6.13893 0.000303337 6.34165 0.000322025 6.54437 0.000254273C6.57328 0.000244718 6.60218 0.000235162 6.63197 0.000225317C6.6907 0.000205379 6.74944 0.000185161 6.80817 0.000164668C7.35831 -1.29459e-05 7.90845 0.000190979 8.4586 0.000526369C8.93007 0.000804906 9.40153 0.000756593 9.873 0.000469077C10.4212 0.000134927 10.9694 4.22819e-06 11.5176 0.000195465C11.5761 0.000215328 11.6346 0.000234932 11.6931 0.000254273C11.7219 0.000263894 11.7507 0.000273514 11.7804 0.000283426C11.9827 0.000337139 12.185 0.000246663 12.3874 9.96523e-05C12.6342 -7.57273e-05 12.8809 -2.68949e-05 13.1277 0.000304234C13.2535 0.000467467 13.3793 0.000533406 13.5051 0.000326112C13.6204 0.000138842 13.7358 0.000244792 13.8512 0.000574146C13.9122 0.000675626 13.9732 0.00047453 14.0342 0.000258785C14.6221 0.00283797 15.0619 0.121954 15.5009 0.519158C15.8155 0.866937 15.9837 1.20502 15.9863 1.67875C15.9865 1.70529 15.9868 1.73182 15.987 1.75916C15.9878 1.84664 15.9883 1.93412 15.9888 2.0216C15.989 2.0665 15.989 2.0665 15.9893 2.11231C15.9901 2.27058 15.9907 2.42885 15.9912 2.58712C15.9916 2.71808 15.9925 2.84902 15.9937 2.97997C15.9953 3.13824 15.996 3.2965 15.9963 3.45478C15.9965 3.51504 15.9969 3.57531 15.9977 3.63557C15.9987 3.71984 15.9987 3.80406 15.9985 3.88833C15.999 3.91318 15.9995 3.93804 16 3.96364C15.9987 4.08016 15.9877 4.14537 15.9178 4.23988C15.7977 4.33172 15.7028 4.3323 15.5577 4.32902C15.5179 4.32905 15.5179 4.32905 15.4774 4.32909C15.3902 4.32898 15.303 4.32777 15.2158 4.32655C15.1552 4.32626 15.0946 4.32603 15.034 4.32588C14.8747 4.32528 14.7155 4.32375 14.5562 4.32203C14.3936 4.32043 14.231 4.31972 14.0684 4.31893C13.7495 4.31726 13.4306 4.3146 13.1118 4.31132C13.1118 4.32862 13.1119 4.34591 13.1119 4.36373C13.1147 5.39036 13.1169 6.41699 13.1181 7.44362C13.1183 7.56709 13.1185 7.69056 13.1186 7.81403C13.1187 7.83861 13.1187 7.86319 13.1187 7.88851C13.1193 8.28567 13.1202 8.68283 13.1214 9.07999C13.1226 9.48799 13.1233 9.89598 13.1235 10.304C13.1237 10.5554 13.1242 10.8069 13.1252 11.0583C13.126 11.2516 13.126 11.4449 13.1259 11.6382C13.1259 11.7172 13.1262 11.7961 13.1266 11.875C13.1308 12.598 13.049 13.2408 12.5301 13.7851C11.789 14.525 10.9281 14.4804 9.9544 14.4808C9.86912 14.4809 9.78385 14.4811 9.69857 14.4812C9.46821 14.4816 9.23785 14.4818 9.00749 14.482C8.86333 14.4821 8.71918 14.4822 8.57502 14.4823C8.17487 14.4827 7.77472 14.483 7.37458 14.4831C7.34906 14.4831 7.32355 14.4831 7.29726 14.4832C7.27169 14.4832 7.24611 14.4832 7.21977 14.4832C7.16797 14.4832 7.11616 14.4832 7.06436 14.4832C7.02581 14.4832 7.02581 14.4832 6.98649 14.4832C6.56991 14.4834 6.15333 14.4839 5.73674 14.4846C5.30773 14.4854 4.87872 14.4858 4.4497 14.4858C4.20935 14.4858 3.969 14.486 3.72864 14.4866C3.52409 14.4871 3.31955 14.4872 3.115 14.487C3.01086 14.4868 2.90674 14.4869 2.80261 14.4873C1.96425 14.4903 1.25861 14.4028 0.619773 13.8034C0.187314 13.3544 0.00144194 12.8054 0.00301011 12.1909C0.00284667 12.153 0.00268324 12.115 0.00251485 12.0759C0.00231601 11.9965 0.0023546 11.9171 0.00262189 11.8376C0.00288951 11.7158 0.00198487 11.5941 0.00100052 11.4723C0.000950304 11.3948 0.000968165 11.3174 0.00106141 11.2399C0.000711146 11.2035 0.00036088 11.1672 0 11.1297C0.00029249 11.0959 0.00058498 11.0622 0.000886334 11.0274C0.000891515 10.9978 0.000896696 10.9682 0.000902034 10.9377C0.021233 10.8352 0.0606452 10.7987 0.141246 10.7342C0.24505 10.6996 0.322093 10.6993 0.431442 10.6995C0.47201 10.6995 0.512578 10.6995 0.554375 10.6995C0.598665 10.6997 0.642956 10.6998 0.687246 10.7C0.732551 10.7001 0.777855 10.7001 0.823159 10.7001C0.942334 10.7003 1.06151 10.7006 1.18068 10.7009C1.32371 10.7013 1.46673 10.7014 1.60976 10.7016C1.82698 10.7019 2.0442 10.7025 2.26143 10.7031C2.26134 10.6594 2.26134 10.6594 2.26125 10.6149C2.25939 9.60568 2.26565 8.59659 2.27288 7.58745C2.27318 7.54455 2.27349 7.50166 2.2738 7.45876C2.27667 7.05703 2.27958 6.6553 2.28259 6.25357C2.28328 6.1619 2.28396 6.07023 2.28465 5.97856C2.28482 5.95579 2.28499 5.93302 2.28516 5.90956C2.28793 5.53801 2.29046 5.16645 2.2929 4.7949C2.29542 4.41053 2.29818 4.02617 2.30114 3.64181C2.30279 3.42712 2.30435 3.21244 2.30564 2.99775C2.30686 2.79671 2.30838 2.59568 2.3101 2.39464C2.31068 2.32114 2.31116 2.24764 2.31153 2.17414C2.31489 1.52449 2.3324 0.975731 2.81072 0.48201C3.25458 0.0752563 3.73724 -0.00138699 4.32273 0.000680313ZM3.1247 0.953717C2.96823 1.14931 2.88283 1.38078 2.87889 1.63002C2.87832 1.66151 2.87776 1.693 2.87717 1.72545C2.87671 1.75985 2.87624 1.79425 2.87576 1.82969C2.87516 1.86608 2.87456 1.90246 2.87394 1.93994C2.87233 2.04015 2.87086 2.14035 2.86946 2.24056C2.86856 2.30419 2.86761 2.36783 2.86664 2.43146C2.85237 3.36848 2.84421 4.30554 2.8377 5.24264C2.83664 5.39391 2.83548 5.54519 2.83426 5.69646C2.82085 7.36532 2.82114 9.03414 2.82265 10.7031C2.85449 10.7032 2.88632 10.7033 2.91912 10.7034C3.69326 10.7059 4.4674 10.7088 5.24153 10.712C5.6159 10.7136 5.99026 10.715 6.36463 10.7162C6.69088 10.7172 7.01713 10.7185 7.34338 10.72C7.51617 10.7208 7.68896 10.7214 7.86175 10.7219C8.02433 10.7223 8.18691 10.7229 8.34949 10.7239C8.4092 10.7241 8.46892 10.7243 8.52863 10.7244C8.6101 10.7245 8.69155 10.725 8.77301 10.7255C8.79669 10.7255 8.82038 10.7254 8.84479 10.7254C8.97076 10.7267 9.07105 10.7372 9.1832 10.7966C9.24739 10.8868 9.25347 10.9642 9.25402 11.0731C9.25449 11.1183 9.25449 11.1183 9.25498 11.1643C9.25505 11.1967 9.25511 11.2291 9.25518 11.2624C9.25597 11.3315 9.25676 11.4006 9.25756 11.4697C9.25845 11.5782 9.2592 11.6867 9.25979 11.7952C9.26047 11.9002 9.2617 12.0051 9.26298 12.1101C9.26298 12.158 9.26298 12.158 9.26299 12.2069C9.26933 12.6766 9.43611 13.0991 9.76294 13.439C10.1231 13.7758 10.5436 13.9262 11.0323 13.9211C11.4702 13.8961 11.8461 13.7022 12.1452 13.3845C12.5181 12.9327 12.5916 12.47 12.5896 11.8988C12.5896 11.8537 12.5897 11.8086 12.5899 11.7636C12.5901 11.6407 12.59 11.5179 12.5898 11.395C12.5896 11.2621 12.5899 11.1293 12.59 10.9964C12.5903 10.7664 12.5904 10.5364 12.5903 10.3064C12.5902 9.97352 12.5906 9.64061 12.591 9.30769C12.5919 8.76695 12.5925 8.22621 12.5929 7.68546C12.5929 7.65314 12.593 7.62081 12.593 7.5875C12.5933 7.12863 12.5935 6.66976 12.5936 6.21088C12.5936 6.17856 12.5936 6.14623 12.5936 6.11292C12.5936 6.08064 12.5936 6.04835 12.5936 6.01509C12.5937 5.47629 12.5943 4.9375 12.5953 4.3987C12.5959 4.06672 12.5961 3.73473 12.5958 3.40274C12.5956 3.17523 12.5958 2.94772 12.5964 2.7202C12.5968 2.58906 12.5969 2.45792 12.5965 2.32678C12.5961 2.20653 12.5963 2.0863 12.5969 1.96606C12.5971 1.90238 12.5967 1.83869 12.5963 1.77501C12.599 1.44915 12.6693 1.16713 12.8331 0.883564C12.8558 0.843593 12.8558 0.843593 12.879 0.802815C12.9251 0.724975 12.9717 0.647387 13.0182 0.569824C11.8518 0.567682 10.6853 0.566034 9.5189 0.565047C9.38114 0.56493 9.24338 0.564809 9.10562 0.564685C9.06448 0.564649 9.06448 0.564649 9.02251 0.564611C8.57865 0.564204 8.13479 0.563467 7.69093 0.562607C7.23537 0.561732 6.77981 0.561213 6.32425 0.561023C6.04322 0.560895 5.7622 0.56049 5.48118 0.559729C5.28837 0.559234 5.09557 0.559086 4.90277 0.559207C4.79159 0.559267 4.68042 0.559176 4.56924 0.558673C4.44851 0.558132 4.32779 0.55832 4.20707 0.558575C4.17219 0.558303 4.13731 0.55803 4.10137 0.55775C3.71544 0.55995 3.39161 0.665399 3.1247 0.953717ZM13.4465 0.920955C13.2027 1.20847 13.1075 1.50242 13.1082 1.87696C13.1082 1.898 13.1082 1.91903 13.1082 1.94071C13.1082 2.00819 13.1085 2.07567 13.1087 2.14315C13.1088 2.18506 13.1088 2.22697 13.1088 2.26888C13.109 2.42355 13.1094 2.57821 13.1098 2.73288C13.1105 3.07885 13.1111 3.42482 13.1118 3.78128C13.8835 3.78128 14.6551 3.78128 15.4502 3.78128C15.4528 3.42952 15.4554 3.07776 15.458 2.71534C15.4591 2.60509 15.4603 2.49483 15.4614 2.38124C15.4619 2.28068 15.4619 2.28068 15.4621 2.18013C15.4623 2.13602 15.4627 2.09192 15.4634 2.04782C15.4696 1.59495 15.4024 1.22049 15.0819 0.884782C14.845 0.658367 14.5494 0.558493 14.2252 0.563247C13.9326 0.586013 13.654 0.713751 13.4465 0.920955ZM0.546575 11.2643C0.502063 12.4712 0.502063 12.4712 1.03923 13.4436C1.39872 13.7872 1.80968 13.9251 2.29864 13.922C2.32944 13.9221 2.36024 13.9221 2.39197 13.9222C2.49451 13.9223 2.59705 13.9219 2.69959 13.9216C2.77335 13.9216 2.84712 13.9216 2.92088 13.9216C3.12069 13.9216 3.3205 13.9213 3.5203 13.9208C3.70809 13.9204 3.89589 13.9204 4.08368 13.9203C4.45547 13.9202 4.82727 13.9198 5.19907 13.9192C5.56009 13.9186 5.92112 13.9182 6.28215 13.9179C6.30442 13.9179 6.3267 13.9179 6.34966 13.9179C6.46142 13.9178 6.57319 13.9177 6.68496 13.9176C7.61125 13.917 8.53753 13.9159 9.46381 13.9145C9.45091 13.8995 9.438 13.8844 9.4247 13.8689C9.4078 13.8492 9.39091 13.8295 9.3735 13.8092C9.35673 13.7896 9.33997 13.7701 9.32269 13.7499C8.68557 13.006 8.74355 12.2456 8.71551 11.2643C6.01976 11.2643 3.32401 11.2643 0.546575 11.2643Z" fill="white"/>
<path d="M7.82984 1.8292C7.86399 1.84586 7.89814 1.86253 7.93332 1.8797C7.97061 1.89838 8.00789 1.91707 8.04517 1.93577C8.08419 1.95503 8.12322 1.97426 8.16226 1.99347C8.24769 2.03561 8.33298 2.078 8.41819 2.12056C8.54444 2.18358 8.67098 2.24599 8.79757 2.30831C8.906 2.36172 9.01433 2.41534 9.12263 2.46902C9.17591 2.49542 9.22922 2.52176 9.28256 2.54807C9.35777 2.58521 9.43286 2.62261 9.50791 2.66007C9.53048 2.67116 9.55304 2.68226 9.57629 2.69368C9.81421 2.81316 9.81421 2.81316 9.85913 2.9338C9.87154 3.01791 9.87337 3.09897 9.87368 3.18402C9.87388 3.22078 9.87408 3.25754 9.87428 3.29542C9.87434 3.35495 9.87434 3.35495 9.87439 3.41568C9.87449 3.45676 9.8746 3.49784 9.8747 3.54016C9.87489 3.62725 9.87495 3.71435 9.87493 3.80144C9.87493 3.91192 9.87535 4.02239 9.87589 4.13286C9.87624 4.21871 9.8763 4.30455 9.87628 4.3904C9.87634 4.45058 9.87667 4.51075 9.87702 4.57093C9.87559 5.12957 9.76268 5.59996 9.43264 6.05726C9.41709 6.07897 9.40154 6.10067 9.38551 6.12303C9.23598 6.31136 9.04007 6.44026 8.84321 6.57408C8.77335 6.62157 8.7038 6.66951 8.63429 6.7175C8.39685 6.88108 8.15822 7.04288 7.91851 7.2031C7.89902 7.21614 7.87952 7.22918 7.85944 7.24262C7.71657 7.33769 7.64256 7.37946 7.46836 7.36679C7.39589 7.33329 7.39589 7.33329 7.3222 7.28299C7.29262 7.2631 7.26304 7.2432 7.23256 7.2227C7.19684 7.19798 7.16111 7.17326 7.12539 7.14853C7.07994 7.1176 7.03447 7.08671 6.98898 7.05585C6.88737 6.98677 6.78602 6.91731 6.68486 6.84758C6.58821 6.78098 6.49123 6.71495 6.39377 6.64954C5.87991 6.3039 5.48324 5.92787 5.31699 5.30896C5.26133 5.02276 5.24541 4.74452 5.24635 4.45348C5.24631 4.41179 5.24625 4.37011 5.24617 4.32842C5.24608 4.24195 5.24621 4.15549 5.24651 4.06903C5.24686 3.9585 5.24665 3.84798 5.24628 3.73745C5.246 3.63121 5.2462 3.52497 5.24635 3.41873C5.24623 3.3792 5.2461 3.33967 5.24597 3.29895C5.24617 3.26219 5.24636 3.22543 5.24657 3.18756C5.24662 3.15534 5.24667 3.12312 5.24672 3.08993C5.25866 2.95689 5.28871 2.87275 5.38574 2.78033C5.48161 2.71516 5.57779 2.66493 5.6825 2.61513C5.71291 2.60055 5.71291 2.60055 5.74393 2.58566C5.78746 2.56481 5.83102 2.54404 5.87463 2.52335C5.99014 2.46856 6.10534 2.41314 6.22058 2.35778C6.25571 2.34094 6.25571 2.34094 6.29155 2.32375C6.56555 2.19211 6.83703 2.05546 7.10834 1.91837C7.14218 1.90132 7.17602 1.88427 7.21088 1.86671C7.25519 1.84429 7.25519 1.84429 7.30039 1.82141C7.49426 1.72844 7.63859 1.73464 7.82984 1.8292ZM7.33082 2.42422C7.28027 2.4495 7.28027 2.4495 7.2287 2.47529C7.19252 2.49371 7.15633 2.51212 7.11905 2.53109C7.08149 2.54999 7.04392 2.56886 7.00634 2.58772C6.90761 2.63732 6.80903 2.68722 6.71048 2.73719C6.60984 2.78815 6.50904 2.83883 6.40827 2.88953C6.21066 2.989 6.01321 3.08879 5.81586 3.18878C5.81295 3.42216 5.81075 3.65555 5.8094 3.88894C5.80875 3.99736 5.80788 4.10577 5.80645 4.21417C5.80482 4.33925 5.80423 4.46432 5.80368 4.58941C5.80304 4.62771 5.80239 4.66602 5.80173 4.70549C5.80162 5.15274 5.95774 5.53385 6.25237 5.87019C6.31177 5.91781 6.37309 5.96307 6.43555 6.0066C6.46294 6.0258 6.46294 6.0258 6.49089 6.04539C6.70656 6.19589 6.92436 6.3434 7.14206 6.49095C7.18457 6.51978 7.18457 6.51978 7.22794 6.54919C7.25324 6.56631 7.27855 6.58342 7.30462 6.60106C7.37482 6.64967 7.37482 6.64967 7.43661 6.70466C7.49804 6.75036 7.49804 6.75036 7.57541 6.73985C7.66722 6.70792 7.73404 6.66606 7.81328 6.60972C7.85799 6.57824 7.85799 6.57824 7.9036 6.54612C7.95053 6.51249 7.95053 6.51249 7.9984 6.47818C8.06295 6.4325 8.1275 6.38683 8.19205 6.34116C8.22311 6.31907 8.25417 6.29698 8.28617 6.27422C8.35844 6.22314 8.43107 6.17279 8.50433 6.12315C8.5227 6.11069 8.54107 6.09823 8.55999 6.0854C8.60636 6.05408 8.65278 6.02284 8.6992 5.99161C9.01298 5.75604 9.22964 5.41397 9.30793 5.02835C9.31062 4.96739 9.3116 4.90634 9.31147 4.84532C9.31146 4.8085 9.31146 4.77168 9.31146 4.73375C9.3113 4.69415 9.31114 4.65456 9.31097 4.61376C9.31093 4.57311 9.31088 4.53245 9.31084 4.49057C9.31072 4.38272 9.31041 4.27488 9.31007 4.16703C9.30975 4.05689 9.30961 3.94674 9.30945 3.8366C9.30912 3.62066 9.30858 3.40472 9.30793 3.18878C9.0907 3.07872 8.87335 2.96894 8.65582 2.85949C8.55481 2.80867 8.45386 2.75775 8.353 2.70661C8.25567 2.65727 8.15822 2.60817 8.06068 2.55924C8.00539 2.53143 7.95024 2.50336 7.89509 2.47529C7.86139 2.45844 7.82769 2.44159 7.79297 2.42422C7.76333 2.40927 7.7337 2.39431 7.70317 2.3789C7.55532 2.31903 7.46537 2.35632 7.33082 2.42422Z" fill="white"/>
<path d="M4.79293 8.01351C4.81852 8.01339 4.84411 8.01328 4.87048 8.01315C4.95617 8.01283 5.04185 8.01295 5.12754 8.01308C5.189 8.01294 5.25047 8.01278 5.31193 8.0126C5.47884 8.01218 5.64575 8.01216 5.81266 8.01224C5.95198 8.01227 6.09129 8.01212 6.23061 8.01197C6.55926 8.01162 6.88791 8.01161 7.21656 8.0118C7.55567 8.01199 7.89478 8.0116 8.23389 8.01094C8.52501 8.01039 8.81612 8.0102 9.10724 8.01031C9.28112 8.01036 9.45501 8.01028 9.62889 8.00985C9.7924 8.00945 9.9559 8.00951 10.1194 8.00992C10.1794 8.01 10.2394 8.00991 10.2994 8.00965C10.3813 8.00933 10.4632 8.00958 10.5452 8.00997C10.5689 8.00974 10.5926 8.00951 10.6171 8.00928C10.7649 8.01078 10.8658 8.03755 10.9916 8.11518C11.0589 8.19707 11.0539 8.24154 11.052 8.34902C11.016 8.48354 10.9845 8.51089 10.8669 8.58287C10.7761 8.59489 10.6972 8.59974 10.6065 8.5987C10.5804 8.5989 10.5543 8.59909 10.5274 8.59929C10.4399 8.59979 10.3524 8.5994 10.2649 8.599C10.2022 8.59917 10.1394 8.5994 10.0767 8.59967C9.90631 8.60024 9.73593 8.60001 9.56554 8.59962C9.3873 8.5993 9.20907 8.5996 9.03083 8.59979C8.7315 8.60002 8.43218 8.59972 8.13285 8.59913C7.78669 8.59845 7.44053 8.59867 7.09437 8.59935C6.79727 8.59992 6.50017 8.6 6.20307 8.59967C6.02558 8.59948 5.84809 8.59945 5.6706 8.59987C5.50374 8.60023 5.33689 8.59998 5.17003 8.59925C5.10876 8.59909 5.04748 8.59914 4.98621 8.59941C4.90263 8.59975 4.81909 8.59933 4.73551 8.5987C4.69905 8.59912 4.69905 8.59912 4.66185 8.59955C4.54738 8.59789 4.48081 8.5864 4.38289 8.52512C4.30061 8.43851 4.28809 8.3901 4.28809 8.27108C4.32463 8.16552 4.34765 8.10265 4.44726 8.04797C4.56319 8.01415 4.67328 8.01292 4.79293 8.01351Z" fill="white"/>
<path d="M4.62037 9.22895C4.64522 9.22905 4.67006 9.22914 4.69566 9.22924C4.73514 9.22903 4.73514 9.22903 4.77542 9.22881C4.86413 9.22842 4.95284 9.22847 5.04155 9.22852C5.10494 9.22834 5.16833 9.22812 5.23173 9.22789C5.40431 9.22734 5.57688 9.22719 5.74947 9.22715C5.89336 9.22709 6.03725 9.22686 6.18114 9.22664C6.52053 9.22613 6.85992 9.22598 7.19932 9.22603C7.54982 9.22606 7.90031 9.2254 8.25081 9.22442C8.55138 9.22361 8.85194 9.22327 9.15251 9.22331C9.33218 9.22333 9.51185 9.22315 9.69152 9.22249C9.86047 9.22189 10.0294 9.22188 10.1984 9.22233C10.2605 9.2224 10.3226 9.22225 10.3847 9.22187C10.4693 9.2214 10.5539 9.22168 10.6385 9.22216C10.6632 9.22184 10.6879 9.22152 10.7133 9.22119C10.8225 9.22257 10.8858 9.22855 10.9748 9.2942C11.0427 9.39056 11.0519 9.46346 11.054 9.58055C11.012 9.67245 10.9889 9.72219 10.8981 9.76763C10.8139 9.77088 10.7306 9.77223 10.6464 9.77222C10.6201 9.77233 10.5937 9.77244 10.5666 9.77256C10.4779 9.77291 10.3892 9.77303 10.3005 9.77315C10.2371 9.77334 10.1737 9.77355 10.1103 9.77377C9.93774 9.77431 9.76516 9.77464 9.59258 9.77489C9.48486 9.77506 9.37713 9.77524 9.2694 9.77544C8.93262 9.77604 8.59584 9.77648 8.25906 9.77674C7.86978 9.77704 7.48051 9.77786 7.09124 9.77912C6.79067 9.78006 6.49011 9.78053 6.18954 9.78063C6.00987 9.7807 5.8302 9.78098 5.65053 9.78177C5.48158 9.78249 5.31263 9.78262 5.14367 9.7823C5.08158 9.78229 5.01949 9.78249 4.9574 9.78291C4.87278 9.78346 4.7882 9.78325 4.70358 9.78283C4.67888 9.78318 4.65417 9.78352 4.62871 9.78387C4.5189 9.78258 4.45629 9.77686 4.36723 9.71004C4.30458 9.62235 4.29028 9.5635 4.28809 9.45583C4.37028 9.28363 4.42855 9.23066 4.62037 9.22895Z" fill="white"/>
<path d="M8.46609 3.78131C8.55951 3.84359 8.58456 3.88847 8.62198 3.99372C8.62198 4.19905 8.47573 4.34362 8.33817 4.48185C8.30786 4.51158 8.30786 4.51158 8.27694 4.54191C8.25589 4.56291 8.23483 4.58391 8.21314 4.60554C8.16888 4.64959 8.12451 4.69352 8.08004 4.73735C8.01192 4.80449 7.94415 4.87197 7.87642 4.93951C7.83327 4.98238 7.79009 5.02523 7.7469 5.06806C7.72663 5.0882 7.70636 5.10833 7.68548 5.12908C7.66654 5.14772 7.64759 5.16636 7.62808 5.18557C7.61149 5.20194 7.59491 5.21832 7.57782 5.23519C7.47776 5.32594 7.39593 5.36349 7.2596 5.36C7.09912 5.31593 6.98926 5.17506 6.87595 5.05966C6.84991 5.03506 6.82386 5.01046 6.79703 4.98512C6.54489 4.74444 6.54489 4.74444 6.5018 4.59197C6.51953 4.47574 6.53919 4.40238 6.61677 4.31331C6.72992 4.26132 6.78252 4.25606 6.90713 4.28018C6.99306 4.34611 7.06934 4.41705 7.14621 4.49332C7.21206 4.55442 7.26358 4.58581 7.34364 4.62315C7.36676 4.59986 7.38988 4.57658 7.41371 4.55258C7.49957 4.46616 7.58553 4.37984 7.67153 4.29354C7.70872 4.25619 7.74589 4.21881 7.78303 4.1814C7.83644 4.12762 7.88994 4.07393 7.94347 4.02027C7.96004 4.00354 7.97661 3.98681 7.99368 3.96958C8.14344 3.81979 8.24915 3.74632 8.46609 3.78131Z" fill="white"/>
</svg>
