<svg width="22" height="21" viewBox="0 0 22 21" fill="none" xmlns="http://www.w3.org/2000/svg">
<path d="M5.94375 0.961629C6.00321 0.96153 6.06268 0.961393 6.12214 0.961223C6.28414 0.960868 6.44614 0.961041 6.60814 0.961308C6.7834 0.961503 6.95865 0.961202 7.13391 0.960967C7.4767 0.960586 7.81949 0.960667 8.16228 0.960916C8.44103 0.96111 8.71977 0.961136 8.99851 0.961043C9.03825 0.96103 9.078 0.961017 9.11895 0.961003C9.19971 0.960976 9.28047 0.960948 9.36123 0.96092C10.1177 0.960676 10.8741 0.960956 11.6306 0.961417C12.2788 0.9618 12.9271 0.961734 13.5754 0.961338C14.3291 0.960879 15.0829 0.960699 15.8367 0.960962C15.9171 0.960989 15.9976 0.961016 16.0781 0.961043C16.1177 0.961056 16.1572 0.961069 16.198 0.961083C16.4762 0.961157 16.7544 0.961033 17.0326 0.96083C17.372 0.960589 17.7113 0.960656 18.0506 0.961112C18.2236 0.961336 18.3965 0.961427 18.5695 0.961142C18.7281 0.960884 18.8867 0.96103 19.0454 0.961483C19.1293 0.961622 19.2131 0.961346 19.297 0.961049C20.1054 0.964596 20.7101 1.12838 21.3137 1.67453C21.7464 2.15273 21.9776 2.6176 21.9811 3.26898C21.9815 3.30546 21.9818 3.34195 21.9822 3.37954C21.9832 3.49982 21.984 3.62011 21.9846 3.7404C21.9849 3.80213 21.9849 3.80213 21.9853 3.86512C21.9864 4.08274 21.9872 4.30036 21.9879 4.51799C21.9884 4.69805 21.9896 4.87809 21.9914 5.05815C21.9935 5.27577 21.9946 5.49338 21.9949 5.71101C21.9951 5.79388 21.9958 5.87675 21.9968 5.95961C21.9982 6.07548 21.9982 6.19128 21.9979 6.30715C21.9986 6.34132 21.9993 6.37549 22 6.4107C21.9982 6.57091 21.9831 6.66058 21.887 6.79054C21.7218 6.91681 21.5913 6.91761 21.3918 6.9131C21.3372 6.91314 21.3372 6.91314 21.2814 6.91319C21.1615 6.91304 21.0416 6.91138 20.9217 6.9097C20.8384 6.9093 20.755 6.90899 20.6717 6.90878C20.4527 6.90796 20.2338 6.90585 20.0148 6.90348C19.7912 6.90129 19.5676 6.90031 19.3441 6.89923C18.9056 6.89693 18.4671 6.89327 18.0287 6.88876C18.0288 6.91254 18.0288 6.93632 18.0289 6.96082C18.0327 8.37243 18.0357 9.78405 18.0374 11.1957C18.0377 11.3654 18.0379 11.5352 18.0381 11.705C18.0382 11.7388 18.0382 11.7726 18.0382 11.8074C18.039 12.3535 18.0403 12.8996 18.0419 13.4457C18.0435 14.0067 18.0445 14.5677 18.0448 15.1287C18.0451 15.4744 18.0458 15.8201 18.0472 16.1658C18.0482 16.4317 18.0483 16.6975 18.0481 16.9633C18.0481 17.0718 18.0485 17.1803 18.0491 17.2888C18.0549 18.2829 17.9424 19.1668 17.2288 19.9153C16.2099 20.9325 15.0262 20.8712 13.6873 20.8717C13.57 20.8719 13.4528 20.8721 13.3355 20.8724C13.0188 20.8729 12.702 20.8732 12.3853 20.8734C12.1871 20.8735 11.9889 20.8737 11.7907 20.8739C11.2405 20.8744 10.6902 20.8749 10.14 20.875C10.105 20.875 10.0699 20.875 10.0337 20.875C9.99857 20.875 9.96341 20.8751 9.92718 20.8751C9.85595 20.8751 9.78472 20.8751 9.71349 20.8751C9.6605 20.8751 9.6605 20.8751 9.60643 20.8751C9.03362 20.8753 8.46082 20.8761 7.88802 20.8771C7.29813 20.8781 6.70824 20.8786 6.11834 20.8787C5.78785 20.8787 5.45737 20.8789 5.12688 20.8797C4.84563 20.8804 4.56438 20.8806 4.28312 20.8803C4.13994 20.8801 3.99677 20.8802 3.85359 20.8807C2.70084 20.8848 1.73059 20.7645 0.852188 19.9404C0.257557 19.323 0.00198266 18.5682 0.0041389 17.7232C0.00391418 17.671 0.00368945 17.6188 0.00345791 17.5651C0.00318451 17.4559 0.00323758 17.3466 0.0036051 17.2374C0.00397308 17.07 0.0027292 16.9026 0.00137571 16.7351C0.00130667 16.6286 0.00133123 16.5221 0.00145944 16.4156C0.000977826 16.3656 0.00049621 16.3155 0 16.264C0.000402174 16.2176 0.000804348 16.1712 0.00121871 16.1234C0.00122583 16.0827 0.00123296 16.042 0.0012403 16C0.0291953 15.8591 0.0833872 15.8089 0.194213 15.7203C0.336944 15.6727 0.442879 15.6722 0.593233 15.6725C0.649013 15.6725 0.704794 15.6725 0.762265 15.6725C0.823165 15.6727 0.884064 15.673 0.944964 15.6732C1.00726 15.6733 1.06955 15.6733 1.13184 15.6734C1.29571 15.6735 1.45957 15.674 1.62344 15.6744C1.8201 15.675 2.01676 15.6752 2.21342 15.6754C2.5121 15.6758 2.81078 15.6766 3.10946 15.6774C3.10934 15.6174 3.10934 15.6174 3.10921 15.5561C3.10666 14.1685 3.11527 12.781 3.12521 11.3934C3.12563 11.3345 3.12605 11.2755 3.12647 11.2165C3.13042 10.6641 3.13442 10.1117 3.13856 9.55935C3.1395 9.4333 3.14045 9.30726 3.14139 9.18122C3.14162 9.14991 3.14186 9.1186 3.1421 9.08634C3.1459 8.57545 3.14938 8.06457 3.15273 7.55368C3.15621 7.02517 3.15999 6.49668 3.16407 5.96818C3.16634 5.67299 3.16848 5.3778 3.17026 5.0826C3.17193 4.80617 3.17402 4.52975 3.17639 4.25332C3.17718 4.15226 3.17784 4.0512 3.17835 3.95013C3.18298 3.05687 3.20705 2.30232 3.86474 1.62346C4.47505 1.06417 5.13871 0.958786 5.94375 0.961629ZM4.29646 2.27205C4.08131 2.54099 3.96389 2.85926 3.95847 3.20197C3.95769 3.24527 3.95692 3.28858 3.95611 3.33319C3.95547 3.38049 3.95483 3.42779 3.95417 3.47652C3.95335 3.52655 3.95252 3.57657 3.95167 3.62812C3.94946 3.7659 3.94743 3.90368 3.94551 4.04146C3.94428 4.12896 3.94296 4.21645 3.94163 4.30395C3.92201 5.59235 3.91079 6.88081 3.90184 8.16932C3.90038 8.37732 3.89879 8.58532 3.89711 8.79332C3.87867 11.088 3.87907 13.3826 3.88115 15.6774C3.92492 15.6775 3.96869 15.6777 4.01379 15.6778C5.07823 15.6813 6.14267 15.6852 7.20711 15.6897C7.72186 15.6919 8.23661 15.6939 8.75137 15.6955C9.19996 15.6969 9.64856 15.6986 10.0971 15.7007C10.3347 15.7017 10.5723 15.7027 10.8099 15.7033C11.0335 15.7038 11.257 15.7047 11.4805 15.706C11.5627 15.7064 11.6448 15.7066 11.7269 15.7067C11.8389 15.7069 11.9509 15.7075 12.0629 15.7083C12.0955 15.7082 12.128 15.7082 12.1616 15.7081C12.3348 15.7099 12.4727 15.7244 12.6269 15.806C12.7152 15.93 12.7235 16.0365 12.7243 16.1862C12.7249 16.2483 12.7249 16.2483 12.7256 16.3116C12.7257 16.3562 12.7258 16.4007 12.7259 16.4466C12.727 16.5415 12.728 16.6365 12.7291 16.7315C12.7304 16.8807 12.7314 17.0299 12.7322 17.1791C12.7331 17.3234 12.7348 17.4678 12.7366 17.6121C12.7366 17.678 12.7366 17.678 12.7366 17.7452C12.7453 18.391 12.9746 18.972 13.424 19.4393C13.9192 19.9024 14.4974 20.1092 15.1694 20.1022C15.7715 20.0678 16.2884 19.8013 16.6997 19.3643C17.2123 18.7432 17.3134 18.1069 17.3107 17.3215C17.3108 17.2595 17.3109 17.1976 17.311 17.1356C17.3114 16.9667 17.3112 16.7978 17.3109 16.6288C17.3107 16.4461 17.311 16.2634 17.3113 16.0807C17.3117 15.7645 17.3117 15.4483 17.3116 15.132C17.3115 14.6743 17.312 14.2165 17.3127 13.7588C17.3138 13.0152 17.3147 12.2717 17.3152 11.5282C17.3153 11.4838 17.3153 11.4393 17.3153 11.3935C17.3158 10.7626 17.3161 10.1316 17.3162 9.50066C17.3162 9.45621 17.3162 9.41176 17.3162 9.36596C17.3162 9.32157 17.3162 9.27718 17.3162 9.23144C17.3164 8.49059 17.3172 7.74975 17.3186 7.00891C17.3194 6.55243 17.3196 6.09595 17.3192 5.63946C17.3189 5.32663 17.3193 5.0138 17.3201 4.70097C17.3205 4.52065 17.3207 4.34034 17.3201 4.16002C17.3196 3.99468 17.3199 3.82936 17.3208 3.66403C17.3211 3.57646 17.3205 3.4889 17.3199 3.40133C17.3236 2.95327 17.4202 2.56549 17.6455 2.17559C17.6768 2.12063 17.6768 2.12063 17.7087 2.06456C17.7721 1.95753 17.836 1.85085 17.9001 1.7442C16.2962 1.74126 14.6924 1.73899 13.0885 1.73763C12.8991 1.73747 12.7096 1.73731 12.5202 1.73714C12.4637 1.73709 12.4637 1.73709 12.406 1.73703C11.7956 1.73647 11.1853 1.73546 10.575 1.73428C9.94864 1.73307 9.32224 1.73236 8.69584 1.7321C8.30943 1.73192 7.92302 1.73137 7.53662 1.73032C7.27151 1.72964 7.00641 1.72944 6.74131 1.7296C6.58844 1.72969 6.43558 1.72956 6.28271 1.72887C6.11671 1.72812 5.95072 1.72838 5.78472 1.72873C5.73676 1.72836 5.6888 1.72799 5.63938 1.7276C5.10873 1.73063 4.66347 1.87562 4.29646 2.27205ZM18.4889 2.22701C18.1538 2.62233 18.0229 3.02652 18.0238 3.54151C18.0238 3.57044 18.0238 3.59937 18.0238 3.62917C18.0238 3.72196 18.0242 3.81474 18.0245 3.90753C18.0246 3.96515 18.0246 4.02278 18.0246 4.08041C18.0249 4.29307 18.0255 4.50574 18.026 4.7184C18.0269 5.19411 18.0278 5.66982 18.0287 6.15995C19.0898 6.15995 20.1508 6.15995 21.244 6.15995C21.2476 5.67628 21.2511 5.19261 21.2548 4.69429C21.2563 4.54269 21.2579 4.39109 21.2595 4.23489C21.2601 4.09663 21.2601 4.09663 21.2604 3.95837C21.2607 3.89773 21.2613 3.83709 21.2621 3.77645C21.2707 3.15375 21.1783 2.63887 20.7376 2.17727C20.4119 1.86595 20.0055 1.72862 19.5597 1.73516C19.1574 1.76646 18.7743 1.9421 18.4889 2.22701ZM0.75154 16.4491C0.690336 18.1086 0.690336 18.1086 1.42894 19.4457C1.92324 19.9181 2.48831 20.1078 3.16064 20.1034C3.20298 20.1035 3.24533 20.1036 3.28896 20.1037C3.42995 20.1038 3.57094 20.1033 3.71193 20.1029C3.81336 20.1028 3.91479 20.1029 4.01621 20.1029C4.29095 20.1029 4.56568 20.1024 4.84042 20.1018C5.09863 20.1013 5.35684 20.1013 5.61506 20.1012C6.12628 20.101 6.6375 20.1004 7.14872 20.0996C7.64513 20.0988 8.14154 20.0982 8.63795 20.0978C8.66858 20.0978 8.69922 20.0978 8.73078 20.0978C8.88446 20.0977 9.03814 20.0976 9.19182 20.0974C10.4655 20.0966 11.7391 20.095 13.0127 20.0931C12.995 20.0724 12.9773 20.0517 12.959 20.0304C12.9357 20.0033 12.9125 19.9762 12.8886 19.9483C12.8655 19.9214 12.8425 19.8945 12.8187 19.8668C11.9427 18.844 12.0224 17.7984 11.9838 16.4491C8.27718 16.4491 4.57052 16.4491 0.75154 16.4491Z" fill="white"/>
<path d="M10.766 3.47596C10.813 3.49888 10.8599 3.5218 10.9083 3.54541C10.9596 3.57109 11.0108 3.59678 11.0621 3.6225C11.1157 3.64898 11.1694 3.67543 11.2231 3.70184C11.3406 3.75977 11.4578 3.81806 11.575 3.87658C11.7486 3.96324 11.9226 4.04906 12.0966 4.13474C12.2457 4.20819 12.3947 4.28191 12.5436 4.35572C12.6169 4.39201 12.6902 4.42824 12.7635 4.46441C12.8669 4.51548 12.9702 4.5669 13.0734 4.61842C13.1044 4.63367 13.1354 4.64892 13.1674 4.66463C13.4945 4.82892 13.4945 4.82892 13.5563 4.99479C13.5734 5.11044 13.5759 5.22189 13.5763 5.33885C13.5766 5.38939 13.5768 5.43994 13.5771 5.49201C13.5772 5.57387 13.5772 5.57387 13.5773 5.65738C13.5774 5.71386 13.5776 5.77034 13.5777 5.82853C13.578 5.94829 13.578 6.06804 13.578 6.18779C13.578 6.3397 13.5786 6.4916 13.5793 6.6435C13.5798 6.76154 13.5799 6.87958 13.5799 6.99762C13.5799 7.08036 13.5804 7.1631 13.5809 7.24584C13.5789 8.01398 13.4237 8.66076 12.9699 9.28955C12.9485 9.31939 12.9271 9.34924 12.9051 9.37998C12.6995 9.63893 12.4301 9.81618 12.1594 10.0002C12.0633 10.0655 11.9677 10.1314 11.8721 10.1974C11.5457 10.4223 11.2175 10.6448 10.8879 10.8651C10.8611 10.883 10.8343 10.9009 10.8067 10.9194C10.6103 11.0501 10.5085 11.1076 10.269 11.0901C10.1693 11.0441 10.1693 11.0441 10.068 10.9749C10.0273 10.9476 9.98667 10.9202 9.94476 10.892C9.89564 10.858 9.84651 10.824 9.79739 10.79C9.7349 10.7475 9.67238 10.705 9.60983 10.6626C9.47011 10.5676 9.33077 10.4721 9.19166 10.3762C9.05877 10.2847 8.92543 10.1939 8.79142 10.1039C8.08485 9.62868 7.53944 9.11164 7.31085 8.26064C7.23431 7.86711 7.21243 7.48453 7.21372 7.08436C7.21366 7.02703 7.21358 6.96971 7.21347 6.91239C7.21335 6.7935 7.21353 6.67462 7.21393 6.55573C7.21442 6.40375 7.21413 6.25179 7.21362 6.09981C7.21324 5.95373 7.21351 5.80765 7.21372 5.66156C7.21355 5.60721 7.21337 5.55287 7.2132 5.49687C7.21347 5.44633 7.21374 5.39579 7.21401 5.34371C7.21408 5.29941 7.21415 5.25511 7.21422 5.20947C7.23064 5.02653 7.27196 4.91085 7.40538 4.78377C7.5372 4.69417 7.66944 4.62509 7.81342 4.55662C7.85523 4.53657 7.85523 4.53657 7.89789 4.5161C7.95774 4.48743 8.01764 4.45887 8.0776 4.43043C8.23643 4.35508 8.39483 4.27888 8.55328 4.20277C8.60158 4.1796 8.60158 4.1796 8.65086 4.15598C9.02762 3.97496 9.4009 3.78707 9.77396 3.59857C9.82048 3.57513 9.86701 3.55169 9.91495 3.52754C9.97587 3.49671 9.97587 3.49671 10.038 3.46525C10.3046 3.33742 10.503 3.34594 10.766 3.47596ZM10.0799 4.29412C10.0104 4.32888 10.0104 4.32888 9.93945 4.36434C9.8897 4.38966 9.83994 4.41498 9.78868 4.44107C9.73704 4.46705 9.68538 4.493 9.6337 4.51893C9.49795 4.58713 9.36241 4.65574 9.2269 4.72445C9.08851 4.79452 8.94992 4.8642 8.81135 4.93392C8.53964 5.0707 8.26815 5.2079 7.99679 5.34539C7.99279 5.66629 7.98976 5.98719 7.98791 6.30811C7.98702 6.45719 7.98582 6.60624 7.98386 6.75531C7.98161 6.92729 7.9808 7.09925 7.98005 7.27125C7.97916 7.32392 7.97828 7.37659 7.97736 7.43086C7.97721 8.04583 8.19188 8.56986 8.59699 9.03232C8.67866 9.0978 8.76298 9.16004 8.84886 9.21988C8.88653 9.24629 8.88653 9.24629 8.92495 9.27323C9.22151 9.48016 9.52099 9.68299 9.82031 9.88588C9.87876 9.92551 9.87876 9.92551 9.9384 9.96595C9.97319 9.98949 10.008 10.013 10.0438 10.0373C10.1404 10.1041 10.1404 10.1041 10.2253 10.1797C10.3098 10.2426 10.3098 10.2426 10.4162 10.2281C10.5424 10.1842 10.6343 10.1267 10.7432 10.0492C10.8047 10.0059 10.8047 10.0059 10.8674 9.96173C10.932 9.91549 10.932 9.91549 10.9978 9.86831C11.0865 9.8055 11.1753 9.7427 11.2641 9.67991C11.3068 9.64954 11.3495 9.61917 11.3935 9.58787C11.4928 9.51763 11.5927 9.4484 11.6934 9.38015C11.7187 9.36302 11.744 9.34589 11.77 9.32823C11.8337 9.28517 11.8976 9.24222 11.9614 9.19929C12.3928 8.87537 12.6907 8.40502 12.7984 7.8748C12.8021 7.79098 12.8034 7.70704 12.8033 7.62314C12.8032 7.57251 12.8032 7.52188 12.8032 7.46972C12.803 7.41528 12.8028 7.36083 12.8026 7.30474C12.8025 7.24884 12.8024 7.19294 12.8024 7.13535C12.8022 6.98706 12.8018 6.83877 12.8013 6.69048C12.8009 6.53904 12.8007 6.38759 12.8005 6.23614C12.8 5.93922 12.7993 5.6423 12.7984 5.34539C12.4997 5.19406 12.2008 5.0431 11.9017 4.89262C11.7629 4.82273 11.624 4.75272 11.4854 4.68241C11.3515 4.61456 11.2175 4.54705 11.0834 4.47977C11.0074 4.44153 10.9316 4.40294 10.8557 4.36434C10.8094 4.34117 10.7631 4.318 10.7153 4.29412C10.6746 4.27355 10.6338 4.25299 10.5918 4.23181C10.3886 4.14948 10.2649 4.20075 10.0799 4.29412Z" fill="white"/>
<path d="M6.59024 11.9792C6.62543 11.979 6.66063 11.9789 6.69688 11.9787C6.8147 11.9783 6.93252 11.9784 7.05034 11.9786C7.13485 11.9784 7.21936 11.9782 7.30387 11.978C7.53337 11.9774 7.76287 11.9774 7.99237 11.9775C8.18394 11.9775 8.3755 11.9773 8.56706 11.9771C9.01895 11.9766 9.47085 11.9766 9.92274 11.9769C10.389 11.9771 10.8553 11.9766 11.3216 11.9757C11.7219 11.9749 12.1221 11.9747 12.5224 11.9748C12.7615 11.9749 13.0006 11.9748 13.2397 11.9742C13.4645 11.9736 13.6893 11.9737 13.9141 11.9743C13.9967 11.9744 14.0792 11.9743 14.1617 11.9739C14.2743 11.9735 14.3869 11.9738 14.4996 11.9743C14.5322 11.974 14.5648 11.9737 14.5985 11.9734C14.8017 11.9755 14.9405 12.0123 15.1134 12.119C15.2059 12.2316 15.1991 12.2928 15.1965 12.4405C15.1469 12.6255 15.1037 12.6631 14.9419 12.7621C14.8171 12.7786 14.7086 12.7853 14.584 12.7838C14.548 12.7841 14.5121 12.7844 14.4751 12.7847C14.3548 12.7853 14.2345 12.7848 14.1142 12.7843C14.028 12.7845 13.9417 12.7848 13.8554 12.7852C13.6211 12.786 13.3869 12.7857 13.1526 12.7851C12.9075 12.7847 12.6624 12.7851 12.4174 12.7853C12.0058 12.7857 11.5942 12.7852 11.1826 12.7844C10.7067 12.7835 10.2307 12.7838 9.75473 12.7847C9.34622 12.7855 8.93771 12.7856 8.5292 12.7852C8.28514 12.7849 8.0411 12.7849 7.79705 12.7854C7.56761 12.7859 7.33819 12.7856 7.10876 12.7846C7.02451 12.7844 6.94026 12.7844 6.85601 12.7848C6.74109 12.7853 6.62622 12.7847 6.5113 12.7838C6.46116 12.7844 6.46116 12.7844 6.41001 12.785C6.25262 12.7827 6.16108 12.7669 6.02644 12.6827C5.9133 12.5636 5.89609 12.497 5.89609 12.3334C5.94633 12.1882 5.97799 12.1018 6.11495 12.0266C6.27435 11.9801 6.42573 11.9784 6.59024 11.9792Z" fill="white"/>
<path d="M6.35298 13.6506C6.38715 13.6507 6.42131 13.6508 6.45651 13.651C6.51079 13.6507 6.51079 13.6507 6.56618 13.6504C6.68815 13.6498 6.81012 13.6499 6.9321 13.65C7.01926 13.6497 7.10643 13.6494 7.19359 13.6491C7.43089 13.6483 7.66819 13.6481 7.90548 13.6481C8.10333 13.648 8.30118 13.6477 8.49903 13.6474C8.9657 13.6467 9.43236 13.6465 9.89903 13.6465C10.381 13.6466 10.8629 13.6457 11.3448 13.6443C11.7581 13.6432 12.1714 13.6428 12.5847 13.6428C12.8317 13.6428 13.0788 13.6426 13.3258 13.6417C13.5581 13.6408 13.7904 13.6408 14.0227 13.6415C14.1081 13.6416 14.1935 13.6413 14.2789 13.6408C14.3952 13.6402 14.5115 13.6406 14.6279 13.6412C14.6618 13.6408 14.6958 13.6403 14.7308 13.6399C14.8809 13.6418 14.968 13.65 15.0904 13.7403C15.1837 13.8728 15.1963 13.973 15.1992 14.134C15.1415 14.2604 15.1098 14.3288 14.9848 14.3912C14.8691 14.3957 14.7545 14.3976 14.6387 14.3976C14.6026 14.3977 14.5664 14.3979 14.5291 14.398C14.4071 14.3985 14.2851 14.3987 14.1632 14.3988C14.076 14.3991 13.9888 14.3994 13.9017 14.3997C13.6644 14.4004 13.4271 14.4009 13.1898 14.4012C13.0416 14.4015 12.8935 14.4017 12.7454 14.402C12.2823 14.4028 11.8192 14.4034 11.3562 14.4038C10.8209 14.4042 10.2857 14.4053 9.75042 14.407C9.33714 14.4083 8.92387 14.409 8.51059 14.4091C8.26354 14.4092 8.0165 14.4096 7.76945 14.4107C7.53714 14.4117 7.30483 14.4119 7.07252 14.4114C6.98714 14.4114 6.90176 14.4117 6.81639 14.4123C6.70004 14.413 6.58374 14.4127 6.46739 14.4122C6.43342 14.4126 6.39945 14.4131 6.36445 14.4136C6.21345 14.4118 6.12737 14.4039 6.0049 14.3121C5.91876 14.1915 5.89911 14.1106 5.89609 13.9625C6.0091 13.7257 6.08923 13.6529 6.35298 13.6506Z" fill="white"/>
<path d="M11.6409 6.16003C11.7693 6.24567 11.8038 6.30738 11.8552 6.45209C11.8552 6.73442 11.6541 6.9332 11.465 7.12327C11.4233 7.16415 11.4233 7.16415 11.3808 7.20585C11.3518 7.23472 11.3229 7.26359 11.2931 7.29334C11.2322 7.35391 11.1712 7.41432 11.1101 7.47458C11.0164 7.5669 10.9232 7.65968 10.8301 7.75255C10.7707 7.81149 10.7114 7.87041 10.652 7.92931C10.6241 7.95699 10.5962 7.98468 10.5675 8.0132C10.5415 8.03884 10.5154 8.06447 10.4886 8.09088C10.4658 8.11339 10.443 8.13591 10.4195 8.1591C10.2819 8.28389 10.1694 8.33553 9.98195 8.33072C9.76128 8.27013 9.61023 8.07644 9.45443 7.91775C9.41862 7.88393 9.38281 7.85011 9.34591 7.81526C8.99922 7.48433 8.99922 7.48433 8.93997 7.27468C8.96435 7.11486 8.99138 7.014 9.09806 6.89152C9.25363 6.82004 9.32595 6.8128 9.4973 6.84597C9.61545 6.93663 9.72034 7.03417 9.82604 7.13903C9.91658 7.22305 9.98741 7.26621 10.0975 7.31755C10.1293 7.28553 10.1611 7.25352 10.1938 7.22053C10.3119 7.10169 10.4301 6.983 10.5483 6.86435C10.5995 6.81299 10.6506 6.76159 10.7017 6.71015C10.7751 6.6362 10.8487 6.56238 10.9223 6.48859C10.945 6.46559 10.9678 6.44259 10.9913 6.41889C11.1972 6.21294 11.3426 6.11192 11.6409 6.16003Z" fill="white"/>
</svg>
