<svg width="14" height="20" viewBox="0 0 14 20" fill="none" xmlns="http://www.w3.org/2000/svg">
<path d="M5.13855 15.9185H9.22018V20.0001H5.13855V15.9185Z" fill="white"/>
<path fill-rule="evenodd" clip-rule="evenodd" d="M7.17942 3.26531C5.2284 3.26531 3.91411 5.03837 3.91411 6.53061H0.648804C0.648804 3.58857 3.09125 0 7.17942 0C11.2545 0 13.71 3.49714 13.71 6.53061C13.71 9.10694 11.901 10.4131 10.781 11.2212L10.5917 11.3584C9.35901 12.2596 8.81207 12.7722 8.81207 13.8776H5.54676C5.54676 11.0008 7.44227 9.61633 8.66023 8.72653L8.66513 8.72327C10.0235 7.72898 10.4447 7.35184 10.4447 6.53061C10.4447 4.97959 9.14513 3.26531 7.17942 3.26531Z" fill="white"/>
</svg>
