<svg width="22" height="23" viewBox="0 0 22 23" fill="none" xmlns="http://www.w3.org/2000/svg">
<path d="M9.58817 7.48112C10.9766 7.44589 12.2135 7.90939 13.2688 8.80844C13.5183 9.05885 13.6462 9.23041 13.6547 9.5867C13.6517 9.86515 13.6251 10.0246 13.4271 10.2331C13.2045 10.4161 13.0302 10.492 12.7412 10.4969C12.3843 10.4405 12.177 10.271 11.9199 10.0286C11.2977 9.48529 10.4781 9.25963 9.66464 9.26889C8.11561 9.38363 7.20952 10.4795 6.17772 11.5076C6.12645 11.5587 6.07517 11.6097 6.02389 11.6608C5.78319 11.9005 5.54262 12.1403 5.3022 12.3803C5.02675 12.6552 4.75086 12.9297 4.4746 13.2039C4.25944 13.4174 4.04469 13.6314 3.83023 13.8457C3.70282 13.973 3.57525 14.1001 3.44724 14.2267C3.3046 14.3681 3.16264 14.5101 3.02083 14.6523C2.97924 14.6932 2.93765 14.7341 2.8948 14.7763C2.18077 15.497 1.79662 16.3792 1.79973 17.3924C1.82525 18.2801 2.16991 19.0664 2.78665 19.7074C3.48059 20.3423 4.36278 20.6176 5.28982 20.5909C6.06477 20.5478 6.77304 20.2579 7.34299 19.7282C7.3702 19.7029 7.3974 19.6776 7.42544 19.6516C7.687 19.4068 7.93999 19.1538 8.19083 18.8981C8.26991 18.8176 8.34925 18.7373 8.42866 18.6571C8.6539 18.4296 8.87896 18.202 9.10319 17.9736C9.24167 17.8325 9.38067 17.692 9.52002 17.5518C9.57249 17.4988 9.62476 17.4456 9.67683 17.3923C10.2436 16.8115 10.2436 16.8115 10.7065 16.7526C11.012 16.7901 11.2329 16.8988 11.4452 17.122C11.5563 17.2953 11.5894 17.4342 11.5936 17.6364C11.5956 17.6949 11.5956 17.6949 11.5977 17.7545C11.555 18.0732 11.3557 18.2902 11.1358 18.5088C11.1072 18.5378 11.0786 18.5669 11.0491 18.5968C10.9548 18.6923 10.86 18.7872 10.765 18.8821C10.6985 18.949 10.632 19.0159 10.5656 19.0828C10.426 19.223 10.2862 19.363 10.1462 19.5027C9.96859 19.68 9.792 19.8581 9.61567 20.0366C9.47841 20.1753 9.34055 20.3133 9.20251 20.4511C9.13727 20.5164 9.07223 20.582 9.00743 20.6477C8.46683 21.1954 7.86673 21.7123 7.13839 21.9927C7.08348 22.0143 7.08348 22.0143 7.02746 22.0364C5.65343 22.5504 4.14759 22.4964 2.81324 21.8892C2.2955 21.6389 1.85825 21.2929 1.44984 20.8912C1.38965 20.8321 1.38965 20.8321 1.32824 20.7717C0.407793 19.8098 -0.0153235 18.4892 0.000423424 17.1719C0.062186 15.4831 0.842406 14.3173 2.00576 13.1502C2.05362 13.102 2.10148 13.0538 2.15079 13.0041C2.30746 12.8463 2.4644 12.6888 2.62135 12.5313C2.67591 12.4766 2.73046 12.4218 2.78502 12.367C3.04133 12.1097 3.29778 11.8525 3.55437 11.5955C3.84848 11.3009 4.14215 11.0058 4.43545 10.7104C4.66371 10.4805 4.89239 10.2511 5.12136 10.0219C5.25744 9.8857 5.39335 9.74934 5.52881 9.61253C6.8012 8.32819 6.8012 8.32819 7.63964 7.94774C7.67684 7.93056 7.71405 7.91339 7.75238 7.89569C8.33676 7.63632 8.95176 7.51179 9.58817 7.48112Z" fill="white"/>
<path d="M20.0225 1.42168C20.2069 1.57221 20.3805 1.72969 20.5501 1.89655C20.5903 1.936 20.6304 1.97545 20.6718 2.01609C21.5922 2.97794 22.0153 4.29861 21.9996 5.61592C21.9378 7.30465 21.1576 8.47052 19.9942 9.63762C19.9464 9.68582 19.8985 9.73403 19.8492 9.78369C19.6925 9.94146 19.5356 10.099 19.3786 10.2564C19.3241 10.3112 19.2695 10.366 19.215 10.4208C18.9587 10.6781 18.7022 10.9353 18.4456 11.1923C18.1515 11.4869 17.8578 11.782 17.5645 12.0774C17.3363 12.3073 17.1076 12.5367 16.8786 12.7659C16.7425 12.9021 16.6066 13.0384 16.4712 13.1753C15.1988 14.4596 15.1988 14.4596 14.3604 14.84C14.3231 14.8572 14.2859 14.8744 14.2476 14.8921C13.7279 15.1227 13.1525 15.2759 12.5829 15.2984C12.4982 15.3025 12.4982 15.3025 12.4118 15.3067C11.0234 15.3419 9.78646 14.8784 8.73117 13.9793C8.48168 13.7289 8.35376 13.5574 8.34534 13.2011C8.34833 12.9226 8.37485 12.7632 8.57288 12.5547C8.7955 12.3717 8.96975 12.2958 9.2588 12.2909C9.61574 12.3472 9.823 12.5168 10.0801 12.7592C10.7023 13.3025 11.5219 13.5282 12.3354 13.5189C13.8844 13.4042 14.7905 12.3083 15.8223 11.2802C15.8735 11.2291 15.9248 11.178 15.9761 11.127C16.2168 10.8873 16.4574 10.6475 16.6978 10.4075C16.9732 10.1326 17.2491 9.85806 17.5254 9.58393C17.7406 9.37037 17.9553 9.15639 18.1698 8.94211C18.2972 8.81483 18.4247 8.68772 18.5528 8.56104C18.6954 8.41969 18.8373 8.27768 18.9792 8.1355C19.0208 8.09459 19.0623 8.05368 19.1052 8.01152C19.8192 7.2908 20.2034 6.40861 20.2003 5.3954C20.1747 4.50767 19.8301 3.72139 19.2133 3.08043C18.502 2.42956 17.6225 2.17296 16.6793 2.19685C15.9157 2.23489 15.2148 2.54056 14.6568 3.05961C14.616 3.09753 14.616 3.09753 14.5744 3.13622C14.3129 3.38099 14.06 3.63407 13.8092 3.88971C13.7301 3.97023 13.6507 4.05049 13.5713 4.13068C13.3461 4.35814 13.121 4.58577 12.8968 4.81422C12.7583 4.95527 12.6193 5.0958 12.48 5.236C12.4275 5.28898 12.3752 5.34216 12.3232 5.39554C11.7564 5.97625 11.7564 5.97625 11.2935 6.03517C10.988 5.99765 10.7671 5.88896 10.5548 5.66583C10.4437 5.49251 10.4106 5.3536 10.4064 5.15138C10.405 5.11241 10.4037 5.07344 10.4023 5.03329C10.445 4.7146 10.6443 4.49762 10.8642 4.27899C10.8928 4.24994 10.9214 4.22089 10.9509 4.19096C11.0452 4.09545 11.14 4.00054 11.235 3.90568C11.3015 3.8388 11.3679 3.7719 11.4344 3.70499C11.574 3.56475 11.7138 3.42482 11.8538 3.28509C12.0314 3.10783 12.208 2.92964 12.3843 2.75117C12.5216 2.61254 12.6594 2.47453 12.7975 2.33668C12.8627 2.27136 12.9278 2.20582 12.9926 2.14007C13.5332 1.59241 14.1333 1.07547 14.8616 0.795115C14.8982 0.780691 14.9348 0.766268 14.9725 0.751407C16.6385 0.128122 18.5994 0.319348 20.0225 1.42168Z" fill="white"/>
</svg>
